<svg width="93" height="93" viewBox="0 0 93 93" fill="none" xmlns="http://www.w3.org/2000/svg">
<path d="M87.1945 37.0732L85.4895 36.6082C85.0386 36.4814 84.7005 36.1291 84.5595 35.65C83.7282 32.7191 82.5586 29.9009 81.0791 27.2519C80.8395 26.815 80.8255 26.3219 81.065 25.9132L81.9245 24.3773C82.7982 22.8273 82.5305 20.8828 81.2764 19.6287L73.3573 11.7096C72.1032 10.4555 70.1445 10.1878 68.6086 11.0614L67.0727 11.935C66.6641 12.1605 66.1709 12.1605 65.7341 11.9069C63.085 10.4273 60.2668 9.25776 57.3359 8.4264C56.8568 8.28549 56.5045 7.94731 56.3777 7.4964L55.8986 5.7914C55.4195 4.0864 53.8555 2.88867 52.08 2.88867H40.8777C39.1023 2.88867 37.5241 4.0864 37.0591 5.7914L36.58 7.4964C36.4532 7.94731 36.1009 8.28549 35.6218 8.4264C32.6909 9.25776 29.8727 10.4273 27.2236 11.9069C26.7868 12.1464 26.2936 12.1605 25.885 11.935L24.3773 11.0614C22.8273 10.1878 20.8827 10.4555 19.6286 11.7096L11.7095 19.6287C10.4555 20.8828 10.1877 22.8414 11.0614 24.3773L11.935 25.9132C12.1605 26.3219 12.1605 26.815 11.9209 27.2519C10.4414 29.9009 9.27182 32.7332 8.44045 35.65C8.29954 36.1291 7.96136 36.4814 7.51045 36.6082L5.80545 37.0873C4.10045 37.5664 2.90273 39.1305 2.90273 40.9059V52.1082C2.90273 53.8837 4.10045 55.4478 5.80545 55.9269L7.51045 56.4059C7.96136 56.5328 8.29954 56.885 8.44045 57.3641C9.27182 60.295 10.4414 63.1132 11.9209 65.7623C12.1605 66.1991 12.1745 66.6923 11.935 67.1009L11.0755 68.6368C10.2018 70.1869 10.4695 72.1314 11.7236 73.3996L19.6427 81.3187C20.8968 82.5728 22.8555 82.8405 24.3914 81.9669L25.9273 81.0932C26.3359 80.8678 26.8291 80.8819 27.2659 81.1214C29.915 82.6009 32.7332 83.7705 35.6641 84.6019C36.1432 84.7428 36.4955 85.0809 36.6223 85.5319L37.1014 87.2369C37.5805 88.9419 39.1445 90.1396 40.92 90.1396H52.1223C53.8977 90.1396 55.4618 88.9419 55.9409 87.2369L56.42 85.5319C56.5468 85.0809 56.8991 84.7428 57.3782 84.6019C60.3091 83.7705 63.1273 82.6009 65.7764 81.1214C66.2132 80.8819 66.7064 80.8678 67.115 81.0932L68.6509 81.9669C70.2009 82.8405 72.1455 82.5728 73.3995 81.3187L81.3186 73.3996C82.5727 72.1455 82.8405 70.1869 81.9668 68.6509L81.1073 67.115C80.8818 66.7064 80.8818 66.2132 81.1214 65.7764C82.6009 63.1273 83.7705 60.295 84.6018 57.3782C84.7427 56.8991 85.0809 56.5469 85.5318 56.42L87.2368 55.9409C88.9418 55.4619 90.1395 53.8978 90.1395 52.1223V40.92C90.0973 39.1164 88.9136 37.5523 87.1945 37.0732ZM87.4623 52.1082C87.4623 52.7 87.0677 53.2214 86.49 53.3764L84.785 53.8555C83.4464 54.2219 82.4177 55.2646 82.0232 56.6455C81.2482 59.3791 80.1632 62.0141 78.7823 64.48C78.0918 65.72 78.0777 67.1855 78.7682 68.3973L79.6277 69.9332C79.9236 70.4546 79.825 71.1028 79.4164 71.5255L71.4973 79.4446C71.0745 79.8673 70.4264 79.9519 69.905 79.6559L68.3691 78.7823C67.1573 78.0919 65.6918 78.1059 64.4518 78.7964C61.9859 80.1773 59.3509 81.2623 56.6173 82.0373C55.2505 82.4319 54.2077 83.4605 53.8414 84.7991L53.3623 86.5041C53.2073 87.0678 52.6859 87.4764 52.0941 87.4764H40.8918C40.3 87.4764 39.7786 87.0819 39.6236 86.5041L39.1445 84.7991C38.7782 83.4605 37.7355 82.4319 36.3686 82.0373C33.635 81.2623 31 80.1632 28.5341 78.7964C27.9 78.4441 27.2236 78.275 26.5473 78.275C25.885 78.275 25.2086 78.4441 24.6168 78.7823L23.0809 79.6559C22.5595 79.9519 21.9114 79.8532 21.4886 79.4446L13.5695 71.5255C13.1468 71.1028 13.0623 70.4546 13.3582 69.9332L14.2177 68.3973C14.9082 67.1855 14.8941 65.72 14.2036 64.48C12.8227 62.0141 11.7377 59.3791 10.9627 56.6455C10.5682 55.2787 9.53954 54.2359 8.20091 53.8696L6.49591 53.3905C5.93227 53.2355 5.52363 52.7141 5.52363 52.1223V40.92C5.52363 40.3282 5.91818 39.8069 6.49591 39.6519L8.20091 39.1728C9.53954 38.8064 10.5682 37.7637 10.9627 36.3969C11.7377 33.6632 12.8227 31.0282 14.2036 28.5623C14.8941 27.3223 14.9082 25.8569 14.2177 24.645L13.3441 23.1091C13.0482 22.6019 13.1468 21.9396 13.5555 21.5309L21.4745 13.6119C21.8973 13.1891 22.5455 13.1046 23.0668 13.4005L24.6027 14.2741C25.8145 14.9646 27.28 14.9505 28.52 14.26C30.9859 12.8791 33.6209 11.7941 36.3545 11.0191C37.7214 10.6387 38.7641 9.59594 39.1445 8.25731L39.6236 6.55231C39.7786 5.98867 40.3 5.58004 40.8918 5.58004H52.0941C52.6859 5.58004 53.2073 5.97458 53.3623 6.55231L53.8414 8.25731C54.2077 9.59594 55.2505 10.6246 56.6173 11.0191C59.3509 11.7941 61.9859 12.8932 64.4518 14.26C65.6918 14.9505 67.1573 14.9646 68.3691 14.2741L69.905 13.4005C70.4123 13.1046 71.0745 13.2032 71.4973 13.6119L79.4164 21.5309C79.8391 21.9537 79.9236 22.6019 79.6277 23.1091L78.7682 24.645C78.0777 25.8569 78.0918 27.3223 78.7823 28.5623C80.1632 31.0282 81.2482 33.6632 82.0232 36.3969C82.4177 37.7637 83.4464 38.8064 84.785 39.1728L86.49 39.6378C87.0536 39.7928 87.4623 40.3141 87.4623 40.9059V52.1082Z" fill="#322040"/>
<path d="M46.5 16.1904C29.7882 16.1904 16.1905 29.7882 16.1905 46.5C16.1905 63.2118 29.7882 76.8095 46.5 76.8095C63.2118 76.8095 76.8095 63.2118 76.8095 46.5C76.8095 29.7882 63.2118 16.1904 46.5 16.1904ZM46.5 74.1745C31.2396 74.1745 18.8255 61.7604 18.8255 46.5C18.8255 31.2395 31.2396 18.8254 46.5 18.8254C61.7605 18.8254 74.1746 31.2395 74.1746 46.5C74.1746 61.7604 61.7605 74.1745 46.5 74.1745Z" fill="#322040"/>
<path d="M60.0836 41.0892C62.5073 37.7638 62.2255 33.0715 59.2241 30.0842C57.6177 28.4779 55.49 27.5901 53.2073 27.5901C51.3895 27.5901 49.6564 28.1679 48.205 29.2247L43.3859 24.4056C41.7514 22.7711 39.0741 22.7711 37.4396 24.4056C35.805 26.0401 35.805 28.7174 37.4396 30.352L37.7073 30.6197C37.6509 36.1151 35.5091 40.1874 33.3955 44.1329L32.8318 45.232L28.1396 49.9242C26.4486 51.6151 26.4486 54.3488 28.1396 56.0397L33.2968 61.197C34.1141 62.0142 35.1991 62.4651 36.3546 62.4651C37.3691 62.4651 38.3273 62.0988 39.0882 61.4647L46.1759 68.5524C47.0355 69.412 48.1627 69.8347 49.29 69.8347C50.4173 69.8347 51.5445 69.412 52.4041 68.5524C54.1232 66.8333 54.1232 64.0433 52.4041 62.3383L50.0509 59.9851C50.1496 59.9006 50.2482 59.8301 50.3468 59.7456C52.1645 57.9279 52.4745 55.1942 51.3191 53.0383C53.5314 52.2211 55.955 51.6574 58.7309 51.6292L58.9846 51.8829C59.7736 52.672 60.8305 53.1088 61.9577 53.1088C63.085 53.1088 64.1418 52.672 64.9309 51.8829C66.5655 50.2483 66.5655 47.5851 64.9309 45.9365L60.0836 41.0892ZM53.2214 30.2392C54.7855 30.2392 56.2509 30.8451 57.3641 31.9583C59.3227 33.917 59.5905 36.9324 58.1814 39.2011L50.1214 31.1411C51.0514 30.5633 52.1082 30.2392 53.2214 30.2392ZM48.6841 51.2206C48.6559 51.2347 48.6418 51.2347 48.6136 51.2488C46.9509 51.9815 45.415 52.7988 43.9496 53.5738L43.5409 53.7851L35.5232 45.7674L35.7346 45.3588C37.5805 41.8924 39.6377 38.0456 40.2155 33.1138L56.1805 49.0788C53.3764 49.417 50.9245 50.2342 48.6841 51.2206ZM35.1568 59.3229L29.9996 54.1656C29.3514 53.5174 29.3514 52.4465 29.9996 51.7983L33.9027 47.8951L37.665 51.6574L41.4273 55.4197L38.1723 58.6747L37.5241 59.3229C36.8759 59.9711 35.805 59.9711 35.1568 59.3229ZM50.5159 66.6642C49.8395 67.3547 48.7264 67.3547 48.0359 66.6642L40.9764 59.6047L43.4564 57.1247L50.5159 64.1842C51.1923 64.8606 51.1923 65.9738 50.5159 66.6642ZM48.4446 57.8574C48.36 57.942 48.2473 58.0265 48.1486 58.097L45.6968 55.6451C46.7255 55.0956 47.7823 54.5601 48.8532 54.0529C49.6141 55.2224 49.4873 56.8147 48.4446 57.8574ZM63.0427 49.9947C62.4509 50.5865 61.4223 50.5865 60.8305 49.9947L39.3277 28.492C38.7218 27.8861 38.7218 26.8997 39.3277 26.2797C39.6236 25.9838 40.0182 25.8288 40.4268 25.8288C40.8496 25.8288 41.23 25.9979 41.5259 26.2797L47.2045 31.9583L63.0286 47.7824C63.6486 48.3883 63.6486 49.3888 63.0427 49.9947Z" fill="#322040"/>
</svg>
