<svg width="95" height="95" viewBox="0 0 95 95" fill="none" xmlns="http://www.w3.org/2000/svg">
<path d="M92.6399 2.55322H64.1992C63.6055 2.55322 63.1305 3.02822 63.1305 3.62197V6.33838C58.336 4.39385 53.2594 3.41416 48.0344 3.41416C33.6508 3.41416 20.3953 11.0735 13.1516 23.4532C12.8102 23.6759 12.4985 23.9134 12.1571 24.1063C12.0235 23.661 11.6227 23.3345 11.1328 23.3345H2.38987C1.79612 23.3345 1.32112 23.8095 1.32112 24.4032V27.5798C1.32112 27.6095 1.30627 27.6392 1.30627 27.6837V42.6462C1.30627 43.2399 1.81096 43.7149 2.38987 43.7149H7.62971C7.62971 43.8337 7.61487 43.9524 7.61487 44.0712C7.61487 59.5087 16.536 73.6845 30.3703 80.4235V91.3931C30.3703 91.9868 30.8453 92.4618 31.4391 92.4618H64.6149C65.2086 92.4618 65.6836 91.9868 65.6836 91.3931V80.6017C79.7258 73.9368 88.7805 59.6571 88.7805 44.086C88.7805 35.5954 86.1828 27.5649 81.2992 20.722H92.6102C93.2039 20.722 93.6789 20.247 93.6789 19.6532V3.62197C93.7086 3.04307 93.2188 2.55322 92.6399 2.55322ZM3.45862 27.654V25.4571H10.0641V25.8134C10.0789 27.1493 9.75237 30.9048 8.06018 32.3001C7.60002 32.6712 7.54065 33.354 7.92659 33.8142C8.1344 34.0665 8.44612 34.2001 8.74299 34.2001C8.98049 34.2001 9.23284 34.1259 9.42581 33.9478C11.7117 32.0478 12.1274 28.0845 12.1867 26.4665C12.5133 26.3032 12.8399 26.1548 13.1516 25.9767C13.2555 26.0212 13.3742 26.0509 13.493 26.0509C13.9086 26.0509 14.2797 25.7985 14.4578 25.4571C14.5321 25.3087 14.636 25.1751 14.7102 25.0267C15.8383 24.2696 16.8922 23.4087 17.8571 22.4438C18.1836 22.1173 18.6883 22.0728 19 22.3399C19.1782 22.4884 19.2821 22.711 19.2821 22.9337C19.2821 23.1415 19.193 23.3345 19.0446 23.4978L15.6157 26.9267C15.3039 27.2384 15.2149 27.6985 15.3781 28.0993C15.5414 28.5001 15.9274 28.7673 16.3727 28.7673H29.1235C29.5836 28.7673 29.9844 29.0938 30.0141 29.5095C30.0438 29.8063 29.8953 30.0142 29.7766 30.1329C29.6727 30.2368 29.4946 30.3556 29.2274 30.3556H26.9711C26.9711 30.3556 26.9711 30.3556 26.9563 30.3556H20.4844C19.8907 30.3556 19.4157 30.8306 19.4157 31.4243C19.4157 32.0181 19.8907 32.4931 20.4844 32.4931H26.9414H26.9563C27.3867 32.4931 27.743 32.8493 27.743 33.2798C27.743 33.5024 27.6688 33.6954 27.5055 33.8438C27.4164 33.9329 27.2383 34.0814 26.9563 34.0814H26.1992H19.8016C19.2078 34.0814 18.7328 34.5564 18.7328 35.1501C18.7328 35.7439 19.2078 36.2188 19.8016 36.2188H26.1992C26.6297 36.2188 26.986 36.5751 26.986 37.0204C26.986 37.2431 26.9117 37.436 26.7485 37.5845C26.6446 37.6884 26.4664 37.8071 26.1992 37.8071H25.6203C25.6055 37.8071 25.5907 37.7923 25.5758 37.7923H19.1039C18.5102 37.7923 18.0352 38.2673 18.0352 38.861C18.0352 39.4548 18.5102 39.9298 19.1039 39.9298H25.3828C25.3977 39.9298 25.4125 39.9446 25.4274 39.9446C25.8578 39.9446 26.2141 40.3009 26.2141 40.7314C26.2141 40.954 26.1399 41.147 25.9766 41.2954C25.8875 41.3845 25.6946 41.5329 25.4125 41.5329H15.8086C13.8047 41.5329 12.1719 39.9001 12.1719 37.8962C12.1719 37.3024 11.6969 36.8274 11.1032 36.8274C10.5094 36.8274 10.0344 37.3024 10.0344 37.8962V41.5329H9.5594C9.38128 41.3103 9.11409 41.147 8.80237 41.1321C8.46096 41.1024 8.1344 41.2806 7.92659 41.5329H3.45862V27.654ZM63.5461 90.2946H32.5078V73.7735H63.5461V90.2946ZM65.6985 78.1673V72.7048C65.6985 72.111 65.2235 71.636 64.6297 71.636H31.4391C30.8453 71.636 30.3703 72.111 30.3703 72.7048V78.004C17.7977 71.4431 9.75237 58.3212 9.75237 44.0564C9.75237 43.9376 9.76721 43.8189 9.76721 43.7001H11.1328C11.7266 43.7001 12.2016 43.2251 12.2016 42.6314V42.4087C13.1961 43.2103 14.4578 43.7001 15.8383 43.7001H25.4422C26.2141 43.7001 26.9563 43.3884 27.5055 42.854C28.0547 42.3196 28.3813 41.5478 28.3813 40.761C28.3813 40.2415 28.2477 39.7665 28.0102 39.3509C28.0992 39.2767 28.1883 39.2024 28.2625 39.1134C28.8266 38.5642 29.1235 37.822 29.1235 37.0353C29.1235 36.5157 28.9899 36.0407 28.7524 35.6103C28.8414 35.536 28.9305 35.4618 29.0047 35.3876C29.5688 34.8384 29.8805 34.0962 29.8805 33.2946C29.8805 32.9978 29.836 32.7157 29.7617 32.4485C30.3407 32.3446 30.875 32.0626 31.2907 31.6321C31.8992 31.0087 32.1961 30.2071 32.1367 29.3462C32.0328 27.8173 30.6969 26.6149 29.1086 26.6149H18.9407L20.5438 25.0118C21.093 24.4626 21.4047 23.7204 21.4047 22.9337C21.4047 22.0728 21.0336 21.2712 20.3953 20.722C19.7422 20.1431 18.8664 19.9353 18.0352 20.0688C25.2344 10.9993 36.2188 5.55166 48.0196 5.55166C53.2594 5.55166 58.336 6.60557 63.1008 8.66885V19.6384C63.1008 20.2321 63.5758 20.7071 64.1696 20.7071H66.2328L66.2477 27.8321C66.2477 28.2329 66.4703 28.604 66.8414 28.7821C66.9899 28.8563 67.1532 28.9009 67.3164 28.9009C67.5391 28.9009 67.7617 28.8267 67.9547 28.6931L78.6719 20.7517C83.8672 27.4759 86.6282 35.5212 86.6282 44.0712C86.6578 58.4548 78.4641 71.6806 65.6985 78.1673ZM91.5711 18.5548H78.4196C78.1969 18.5548 77.9594 18.629 77.7813 18.7626L68.4149 25.6946L68.4 19.6235C68.4 19.0298 67.925 18.5548 67.3313 18.5548H65.268V4.70557H91.5711V18.5548Z" fill="#322040"/>
<path d="M43.5219 87.7117C43.6852 87.7117 43.8633 87.6672 44.0117 87.593L53.0219 82.9766C53.3781 82.7984 53.6008 82.4273 53.6008 82.0266C53.6008 81.6258 53.3781 81.2547 53.0219 81.0766L44.0117 76.4602C43.6852 76.2969 43.2844 76.3117 42.9578 76.5047C42.6461 76.6977 42.4531 77.0391 42.4531 77.425V86.643C42.4531 87.0141 42.6461 87.3555 42.9578 87.5633C43.1359 87.6672 43.3289 87.7117 43.5219 87.7117ZM44.5906 79.1766L50.1867 82.0414L44.5906 84.9063V79.1766Z" fill="#322040"/>
<path d="M68.4148 9.72271H88.4242C89.0179 9.72271 89.4929 9.2477 89.4929 8.65395C89.4929 8.0602 89.0179 7.58521 88.4242 7.58521H68.4148C67.8211 7.58521 67.3461 8.0602 67.3461 8.65395C67.3461 9.2477 67.8211 9.72271 68.4148 9.72271Z" fill="#322040"/>
<path d="M68.4148 15.3338H79.8C80.3937 15.3338 80.8687 14.8588 80.8687 14.265C80.8687 13.6713 80.3937 13.1963 79.8 13.1963H68.4148C67.8211 13.1963 67.3461 13.6713 67.3461 14.265C67.3461 14.8588 67.8211 15.3338 68.4148 15.3338Z" fill="#322040"/>
<path d="M73.0461 82.2642C71.3984 82.2642 70.0625 83.5853 70.0625 85.2032C70.0625 86.8212 71.3984 88.1423 73.0461 88.1423C74.6789 88.1423 76.0148 86.8212 76.0148 85.2032C76.0148 83.5853 74.6937 82.2642 73.0461 82.2642ZM73.0461 86.7321C72.1703 86.7321 71.4875 86.0642 71.4875 85.2181C71.4875 84.372 72.1703 83.704 73.0461 83.704C73.8922 83.704 74.5898 84.3868 74.5898 85.2181C74.5898 86.0493 73.907 86.7321 73.0461 86.7321Z" fill="#322040"/>
<path d="M85.9602 70.2109H84.0305C83.6297 70.2109 83.318 70.5375 83.318 70.9234C83.318 71.3242 83.6446 71.6359 84.0305 71.6359H85.9602C86.361 71.6359 86.6727 71.3094 86.6727 70.9234C86.6727 70.5375 86.3461 70.2109 85.9602 70.2109Z" fill="#322040"/>
<path d="M87.6672 71.9329C87.2664 71.9329 86.9547 72.2594 86.9547 72.6454V74.5602C86.9547 74.961 87.2813 75.2727 87.6672 75.2727C88.068 75.2727 88.3797 74.9461 88.3797 74.5602V72.6454C88.3797 72.2446 88.0531 71.9329 87.6672 71.9329Z" fill="#322040"/>
<path d="M87.6672 66.5742C87.2664 66.5742 86.9547 66.9008 86.9547 67.2867V69.2164C86.9547 69.6172 87.2813 69.9289 87.6672 69.9289C88.068 69.9289 88.3797 69.6023 88.3797 69.2164V67.2867C88.3797 66.9008 88.0531 66.5742 87.6672 66.5742Z" fill="#322040"/>
<path d="M91.304 70.2109H89.3891C88.9884 70.2109 88.6766 70.5375 88.6766 70.9234C88.6766 71.3242 89.0032 71.6359 89.3891 71.6359H91.304C91.7048 71.6359 92.0165 71.3094 92.0165 70.9234C92.0165 70.5375 91.6899 70.2109 91.304 70.2109Z" fill="#322040"/>
<path d="M8.78755 80.9431H6.59067C6.18989 80.9431 5.87817 81.2697 5.87817 81.6556C5.87817 82.0564 6.20474 82.3681 6.59067 82.3681H8.78755C9.18833 82.3681 9.50005 82.0416 9.50005 81.6556C9.51489 81.2548 9.18833 80.9431 8.78755 80.9431Z" fill="#322040"/>
<path d="M10.7469 82.9023C10.3461 82.9023 10.0344 83.2289 10.0344 83.6148V85.8117C10.0344 86.2125 10.361 86.5242 10.7469 86.5242C11.1477 86.5242 11.4594 86.1977 11.4594 85.8117V83.6148C11.4594 83.2141 11.1329 82.9023 10.7469 82.9023Z" fill="#322040"/>
<path d="M10.7469 76.8018C10.3461 76.8018 10.0344 77.1283 10.0344 77.5143V79.7111C10.0344 80.1119 10.361 80.4236 10.7469 80.4236C11.1477 80.4236 11.4594 80.0971 11.4594 79.7111V77.5143C11.4594 77.1135 11.1329 76.8018 10.7469 76.8018Z" fill="#322040"/>
<path d="M14.8883 80.9431H12.6914C12.2907 80.9431 11.9789 81.2697 11.9789 81.6556C11.9789 82.0564 12.3055 82.3681 12.6914 82.3681H14.8883C15.2891 82.3681 15.6008 82.0416 15.6008 81.6556C15.6008 81.2548 15.2743 80.9431 14.8883 80.9431Z" fill="#322040"/>
<path d="M5.29923 9.36641H7.76329C8.16407 9.36641 8.47579 9.03984 8.47579 8.65391C8.47579 8.26797 8.14923 7.94141 7.76329 7.94141H5.29923C4.89845 7.94141 4.58673 8.26797 4.58673 8.65391C4.58673 9.03984 4.89845 9.36641 5.29923 9.36641Z" fill="#322040"/>
<path d="M9.93052 13.9978C10.3313 13.9978 10.643 13.6712 10.643 13.2853V10.836C10.643 10.4353 10.3165 10.1235 9.93052 10.1235C9.54458 10.1235 9.21802 10.4353 9.21802 10.836V13.2853C9.21802 13.686 9.54458 13.9978 9.93052 13.9978Z" fill="#322040"/>
<path d="M9.93052 7.18447C10.3313 7.18447 10.643 6.85791 10.643 6.47197V4.00791C10.643 3.60713 10.3165 3.29541 9.93052 3.29541C9.54458 3.29541 9.21802 3.62197 9.21802 4.00791V6.47197C9.21802 6.87275 9.54458 7.18447 9.93052 7.18447Z" fill="#322040"/>
<path d="M12.1125 9.36641H14.5617C14.9625 9.36641 15.2742 9.03984 15.2742 8.65391C15.2742 8.25313 14.9477 7.94141 14.5617 7.94141H12.1125C11.7117 7.94141 11.4 8.26797 11.4 8.65391C11.4 9.03984 11.7266 9.36641 12.1125 9.36641Z" fill="#322040"/>
<path d="M68.7266 49.6821C67.9844 47.411 65.8617 45.8821 63.4719 45.8821H54.3727C54.0313 45.5259 53.6602 45.2142 53.2297 44.947V42.1415C55.3524 40.6423 57.1039 38.386 58.1875 35.536C59.6274 35.061 60.711 33.5321 60.8297 31.6618C60.8297 31.6618 60.8297 31.6618 60.8297 31.647C60.8891 30.6376 60.6367 29.6728 60.1617 28.9157C60.6813 27.2235 60.9485 25.6501 60.9485 24.2548C60.9633 24.047 60.9633 23.8392 60.9633 23.6165C60.9633 17.0704 55.5899 11.7563 48.9844 11.7563C44.7094 11.7563 40.9094 13.4634 38.7571 16.2985C38.4305 16.1501 38.0594 16.0759 37.6883 16.0907C36.7086 16.1056 35.8477 16.6696 35.4469 17.5454C35.1352 18.2134 34.868 19.0595 34.675 20.054C34.1555 22.5329 34.2149 25.1603 34.8383 27.847C34.868 27.9806 34.8977 28.1142 34.9422 28.2478C34.1258 29.0196 33.6508 30.2665 33.7399 31.6618C33.8586 33.5173 34.9571 35.061 36.3821 35.536C37.525 38.5196 39.3953 40.8501 41.6516 42.3493V44.9618C41.2211 45.2142 40.85 45.5407 40.5086 45.8821H31.3945C29.0047 45.8821 26.8969 47.411 26.125 49.7415L22.9485 61.4087C22.3547 63.5759 23.2008 65.8915 25.0563 67.1681L25.7539 67.6579C25.9321 67.7767 26.1399 67.8509 26.3625 67.8509H69.4985C69.7805 67.8509 70.0477 67.7321 70.2555 67.5392L70.7008 67.0938C72.0367 65.7579 72.5711 63.7837 72.0664 61.9579L68.7266 49.6821ZM41.5031 52.5618L41.1617 49.9493C41.0578 48.9993 41.3844 48.079 42.0078 47.3962C42.4828 48.836 43.4477 50.0087 44.6946 50.7063L41.5031 52.5618ZM52.8586 47.4407C53.393 48.0345 53.7195 48.7915 53.7195 49.6079C53.7195 49.7118 53.7195 49.8306 53.7047 49.9196L53.3633 52.5618L50.1719 50.7063C51.4039 50.0087 52.3688 48.8509 52.8586 47.4407ZM36.7828 20.4845C36.9461 19.6681 37.1688 18.9556 37.4063 18.436C37.4953 18.2431 37.6883 18.2134 37.7477 18.2134C37.8516 18.1985 37.9703 18.2579 38.0297 18.3767C38.2078 18.7329 38.5641 18.9556 38.9649 18.9704C39.3063 18.9556 39.7367 18.7626 39.9297 18.4212C41.4883 15.6157 44.9617 13.879 48.9992 13.879C54.4172 13.879 58.8406 18.2431 58.8406 23.6017C58.8406 23.7649 58.8406 23.9282 58.8258 24.0915V24.2548C58.8258 25.3681 58.6031 26.511 58.3508 27.5056C58.0688 27.4313 57.7719 27.372 57.4602 27.3868C57.0445 26.2884 56.4063 25.3532 55.5899 24.6407C53.586 22.8743 51.0031 21.8946 48.3461 21.8946H46.5649C44.6352 21.8946 42.7203 21.2415 41.1766 20.0688C40.7164 19.7126 40.0485 19.8017 39.6774 20.2618C39.6774 20.2618 39.3063 20.7368 38.7867 21.4345C37.8367 22.7407 37.1094 23.854 36.575 24.997C36.4117 23.4681 36.4711 21.9392 36.7828 20.4845ZM38.193 34.2595C38.0594 33.8587 37.6883 33.5767 37.2578 33.547C36.6492 33.5024 35.9516 32.686 35.8774 31.5282C35.818 30.4001 36.3524 29.6282 36.8867 29.554C37.3766 29.4798 37.7625 29.079 37.807 28.5892C38 26.3329 38.9203 24.9524 40.5235 22.7407C40.6125 22.622 40.6867 22.5181 40.7758 22.4142C42.5125 23.4829 44.5313 24.0618 46.5797 24.0618H48.361C50.5133 24.0618 52.5766 24.8485 54.2094 26.2735C54.9367 26.897 55.4563 27.8173 55.7235 28.9306C55.7977 29.2571 56.0203 29.5243 56.3321 29.6579C56.6289 29.7915 56.9852 29.7767 57.282 29.6134C57.5344 29.4798 57.9352 29.5243 58.232 29.836C58.5883 30.2071 58.7813 30.8454 58.7367 31.5282C58.6625 32.686 57.9649 33.5024 57.3563 33.547C56.9258 33.5767 56.5547 33.8587 56.4063 34.2743C54.8031 38.9649 51.2406 41.9931 47.3219 41.9931C43.3735 41.9782 39.811 38.9501 38.193 34.2595ZM47.2922 44.1157C48.6133 44.1157 49.875 43.8188 51.0774 43.329V45.3478C51.0774 45.422 51.0625 45.4813 51.0625 45.5556V45.5853C50.9586 47.6485 49.4445 49.2962 47.5742 49.2962H47.2922C45.4367 49.2962 43.9227 47.6485 43.8188 45.5853C43.8188 45.511 43.8039 45.4368 43.8039 45.3626V43.4774C44.9024 43.8931 46.075 44.1157 47.2922 44.1157ZM69.1867 65.5501L69.0531 65.6837H66.3664V60.5329C66.3664 59.9392 65.8914 59.4642 65.2977 59.4642C64.7039 59.4642 64.2289 59.9392 64.2289 60.5329V65.6837H31.9735V60.5329C31.9735 59.9392 31.4985 59.4642 30.9047 59.4642C30.311 59.4642 29.836 59.9392 29.836 60.5329V65.6837H26.6891L26.2586 65.3868C25.1602 64.6298 24.6555 63.2493 24.9969 61.9579L28.1586 50.3501C28.6188 48.9548 29.9102 48.0196 31.3797 48.0196H39.2469C39.0391 48.7024 38.95 49.4446 39.0242 50.2017L39.425 53.1704C39.4992 53.8087 39.8852 54.3579 40.4641 54.6399C40.7313 54.7735 41.0281 54.8478 41.325 54.8478C41.6516 54.8478 41.993 54.7587 42.2899 54.5954L47.4406 51.6118L52.5914 54.5954C52.8883 54.7735 53.2149 54.8478 53.5414 54.8478C53.8235 54.8478 54.1203 54.7884 54.3875 54.6548C54.9664 54.3728 55.3524 53.8235 55.4414 53.1853L55.8274 50.172C55.8422 49.9938 55.857 49.8009 55.857 49.6079C55.857 49.0587 55.768 48.5243 55.6195 48.0196H63.457C64.9266 48.0196 66.218 48.9548 66.6633 50.3056L69.9883 62.4923C70.3 63.5759 69.9883 64.7485 69.1867 65.5501Z" fill="#322040"/>
</svg>
