<svg width="93" height="93" viewBox="0 0 93 93" fill="none" xmlns="http://www.w3.org/2000/svg">
<path d="M4.35938 37.7812C5.16295 37.7812 5.8125 37.1302 5.8125 36.3281V10.1719C5.8125 7.76841 7.76841 5.8125 10.1719 5.8125H53.7656C56.1691 5.8125 58.125 7.76841 58.125 10.1719V13.0781H52.3125C48.3062 13.0781 45.0469 16.3375 45.0469 20.3438C45.0469 21.1459 45.6964 21.7969 46.5 21.7969C47.3036 21.7969 47.9531 21.1459 47.9531 20.3438C47.9531 17.9403 49.909 15.9844 52.3125 15.9844H63.9375C66.341 15.9844 68.2969 17.9403 68.2969 20.3438V31.9688C68.2969 34.3722 66.341 36.3281 63.9375 36.3281H52.3125C49.909 36.3281 47.9531 34.3722 47.9531 31.9688V26.1562C47.9531 25.3541 47.3036 24.7031 46.5 24.7031C45.6964 24.7031 45.0469 25.3541 45.0469 26.1562V31.9688C45.0469 35.975 48.3062 39.2344 52.3125 39.2344H58.125V56.6719C58.125 57.474 58.7745 58.125 59.5781 58.125C60.3817 58.125 61.0312 57.474 61.0312 56.6719V39.2344H63.9375C67.9438 39.2344 71.2031 35.975 71.2031 31.9688V20.3438C71.2031 16.3375 67.9438 13.0781 63.9375 13.0781H61.0312V10.1719C61.0312 6.16561 57.7719 2.90625 53.7656 2.90625H10.1719C6.16561 2.90625 2.90625 6.16561 2.90625 10.1719V36.3281C2.90625 37.1302 3.5558 37.7812 4.35938 37.7812Z" fill="#322040"/>
<path d="M10.1719 11.625C10.9744 11.625 11.625 10.9744 11.625 10.1719C11.625 9.36934 10.9744 8.71875 10.1719 8.71875C9.36934 8.71875 8.71875 9.36934 8.71875 10.1719C8.71875 10.9744 9.36934 11.625 10.1719 11.625Z" fill="#322040"/>
<path d="M15.9844 11.625C16.7869 11.625 17.4375 10.9744 17.4375 10.1719C17.4375 9.36934 16.7869 8.71875 15.9844 8.71875C15.1818 8.71875 14.5312 9.36934 14.5312 10.1719C14.5312 10.9744 15.1818 11.625 15.9844 11.625Z" fill="#322040"/>
<path d="M45.0469 60.3047C45.8505 60.3047 46.5 59.6537 46.5 58.8516V51.5859C46.5 50.7838 45.8505 50.1328 45.0469 50.1328H41.215C41.0973 49.8131 40.968 49.4993 40.8285 49.1926L43.5342 46.4855C44.1023 45.9173 44.1023 44.9989 43.5342 44.4307L38.3974 39.294C37.8292 38.7258 36.9108 38.7258 36.3427 39.294L33.6355 42.0011C33.3289 41.8616 33.0135 41.7323 32.6953 41.6131V37.7812C32.6953 36.9791 32.0458 36.3281 31.2422 36.3281H23.9766C23.173 36.3281 22.5234 36.9791 22.5234 37.7812V41.6117C22.2037 41.7308 21.8884 41.8602 21.5833 41.9997L18.8761 39.2925C18.3079 38.7243 17.3895 38.7243 16.8214 39.2925L11.6831 44.4293C11.115 44.9975 11.115 45.9158 11.6831 46.484L14.3888 49.1912C14.2508 49.4993 14.1215 49.8131 14.0038 50.1328H10.1719C9.3683 50.1328 8.71875 50.7838 8.71875 51.5859V58.8516C8.71875 59.6537 9.3683 60.3047 10.1719 60.3047H14.0038C14.1215 60.6244 14.2508 60.9382 14.3903 61.2449L11.6831 63.9535C11.115 64.5217 11.115 65.4415 11.6831 66.0082C12.2513 66.5764 13.1697 66.5764 13.7378 66.0082L17.1847 62.5599C17.6424 62.1022 17.7427 61.3974 17.4302 60.8307C17.0219 60.0911 16.692 59.2904 16.4494 58.4505C16.2706 57.8286 15.6996 57.3999 15.0529 57.3999H11.625V53.0405H15.0529C15.6996 53.0405 16.2706 52.6118 16.4494 51.9899C16.692 51.15 17.0219 50.3493 17.4302 49.6097C17.7427 49.043 17.6424 48.3382 17.1847 47.8805L14.7652 45.4596L17.8473 42.3775L20.2682 44.7984C20.7274 45.2561 21.4336 45.3549 21.9989 45.0425C22.7327 44.6356 23.5348 44.3072 24.3791 44.0631C25.001 43.8829 25.4297 43.3133 25.4297 42.6667V39.2344H29.7891V42.6623C29.7891 43.3089 30.2177 43.8786 30.8397 44.0587C31.6839 44.3029 32.4861 44.6327 33.2199 45.0382C33.7866 45.3506 34.4914 45.2518 34.9506 44.794L37.3715 42.3731L40.4535 45.4552L38.0341 47.8761C37.5764 48.3338 37.4761 49.0386 37.7885 49.6053C38.1968 50.345 38.5267 51.1456 38.7694 51.9855C38.9481 52.6075 39.5192 53.0362 40.1658 53.0362H43.5938V57.3955H40.1658C39.5192 57.3955 38.9481 57.8242 38.7694 58.4461C38.5267 59.286 38.1968 60.0867 37.7885 60.8264C37.4761 61.3931 37.5764 62.0978 38.0341 62.5556L40.4535 64.9765L37.3715 68.0586L34.9506 65.6377C34.4914 65.1799 33.7852 65.0826 33.2199 65.3935C32.4861 65.8004 31.6839 66.1288 30.8397 66.3729C30.2177 66.5531 29.7891 67.1228 29.7891 67.7694V71.2031H25.4297V67.7752C25.4297 67.1286 25.001 66.5589 24.3791 66.3787C23.5348 66.1346 22.7327 65.8048 21.9989 65.3993C21.4321 65.0884 20.7274 65.1857 20.2682 65.6435L16.8199 69.0917C16.2517 69.6585 16.2517 70.5783 16.8199 71.1465C17.3881 71.7146 18.3065 71.7146 18.8746 71.1465L21.5818 68.4393C21.8884 68.5788 22.2037 68.7081 22.522 68.8273V72.6562C22.522 73.4584 23.1715 74.1094 23.9751 74.1094H31.2407C32.0443 74.1094 32.6939 73.4584 32.6939 72.6562V68.8258C33.0135 68.7067 33.3289 68.5773 33.634 68.4378L36.3412 71.145C36.9094 71.7132 37.8278 71.7132 38.3959 71.145L43.5327 66.0082C44.1009 65.44 44.1009 64.5217 43.5327 63.9535L40.827 61.2463C40.9665 60.9382 41.0958 60.6244 41.2135 60.3061L45.0469 60.3047Z" fill="#322040"/>
<path d="M27.6094 62.4844C31.6156 62.4844 34.875 59.225 34.875 55.2188C34.875 51.2125 31.6156 47.9531 27.6094 47.9531C23.6031 47.9531 20.3438 51.2125 20.3438 55.2188C20.3438 59.225 23.6031 62.4844 27.6094 62.4844ZM27.6094 50.8594C30.0128 50.8594 31.9688 52.8153 31.9688 55.2188C31.9688 57.6222 30.0128 59.5781 27.6094 59.5781C25.2059 59.5781 23.25 57.6222 23.25 55.2188C23.25 52.8153 25.2059 50.8594 27.6094 50.8594Z" fill="#322040"/>
<path d="M63.9375 61.0312H52.3125C49.1069 61.0312 46.5 63.6382 46.5 66.8438V78.4688C46.5 81.6743 49.1069 84.2812 52.3125 84.2812H57.8576C57.256 85.9683 55.6576 87.1875 53.7656 87.1875H10.1719C7.76841 87.1875 5.8125 85.2316 5.8125 82.8281V42.1406C5.8125 41.3385 5.16295 40.6875 4.35938 40.6875C3.5558 40.6875 2.90625 41.3385 2.90625 42.1406V82.8281C2.90625 86.8344 6.16561 90.0938 10.1719 90.0938H53.7656C57.2735 90.0938 60.2088 87.5929 60.8845 84.2812H63.9375C67.1431 84.2812 69.75 81.6743 69.75 78.4688V66.8438C69.75 63.6382 67.1431 61.0312 63.9375 61.0312ZM66.8438 78.4688C66.8438 80.0715 65.5403 81.375 63.9375 81.375H52.3125C50.7097 81.375 49.4062 80.0715 49.4062 78.4688V66.8438C49.4062 65.241 50.7097 63.9375 52.3125 63.9375H63.9375C65.5403 63.9375 66.8438 65.241 66.8438 66.8438V78.4688Z" fill="#322040"/>
<path d="M63.1339 71.3557L54.4152 66.9963C53.9647 66.7726 53.43 66.7958 53.0013 67.0603C52.5726 67.3247 52.3125 67.7926 52.3125 68.2969V77.0156C52.3125 77.5199 52.5741 77.9863 53.0027 78.2522C53.2352 78.3961 53.4997 78.4688 53.7656 78.4688C53.988 78.4688 54.2103 78.4179 54.4152 78.3162L63.1339 73.9568C63.6265 73.7098 63.9375 73.207 63.9375 72.6563C63.9375 72.1055 63.6265 71.6027 63.1339 71.3557ZM55.2188 74.6645V70.648L59.2352 72.6563L55.2188 74.6645Z" fill="#322040"/>
<path d="M11.625 21.7969V30.5156C11.625 31.3178 12.2745 31.9688 13.0781 31.9688H27.6094C29.2122 31.9688 30.5156 30.6653 30.5156 29.0625V23.25C30.5156 21.6472 29.2122 20.3438 27.6094 20.3438H26.5588C26.8392 18.9517 26.5035 17.5261 25.623 16.3985C24.6973 15.2113 23.3023 14.5312 21.7969 14.5312C21.2461 14.5312 20.7434 14.8422 20.4963 15.3348L17.9926 20.3438H13.0781C12.2745 20.3438 11.625 20.9948 11.625 21.7969ZM22.6077 17.6133C22.8882 17.7412 23.1367 17.9359 23.3343 18.1888C23.7063 18.6654 23.8371 19.2757 23.6903 19.8628L23.295 21.4452C23.1861 21.8797 23.2834 22.3389 23.5595 22.692C23.8356 23.0451 24.2556 23.25 24.7031 23.25H27.6094V29.0625H20.3438V22.1398L22.6077 17.6133ZM14.5312 23.25H17.4375V29.0625H14.5312V23.25Z" fill="#322040"/>
<path d="M58.125 32.739C58.497 32.739 58.869 32.5966 59.1524 32.3132L64.0436 27.422C65.8353 25.6289 65.8353 22.7124 64.0436 20.9193C62.4364 19.3092 59.9211 19.1465 58.125 20.4252C56.3318 19.1465 53.8136 19.3107 52.2064 20.9193C50.4147 22.7124 50.4147 25.6289 52.2064 27.422L57.0976 32.3132C57.381 32.5981 57.753 32.739 58.125 32.739ZM54.2611 22.9755C54.591 22.6456 55.024 22.4814 55.4571 22.4814C55.8901 22.4814 56.3231 22.6456 56.6515 22.9755L57.0962 23.4201C57.6411 23.9665 58.6089 23.9665 59.1538 23.4201L59.597 22.9769C60.2567 22.3157 61.332 22.3201 61.9889 22.9769C62.6471 23.6366 62.6471 24.709 61.9889 25.3688L58.125 29.2312L54.2611 25.3673C53.6029 24.7076 53.6029 23.6352 54.2611 22.9755Z" fill="#322040"/>
<path d="M89.0751 44.9873C88.7293 44.2651 87.8574 43.9614 87.1352 44.3101C86.413 44.6589 86.1093 45.5279 86.458 46.2501C86.9419 47.2542 87.1875 48.315 87.1875 49.4062C87.1875 51.7719 86.0337 53.8572 84.2783 55.1839C84.2696 54.0766 83.838 53.0768 83.1478 52.3125C83.8453 51.5394 84.2812 50.5266 84.2812 49.4062C84.2812 47.0028 82.3253 45.0469 79.9219 45.0469C77.5184 45.0469 75.5625 47.0028 75.5625 49.4062C75.5625 50.5266 75.9999 51.5394 76.6959 52.3125C76.0057 53.0768 75.5741 54.078 75.5654 55.1839C73.81 53.8572 72.6562 51.7719 72.6562 49.4062C72.6562 45.4 75.9156 42.1406 79.9219 42.1406C80.9914 42.1406 82.0333 42.376 83.0156 42.841C83.748 43.1869 84.6097 42.8715 84.9511 42.1493C85.2926 41.4228 84.9831 40.5567 84.258 40.2138C82.8833 39.5642 81.4244 39.2344 79.9219 39.2344C74.3143 39.2344 69.75 43.7972 69.75 49.4062C69.75 55.0153 74.3143 59.5781 79.9219 59.5781C85.5295 59.5781 90.0938 55.0153 90.0938 49.4062C90.0938 47.8747 89.7508 46.3867 89.0751 44.9873ZM79.9219 47.9531C80.724 47.9531 81.375 48.6056 81.375 49.4062C81.375 50.2069 80.724 50.8594 79.9219 50.8594C79.1198 50.8594 78.4688 50.2069 78.4688 49.4062C78.4688 48.6056 79.1198 47.9531 79.9219 47.9531ZM78.4688 56.5251V55.2188C78.4688 54.4181 79.1198 53.7656 79.9219 53.7656C80.724 53.7656 81.375 54.4181 81.375 55.2188V56.5251C80.9056 56.621 80.4188 56.6719 79.9219 56.6719C79.4249 56.6719 78.9381 56.621 78.4688 56.5251Z" fill="#322040"/>
<path d="M34.875 27.6094H39.2344C40.038 27.6094 40.6875 26.9584 40.6875 26.1562C40.6875 25.3541 40.038 24.7031 39.2344 24.7031H34.875C34.0714 24.7031 33.4219 25.3541 33.4219 26.1562C33.4219 26.9584 34.0714 27.6094 34.875 27.6094Z" fill="#322040"/>
<path d="M75.5625 24.7031H79.9219V34.875C79.9219 35.6771 80.5714 36.3281 81.375 36.3281C82.1786 36.3281 82.8281 35.6771 82.8281 34.875V23.25C82.8281 22.4479 82.1786 21.7969 81.375 21.7969H75.5625C74.7589 21.7969 74.1094 22.4479 74.1094 23.25C74.1094 24.0521 74.7589 24.7031 75.5625 24.7031Z" fill="#322040"/>
<path d="M81.375 62.4844C80.5714 62.4844 79.9219 63.1354 79.9219 63.9375V72.6562H75.5625C74.7589 72.6562 74.1094 73.3073 74.1094 74.1094C74.1094 74.9115 74.7589 75.5625 75.5625 75.5625H81.375C82.1786 75.5625 82.8281 74.9115 82.8281 74.1094V63.9375C82.8281 63.1354 82.1786 62.4844 81.375 62.4844Z" fill="#322040"/>
<path d="M27.6094 77.0156C26.8058 77.0156 26.1562 77.6666 26.1562 78.4688V81.375C26.1562 82.1771 26.8058 82.8281 27.6094 82.8281H42.1406C42.9442 82.8281 43.5938 82.1771 43.5938 81.375C43.5938 80.5729 42.9442 79.9219 42.1406 79.9219H29.0625V78.4688C29.0625 77.6666 28.413 77.0156 27.6094 77.0156Z" fill="#322040"/>
<path d="M11.625 36.3281V37.7812C11.625 38.5834 12.2745 39.2344 13.0781 39.2344C13.8817 39.2344 14.5312 38.5834 14.5312 37.7812V36.3281C14.5312 35.526 13.8817 34.875 13.0781 34.875C12.2745 34.875 11.625 35.526 11.625 36.3281Z" fill="#322040"/>
</svg>
