<svg width="91" height="91" viewBox="0 0 91 91" fill="none" xmlns="http://www.w3.org/2000/svg">
<g clip-path="url(#clip0_59_2210)">
<path d="M79.9559 49.7406V45.5272C79.9559 44.7894 79.3579 44.1915 78.6203 44.1915C77.8827 44.1915 77.2846 44.7894 77.2846 45.5272V48.64C75.3288 47.9968 73.241 47.6474 71.0728 47.6474C70.9173 47.6474 70.7605 47.6508 70.6037 47.6545V28.93C70.6037 28.1922 70.0057 27.5943 69.2681 27.5943H68.7395L73.9441 22.0611L79.1487 27.5943H78.6201C77.8825 27.5943 77.2844 28.1922 77.2844 28.93V40.3148C77.2844 41.0525 77.8823 41.6504 78.6201 41.6504C79.3579 41.6504 79.9558 41.0525 79.9558 40.3148V30.2657H82.2386C83.3738 30.3033 84.0165 28.8159 83.2115 28.015L74.917 19.1969C74.416 18.6411 73.4722 18.6411 72.9713 19.1969L64.6768 28.015C63.8717 28.8161 64.5147 30.3033 65.6497 30.2657H67.9326V40.2861C66.2126 37.3882 63.7617 34.9806 60.8424 33.3103V17.0831H63.1252C64.2604 17.1208 64.9031 15.6332 64.0981 14.8325L55.8036 6.01452C55.3026 5.45875 54.3588 5.45875 53.858 6.01452L45.5634 14.8325C44.7581 15.6333 45.4014 17.121 46.5364 17.0831H48.8192V30.9041C46.2781 31.2173 43.8803 32.0215 41.7292 33.2255V26.4949H44.012C45.1472 26.5325 45.7899 25.0449 44.9849 24.244L36.6904 15.4261C36.1894 14.8703 35.2456 14.8703 34.7448 15.4261L26.4503 24.244C25.6451 25.0451 26.2882 26.5324 27.4232 26.4949H29.706V44.8097C29.0717 44.7391 28.432 44.7018 27.7881 44.7018C25.9867 44.7018 24.2494 44.9806 22.6158 45.4954V14.9841H24.8986C26.0338 15.0217 26.6765 13.5343 25.8715 12.7334L17.5767 3.91512C17.0758 3.35935 16.1319 3.35935 15.631 3.91512L7.33634 12.7332C6.53103 13.5343 7.17425 15.0216 8.30926 14.9839H10.5921V25.9393C10.5921 26.677 11.1902 27.2749 11.9278 27.2749C12.6654 27.2749 13.2634 26.677 13.2634 25.9393V13.6484C13.2634 12.9106 12.6655 12.3127 11.9278 12.3127H11.3992L16.6038 6.77949L21.8084 12.3127H21.2798C20.5422 12.3127 19.9441 12.9106 19.9441 13.6484V46.5922C17.217 47.9913 14.9094 50.096 13.2631 52.6639V31.2819C13.2631 30.5442 12.6652 29.9463 11.9274 29.9463C11.1898 29.9463 10.5917 30.5442 10.5917 31.2819V60.7029C10.5875 60.7635 10.5821 60.8241 10.5784 60.8849C4.47322 62.2198 0 67.6832 0 74.0361C0 81.461 6.04066 87.5016 13.4655 87.5016H54.5381C55.2757 87.5016 55.8738 86.9037 55.8738 86.166C55.8738 85.4282 55.2759 84.8303 54.5381 84.8303H13.4655C7.51354 84.8303 2.67117 79.9879 2.67117 74.036C2.67117 68.6335 6.7061 64.0336 12.0566 63.3363C12.7238 63.2494 13.2222 62.6796 13.2197 62.0069C13.2195 61.9829 13.219 61.9591 13.2179 61.9303C13.2243 53.9018 19.7578 47.3726 27.7877 47.3726C29.5583 47.3726 31.2935 47.6897 32.9445 48.3148C33.6993 48.6221 34.6139 48.0994 34.7336 47.2935C36.1249 39.2585 43.0608 33.4265 51.2257 33.4265C60.0662 33.4265 67.4058 40.3333 67.9352 49.1505C68.07 50.8118 69.9408 50.3104 71.0731 50.3187C80.5881 50.3187 88.329 58.0598 88.329 67.5746C88.329 77.0894 80.5881 84.8305 71.0731 84.8305H59.8805C59.1429 84.8305 58.5448 85.4284 58.5448 86.1662C58.5448 86.9039 59.1429 87.5018 59.8805 87.5018H71.0728C82.0607 87.5018 91 78.5625 91 67.5746C91 59.7769 86.4973 53.0121 79.9559 49.7406ZM54.8307 8.87889L60.0353 14.4119H59.5069C58.7693 14.4119 58.1712 15.0098 58.1712 15.7476V32.0409C56.0885 31.2404 53.8366 30.7903 51.4904 30.7587V15.7474C51.4904 15.0097 50.8923 14.4118 50.1547 14.4118H49.6261L54.8307 8.87889ZM32.4225 45.3347C32.4074 45.3304 32.3919 45.3269 32.3768 45.3228V25.159C32.3768 24.4212 31.7787 23.8233 31.0411 23.8233H30.5127L35.7173 18.2903L40.9219 23.8233H40.3935C39.6559 23.8233 39.0578 24.4212 39.0578 25.159V35.0279C35.8627 37.5944 33.4852 41.1663 32.4225 45.3347Z" fill="#322040"/>
<path d="M50.3304 60.6059C51.068 60.6059 51.6661 60.008 51.6661 59.2702C51.6661 58.5325 51.068 57.9346 50.3304 57.9346H44.0762C43.3386 57.9346 42.7405 58.5325 42.7405 59.2702V74.1137C42.7405 74.8515 43.3386 75.4494 44.0762 75.4494H50.3304C51.068 75.4494 51.6661 74.8515 51.6661 74.1137C51.6661 73.376 51.068 72.7781 50.3304 72.7781H45.4116V68.0276H49.8692C50.6068 68.0276 51.2049 67.4297 51.2049 66.6919C51.2049 65.9541 50.607 65.3562 49.8692 65.3562H45.4116V60.6057H50.3304V60.6059Z" fill="#322040"/>
<path d="M34.4983 72.8463C32.8603 72.8463 31.2788 72.1801 30.2678 71.0645C29.7725 70.5179 28.9279 70.4765 28.3812 70.9715C27.8347 71.4669 27.7931 72.3115 28.2882 72.8582C29.7972 74.5234 32.1186 75.5176 34.4981 75.5176C37.3479 75.5176 39.8307 73.6485 40.2732 71.17C40.7837 68.311 38.5355 66.3957 36.2612 65.557C34.3335 64.8459 32.5453 64.0696 32.0939 63.8714C31.6152 63.5205 31.3829 62.9603 31.47 62.3542C31.5795 61.5912 32.1657 60.9789 33.0382 60.7162C35.4415 59.9918 37.6132 61.7334 37.6561 61.7684C38.2207 62.2389 39.0598 62.1646 39.5331 61.6015C40.0077 61.0369 39.9348 60.1942 39.3701 59.7197C39.2376 59.6084 36.0853 57.0089 32.2675 58.1585C30.4018 58.7206 29.0831 60.1829 28.8257 61.9748C28.5863 63.6433 29.3088 65.2476 30.7113 66.162C30.7703 66.2006 30.8323 66.2344 30.8967 66.263C30.9827 66.3012 33.0298 67.2124 35.3365 68.0632C36.9926 68.6741 37.8335 69.6355 37.6433 70.7008C37.4579 71.7406 36.2925 72.8463 34.4983 72.8463Z" fill="#322040"/>
<path d="M70.6323 66.6918C70.6323 61.8252 66.6731 57.8662 61.8068 57.8662C56.9402 57.8662 52.981 61.8254 52.981 66.6918C52.981 71.5583 56.9402 75.5174 61.8068 75.5174C66.6731 75.5175 70.6323 71.5583 70.6323 66.6918ZM55.6522 66.6918C55.6522 63.2981 58.4131 60.5374 61.8066 60.5374C65.2001 60.5374 67.961 63.2981 67.961 66.6918C67.961 70.0854 65.2001 72.8462 61.8066 72.8462C58.4131 72.8464 55.6522 70.0854 55.6522 66.6918Z" fill="#322040"/>
</g>
<defs>
<clipPath id="clip0_59_2210">
<rect width="91" height="91" fill="white"/>
</clipPath>
</defs>
</svg>
