<svg width="91" height="91" viewBox="0 0 91 91" fill="none" xmlns="http://www.w3.org/2000/svg">
<path d="M62.4625 81.0469V89.4781H28.5375V81.0469V80.9469H28.4375C26.1409 80.9469 24.2719 79.0778 24.2719 76.7812V73.9375C24.2719 71.4544 24.7232 69.0797 25.5103 66.8616L25.5576 66.7281H25.416H1.52188V1.52188H89.4781V66.7281H65.584H65.4424L65.4897 66.8616C66.2768 69.0797 66.7281 71.4544 66.7281 73.9375V76.7812C66.7281 79.0778 64.8591 80.9469 62.5625 80.9469H62.4625V81.0469ZM86.8344 4.26562V4.16563H86.7344H4.26562H4.16563V4.26562V12.7969V12.8969H4.26562H86.7344H86.8344V12.7969V4.26562ZM31.2812 80.9469H31.1812V81.0469V86.7344V86.8344H31.2812H36.9688H37.0687V86.7344V81.0469V80.9469H36.9688H31.2812ZM39.7125 72.5156V72.6156H39.8125C42.1091 72.6156 43.9781 74.4847 43.9781 76.7812C43.9781 79.0778 42.1091 80.9469 39.8125 80.9469H39.7125V81.0469V86.7344V86.8344H39.8125H51.1875H51.2875V86.7344V81.0469V80.9469H51.1875C48.8909 80.9469 47.0219 79.0778 47.0219 76.7812C47.0219 74.4847 48.8909 72.6156 51.1875 72.6156H51.2875V72.5156V66.8281V66.7281H51.1875H39.8125H39.7125V66.8281V72.5156ZM59.7188 86.8344H59.8187V86.7344V81.0469V80.9469H59.7188H54.0312H53.9313V81.0469V86.7344V86.8344H54.0312H59.7188ZM56.875 72.6156H56.975V72.5156V66.9281H59.6188V75.2594H51.1875C50.3474 75.2594 49.6656 75.9411 49.6656 76.7812C49.6656 77.6214 50.3474 78.3031 51.1875 78.3031H62.5625C63.4026 78.3031 64.0844 77.6214 64.0844 76.7812V73.9375C64.0844 63.6903 55.7472 55.3531 45.5 55.3531C35.2528 55.3531 26.9156 63.6903 26.9156 73.9375V76.7812C26.9156 77.6214 27.5974 78.3031 28.4375 78.3031H39.8125C40.6526 78.3031 41.3344 77.6214 41.3344 76.7812C41.3344 75.9411 40.6526 75.2594 39.8125 75.2594H31.3813V66.9281H34.025V72.5156V72.6156H34.125H36.9688H37.0687V72.5156V64.0844H53.9313V72.5156V72.6156H54.0312H56.875ZM35.6343 38.6325L35.6469 38.6099V38.584V21.3281V21.2281H35.5469H9.95312H9.85312V21.3281V41.2344V41.3344H9.95312H34.499H34.5764L34.5958 41.2594C34.8355 40.3329 35.1808 39.4507 35.6343 38.6325ZM64.2615 64.0312L64.2896 64.0844H64.3498H86.7344H86.8344V63.9844V15.6406V15.5406H86.7344H4.26562H4.16563V15.6406V63.9844V64.0844H4.26562H26.6516H26.7118L26.74 64.0312C29.3512 59.1046 33.839 55.3203 39.2519 53.6505L39.4534 53.5883L39.2778 53.4716C36.2359 51.4503 34.225 47.9959 34.225 44.0781V43.9781H34.125H7.20937V18.5844H38.2906V35.2127V35.4214L38.4533 35.2907C40.3857 33.7374 42.835 32.8031 45.5 32.8031C51.7167 32.8031 56.775 37.8615 56.775 44.0781C56.775 47.9959 54.7641 51.4503 51.7236 53.4716L51.5481 53.5883L51.7495 53.6505C57.161 55.3203 61.6488 59.1046 64.2615 64.0312ZM45.5 35.4469C40.7398 35.4469 36.8688 39.3179 36.8688 44.0781C36.8688 48.8383 40.7398 52.7094 45.5 52.7094C50.2602 52.7094 54.1312 48.8383 54.1312 44.0781C54.1312 39.3179 50.2602 35.4469 45.5 35.4469Z" fill="#322040" stroke="#E8E8E8" stroke-width="0.2"/>
<path d="M7.20938 7.20938H9.85313V9.85313H7.20938V7.20938Z" fill="#322040" stroke="#E8E8E8" stroke-width="0.2"/>
<path d="M12.8969 7.20938H15.5406V9.85313H12.8969V7.20938Z" fill="#322040" stroke="#E8E8E8" stroke-width="0.2"/>
<path d="M18.5844 7.20938H21.2281V9.85313H18.5844V7.20938Z" fill="#322040" stroke="#E8E8E8" stroke-width="0.2"/>
<path d="M18.5291 27.805L18.3844 27.7326V27.8944V34.6682V34.83L18.5291 34.7577L25.3029 31.3707L25.4818 31.2813L25.3029 31.1919L18.5291 27.805ZM15.7406 23.455L31.3932 31.2813L15.7406 39.1076V23.455Z" fill="#322040" stroke="#E8E8E8" stroke-width="0.2"/>
<path d="M61.0406 35.5469V35.6469H61.1406H73.9375C77.9128 35.6469 81.1469 32.4128 81.1469 28.4375C81.1469 24.4622 77.9128 21.2281 73.9375 21.2281H68.25C64.2747 21.2281 61.0406 24.4622 61.0406 28.4375V35.5469ZM68.25 18.5844H73.9375C79.3693 18.5844 83.7906 23.0057 83.7906 28.4375C83.7906 33.8693 79.3693 38.2906 73.9375 38.2906H58.3969V28.4375C58.3969 23.0057 62.8182 18.5844 68.25 18.5844Z" fill="#322040" stroke="#E8E8E8" stroke-width="0.2"/>
<path d="M64.0844 24.2719H78.1031V26.9156H64.0844V24.2719Z" fill="#322040" stroke="#E8E8E8" stroke-width="0.2"/>
<path d="M64.0844 29.9594H78.1031V32.6031H64.0844V29.9594Z" fill="#322040" stroke="#E8E8E8" stroke-width="0.2"/>
<path d="M7.20938 47.0219H9.85313V49.6656H7.20938V47.0219Z" fill="#322040" stroke="#E8E8E8" stroke-width="0.2"/>
<path d="M12.8969 47.0219H26.9156V49.6656H12.8969V47.0219Z" fill="#322040" stroke="#E8E8E8" stroke-width="0.2"/>
<path d="M7.20938 52.7094H26.9156V55.3531H7.20938V52.7094Z" fill="#322040" stroke="#E8E8E8" stroke-width="0.2"/>
<path d="M7.20938 58.3969H26.9156V61.0406H7.20938V58.3969Z" fill="#322040" stroke="#E8E8E8" stroke-width="0.2"/>
<path d="M64.0844 41.3344H66.7281V43.9781H64.0844V41.3344Z" fill="#322040" stroke="#E8E8E8" stroke-width="0.2"/>
<path d="M69.7719 41.3344H83.7906V43.9781H69.7719V41.3344Z" fill="#322040" stroke="#E8E8E8" stroke-width="0.2"/>
<path d="M64.0844 47.0219H83.7906V49.6656H64.0844V47.0219Z" fill="#322040" stroke="#E8E8E8" stroke-width="0.2"/>
<path d="M64.0844 52.7094H83.7906V55.3531H64.0844V52.7094Z" fill="#322040" stroke="#E8E8E8" stroke-width="0.2"/>
<path d="M64.0844 58.3969H83.7906V61.0406H64.0844V58.3969Z" fill="#322040" stroke="#E8E8E8" stroke-width="0.2"/>
</svg>
