<svg width="88" height="88" viewBox="0 0 88 88" fill="none" xmlns="http://www.w3.org/2000/svg">
<path d="M81.125 22.1389V17.875C81.125 17.1146 80.509 16.5 79.75 16.5H71.5C70.741 16.5 70.125 17.1146 70.125 17.875V22H69.7414L67.3049 14.6905C67.1165 14.1281 66.5926 13.75 66 13.75H41.25C40.6574 13.75 40.1335 14.1281 39.9451 14.6905L37.5086 22H23.375V20.625C23.375 18.3507 21.5243 16.5 19.25 16.5H17.875V12.375C17.875 11.6146 17.259 11 16.5 11H8.25C7.491 11 6.875 11.6146 6.875 12.375V16.5H5.5C3.22575 16.5 1.375 18.3507 1.375 20.625V72.875C1.375 75.1493 3.22575 77 5.5 77H19.25C21.0403 77 22.5527 75.8464 23.122 74.25H79.75C83.5409 74.25 86.625 71.1659 86.625 67.375V28.875C86.625 25.5557 84.2586 22.7782 81.125 22.1389ZM72.875 19.25H78.375V22H72.875V19.25ZM42.2414 16.5H65.01L66.8429 22H40.4085L42.2414 16.5ZM79.75 24.75C82.0243 24.75 83.875 26.6007 83.875 28.875V33H67.6005C63.921 29.5982 59.0191 27.5 53.625 27.5C48.2309 27.5 43.329 29.5982 39.6495 33H23.375V24.75H79.75ZM53.625 30.25C63.481 30.25 71.5 38.269 71.5 48.125C71.5 57.981 63.481 66 53.625 66C43.769 66 35.75 57.981 35.75 48.125C35.75 38.269 43.769 30.25 53.625 30.25ZM9.625 13.75H15.125V16.5H9.625V13.75ZM5.5 19.25H19.25C20.0076 19.25 20.625 19.866 20.625 20.625V33H4.125V20.625C4.125 19.866 4.74237 19.25 5.5 19.25ZM19.25 74.25H5.5C4.74237 74.25 4.125 73.634 4.125 72.875V63.25H12.375V60.5H4.125V57.75H12.375V55H4.125V52.25H12.375V49.5H4.125V46.75H12.375V44H4.125V41.25H12.375V38.5H4.125V35.75H20.625V71.5V72.875C20.625 73.634 20.0076 74.25 19.25 74.25ZM79.75 71.5H23.375V35.75H37.1635C34.562 39.2013 33 43.4789 33 48.125C33 59.4976 42.2524 68.75 53.625 68.75C64.9976 68.75 74.25 59.4976 74.25 48.125C74.25 43.4789 72.688 39.2013 70.0865 35.75H83.875V67.375C83.875 69.6493 82.0243 71.5 79.75 71.5Z" fill="#322040"/>
<path d="M41.25 48.125C41.25 41.3009 46.8022 35.75 53.625 35.75V33C45.2856 33 38.5 39.7856 38.5 48.125H41.25Z" fill="#322040"/>
<path d="M53.625 60.5V63.25C61.9644 63.25 68.75 56.4644 68.75 48.125H66C66 54.9491 60.4478 60.5 53.625 60.5Z" fill="#322040"/>
<path d="M44 48.125C44 53.4311 48.3175 57.75 53.625 57.75C58.9325 57.75 63.25 53.4311 63.25 48.125C63.25 42.8189 58.9325 38.5 53.625 38.5C48.3175 38.5 44 42.8189 44 48.125ZM60.5 48.125C60.5 51.9159 57.4159 55 53.625 55C49.8341 55 46.75 51.9159 46.75 48.125C46.75 44.3341 49.8341 41.25 53.625 41.25C57.4159 41.25 60.5 44.3341 60.5 48.125Z" fill="#322040"/>
<path d="M78.375 27.5H81.125V30.25H78.375V27.5Z" fill="#322040"/>
</svg>
