<svg width="88" height="88" viewBox="0 0 88 88" fill="none" xmlns="http://www.w3.org/2000/svg">
<g clip-path="url(#clip0_59_2500)">
<path d="M87.2369 64.0267L78.2169 59.5167L72.4762 44.5842C72.4087 44.4077 72.3054 44.247 72.1729 44.1121C72.0404 43.9773 71.8816 43.8712 71.7063 43.8005L36.0869 29.5624C35.8378 29.4632 35.5652 29.439 35.3026 29.4928C35.04 29.5465 34.7988 29.6758 34.6088 29.8649L29.8581 34.6155C29.6716 34.8057 29.5444 35.046 29.4919 35.3072C29.4394 35.5684 29.464 35.8392 29.5625 36.0867L43.8006 71.7061C43.8713 71.8814 43.9774 72.0403 44.1122 72.1728C44.2471 72.3053 44.4078 72.4085 44.5844 72.4761L59.5169 78.2167L64.0269 87.2367C64.1218 87.4356 64.2632 87.6088 64.4391 87.7416C64.615 87.8744 64.8202 87.963 65.0375 87.9999C65.1107 88.0067 65.1843 88.0067 65.2575 87.9999C65.6216 87.9983 65.9702 87.8525 66.2269 87.5942L87.5944 66.2267C87.7516 66.075 87.8705 65.8879 87.941 65.6811C88.0116 65.4743 88.0318 65.2536 88 65.0374C87.9631 64.8201 87.8745 64.6148 87.7417 64.439C87.6089 64.2631 87.4358 64.1217 87.2369 64.0267ZM32.4431 35.908L33.2063 35.1517L50.9369 52.8824C49.7684 54.5381 49.2637 56.5721 49.5227 58.5821C49.7816 60.5921 50.7854 62.4317 52.3354 63.7372C53.8855 65.0427 55.869 65.7191 57.8937 65.6326C59.9185 65.546 61.837 64.7029 63.27 63.2699C64.703 61.8369 65.5462 59.9183 65.6327 57.8936C65.7192 55.8688 65.0429 53.8853 63.7373 52.3353C62.4318 50.7852 60.5922 49.7815 58.5822 49.5225C56.5723 49.2636 54.5383 49.7682 52.8825 50.9367L35.1519 33.2061L35.9081 32.443L70.125 46.1311L75.5219 60.1699L60.17 75.5217L46.1313 70.1249L32.4431 35.908ZM57.5437 52.2017C58.7795 52.2036 59.9764 52.6338 60.9306 53.4191C61.8847 54.2045 62.5371 55.2963 62.7765 56.5087C63.0159 57.721 62.8276 58.9789 62.2436 60.068C61.6596 61.1571 60.7161 62.01 59.5738 62.4814C58.4315 62.9529 57.1611 63.0137 55.9789 62.6536C54.7968 62.2934 53.7761 61.5345 53.0908 60.5062C52.4054 59.4779 52.0977 58.2438 52.2202 57.0141C52.3427 55.7844 52.8878 54.6353 53.7625 53.7624C54.7663 52.7617 56.1263 52.2004 57.5437 52.2017ZM65.6356 84.3011L62.1981 77.4261L77.4125 62.2117L84.2875 65.6492L65.6356 84.3011Z" fill="#322040"/>
<path d="M26.2971 73.5628C26.0341 73.3143 25.6861 73.1759 25.3243 73.1759C24.9625 73.1759 24.6144 73.3143 24.3514 73.5628L22.6052 75.3091C17.9452 68.9844 15.3744 61.3635 15.2512 53.5084C15.1279 45.6534 17.4584 37.9556 21.9177 31.4878C23.2537 32.223 24.792 32.5054 26.302 32.2927C27.812 32.08 29.2125 31.3837 30.2934 30.3082C31.3744 29.2326 32.0778 27.8357 32.298 26.3268C32.5183 24.8178 32.2436 23.2782 31.5152 21.9385C37.9829 17.4791 45.6807 15.1487 53.5358 15.2719C61.3909 15.3952 69.0118 17.9659 75.3364 22.626L73.5627 24.3516C73.307 24.6094 73.1637 24.9579 73.1639 25.321C73.1629 25.5019 73.1976 25.6813 73.266 25.8488C73.3344 26.0164 73.4353 26.1687 73.5627 26.2972L79.6264 32.3128C79.8841 32.5689 80.2326 32.7127 80.5958 32.7127C80.9591 32.7127 81.3076 32.5689 81.5652 32.3128L87.5946 26.2835C87.7224 26.1558 87.8238 26.0041 87.893 25.8372C87.9622 25.6703 87.9978 25.4913 87.9978 25.3106C87.9978 25.13 87.9622 24.951 87.893 24.7841C87.8238 24.6172 87.7224 24.4655 87.5946 24.3378L81.5652 18.3085C81.3076 18.0524 80.9591 17.9086 80.5958 17.9086C80.2326 17.9086 79.8841 18.0524 79.6264 18.3085L77.2958 20.6253C71.5518 16.303 64.7608 13.5874 57.6203 12.7573C50.4797 11.9273 43.2469 13.0127 36.6646 15.9022L44.5914 7.99596C45.4902 8.42543 46.5121 8.52264 47.4758 8.27036C48.4394 8.01807 49.2826 7.4326 49.8556 6.6178C50.4286 5.803 50.6946 4.81156 50.6062 3.81936C50.5177 2.82716 50.0807 1.89835 49.3727 1.1977C48.6646 0.497054 47.7312 0.0698683 46.7382 -0.00807077C45.7451 -0.0860098 44.7565 0.190337 43.9478 0.771943C43.1391 1.35355 42.5625 2.20282 42.3204 3.16908C42.0783 4.13534 42.1863 5.15612 42.6252 6.05034L29.2465 19.4497C27.8881 18.5385 26.2554 18.1272 24.6275 18.2861C22.9995 18.4449 21.4772 19.1641 20.3206 20.3207C19.1639 21.4773 18.4448 22.9996 18.2859 24.6276C18.1271 26.2556 18.5384 27.8882 19.4496 29.2466L6.0502 42.6253C5.15248 42.1879 4.12875 42.0829 3.16092 42.329C2.19309 42.5751 1.34384 43.1563 0.764081 43.9694C0.184325 44.7825 -0.088391 45.7748 -0.00560552 46.77C0.0771799 47.7652 0.510105 48.6988 1.21624 49.4049C1.92238 50.1111 2.85599 50.544 3.85118 50.6268C4.84636 50.7096 5.83868 50.4368 6.65178 49.8571C7.46488 49.2773 8.04611 48.4281 8.2922 47.4603C8.53828 46.4924 8.43327 45.4687 7.99583 44.571L15.9227 36.6647C13.0303 43.2453 11.9415 50.4771 12.7679 57.6176C13.5943 64.7581 16.3062 71.55 20.6252 77.296L18.3015 79.6266C18.0454 79.8842 17.9016 80.2327 17.9016 80.596C17.9016 80.9592 18.0454 81.3077 18.3015 81.5653L24.3308 87.5947C24.5875 87.8529 24.9361 87.9988 25.3002 88.0003C25.4816 88.0005 25.6613 87.9647 25.8289 87.8951C25.9964 87.8255 26.1485 87.7234 26.2765 87.5947L32.3127 81.5653C32.5688 81.3077 32.7125 80.9592 32.7125 80.596C32.7125 80.2327 32.5688 79.8842 32.3127 79.6266L26.2971 73.5628ZM80.6096 21.2097L84.6933 25.2935L80.6096 29.3772L76.5258 25.2935L80.6096 21.2097ZM45.3752 3.18346C45.5795 2.97748 45.8404 2.83683 46.1248 2.77936C46.4092 2.72189 46.7042 2.75019 46.9725 2.86067C47.2408 2.97116 47.4702 3.15884 47.6316 3.39991C47.7931 3.64099 47.8792 3.92458 47.8792 4.21472C47.8792 4.50485 47.7931 4.78844 47.6316 5.02952C47.4702 5.27059 47.2408 5.45827 46.9725 5.56876C46.7042 5.67924 46.4092 5.70754 46.1248 5.65007C45.8404 5.5926 45.5795 5.45195 45.3752 5.24597C45.2397 5.1106 45.1321 4.94985 45.0588 4.7729C44.9854 4.59594 44.9477 4.40627 44.9477 4.21472C44.9477 4.02316 44.9854 3.83348 45.0588 3.65653C45.1321 3.47958 45.2397 3.31883 45.3752 3.18346ZM22.2752 22.2753C22.6745 21.8742 23.1491 21.5558 23.6717 21.3386C24.1944 21.1213 24.7548 21.0095 25.3208 21.0095C25.8868 21.0095 26.4473 21.1213 26.9699 21.3386C27.4926 21.5558 27.9672 21.8742 28.3665 22.2753C28.97 22.8779 29.3812 23.646 29.5481 24.4824C29.715 25.3187 29.63 26.1858 29.304 26.9739C28.9779 27.7619 28.4254 28.4356 27.7164 28.9095C27.0074 29.3835 26.1737 29.6365 25.3208 29.6365C24.468 29.6365 23.6343 29.3835 22.9253 28.9095C22.2162 28.4356 21.6637 27.7619 21.3377 26.9739C21.0116 26.1858 20.9266 25.3187 21.0935 24.4824C21.2604 23.646 21.6717 22.8779 22.2752 22.2753ZM5.2527 47.4378C4.97199 47.6719 4.61388 47.7926 4.24873 47.7761C3.88359 47.7596 3.53782 47.6071 3.27936 47.3487C3.02091 47.0902 2.86845 46.7444 2.85195 46.3793C2.83545 46.0142 2.95611 45.6561 3.1902 45.3753C3.46534 45.1049 3.83568 44.9534 4.22145 44.9534C4.60722 44.9534 4.97756 45.1049 5.2527 45.3753C5.38823 45.5107 5.49576 45.6715 5.56912 45.8484C5.64248 46.0254 5.68023 46.215 5.68023 46.4066C5.68023 46.5981 5.64248 46.7878 5.56912 46.9648C5.49576 47.1417 5.38823 47.3025 5.2527 47.4378ZM25.3208 84.6522L21.2371 80.5685L25.3208 76.4847L29.4046 80.5685L25.3208 84.6522Z" fill="#322040"/>
</g>
<defs>
<clipPath id="clip0_59_2500">
<rect width="88" height="88" fill="white"/>
</clipPath>
</defs>
</svg>
