<svg width="88" height="88" viewBox="0 0 88 88" fill="none" xmlns="http://www.w3.org/2000/svg">
<path d="M66.6582 7.72852H20.5049C13.1184 7.72852 7.33334 13.4678 7.33334 20.7947V47.0251C7.33334 54.3612 13.1184 60.1087 20.5049 60.1087H26.1901C27.3469 60.1087 28.2856 59.1709 28.2856 58.0132C28.2856 56.8564 27.3478 55.9177 26.1901 55.9177H20.5049C15.4688 55.9177 11.5234 52.0118 11.5234 47.0242V20.7947C11.5234 15.8172 15.4688 11.9186 20.5049 11.9186H66.6573C71.9794 11.9186 76.4757 15.9831 76.4757 20.7947V26.5853C76.4757 27.7421 77.4134 28.6808 78.5712 28.6808C79.7289 28.6808 80.6667 27.743 80.6667 26.5853V20.7947C80.6667 13.7125 74.2509 7.72852 66.6582 7.72852Z" fill="#322040"/>
<path d="M41.0089 45.9149L51.9402 37.3927C53.1263 36.5108 53.8349 35.1267 53.8349 33.6893C53.8349 32.3858 53.2418 31.196 52.2243 30.4407L40.9704 21.8753C40.2123 21.3116 39.3553 21.0137 38.4918 21.0137C36.2936 21.0137 34.5712 22.9231 34.5712 25.3587V42.46C34.5712 44.8956 36.2927 46.805 38.4918 46.805C39.3553 46.805 40.2123 46.5071 41.0089 45.9149ZM38.7622 25.4604L49.6439 33.6838C49.6503 33.737 49.5999 33.913 49.4028 34.0597L38.7631 42.3436L38.7622 25.4604Z" fill="#322040"/>
<path d="M72.3791 60.3243C76.5976 60.3243 80.0296 56.8923 80.0296 52.6729C80.0296 48.4535 76.5976 45.0215 72.3791 45.0215C68.1606 45.0215 64.7286 48.4535 64.7286 52.6729C64.7286 53.0781 64.7873 53.4677 64.8487 53.8563L53.7304 60.5608L41.1556 52.9791C40.1628 52.3805 38.8758 52.6995 38.2791 53.6913C37.6814 54.6813 38.0004 55.9692 38.9913 56.5669L49.6733 63.0083L38.9913 69.4497C38.0013 70.0474 37.6814 71.3344 38.2791 72.3253C38.6733 72.978 39.3654 73.3391 40.0758 73.3391C40.4443 73.3391 40.8173 73.242 41.1565 73.0376L53.7314 65.4558L64.7808 72.1182C64.7698 72.2877 64.7295 72.45 64.7295 72.6214C64.7295 76.8408 68.1615 80.2728 72.38 80.2728C76.5985 80.2728 80.0305 76.8408 80.0305 72.6214C80.0305 68.4029 76.5985 64.9709 72.38 64.9709C69.8573 64.9709 67.6335 66.2139 66.2393 68.1032L57.7894 63.0083L66.6371 57.6733C68.0387 59.283 70.0801 60.3243 72.3791 60.3243ZM72.3791 49.2116C74.2867 49.2116 75.8395 50.7644 75.8395 52.6729C75.8395 54.5814 74.2876 56.1342 72.3791 56.1342C70.4715 56.1342 68.9187 54.5814 68.9187 52.6729C68.9187 50.7644 70.4706 49.2116 72.3791 49.2116ZM72.3791 69.161C74.2867 69.161 75.8395 70.7129 75.8395 72.6214C75.8395 74.5299 74.2876 76.0827 72.3791 76.0827C70.4715 76.0827 68.9187 74.5299 68.9187 72.6214C68.9187 70.7129 70.4706 69.161 72.3791 69.161Z" fill="#322040"/>
</svg>
