<svg width="88" height="88" viewBox="0 0 88 88" fill="none" xmlns="http://www.w3.org/2000/svg">
<path d="M79.0883 70.7644V17.2356C82.6616 16.732 85.4219 13.6555 85.4219 9.94297C85.4219 5.88156 82.1184 2.57812 78.057 2.57812C74.3463 2.57812 71.268 5.33844 70.7661 8.91172H17.2356C16.732 5.33844 13.6555 2.57812 9.94297 2.57812C5.88156 2.57812 2.57812 5.88156 2.57812 9.94297C2.57812 13.6537 5.33672 16.732 8.91172 17.2339V70.7627C5.33844 71.268 2.57812 74.3445 2.57812 78.057C2.57812 82.1184 5.88156 85.4219 9.94297 85.4219C13.6537 85.4219 16.732 82.6633 17.2339 79.0883H70.7627C71.2663 82.6633 74.3428 85.4219 78.0536 85.4219C82.115 85.4219 85.4184 82.1184 85.4184 78.057C85.4219 74.3445 82.6616 71.268 79.0883 70.7644ZM70.7644 77.0258H17.2356C16.7802 73.7877 14.2123 71.2216 10.9759 70.7644V17.2356C14.2141 16.7802 16.7802 14.2123 17.2356 10.9759H70.7644C71.2198 14.2141 73.7877 16.7802 77.0241 17.2356V70.7644C73.7877 71.2198 71.2198 73.7877 70.7644 77.0258ZM78.057 4.64062C80.9806 4.64062 83.3594 7.01937 83.3594 9.94297C83.3594 12.8666 80.9806 15.2453 78.057 15.2453C75.1334 15.2453 72.7547 12.8666 72.7547 9.94297C72.7547 7.01937 75.1317 4.64062 78.057 4.64062ZM4.64062 9.94297C4.64062 7.01937 7.01937 4.64062 9.94297 4.64062C12.8666 4.64062 15.2453 7.01937 15.2453 9.94297C15.2453 12.8666 12.8683 15.247 9.94297 15.247C7.01937 15.247 4.64062 12.8683 4.64062 9.94297ZM9.94297 83.3594C7.01937 83.3594 4.64062 80.9806 4.64062 78.057C4.64062 75.1334 7.01766 72.7547 9.94125 72.7547H9.94297H9.94469C12.8683 72.7564 15.2453 75.1334 15.2453 78.057C15.247 80.9806 12.8683 83.3594 9.94297 83.3594ZM78.057 83.3594C75.1334 83.3594 72.7547 80.9806 72.7547 78.057C72.7547 75.1334 75.1317 72.7547 78.0553 72.7547H78.057H78.0588C80.9823 72.7564 83.3594 75.1334 83.3594 78.057C83.3594 80.9806 80.9806 83.3594 78.057 83.3594ZM24.5283 31.1317C31.7195 37.5169 37.907 40.492 44 40.492C50.093 40.492 56.2805 37.5186 63.4717 31.1317C63.6952 30.9341 63.8223 30.647 63.8189 30.348C63.8155 30.0489 63.6831 29.767 63.4545 29.5728C55.9625 23.222 49.9641 20.3913 44.0017 20.3913C38.0394 20.3913 32.0392 23.2237 24.5472 29.5728C24.3186 29.7653 24.1862 30.0489 24.1828 30.348C24.1794 30.647 24.3048 30.9323 24.5283 31.1317ZM44 22.5259C48.3656 22.5259 51.9166 26.0769 51.9166 30.4425C51.9166 34.8081 48.3656 38.3573 44 38.3573C39.6344 38.3573 36.0834 34.8064 36.0834 30.4408C36.0834 26.0752 39.6344 22.5259 44 22.5259ZM51.8203 36.63C53.1695 34.9284 53.9791 32.7783 53.9791 30.4425C53.9791 28.1102 53.173 25.9652 51.8272 24.2636C54.7095 25.5578 57.7792 27.5688 61.1995 30.3789C57.8583 33.2423 54.7663 35.3066 51.8203 36.63ZM36.1728 24.2619C34.827 25.9634 34.0209 28.1084 34.0209 30.4408C34.0209 32.7766 34.8305 34.9267 36.1797 36.6283C33.232 35.3066 30.1417 33.2406 26.8005 30.3755C30.2208 27.5687 33.2905 25.5561 36.1728 24.2619ZM44 35.5987C46.8428 35.5987 49.1562 33.2853 49.1562 30.4425C49.1562 27.5997 46.8428 25.2845 44 25.2845C41.1572 25.2845 38.8438 27.598 38.8438 30.4408C38.8438 33.2836 41.1572 35.5987 44 35.5987ZM44 27.347C45.7067 27.347 47.0938 28.7358 47.0938 30.4425C47.0938 32.1492 45.705 33.5362 44 33.5362C42.2933 33.5362 40.9045 32.1475 40.9045 30.4425C40.9062 28.7358 42.2933 27.347 44 27.347ZM42.9688 16.8369V13.9614C42.9688 13.3925 43.4311 12.9302 44 12.9302C44.5689 12.9302 45.0312 13.3925 45.0312 13.9614V16.8369C45.0312 17.4058 44.5689 17.8681 44 17.8681C43.4311 17.8681 42.9688 17.4058 42.9688 16.8369ZM29.9698 17.8698C29.5677 17.4677 29.5677 16.8145 29.9698 16.4123C30.372 16.0102 31.0252 16.0102 31.4273 16.4123L35.1072 20.0922C35.5094 20.4944 35.5094 21.1475 35.1072 21.5497C34.9061 21.7508 34.6414 21.8522 34.3784 21.8522C34.1155 21.8522 33.8508 21.7508 33.6497 21.5497L29.9698 17.8698ZM52.8911 21.5497C52.4889 21.1475 52.4889 20.4944 52.8911 20.0922L56.5709 16.4123C56.9731 16.0102 57.6262 16.0102 58.0284 16.4123C58.4306 16.8145 58.4306 17.4677 58.0284 17.8698L54.3486 21.5497C54.1475 21.7508 53.8828 21.8522 53.6198 21.8522C53.3569 21.8522 53.0922 21.7508 52.8911 21.5497ZM70.9775 42.9688H44H34.5159C33.947 42.9688 33.4847 43.4311 33.4847 44V72.71C33.4847 73.2789 33.947 73.7412 34.5159 73.7412H44H70.9775C71.5464 73.7412 72.0088 73.2789 72.0088 72.71V58.0044V44C72.0088 43.4311 71.5464 42.9688 70.9775 42.9688ZM69.9463 56.9731H45.0312V45.0312H69.9463V56.9731ZM35.5472 45.0312H42.9688V58.0044V71.6787H35.5472V45.0312ZM69.9463 71.6787H45.0312V59.0356H69.9463V71.6787ZM31.6095 45.4661C31.6095 46.035 31.1472 46.4973 30.5783 46.4973H15.3244C14.7555 46.4973 14.2931 46.035 14.2931 45.4661C14.2931 44.8972 14.7555 44.4348 15.3244 44.4348H30.5783C31.1489 44.4348 31.6095 44.8955 31.6095 45.4661ZM14.2931 51.5419C14.2931 50.973 14.7555 50.5106 15.3244 50.5106H26.302C26.8709 50.5106 27.3333 50.973 27.3333 51.5419C27.3333 52.1108 26.8709 52.5731 26.302 52.5731H15.3244C14.7555 52.5731 14.2931 52.1108 14.2931 51.5419ZM31.6095 57.6177C31.6095 58.1866 31.1472 58.6489 30.5783 58.6489H15.3244C14.7555 58.6489 14.2931 58.1866 14.2931 57.6177C14.2931 57.0488 14.7555 56.5864 15.3244 56.5864H30.5783C31.1489 56.5864 31.6095 57.0488 31.6095 57.6177ZM31.6095 63.6934C31.6095 64.2623 31.1472 64.7247 30.5783 64.7247H18.6433C18.0744 64.7247 17.612 64.2623 17.612 63.6934C17.612 63.1245 18.0744 62.6622 18.6433 62.6622H30.5783C31.1489 62.6622 31.6095 63.1245 31.6095 63.6934ZM31.6095 69.7692C31.6095 70.3381 31.1472 70.8005 30.5783 70.8005H15.3244C14.7555 70.8005 14.2931 70.3381 14.2931 69.7692C14.2931 69.2003 14.7555 68.738 15.3244 68.738H30.5783C31.1489 68.738 31.6095 69.2003 31.6095 69.7692Z" fill="#322040" stroke="#322040" stroke-width="0.5"/>
</svg>
