<svg width="88" height="88" viewBox="0 0 88 88" fill="none" xmlns="http://www.w3.org/2000/svg">
<path d="M79.75 17.875H54.4307C54.2172 17.8747 54.0124 17.7897 53.8614 17.6386C53.7104 17.4876 53.6254 17.2829 53.625 17.0693V15.125C53.6249 14.7604 53.48 14.4107 53.2221 14.1529L50.4721 11.4029C50.2143 11.145 49.8646 11.0001 49.5 11H37.4591C36.7364 10.9979 36.0204 11.1392 35.3526 11.4159C34.6849 11.6925 34.0787 12.0989 33.5692 12.6115L28.3057 17.875H8.25C6.42731 17.8772 4.67989 18.6022 3.39105 19.8911C2.10221 21.1799 1.37718 22.9273 1.375 24.75V63.25C1.37718 65.0727 2.10221 66.8201 3.39105 68.109C4.67989 69.3978 6.42731 70.1228 8.25 70.125H33.8415L31.9742 75.7282C30.3508 75.9714 28.8682 76.7882 27.7951 78.0305C26.7221 79.2728 26.1296 80.8585 26.125 82.5V85.25C26.125 85.6147 26.2699 85.9644 26.5277 86.2223C26.7856 86.4802 27.1353 86.625 27.5 86.625H60.5C60.8647 86.625 61.2144 86.4802 61.4723 86.2223C61.7301 85.9644 61.875 85.6147 61.875 85.25V82.5C61.8704 80.8585 61.2779 79.2728 60.2049 78.0305C59.1318 76.7882 57.6492 75.9714 56.0257 75.7282L54.1585 70.125H79.75C81.5727 70.1228 83.3201 69.3978 84.6089 68.109C85.8978 66.8201 86.6228 65.0727 86.625 63.25V24.75C86.6228 22.9273 85.8978 21.1799 84.6089 19.8911C83.3201 18.6022 81.5727 17.8772 79.75 17.875ZM35.5135 14.5558C35.7684 14.2994 36.0716 14.0962 36.4056 13.9579C36.7395 13.8196 37.0976 13.7489 37.4591 13.75H48.9307L50.875 15.6943V17.0693C50.8761 18.012 51.2511 18.9158 51.9177 19.5824C52.5843 20.249 53.488 20.6239 54.4307 20.625H66C66.3647 20.625 66.7144 20.7699 66.9723 21.0278C67.2301 21.2856 67.375 21.6354 67.375 22C67.375 22.3647 67.2301 22.7144 66.9723 22.9723C66.7144 23.2302 66.3647 23.375 66 23.375H51.4443C50.7878 23.375 50.146 23.5697 49.6001 23.9344C49.0542 24.2991 48.6288 24.8175 48.3775 25.424C48.1263 26.0306 48.0606 26.698 48.1887 27.3419C48.3167 27.9857 48.6329 28.5772 49.0971 29.0414L52.0149 31.9592C52.527 32.4687 52.933 33.0747 53.2093 33.7422C53.4857 34.4096 53.627 35.1252 53.625 35.8477V42.625C53.625 42.9897 53.4801 43.3394 53.2223 43.5973C52.9644 43.8552 52.6147 44 52.25 44C51.8853 44 51.5356 43.8552 51.2777 43.5973C51.0199 43.3394 50.875 42.9897 50.875 42.625V36.8899C50.8767 36.3478 50.7708 35.8107 50.5633 35.3098C50.3558 34.8089 50.051 34.3543 49.6664 33.9722L46.3471 30.6529C46.0893 30.395 45.7396 30.2501 45.375 30.25H39.875C39.5104 30.2501 39.1607 30.395 38.9029 30.6529L33.638 35.9178C32.8627 36.6884 31.8148 37.1222 30.7216 37.125H22C21.6353 37.125 21.2856 36.9802 21.0277 36.7223C20.7699 36.4644 20.625 36.1147 20.625 35.75C20.625 35.3854 20.7699 35.0356 21.0277 34.7778C21.2856 34.5199 21.6353 34.375 22 34.375H28.5409C29.2636 34.3772 29.9796 34.2358 30.6474 33.9592C31.3151 33.6826 31.9213 33.2762 32.4307 32.7635L46.3471 18.8471C46.5394 18.6549 46.6703 18.4099 46.7233 18.1432C46.7763 17.8765 46.7491 17.6001 46.6451 17.3489C46.541 17.0977 46.3648 16.8829 46.1388 16.7318C45.9127 16.5808 45.6469 16.5001 45.375 16.5H38.5C38.1354 16.5001 37.7857 16.645 37.5279 16.9029L31.5068 22.924C31.3636 23.0672 31.1936 23.1808 31.0065 23.2583C30.8194 23.3358 30.6189 23.3757 30.4164 23.3757C30.2139 23.3757 30.0134 23.3358 29.8263 23.2583C29.6392 23.1808 29.4692 23.0672 29.326 22.924C29.1828 22.7808 29.0692 22.6108 28.9917 22.4238C28.9142 22.2367 28.8744 22.0362 28.8744 21.8336C28.8744 21.6311 28.9142 21.4306 28.9917 21.2435C29.0692 21.0565 29.1828 20.8865 29.326 20.7433L35.5135 14.5558ZM8.25 20.625H26.3175C26.0457 21.5383 26.0865 22.5161 26.4332 23.4036C26.78 24.2911 27.4129 25.0375 28.2318 25.5246C29.0507 26.0117 30.0088 26.2116 30.9541 26.0928C31.8995 25.9739 32.7782 25.543 33.451 24.8683L39.0692 19.25H42.0558L30.4865 30.8193C30.2316 31.0756 29.9284 31.2788 29.5944 31.4171C29.2605 31.5554 28.9024 31.6261 28.5409 31.625H22C20.906 31.625 19.8568 32.0596 19.0832 32.8332C18.3096 33.6068 17.875 34.656 17.875 35.75C17.875 36.844 18.3096 37.8933 19.0832 38.6668C19.8568 39.4404 20.906 39.875 22 39.875H30.7216C31.6247 39.8776 32.5193 39.701 33.3536 39.3554C34.1879 39.0099 34.9454 38.5023 35.5822 37.862L40.4442 33H44.8057L47.7221 35.9164C47.85 36.0442 47.9514 36.196 48.0205 36.363C48.0896 36.5301 48.1251 36.7091 48.125 36.8899V42.625C48.125 43.719 48.5596 44.7683 49.3332 45.5418C50.1068 46.3154 51.156 46.75 52.25 46.75C53.344 46.75 54.3932 46.3154 55.1668 45.5418C55.9404 44.7683 56.375 43.719 56.375 42.625V35.8477C56.378 34.764 56.1661 33.6905 55.7514 32.6893C55.3367 31.6881 54.7275 30.7791 53.9591 30.0149L51.0414 27.0972C50.9616 27.0175 50.9073 26.916 50.8853 26.8055C50.8632 26.695 50.8745 26.5804 50.9177 26.4763C50.9608 26.3722 51.0339 26.2833 51.1276 26.2207C51.2214 26.1582 51.3316 26.1249 51.4443 26.125H66C67.094 26.125 68.1432 25.6904 68.9168 24.9168C69.6904 24.1433 70.125 23.094 70.125 22C70.1204 21.5305 70.0349 21.0654 69.872 20.625H79.75C80.844 20.625 81.8932 21.0596 82.6668 21.8332C83.4404 22.6068 83.875 23.656 83.875 24.75V56.375H4.125V24.75C4.125 23.656 4.5596 22.6068 5.33318 21.8332C6.10677 21.0596 7.15598 20.625 8.25 20.625ZM59.125 82.5V83.875H28.875V82.5C28.875 81.406 29.3096 80.3568 30.0832 79.5832C30.8568 78.8096 31.906 78.375 33 78.375H55C56.094 78.375 57.1432 78.8096 57.9168 79.5832C58.6904 80.3568 59.125 81.406 59.125 82.5ZM53.0915 75.625H34.9085L36.7414 70.125H51.2586L53.0915 75.625ZM79.75 67.375H8.25C7.15598 67.375 6.10677 66.9404 5.33318 66.1668C4.5596 65.3933 4.125 64.344 4.125 63.25V59.125H83.875V63.25C83.875 64.344 83.4404 65.3933 82.6668 66.1668C81.8932 66.9404 80.844 67.375 79.75 67.375Z" fill="#322040"/>
<path d="M42.625 61.875H45.375V64.625H42.625V61.875Z" fill="#322040"/>
<path d="M52.25 6.875C52.25 7.9628 52.5726 9.02617 53.1769 9.93064C53.7813 10.8351 54.6402 11.5401 55.6452 11.9563C56.6502 12.3726 57.7561 12.4815 58.823 12.2693C59.8899 12.0571 60.8699 11.5333 61.6391 10.7641C62.4083 9.9949 62.9321 9.01489 63.1443 7.948C63.3565 6.8811 63.2476 5.77523 62.8313 4.77024C62.4151 3.76525 61.7101 2.90626 60.8056 2.30192C59.9012 1.69757 58.8378 1.375 57.75 1.375C56.2913 1.375 54.8924 1.95446 53.8609 2.98591C52.8295 4.01736 52.25 5.41631 52.25 6.875ZM60.5 6.875C60.5 7.4189 60.3387 7.95058 60.0365 8.40282C59.7344 8.85505 59.3049 9.20753 58.8024 9.41567C58.2999 9.62381 57.7469 9.67827 57.2135 9.57216C56.6801 9.46605 56.19 9.20414 55.8055 8.81954C55.4209 8.43495 55.1589 7.94495 55.0528 7.4115C54.9467 6.87805 55.0012 6.32512 55.2093 5.82262C55.4175 5.32012 55.7699 4.89063 56.2222 4.58846C56.6744 4.28628 57.2061 4.125 57.75 4.125C58.4793 4.125 59.1788 4.41473 59.6945 4.93046C60.2103 5.44618 60.5 6.14565 60.5 6.875Z" fill="#322040"/>
<path d="M6.875 45.375H9.625V53.625H6.875V45.375Z" fill="#322040"/>
<path d="M12.375 45.375H15.125V53.625H12.375V45.375Z" fill="#322040"/>
<path d="M60.5 53.625H63.25V50.875H81.125V48.125H63.25V45.375H60.5V48.125H17.875V50.875H60.5V53.625Z" fill="#322040"/>
</svg>
