<svg width="90" height="90" viewBox="0 0 90 90" fill="none" xmlns="http://www.w3.org/2000/svg">
<g clip-path="url(#clip0_59_2992)">
<path d="M89.2069 41.7182C89.1726 41.0252 88.5805 40.4559 87.8832 40.4559H72.5961L75.0766 34.7985C75.216 34.4807 75.2238 34.106 75.0979 33.7827L73.8279 30.5226C74.5349 30.2631 75.2203 29.9462 75.8763 29.5729L79.0604 31.5421C79.6491 31.8704 80.2096 31.7917 80.7417 31.3065L83.8205 27.9247C84.2559 27.4466 84.2837 26.7243 83.8864 26.214L81.6 23.2782C81.8803 22.6527 82.112 22.0078 82.2936 21.349L85.9447 20.5061C86.5722 20.3614 87.0053 19.7874 86.9727 19.1444L86.7427 14.5935C86.7103 13.9505 86.2214 13.4234 85.5828 13.3425L81.8652 12.872C81.6183 12.2349 81.3226 11.6168 80.9807 11.0227L82.9593 7.87151C83.3032 7.32376 83.2029 6.60789 82.7214 6.17618L79.3174 3.12191C78.8413 2.69462 78.1282 2.66751 77.6209 3.05707L74.6516 5.33719C74.0173 5.05676 73.3636 4.82504 72.6955 4.64435L71.8509 1.02692C71.7045 0.40104 71.1297 -0.0340441 70.49 0.00209475L65.9057 0.233632C65.2638 0.26605 64.7374 0.753217 64.655 1.39043L64.1793 5.07465C63.5329 5.32195 62.9058 5.61815 62.3031 5.96129L59.119 3.99208C58.575 3.65584 57.8683 3.75452 57.4377 4.22769L54.3589 7.60951C53.9235 8.08764 53.8957 8.80989 54.2932 9.32026L56.5794 12.2558C56.3615 12.7423 56.1758 13.2412 56.0173 13.7483L49.7941 11.0198C49.0219 10.7644 48.4385 10.9922 48.0438 11.7031L42.7615 23.751V3.11163C42.7615 1.3938 40.1043 1.3938 40.1043 3.11163V8.93123C30.998 9.31618 22.5992 14.1276 17.5573 21.8828C16.6521 23.275 18.8018 24.8435 19.7852 23.3312C24.3369 16.33 31.8993 11.9738 40.1043 11.5905V67.8419H31.9119C30.7943 67.8419 29.8851 66.9271 29.8851 65.8025V61.2471C29.8851 60.7583 29.6167 60.309 29.1864 60.0771C20.7312 55.5236 15.535 46.7169 15.6257 37.0935C15.6494 34.5785 16.04 32.091 16.7867 29.6999C17.2987 28.0602 14.7622 27.2678 14.2503 28.9079C13.426 31.5473 12.9948 34.2929 12.9688 37.0686C12.8713 47.4137 18.3148 56.9037 27.228 62.0279V65.8025C27.228 67.9294 28.6459 69.7296 30.5835 70.3055V76.5997C30.5835 80.6641 33.8902 83.9708 37.9545 83.9708H40.1045V88.6712C40.1045 90.389 42.7617 90.389 42.7617 88.6712V56.8705L56.2996 62.8062L55.9951 64.5415C55.5482 64.6934 55.1118 64.8728 54.6886 65.079L52.3029 63.4168C51.7748 63.0487 51.0586 63.1121 50.6035 63.5679L47.9794 66.1944C47.5243 66.6498 47.4614 67.366 47.8298 67.894L49.4944 70.2781C49.2885 70.7016 49.1094 71.138 48.9579 71.5853L46.117 72.0866C45.4799 72.1991 45.0167 72.7538 45.0192 73.4004L45.0344 77.1267C45.0371 77.7664 45.4952 78.3135 46.1244 78.4284L48.9826 78.9501C49.1386 79.4033 49.3231 79.8456 49.5346 80.2747L47.8934 82.6425C47.5275 83.1706 47.5918 83.8852 48.0465 84.3393L50.6921 86.9826C51.1465 87.4366 51.8609 87.5005 52.389 87.1338L54.7554 85.4908C55.1846 85.7019 55.6272 85.8858 56.0803 86.0415L56.6047 88.8993C56.7202 89.5286 57.2676 89.9862 57.9073 89.9881L61.6337 89.9998H61.6379C62.2827 89.9998 62.8349 89.5365 62.9465 88.9009L63.4454 86.0594C63.8925 85.9076 64.3287 85.7281 64.7519 85.5219L67.1374 87.1842C67.6657 87.5524 68.3819 87.489 68.8368 87.033L71.461 84.4066C71.9161 83.9511 71.9789 83.2349 71.6105 82.707L69.946 80.3229C70.1518 79.8993 70.3309 79.463 70.4824 79.0157L73.3234 78.5144C73.9602 78.4019 74.4236 77.8472 74.4212 77.2006L74.4061 73.4742C74.4034 72.8345 73.9453 72.2875 73.3161 72.1725L70.6294 71.6822C74.432 71.6652 78.2939 71.6646 82.0488 71.6646C82.4885 71.7472 82.8945 71.6157 83.2669 71.2701L88.8512 65.3322C89.0829 65.0856 89.2121 64.7601 89.2121 64.4218V41.7845C89.2119 41.7622 89.208 41.7406 89.2069 41.7182ZM84.8097 43.1131L81.7823 46.3321H62.7201L65.7476 43.1131H84.8097ZM69.8161 20.2241C69.6909 19.9024 69.4281 19.6282 69.1116 19.4896L64.0688 17.2786C64.3095 14.8571 66.3126 12.9017 68.8373 12.7742C71.6195 12.639 73.9896 14.7597 74.1289 17.5126C74.2429 19.7695 72.8084 21.799 70.704 22.5035L69.8161 20.2241ZM68.5009 24.1693L69.936 27.8531L71.454 31.7501L66.1813 29.4211L68.5009 24.1693ZM59.1844 11.276L57.0775 8.57073L58.6598 6.83252L61.5996 8.65063C62.0385 8.92185 62.5947 8.91476 63.0266 8.63203C63.8835 8.07046 64.8123 7.63201 65.7868 7.32872C66.2826 7.17442 66.643 6.74519 66.7096 6.23021L67.1484 2.83156L69.5155 2.71198L70.2946 6.04898C70.4128 6.55475 70.8147 6.94537 71.3237 7.049C72.3233 7.25219 73.2915 7.59498 74.2011 8.06744C74.6591 8.30518 75.2136 8.25611 75.6226 7.94202L78.364 5.83675L80.1136 7.40649L78.2901 10.3107C78.0124 10.7531 78.0196 11.3173 78.3086 11.7524C78.8726 12.6018 79.3128 13.5218 79.617 14.4869C79.7729 14.9818 80.2027 15.3406 80.7175 15.4058L84.145 15.8396L84.2626 18.1679L80.8962 18.9451C80.3906 19.0616 79.9993 19.4622 79.8941 19.9701C79.6889 20.9611 79.3437 21.9207 78.868 22.8224C78.6244 23.2844 78.674 23.8463 78.9949 24.2586L81.1019 26.964L79.5194 28.7022L76.5796 26.8841C76.1408 26.6129 75.5845 26.62 75.1528 26.9025C74.4344 27.3732 73.6658 27.7559 72.8628 28.0462L71.6684 24.9803C74.8189 23.8662 76.955 20.7933 76.7822 17.3785C76.5691 13.1621 72.9451 9.90574 68.7029 10.1205C65.1446 10.3003 62.2659 12.8661 61.5559 16.1771L58.4665 14.8226C58.6724 14.0943 58.9551 13.3873 59.311 12.7124C59.555 12.2502 59.5054 11.6882 59.1844 11.276ZM37.9542 81.3137C35.355 81.3137 33.2404 79.1991 33.2404 76.5999V70.4991H40.1041V81.3137H37.9542ZM42.7615 30.3687L49.944 13.9871L66.8244 21.3883L63.2137 29.5626C62.9559 30.3341 63.1821 30.918 63.8922 31.3148L72.1107 34.9452L69.6946 40.456H65.1731C64.8066 40.456 64.4564 40.6073 64.2054 40.8743L58.621 46.8122C58.3471 47.1033 58.2033 47.8797 58.2373 48.2984V60.6028L57.8887 60.6017L42.7615 53.9693V30.3687ZM71.7593 76.0922L69.2118 76.5418C68.6974 76.6327 68.2839 77.0164 68.1551 77.5225C67.956 78.3053 67.6495 79.0527 67.2442 79.744C66.9819 80.1916 67.004 80.7511 67.3011 81.1764L68.7945 83.3157L67.7433 84.3678L65.6026 82.8762C65.1769 82.5795 64.6172 82.558 64.1699 82.8207C63.4794 83.2266 62.7322 83.5336 61.9495 83.7336C61.4434 83.8627 61.06 84.2766 60.9697 84.7912L60.5224 87.3392L59.0187 87.3344L58.5473 84.7653C58.4542 84.2578 58.0756 83.85 57.5764 83.7196C56.7903 83.5143 56.039 83.2016 55.343 82.7904C54.8961 82.5263 54.3361 82.5469 53.9093 82.8431L51.7846 84.3182L50.7093 83.2441L52.1826 81.1181C52.4783 80.6914 52.4985 80.1314 52.2338 79.6844C51.822 78.9884 51.5086 78.2373 51.3025 77.4516C51.1716 76.9526 50.7636 76.5744 50.2559 76.4816L47.6865 76.0125L47.6803 74.509L50.2276 74.0594C50.742 73.9685 51.1555 73.5848 51.2843 73.0786C51.4834 72.2958 51.7899 71.5484 52.1952 70.8572C52.4576 70.4095 52.4354 69.8501 52.1385 69.4247L50.645 67.2854L51.6962 66.2333L53.8367 67.725C54.2622 68.0219 54.8218 68.0433 55.2691 67.7804C55.9604 67.3745 56.7074 67.0674 57.4899 66.8675C57.996 66.7384 58.3794 66.3246 58.4697 65.8099L58.9169 63.262L60.4205 63.2668L60.8919 65.8358C60.9851 66.3433 61.3637 66.7512 61.8629 66.8815C62.6491 67.0869 63.4004 67.3995 64.0962 67.8107C64.5434 68.075 65.1035 68.0545 65.5299 67.7581L67.6545 66.2829L68.7298 67.357L67.2564 69.483C66.9606 69.9098 66.9406 70.4697 67.2051 70.9167C67.6169 71.6127 67.9303 72.3638 68.1364 73.1495C68.2673 73.6485 68.6753 74.0268 69.183 74.1196L71.7525 74.5887L71.7593 76.0922ZM83.6313 67.0041C83.6307 65.6959 83.6275 62.4637 83.6275 62.4637C83.6275 60.7459 80.9703 60.7459 80.9703 62.4637V69.0075C77.6159 69.0077 74.1912 69.0102 70.8078 69.0249L71.5467 67.9586C71.9127 67.4305 71.8484 66.7159 71.3938 66.2619L68.7481 63.6186C68.2935 63.1645 67.579 63.1006 67.0511 63.4673L64.6849 65.1104C64.2557 64.8992 63.8132 64.7153 63.36 64.5596L62.8356 61.7018C62.6682 60.7895 61.7051 60.4945 60.913 60.6109C60.8912 59.1352 61.0512 51.4191 60.913 49.0511H80.9704V55.5268C80.9704 57.2447 83.6277 57.2447 83.6277 55.5268C83.6277 55.5268 83.6318 50.5313 83.6318 48.2449L86.5548 45.1369V63.8958L83.6313 67.0041Z" fill="#462A5A"/>
<path d="M59.7151 69.2653C59.7085 69.2651 59.702 69.2651 59.6954 69.2651C58.0917 69.2651 56.5866 69.888 55.4557 71.0198C54.3201 72.1564 53.6983 73.6697 53.7049 75.2808C53.7114 76.8885 54.3432 78.4014 55.4837 79.5408C56.6242 80.6802 58.1374 81.3105 59.745 81.3157H59.7647C61.3685 81.3157 62.8737 80.6928 64.0046 79.561C65.1402 78.4244 65.762 76.9112 65.7554 75.3C65.7489 73.6925 65.1172 72.1796 63.9768 71.0402C62.836 69.9008 61.3226 69.2705 59.7151 69.2653ZM62.1245 77.6828C61.4932 78.3147 60.6503 78.6682 59.7532 78.6584C58.8518 78.6556 58.0024 78.3013 57.3616 77.6611C56.7207 77.0207 56.3657 76.1716 56.362 75.2702C56.3583 74.3724 56.7041 73.5301 57.3354 72.898C57.9666 72.2661 58.8129 71.9166 59.7066 71.9224C60.6079 71.9254 61.4574 72.2795 62.0983 72.9199C62.7393 73.5602 63.0943 74.4093 63.0978 75.3106C63.1015 76.2086 62.7559 77.0508 62.1245 77.6828Z" fill="#462A5A"/>
<path d="M18.0154 15.2929C19.1308 15.2929 19.7437 13.8137 18.955 13.0248L14.4245 8.49362C13.21 7.27872 11.3308 9.15776 12.5455 10.3723L17.0758 14.9037C17.3353 15.1632 17.6755 15.2929 18.0154 15.2929Z" fill="#462A5A"/>
<path d="M8.48344 36.2251H2.07659C0.358749 36.2251 0.358749 38.8824 2.07659 38.8824H8.48362C10.2015 38.8824 10.2015 36.2251 8.48344 36.2251Z" fill="#462A5A"/>
<path d="M17.4811 60.0361L12.9508 64.5673C11.7361 65.782 13.6153 67.6611 14.8299 66.446L19.3602 61.9148C20.5749 60.7001 18.6957 58.8212 17.4811 60.0361Z" fill="#462A5A"/>
</g>
<defs>
<clipPath id="clip0_59_2992">
<rect width="90" height="90" fill="white"/>
</clipPath>
</defs>
</svg>
