<svg width="103" height="103" viewBox="0 0 103 103" fill="none" xmlns="http://www.w3.org/2000/svg">
<path d="M14.8867 60.1497C14.3571 60.1497 13.8384 60.3642 13.4644 60.739C13.0903 61.1131 12.875 61.6317 12.875 62.1614C12.875 62.6902 13.0903 63.2097 13.4644 63.5829C13.8384 63.9578 14.3571 64.1731 14.8867 64.1731C15.4156 64.1731 15.9342 63.9578 16.3091 63.5829C16.6831 63.2097 16.8984 62.6902 16.8984 62.1614C16.8984 61.6317 16.6831 61.1131 16.3091 60.739C15.9342 60.365 15.4156 60.1497 14.8867 60.1497Z" fill="#462A5A"/>
<path d="M102.409 18.2917L84.7059 0.589371C84.3287 0.212174 83.8172 0 83.2836 0H35.8078C32.4806 0 29.7727 2.70718 29.7727 6.03516V11.3458L20.6303 13.796C19.0728 14.2133 17.7715 15.2113 16.966 16.6077C16.632 17.1853 16.4018 17.8029 16.2737 18.4379L10.2818 5.20532C9.95565 4.4855 9.23898 4.02344 8.44922 4.02344C7.65946 4.02344 6.942 4.4855 6.61667 5.20532L0.179169 19.4209C0.0612947 19.6818 0 19.9647 0 20.2508V90.5258C0 95.1849 3.79005 98.975 8.44922 98.975C13.1076 98.975 16.8984 95.1849 16.8984 90.5258V70.2082C16.8984 69.097 15.9979 68.1965 14.8867 68.1965C13.7756 68.1965 12.875 69.097 12.875 70.2082V84.0883H4.02344V22.2625H12.875V54.3188C12.875 55.4299 13.7756 56.3305 14.8867 56.3305C15.9979 56.3305 16.8984 55.4299 16.8984 54.3188V23.1851L29.7727 71.2345V86.1C29.7727 89.2802 32.2457 91.8915 35.3685 92.1179L37.0856 98.5247C37.5028 100.081 38.5008 101.383 39.8973 102.189C40.8269 102.726 41.8587 103 42.9046 103C43.4288 103 43.9568 102.931 44.4771 102.792L84.247 92.1351H96.9633C100.291 92.1351 102.998 89.428 102.998 86.1V19.7148C102.998 19.1813 102.786 18.6697 102.409 18.2917ZM8.44922 10.912L11.767 18.2391H5.13067L8.44922 10.912ZM12.875 88.1117V90.5258C12.875 92.9666 10.8892 94.9516 8.44922 94.9516C6.00844 94.9516 4.02344 92.9666 4.02344 90.5258V88.1117H12.875ZM85.2953 6.86813L90.7128 12.2856L96.1295 17.7031H88.8158C86.8748 17.7031 85.2953 16.1236 85.2953 14.1826V6.86813ZM20.2492 20.1463C20.1101 19.6276 20.1816 19.0854 20.4504 18.6194C20.7183 18.1542 21.1521 17.821 21.6716 17.6827L29.7727 15.5115V55.69L20.2492 20.1463ZM43.4351 98.9051C42.9164 99.0449 42.3742 98.9734 41.909 98.7047C41.4438 98.4359 41.1106 98.0021 40.9715 97.4835L39.5381 92.1351H68.7018L43.4351 98.9051ZM96.9633 88.1117H35.8078C34.699 88.1117 33.7961 87.2096 33.7961 86.1V13.6797H44.76C45.8711 13.6797 46.7717 12.7783 46.7717 11.668C46.7717 10.5568 45.8711 9.65625 44.76 9.65625H33.7961V6.03516C33.7961 4.92557 34.699 4.02344 35.8078 4.02344H81.2719V14.1826C81.2719 18.342 84.6564 21.7266 88.8158 21.7266H98.975V86.1C98.975 87.2096 98.0729 88.1117 96.9633 88.1117Z" fill="#462A5A"/>
<path d="M72.7472 65.325C78.637 64.6963 86.2878 62.7255 90.0975 59.0808C92.8416 56.4569 93.2306 53.2704 91.1647 50.3401C88.5549 46.6388 83.6804 46.6011 78.1239 50.2403C74.212 52.8021 70.0518 57.1375 67.6221 61.5774C65.7007 61.5719 63.9169 61.4242 62.3397 61.142C65.7298 58.9779 67.0869 55.6923 67.1435 52.8476C67.2189 48.9806 65.0713 45.5764 62.0356 44.7544C60.5307 44.3473 56.6535 44.0747 53.155 50.3385C51.522 53.2618 51.1888 55.6177 51.5063 57.4769C51.0505 57.1296 50.6136 56.7343 50.2073 56.2959C47.3854 53.2531 46.565 48.9342 47.9559 44.4456C50.4423 36.4215 63.6332 31.9541 71.2644 32.5167C72.3708 32.5969 73.3374 31.767 73.4191 30.659C73.5016 29.5518 72.6694 28.5868 71.5614 28.5043C66.7624 28.1491 60.8294 29.3687 55.69 31.7655C49.647 34.5834 45.5356 38.6642 44.1132 43.2543C42.2846 49.155 43.4304 54.9057 47.2573 59.0321C49.6863 61.6521 52.9074 63.1679 55.8849 63.1891C58.7917 64.826 62.5684 65.4193 65.9537 65.5608C65.2677 68.0204 65.3243 70.3535 66.481 72.2576C68.6098 75.7663 72.8549 77.7851 77.7608 77.7851C78.7784 77.7851 79.8244 77.6979 80.8853 77.5203C86.4481 76.5851 90.6091 73.3554 91.4861 69.2919C91.721 68.2059 91.0303 67.1356 89.9443 66.9006C88.8583 66.6672 87.788 67.3572 87.5538 68.4424C87.0344 70.8486 84.0867 72.902 80.2181 73.5526C76.4948 74.1781 71.8655 73.3758 69.9198 70.1696C69.2841 69.1229 69.4632 67.453 70.2279 65.527C71.2094 65.4735 72.0683 65.3973 72.7472 65.325ZM80.3281 53.606C81.4707 52.8571 83.7221 51.5605 85.5994 51.5605C86.4984 51.5605 87.3125 51.8583 87.876 52.6583C88.6288 53.727 88.8221 54.7336 87.3165 56.174C84.8112 58.57 79.0417 60.5708 72.5704 61.2976C74.5593 58.4341 77.338 55.5642 80.3281 53.606ZM56.9191 59.0572C56.0932 58.4137 54.1726 56.7666 56.6676 52.2999C57.9737 49.9613 59.4494 48.59 60.6195 48.59C60.7445 48.59 60.8663 48.6057 60.9834 48.6372C62.045 48.9248 63.1633 50.586 63.1208 52.7683C63.0918 54.2362 62.4293 57.7811 56.9191 59.0572Z" fill="#462A5A"/>
<path d="M52.304 13.6797C52.8328 13.6797 53.3522 13.4644 53.7263 13.0895C54.1004 12.7163 54.3157 12.1968 54.3157 11.668C54.3157 11.1383 54.1004 10.6197 53.7263 10.2456C53.3522 9.87157 52.8328 9.65625 52.304 9.65625C51.7751 9.65625 51.2557 9.87078 50.8816 10.2456C50.5076 10.6197 50.2922 11.1367 50.2922 11.668C50.2922 12.1968 50.5076 12.7163 50.8816 13.0895C51.2557 13.4644 51.7751 13.6797 52.304 13.6797Z" fill="#462A5A"/>
</svg>
