<svg width="90" height="90" viewBox="0 0 90 90" fill="none" xmlns="http://www.w3.org/2000/svg">
<path d="M89.2067 41.7182C89.1724 41.0252 88.5803 40.4559 87.8831 40.4559H72.596L75.0764 34.7985C75.2159 34.4807 75.2236 34.106 75.0977 33.7827L73.8277 30.5226C74.5347 30.2631 75.2201 29.9462 75.8761 29.5729L79.0602 31.5421C79.6489 31.8704 80.2094 31.7917 80.7416 31.3065L83.8203 27.9247C84.2557 27.4466 84.2835 26.7243 83.8862 26.214L81.5999 23.2782C81.8801 22.6527 82.1118 22.0078 82.2934 21.349L85.9445 20.5061C86.572 20.3614 87.0051 19.7874 86.9725 19.1444L86.7426 14.5935C86.7101 13.9505 86.2212 13.4234 85.5826 13.3425L81.8651 12.872C81.6181 12.2349 81.3224 11.6168 80.9805 11.0227L82.9591 7.87151C83.303 7.32376 83.2027 6.60789 82.7212 6.17618L79.3173 3.12191C78.8411 2.69462 78.128 2.66751 77.6207 3.05707L74.6514 5.33719C74.0171 5.05676 73.3634 4.82504 72.6953 4.64435L71.8507 1.02692C71.7044 0.40104 71.1295 -0.0340441 70.4898 0.00209475L65.9055 0.233632C65.2637 0.26605 64.7372 0.753217 64.6548 1.39043L64.1791 5.07465C63.5327 5.32195 62.9056 5.61815 62.3029 5.96129L59.1188 3.99208C58.5748 3.65584 57.8681 3.75452 57.4375 4.22769L54.3588 7.60951C53.9233 8.08764 53.8955 8.80989 54.293 9.32026L56.5792 12.2558C56.3613 12.7423 56.1756 13.2412 56.0171 13.7483L49.7939 11.0198C49.0217 10.7644 48.4384 10.9922 48.0437 11.7031L42.7614 23.751V3.11163C42.7614 1.3938 40.1041 1.3938 40.1041 3.11163V8.93123C30.9978 9.31618 22.5991 14.1276 17.5571 21.8828C16.6519 23.275 18.8016 24.8435 19.785 23.3312C24.3367 16.33 31.8991 11.9738 40.1041 11.5905V67.8419H31.9117C30.7941 67.8419 29.8849 66.9271 29.8849 65.8025V61.2471C29.8849 60.7583 29.6166 60.309 29.1863 60.0771C20.731 55.5236 15.5348 46.7169 15.6255 37.0935C15.6492 34.5785 16.0398 32.091 16.7865 29.6999C17.2985 28.0602 14.7621 27.2678 14.2501 28.9079C13.4258 31.5473 12.9946 34.2929 12.9686 37.0686C12.8711 47.4137 18.3146 56.9037 27.2278 62.0279V65.8025C27.2278 67.9294 28.6458 69.7296 30.5833 70.3055V76.5997C30.5833 80.6641 33.89 83.9708 37.9544 83.9708H40.1043V88.6712C40.1043 90.389 42.7615 90.389 42.7615 88.6712V56.8705L56.2994 62.8062L55.9949 64.5415C55.548 64.6934 55.1116 64.8728 54.6884 65.079L52.3027 63.4168C51.7746 63.0487 51.0584 63.1121 50.6033 63.5679L47.9792 66.1944C47.5241 66.6498 47.4612 67.366 47.8297 67.894L49.4942 70.2781C49.2883 70.7016 49.1092 71.138 48.9578 71.5853L46.1168 72.0866C45.4798 72.1991 45.0165 72.7538 45.019 73.4004L45.0342 77.1267C45.0369 77.7664 45.495 78.3135 46.1242 78.4284L48.9824 78.9501C49.1385 79.4033 49.3229 79.8456 49.5344 80.2747L47.8933 82.6425C47.5273 83.1706 47.5916 83.8852 48.0463 84.3393L50.6919 86.9826C51.1463 87.4366 51.8607 87.5005 52.3888 87.1338L54.7552 85.4908C55.1845 85.7019 55.627 85.8858 56.0801 86.0415L56.6045 88.8993C56.72 89.5286 57.2674 89.9862 57.9071 89.9881L61.6335 89.9998H61.6377C62.2826 89.9998 62.8347 89.5365 62.9463 88.9009L63.4452 86.0594C63.8923 85.9076 64.3285 85.7281 64.7517 85.5219L67.1372 87.1842C67.6655 87.5524 68.3817 87.489 68.8366 87.033L71.4608 84.4066C71.9159 83.9511 71.9788 83.2349 71.6103 82.707L69.9458 80.3229C70.1516 79.8993 70.3307 79.463 70.4822 79.0157L73.3232 78.5144C73.96 78.4019 74.4235 77.8472 74.421 77.2006L74.4059 73.4742C74.4033 72.8345 73.9451 72.2875 73.3159 72.1725L70.6292 71.6822C74.4318 71.6652 78.2937 71.6646 82.0486 71.6646C82.4883 71.7472 82.8943 71.6157 83.2667 71.2701L88.851 65.3322C89.0827 65.0856 89.2119 64.7601 89.2119 64.4218V41.7845C89.2117 41.7622 89.2078 41.7406 89.2067 41.7182ZM84.8095 43.1131L81.7822 46.3321H62.7199L65.7475 43.1131H84.8095ZM69.8159 20.2241C69.6907 19.9024 69.428 19.6282 69.1114 19.4896L64.0686 17.2786C64.3094 14.8571 66.3124 12.9017 68.8372 12.7742C71.6193 12.639 73.9894 14.7597 74.1287 17.5126C74.2428 19.7695 72.8082 21.799 70.7038 22.5035L69.8159 20.2241ZM68.5008 24.1693L69.9359 27.8531L71.4539 31.7501L66.1811 29.4211L68.5008 24.1693ZM59.1842 11.276L57.0773 8.57073L58.6596 6.83252L61.5995 8.65063C62.0383 8.92185 62.5945 8.91476 63.0264 8.63203C63.8833 8.07046 64.8121 7.63201 65.7866 7.32872C66.2825 7.17442 66.6428 6.74519 66.7094 6.23021L67.1482 2.83156L69.5153 2.71198L70.2944 6.04898C70.4126 6.55475 70.8145 6.94537 71.3235 7.049C72.3232 7.25219 73.2913 7.59498 74.201 8.06744C74.6589 8.30518 75.2134 8.25611 75.6224 7.94202L78.3638 5.83675L80.1134 7.40649L78.29 10.3107C78.0122 10.7531 78.0194 11.3173 78.3084 11.7524C78.8724 12.6018 79.3127 13.5218 79.6168 14.4869C79.7727 14.9818 80.2025 15.3406 80.7173 15.4058L84.1448 15.8396L84.2624 18.1679L80.896 18.9451C80.3904 19.0616 79.9991 19.4622 79.8939 19.9701C79.6888 20.9611 79.3435 21.9207 78.8678 22.8224C78.6242 23.2844 78.6738 23.8463 78.9947 24.2586L81.1017 26.964L79.5192 28.7022L76.5794 26.8841C76.1406 26.6129 75.5843 26.62 75.1526 26.9025C74.4343 27.3732 73.6656 27.7559 72.8626 28.0462L71.6682 24.9803C74.8187 23.8662 76.9548 20.7933 76.782 17.3785C76.5689 13.1621 72.945 9.90574 68.7027 10.1205C65.1444 10.3003 62.2657 12.8661 61.5557 16.1771L58.4664 14.8226C58.6722 14.0943 58.9549 13.3873 59.3108 12.7124C59.5548 12.2502 59.5052 11.6882 59.1842 11.276ZM37.954 81.3137C35.3548 81.3137 33.2402 79.1991 33.2402 76.5999V70.4991H40.1039V81.3137H37.954ZM42.7614 30.3687L49.9438 13.9871L66.8242 21.3883L63.2135 29.5626C62.9557 30.3341 63.182 30.918 63.892 31.3148L72.1106 34.9452L69.6944 40.456H65.173C64.8064 40.456 64.4562 40.6073 64.2052 40.8743L58.6208 46.8122C58.347 47.1033 58.2031 47.8797 58.2371 48.2984V60.6028L57.8885 60.6017L42.7614 53.9693V30.3687ZM71.7591 76.0922L69.2117 76.5418C68.6972 76.6327 68.2837 77.0164 68.155 77.5225C67.9558 78.3053 67.6494 79.0527 67.244 79.744C66.9817 80.1916 67.0038 80.7511 67.3009 81.1764L68.7943 83.3157L67.7431 84.3678L65.6024 82.8762C65.1767 82.5795 64.6171 82.558 64.1698 82.8207C63.4792 83.2266 62.732 83.5336 61.9493 83.7336C61.4432 83.8627 61.0599 84.2766 60.9695 84.7912L60.5222 87.3392L59.0185 87.3344L58.5471 84.7653C58.454 84.2578 58.0754 83.85 57.5762 83.7196C56.7902 83.5143 56.0389 83.2016 55.3428 82.7904C54.8959 82.5263 54.3359 82.5469 53.9091 82.8431L51.7844 84.3182L50.7091 83.2441L52.1824 81.1181C52.4781 80.6914 52.4983 80.1314 52.2336 79.6844C51.8218 78.9884 51.5084 78.2373 51.3024 77.4516C51.1714 76.9526 50.7635 76.5744 50.2558 76.4816L47.6863 76.0125L47.6801 74.509L50.2274 74.0594C50.7419 73.9685 51.1553 73.5848 51.2841 73.0786C51.4832 72.2958 51.7897 71.5484 52.195 70.8572C52.4574 70.4095 52.4352 69.8501 52.1383 69.4247L50.6448 67.2854L51.696 66.2333L53.8365 67.725C54.262 68.0219 54.8217 68.0433 55.269 67.7804C55.9602 67.3745 56.7072 67.0674 57.4897 66.8675C57.9958 66.7384 58.3792 66.3246 58.4696 65.8099L58.9167 63.262L60.4203 63.2668L60.8917 65.8358C60.9849 66.3433 61.3635 66.7512 61.8627 66.8815C62.6489 67.0869 63.4002 67.3995 64.0961 67.8107C64.5432 68.075 65.1033 68.0545 65.5297 67.7581L67.6543 66.2829L68.7296 67.357L67.2563 69.483C66.9604 69.9098 66.9404 70.4697 67.2049 70.9167C67.6168 71.6127 67.9301 72.3638 68.1362 73.1495C68.2671 73.6485 68.6751 74.0268 69.1828 74.1196L71.7524 74.5887L71.7591 76.0922ZM83.6311 67.0041C83.6305 65.6959 83.6274 62.4637 83.6274 62.4637C83.6274 60.7459 80.9701 60.7459 80.9701 62.4637V69.0075C77.6157 69.0077 74.191 69.0102 70.8076 69.0249L71.5465 67.9586C71.9125 67.4305 71.8482 66.7159 71.3936 66.2619L68.7479 63.6186C68.2933 63.1645 67.5789 63.1006 67.0509 63.4673L64.6847 65.1104C64.2555 64.8992 63.813 64.7153 63.3598 64.5596L62.8355 61.7018C62.668 60.7895 61.7049 60.4945 60.9128 60.6109C60.891 59.1352 61.051 51.4191 60.9128 49.0511H80.9703V55.5268C80.9703 57.2447 83.6275 57.2447 83.6275 55.5268C83.6275 55.5268 83.6316 50.5313 83.6316 48.2449L86.5546 45.1369V63.8958L83.6311 67.0041Z" fill="white"/>
<path d="M59.7149 69.2653C59.7083 69.2651 59.7017 69.2651 59.6952 69.2651C58.0914 69.2651 56.5864 69.888 55.4554 71.0198C54.3199 72.1564 53.6981 73.6697 53.7046 75.2808C53.7112 76.8885 54.3429 78.4014 55.4834 79.5408C56.6239 80.6802 58.1371 81.3105 59.7448 81.3157H59.7645C61.3682 81.3157 62.8735 80.6928 64.0044 79.561C65.1399 78.4244 65.7617 76.9112 65.7552 75.3C65.7486 73.6925 65.1169 72.1796 63.9766 71.0402C62.8357 69.9008 61.3223 69.2705 59.7149 69.2653ZM62.1243 77.6828C61.4929 78.3147 60.65 78.6682 59.7529 78.6584C58.8516 78.6556 58.0022 78.3013 57.3614 77.6611C56.7205 77.0207 56.3655 76.1716 56.3617 75.2702C56.358 74.3724 56.7038 73.5301 57.3352 72.898C57.9664 72.2661 58.8126 71.9166 59.7064 71.9224C60.6077 71.9254 61.4571 72.2795 62.0981 72.9199C62.739 73.5602 63.094 74.4093 63.0976 75.3106C63.1013 76.2086 62.7557 77.0508 62.1243 77.6828Z" fill="white"/>
<path d="M18.0152 15.2929C19.1305 15.2929 19.7435 13.8137 18.9548 13.0248L14.4243 8.49362C13.2098 7.27872 11.3305 9.15776 12.5453 10.3723L17.0756 14.9037C17.3351 15.1632 17.6752 15.2929 18.0152 15.2929Z" fill="white"/>
<path d="M8.48332 36.2251H2.07646C0.358627 36.2251 0.358627 38.8824 2.07646 38.8824H8.4835C10.2013 38.8824 10.2013 36.2251 8.48332 36.2251Z" fill="white"/>
<path d="M17.4808 60.0361L12.9505 64.5673C11.7358 65.782 13.615 67.6611 14.8296 66.446L19.3599 61.9148C20.5746 60.7001 18.6954 58.8212 17.4808 60.0361Z" fill="white"/>
</svg>
