<svg width="88" height="88" viewBox="0 0 88 88" fill="none" xmlns="http://www.w3.org/2000/svg">
<path d="M83.375 62.2812C84.4939 62.2812 85.5669 61.8368 86.3581 61.0456C87.1493 60.2544 87.5938 59.1814 87.5938 58.0625V4.625C87.5938 3.50612 87.1493 2.43306 86.3581 1.64189C85.5669 0.850724 84.4939 0.40625 83.375 0.40625H4.625C3.50612 0.40625 2.43306 0.850724 1.64189 1.64189C0.850724 2.43306 0.40625 3.50612 0.40625 4.625V58.0625C0.40625 59.1814 0.850724 60.2544 1.64189 61.0456C2.43306 61.8368 3.50612 62.2812 4.625 62.2812H29.375C32.0909 66.6139 36.1189 69.9665 40.8725 71.8508L36.3866 76.3438H31.3438V72.125C31.3438 71.0061 30.8993 69.9331 30.1081 69.1419C29.3169 68.3507 28.2439 67.9062 27.125 67.9062H10.25C9.13112 67.9062 8.05806 68.3507 7.26689 69.1419C6.47572 69.9331 6.03125 71.0061 6.03125 72.125V83.375C6.03125 84.4939 6.47572 85.5669 7.26689 86.3581C8.05806 87.1493 9.13112 87.5938 10.25 87.5938H27.125C28.2439 87.5938 29.3169 87.1493 30.1081 86.3581C30.8993 85.5669 31.3438 84.4939 31.3438 83.375V79.1562H36.9688C37.3417 79.1562 37.6993 79.008 37.963 78.7442L43.8988 72.8084C46.9987 73.5949 50.2266 73.7404 53.3848 73.236C56.543 72.7316 59.565 71.5879 62.2658 69.875L65.922 73.5312L65.51 73.9433C65.2464 74.207 65.0983 74.5646 65.0983 74.9375C65.0983 75.3104 65.2464 75.668 65.51 75.9317L75.012 85.4338C75.6966 86.1183 76.5093 86.6614 77.4038 87.0319C78.2982 87.4023 79.2569 87.593 80.225 87.593C81.1931 87.593 82.1518 87.4023 83.0462 87.0319C83.9407 86.6614 84.7534 86.1183 85.438 85.4338C86.1225 84.7492 86.6656 83.9365 87.0361 83.042C87.4066 82.1476 87.5973 81.1889 87.5973 80.2208C87.5973 79.2526 87.4066 78.294 87.0361 77.3995C86.6656 76.5051 86.1225 75.6924 85.438 75.0078L75.9359 65.5058C75.6722 65.2421 75.3146 65.094 74.9417 65.094C74.5688 65.094 74.2112 65.2421 73.9475 65.5058L73.5312 65.9178L69.8947 62.2812H83.375ZM28.5312 83.375C28.5312 83.748 28.3831 84.1056 28.1194 84.3694C27.8556 84.6331 27.498 84.7812 27.125 84.7812H10.25C9.87704 84.7812 9.51935 84.6331 9.25563 84.3694C8.99191 84.1056 8.84375 83.748 8.84375 83.375V72.125C8.84375 71.752 8.99191 71.3944 9.25563 71.1306C9.51935 70.8669 9.87704 70.7188 10.25 70.7188H27.125C27.498 70.7188 27.8556 70.8669 28.1194 71.1306C28.3831 71.3944 28.5312 71.752 28.5312 72.125V83.375ZM4.625 59.4688C4.25204 59.4688 3.89435 59.3206 3.63063 59.0569C3.36691 58.7931 3.21875 58.4355 3.21875 58.0625V4.625C3.21875 4.25204 3.36691 3.89435 3.63063 3.63063C3.89435 3.36691 4.25204 3.21875 4.625 3.21875H83.375C83.748 3.21875 84.1056 3.36691 84.3694 3.63063C84.6331 3.89435 84.7812 4.25204 84.7812 4.625V58.0625C84.7812 58.4355 84.6331 58.7931 84.3694 59.0569C84.1056 59.3206 83.748 59.4688 83.375 59.4688H71.3853C72.6917 56.6034 73.4169 53.5074 73.519 50.36C73.621 47.2125 73.0979 44.0761 71.9799 41.1321C70.8619 38.1881 69.1711 35.4951 67.0055 33.2089C64.8399 30.9226 62.2424 29.0885 59.3633 27.8127L66.5 20.6759V24.3125H69.3125V17.2812C69.3125 16.9083 69.1643 16.5506 68.9006 16.2869C68.6369 16.0232 68.2792 15.875 67.9062 15.875H60.875V18.6875H64.5116L56.4692 26.7298C54.5061 26.1477 52.476 25.8216 50.4294 25.7595L43.7863 15.1297C43.6598 14.9274 43.4841 14.7607 43.2755 14.645C43.0668 14.5294 42.8323 14.4687 42.5938 14.4688H36.9688V10.25C36.9688 9.13112 36.5243 8.05806 35.7331 7.26689C34.9419 6.47572 33.8689 6.03125 32.75 6.03125H15.875C14.7561 6.03125 13.6831 6.47572 12.8919 7.26689C12.1007 8.05806 11.6562 9.13112 11.6562 10.25V21.5C11.6562 22.6189 12.1007 23.6919 12.8919 24.4831C13.6831 25.2743 14.7561 25.7188 15.875 25.7188H32.75C33.8689 25.7188 34.9419 25.2743 35.7331 24.4831C36.5243 23.6919 36.9688 22.6189 36.9688 21.5V17.2812H41.8147L47.1669 25.8453C41.107 26.4787 35.5188 29.4059 31.5477 34.0269L29.5789 31.8148C29.4481 31.6679 29.2878 31.55 29.1086 31.4689C28.9293 31.3877 28.735 31.3451 28.5383 31.3438H28.5312C28.3364 31.3437 28.1436 31.3842 27.9652 31.4627C27.7868 31.5411 27.6266 31.6558 27.4948 31.7994L12.0261 48.6744L14.0989 50.5756L28.5158 34.8481L29.7941 36.2881C26.3039 41.4273 24.9815 47.7356 26.1139 53.8438H8.84375V15.875H6.03125V55.25C6.03125 55.623 6.17941 55.9806 6.44313 56.2444C6.70685 56.5081 7.06454 56.6562 7.4375 56.6562H26.7777C27.0794 57.6161 27.4425 58.5555 27.8647 59.4688H4.625ZM34.1562 10.25V21.5C34.1562 21.873 34.0081 22.2306 33.7444 22.4944C33.4806 22.7581 33.123 22.9062 32.75 22.9062H15.875C15.502 22.9062 15.1444 22.7581 14.8806 22.4944C14.6169 22.2306 14.4688 21.873 14.4688 21.5V10.25C14.4688 9.87704 14.6169 9.51935 14.8806 9.25563C15.1444 8.99191 15.502 8.84375 15.875 8.84375H32.75C33.123 8.84375 33.4806 8.99191 33.7444 9.25563C34.0081 9.51935 34.1562 9.87704 34.1562 10.25ZM28.5312 49.625C28.5312 45.453 29.7684 41.3748 32.0862 37.9059C34.404 34.4371 37.6984 31.7335 41.5528 30.1369C45.4072 28.5404 49.6484 28.1227 53.7402 28.9366C57.832 29.7505 61.5905 31.7595 64.5405 34.7095C67.4905 37.6595 69.4995 41.418 70.3134 45.5098C71.1273 49.6016 70.7096 53.8428 69.1131 57.6972C67.5165 61.5516 64.8129 64.846 61.3441 67.1638C57.8752 69.4816 53.797 70.7188 49.625 70.7188C44.0325 70.7124 38.6709 68.488 34.7165 64.5335C30.762 60.5791 28.5376 55.2175 28.5312 49.625ZM83.4453 76.9963C83.8767 77.4179 84.2201 77.921 84.4557 78.4764C84.6912 79.0317 84.8143 79.6283 84.8177 80.2315C84.8211 80.8347 84.7048 81.4326 84.4756 81.9906C84.2463 82.5486 83.9086 83.0555 83.4821 83.4821C83.0555 83.9086 82.5486 84.2463 81.9906 84.4756C81.4326 84.7048 80.8347 84.8211 80.2315 84.8177C79.6283 84.8143 79.0317 84.6912 78.4764 84.4557C77.921 84.2201 77.4179 83.8767 76.9963 83.4453L68.4884 74.9375L74.9375 68.4884L83.4453 76.9963ZM67.9062 71.5428L64.5973 68.2339C65.9361 67.1553 67.1553 65.9361 68.2339 64.5973L71.5428 67.9062L67.9062 71.5428Z" fill="white"/>
</svg>
