<svg width="108" height="111" viewBox="0 0 108 111" fill="none" xmlns="http://www.w3.org/2000/svg">
<path d="M106.55 78.8753L100.329 77.8721C99.9852 76.7842 99.5502 75.7276 99.0283 74.713L102.724 69.5708C103.22 68.8807 103.145 67.9298 102.547 67.3274L97.7528 62.498C97.1547 61.8955 96.2107 61.8201 95.5256 62.3196L90.4209 66.0424C89.413 65.5162 88.3637 65.0779 87.2844 64.7321L86.2885 58.4656C86.1549 57.6244 85.4343 57.0054 84.5884 57.0054H77.8083C76.9625 57.0054 76.2419 57.6244 76.1083 58.4656L75.1124 64.7321C74.0324 65.0779 72.9834 65.516 71.9755 66.0422L66.8709 62.3193C66.1856 61.8196 65.2417 61.8951 64.6438 62.4978L59.8496 67.3271C59.2514 67.9296 59.1763 68.8805 59.6724 69.5705L63.3685 74.7125C62.8464 75.7276 62.4114 76.784 62.0681 77.8717L55.8463 78.875C55.011 79.0097 54.3968 79.7355 54.3968 80.5875V87.4171C54.3968 88.2691 55.0113 88.9949 55.8463 89.1295L62.0679 90.1327C62.4114 91.2205 62.8464 92.277 63.3685 93.2918L59.6724 98.434C59.1763 99.1241 59.2514 100.075 59.8496 100.677L64.6438 105.507C65.2419 106.109 66.1859 106.185 66.8709 105.685L71.9757 101.962C72.9834 102.488 74.0326 102.927 75.1122 103.272L76.108 109.539C76.2417 110.38 76.9623 110.999 77.8081 110.999H84.5882C85.4341 110.999 86.1546 110.38 86.2883 109.539L87.2842 103.272C88.364 102.926 89.413 102.488 90.4207 101.962L95.5254 105.685C96.2105 106.185 97.1545 106.109 97.7526 105.507L102.547 100.677C103.145 100.075 103.22 99.1241 102.724 98.434L99.0283 93.292C99.5506 92.2768 99.9858 91.2201 100.329 90.1324L106.55 89.1293C107.386 88.9947 108 88.2688 108 87.4168V80.5877C108 79.7357 107.386 79.0099 106.55 78.8753ZM104.556 85.9385L98.7043 86.8822C98.0268 86.9915 97.4784 87.4955 97.3084 88.165C96.9195 89.6969 96.3145 91.1661 95.5106 92.5317C95.1606 93.1264 95.1944 93.8735 95.5969 94.4335L99.0741 99.2709L96.356 102.009L91.5536 98.5062C90.9977 98.1006 90.2558 98.0666 89.6659 98.4193C88.3106 99.2288 86.852 99.8378 85.3308 100.23C84.6661 100.401 84.1657 100.954 84.0573 101.636L83.1199 107.531H79.276L78.3391 101.637C78.2306 100.954 77.7302 100.402 77.0656 100.23C75.5446 99.8386 74.0862 99.2294 72.7309 98.4195C72.1408 98.0668 71.3987 98.1008 70.8427 98.5062L66.0401 102.009L63.322 99.2709L66.7992 94.4333C67.2017 93.8733 67.2355 93.1262 66.8856 92.5315C66.0821 91.1668 65.4773 89.6975 65.088 88.1648C64.9179 87.4953 64.3696 86.9913 63.692 86.882L57.8396 85.9383V82.0665L63.692 81.1226C64.3693 81.0133 64.9179 80.5093 65.088 79.8398C65.4771 78.3075 66.0819 76.8382 66.8856 75.4733C67.2355 74.8786 67.2015 74.1315 66.7992 73.5715L63.322 68.7341L66.0401 65.9962L70.8425 69.4986C71.3984 69.904 72.1401 69.938 72.7305 69.5855C74.0858 68.7758 75.5444 68.1666 77.0656 67.7748C77.7304 67.6036 78.2308 67.0512 78.3393 66.3687L79.2762 60.474H83.1202L84.057 66.3687C84.1655 67.0512 84.6659 67.6036 85.3308 67.7748C86.8511 68.1664 88.3097 68.7756 89.6654 69.5857C90.2556 69.9382 90.9975 69.9042 91.5534 69.4988L96.3558 65.9962L99.0739 68.7341L95.5967 73.5718C95.1942 74.1317 95.1604 74.879 95.5104 75.4735C96.3138 76.8378 96.9184 78.307 97.3079 79.84C97.478 80.5095 98.0264 81.0135 98.7039 81.1228L104.556 82.0665V85.9385ZM81.198 72.1769C74.7246 72.1769 69.4582 77.4819 69.4582 84.0025C69.4582 90.5231 74.7246 95.8279 81.198 95.8279C87.6714 95.8279 92.9378 90.5231 92.9378 84.0025C92.9378 77.4819 87.6714 72.1769 81.198 72.1769ZM81.198 92.3594C76.6235 92.3594 72.9018 88.6105 72.9018 84.0027C72.9018 79.3947 76.6235 75.6458 81.198 75.6458C85.7724 75.6458 89.4941 79.3947 89.4941 84.0027C89.4943 88.6105 85.7726 92.3594 81.198 92.3594ZM16.6024 55.1609V58.0788C16.6024 60.1013 17.8749 61.8298 19.6554 62.4958V64.0303C19.6554 66.0439 20.9169 67.7657 22.6852 68.438V69.9818C22.6852 72.5788 24.7828 74.6919 27.361 74.6919H31.1948C33.773 74.6919 35.8707 72.579 35.8707 69.9818V68.438C37.639 67.7657 38.9002 66.0439 38.9002 64.0303V62.4173C40.5768 61.7008 41.7556 60.0261 41.7556 58.079V55.1596C42.2044 47.5845 44.0684 44.3742 45.8718 41.2701C47.5218 38.4296 49.0802 35.747 49.0802 30.5499C49.0802 19.4963 40.1526 10.5036 29.1792 10.5036C18.2059 10.5036 9.27803 19.4961 9.27803 30.5497C9.27803 35.7468 10.8365 38.4296 12.4864 41.2699C14.2896 44.3742 16.1539 47.5847 16.6024 55.1609ZM24.3179 33.2053H21.8152C20.4352 33.2053 19.3126 32.0744 19.3126 30.6843C19.3126 29.2942 20.4352 28.1634 21.8152 28.1634C23.1953 28.1634 24.3179 29.2942 24.3179 30.6843V33.2053ZM30.5965 53.3682H27.7615V36.674H30.5965V53.3682ZM38.312 56.837V58.0788C38.312 58.7632 37.7593 59.32 37.0798 59.32H21.2782C20.5988 59.32 20.0461 58.7632 20.0461 58.0788V56.837H38.312ZM34.2246 65.2713H24.3315C23.652 65.2713 23.0991 64.7145 23.0991 64.0299V62.7885H35.4568V64.0299C35.4566 64.7145 34.9039 65.2713 34.2246 65.2713ZM31.1948 71.223H27.361C26.6815 71.223 26.1288 70.6662 26.1288 69.9816V68.74H32.4272V69.9816C32.427 70.6662 31.8743 71.223 31.1948 71.223ZM29.179 13.9721C38.2537 13.9721 45.6364 21.4087 45.6364 30.5497C45.6364 34.8065 44.4285 36.8858 42.8995 39.5182C41.1982 42.4469 39.1087 46.0438 38.4368 53.3685H34.0401V36.6742H36.5428C39.8216 36.6742 42.4891 33.9872 42.4891 30.6846C42.4891 27.3819 39.8216 24.6949 36.5428 24.6949C33.264 24.6949 30.5965 27.3819 30.5965 30.6846V33.2055H27.7615V30.6846C27.7615 27.3819 25.094 24.6949 21.8152 24.6949C18.5365 24.6949 15.8689 27.3819 15.8689 30.6846C15.8689 33.9872 18.5365 36.6742 21.8152 36.6742H24.3179V53.3685H19.9212C19.2493 46.0438 17.1599 42.4471 15.4587 39.5182C13.9297 36.8858 12.7219 34.8067 12.7219 30.5497C12.7217 21.4087 20.1044 13.9721 29.179 13.9721ZM34.0401 33.2053V30.6843C34.0401 29.2942 35.1628 28.1634 36.5428 28.1634C37.9228 28.1634 39.0455 29.2942 39.0455 30.6843C39.0455 32.0744 37.9228 33.2053 36.5428 33.2053H34.0401ZM27.4574 6.04777V1.73438C27.4574 0.776566 28.2284 0 29.1792 0C30.1301 0 30.9011 0.776566 30.9011 1.73438V6.04777C30.9011 7.00557 30.1301 7.78214 29.1792 7.78214C28.2284 7.78214 27.4574 7.00557 27.4574 6.04777ZM11.8356 6.88005C11.3601 6.05037 11.6423 4.9898 12.4658 4.51089C13.2892 4.03221 14.3423 4.31621 14.8178 5.14567L16.9588 8.88108C17.4343 9.71077 17.1521 10.7713 16.3287 11.2502C16.0575 11.4079 15.7615 11.4829 15.4693 11.4829C14.8742 11.4829 14.2954 11.1718 13.9764 10.6155L11.8356 6.88005ZM6.92172 20.7262C6.60275 21.2825 6.02401 21.5936 5.4289 21.5936C5.13684 21.5936 4.84069 21.5186 4.5695 21.361L0.861135 19.2043C0.037675 18.7254 -0.244488 17.6646 0.230949 16.8351C0.706386 16.0055 1.75949 15.7212 2.58295 16.2004L6.29132 18.3571C7.115 18.836 7.39716 19.8965 6.92172 20.7262ZM41.3992 8.8813L43.5403 5.14589C44.0157 4.31621 45.0686 4.03177 45.8923 4.51111C46.7157 4.99001 46.9979 6.0508 46.5225 6.88027L44.3814 10.6157C44.0626 11.172 43.4837 11.4831 42.8886 11.4831C42.5965 11.4831 42.3006 11.4081 42.0292 11.2505C41.2059 10.7716 40.9238 9.71077 41.3992 8.8813ZM51.4365 20.7262C50.9611 19.8965 51.2433 18.836 52.0667 18.3571L55.7751 16.2004C56.5986 15.7217 57.6517 16.0057 58.1271 16.8351C58.6025 17.6648 58.3204 18.7254 57.4969 19.2043L53.7885 21.361C53.5174 21.5186 53.2214 21.5936 52.9291 21.5936C52.3343 21.5938 51.7555 21.2825 51.4365 20.7262ZM53.3542 95.1686L38.292 84.0376C37.7687 83.6511 37.0742 83.5936 36.4952 83.8889C35.9163 84.1842 35.5515 84.7823 35.5515 85.436V89.4385C27.4144 89.2152 19.811 87.1708 17.1308 76.6579C16.9556 75.9702 16.3818 75.4596 15.6828 75.369C14.9833 75.2782 14.3004 75.6261 13.9581 76.2468C10.7631 82.0381 10.813 88.8468 14.0914 94.4595C16.0174 97.7572 19.0067 100.492 22.7358 102.369C26.3901 104.208 30.6944 105.235 35.5515 105.429V109.266C35.5515 109.939 35.9387 110.552 36.5447 110.837C36.7774 110.946 37.026 111 37.2731 111C37.6697 111 38.0625 110.862 38.3785 110.596L53.4407 97.897C53.8464 97.5549 54.0733 97.0441 54.0565 96.5115C54.0397 95.979 53.7806 95.4838 53.3542 95.1686ZM38.9951 105.552V103.729C38.9951 102.771 38.2242 101.995 37.2733 101.995C27.8769 101.995 20.509 98.6072 17.0594 92.7006C15.1473 89.427 14.5954 85.6454 15.4083 82.0266C17.3185 86.0083 20.2458 88.9134 24.1511 90.6922C28.4793 92.6638 33.2135 92.9296 37.2735 92.9296C38.2244 92.9296 38.9953 92.153 38.9953 91.1952V88.8594L49.5466 96.6569L38.9951 105.552ZM53.2507 32.8608C53.2677 33.3934 53.5266 33.8886 53.9532 34.2036L70.097 46.1339C70.6202 46.5207 71.3149 46.5782 71.8937 46.2827C72.4724 45.9874 72.8375 45.3892 72.8375 44.7356V40.3179C81.6555 40.5399 89.917 42.7107 92.8241 54.1129C92.9993 54.8006 93.5731 55.3112 94.2722 55.4018C94.346 55.4113 94.4194 55.4159 94.4923 55.4159C95.1113 55.4159 95.6905 55.079 95.9968 54.524C99.3997 48.3557 99.3468 41.1047 95.8556 35.1272C93.8034 31.6135 90.6174 28.6989 86.6417 26.6983C82.7112 24.7203 78.0739 23.6222 72.8372 23.4264V19.195C72.8372 18.5214 72.4501 17.9085 71.844 17.6236C71.2383 17.3385 70.5231 17.4326 70.0102 17.8649L53.8665 31.4752C53.461 31.8173 53.2339 32.3281 53.2507 32.8608ZM69.3936 22.9083V25.1291C69.3936 26.087 70.1645 26.8635 71.1154 26.8635C81.2315 26.8635 89.1672 30.5168 92.8874 36.886C95.014 40.5271 95.5829 44.7506 94.5894 48.7637C92.559 44.3582 89.3906 41.1565 85.1291 39.2155C80.5114 37.1122 75.4538 36.8286 71.1154 36.8286C70.1645 36.8286 69.3936 37.6052 69.3936 38.563V41.3122L57.7608 32.7155L69.3936 22.9083Z" fill="white"/>
</svg>
