<svg width="90" height="90" viewBox="0 0 90 90" fill="none" xmlns="http://www.w3.org/2000/svg">
<path d="M84.375 63.2812C85.4939 63.2812 86.5669 62.8368 87.3581 62.0456C88.1493 61.2544 88.5938 60.1814 88.5938 59.0625V5.625C88.5938 4.50612 88.1493 3.43306 87.3581 2.64189C86.5669 1.85072 85.4939 1.40625 84.375 1.40625H5.625C4.50612 1.40625 3.43306 1.85072 2.64189 2.64189C1.85072 3.43306 1.40625 4.50612 1.40625 5.625V59.0625C1.40625 60.1814 1.85072 61.2544 2.64189 62.0456C3.43306 62.8368 4.50612 63.2812 5.625 63.2812H30.375C33.0909 67.6139 37.1189 70.9665 41.8725 72.8508L37.3866 77.3438H32.3438V73.125C32.3438 72.0061 31.8993 70.9331 31.1081 70.1419C30.3169 69.3507 29.2439 68.9062 28.125 68.9062H11.25C10.1311 68.9062 9.05806 69.3507 8.26689 70.1419C7.47572 70.9331 7.03125 72.0061 7.03125 73.125V84.375C7.03125 85.4939 7.47572 86.5669 8.26689 87.3581C9.05806 88.1493 10.1311 88.5938 11.25 88.5938H28.125C29.2439 88.5938 30.3169 88.1493 31.1081 87.3581C31.8993 86.5669 32.3438 85.4939 32.3438 84.375V80.1562H37.9688C38.3417 80.1562 38.6993 80.008 38.963 79.7442L44.8988 73.8084C47.9987 74.5949 51.2266 74.7404 54.3848 74.236C57.543 73.7316 60.565 72.5879 63.2658 70.875L66.922 74.5312L66.51 74.9433C66.2464 75.207 66.0983 75.5646 66.0983 75.9375C66.0983 76.3104 66.2464 76.668 66.51 76.9317L76.012 86.4338C76.6966 87.1183 77.5093 87.6614 78.4038 88.0319C79.2982 88.4023 80.2569 88.593 81.225 88.593C82.1931 88.593 83.1518 88.4023 84.0462 88.0319C84.9407 87.6614 85.7534 87.1183 86.438 86.4338C87.1225 85.7492 87.6656 84.9365 88.0361 84.042C88.4066 83.1476 88.5973 82.1889 88.5973 81.2208C88.5973 80.2526 88.4066 79.294 88.0361 78.3995C87.6656 77.5051 87.1225 76.6924 86.438 76.0078L76.9359 66.5058C76.6722 66.2421 76.3146 66.094 75.9417 66.094C75.5688 66.094 75.2112 66.2421 74.9475 66.5058L74.5312 66.9178L70.8947 63.2812H84.375ZM29.5312 84.375C29.5312 84.748 29.3831 85.1056 29.1194 85.3694C28.8556 85.6331 28.498 85.7812 28.125 85.7812H11.25C10.877 85.7812 10.5194 85.6331 10.2556 85.3694C9.99191 85.1056 9.84375 84.748 9.84375 84.375V73.125C9.84375 72.752 9.99191 72.3944 10.2556 72.1306C10.5194 71.8669 10.877 71.7188 11.25 71.7188H28.125C28.498 71.7188 28.8556 71.8669 29.1194 72.1306C29.3831 72.3944 29.5312 72.752 29.5312 73.125V84.375ZM5.625 60.4688C5.25204 60.4688 4.89435 60.3206 4.63063 60.0569C4.36691 59.7931 4.21875 59.4355 4.21875 59.0625V5.625C4.21875 5.25204 4.36691 4.89435 4.63063 4.63063C4.89435 4.36691 5.25204 4.21875 5.625 4.21875H84.375C84.748 4.21875 85.1056 4.36691 85.3694 4.63063C85.6331 4.89435 85.7812 5.25204 85.7812 5.625V59.0625C85.7812 59.4355 85.6331 59.7931 85.3694 60.0569C85.1056 60.3206 84.748 60.4688 84.375 60.4688H72.3853C73.6917 57.6034 74.4169 54.5074 74.519 51.36C74.621 48.2125 74.0979 45.0761 72.9799 42.1321C71.8619 39.1881 70.1711 36.4951 68.0055 34.2089C65.8399 31.9226 63.2424 30.0885 60.3633 28.8127L67.5 21.6759V25.3125H70.3125V18.2812C70.3125 17.9083 70.1643 17.5506 69.9006 17.2869C69.6369 17.0232 69.2792 16.875 68.9062 16.875H61.875V19.6875H65.5116L57.4692 27.7298C55.5061 27.1477 53.476 26.8216 51.4294 26.7595L44.7863 16.1297C44.6598 15.9274 44.4841 15.7607 44.2755 15.645C44.0668 15.5294 43.8323 15.4687 43.5938 15.4688H37.9688V11.25C37.9688 10.1311 37.5243 9.05806 36.7331 8.26689C35.9419 7.47572 34.8689 7.03125 33.75 7.03125H16.875C15.7561 7.03125 14.6831 7.47572 13.8919 8.26689C13.1007 9.05806 12.6562 10.1311 12.6562 11.25V22.5C12.6562 23.6189 13.1007 24.6919 13.8919 25.4831C14.6831 26.2743 15.7561 26.7188 16.875 26.7188H33.75C34.8689 26.7188 35.9419 26.2743 36.7331 25.4831C37.5243 24.6919 37.9688 23.6189 37.9688 22.5V18.2812H42.8147L48.1669 26.8453C42.107 27.4787 36.5188 30.4059 32.5477 35.0269L30.5789 32.8148C30.4481 32.6679 30.2878 32.55 30.1086 32.4689C29.9293 32.3877 29.735 32.3451 29.5383 32.3438H29.5312C29.3364 32.3437 29.1436 32.3842 28.9652 32.4627C28.7868 32.5411 28.6266 32.6558 28.4948 32.7994L13.0261 49.6744L15.0989 51.5756L29.5158 35.8481L30.7941 37.2881C27.3039 42.4273 25.9815 48.7356 27.1139 54.8438H9.84375V16.875H7.03125V56.25C7.03125 56.623 7.17941 56.9806 7.44313 57.2444C7.70685 57.5081 8.06454 57.6562 8.4375 57.6562H27.7777C28.0794 58.6161 28.4425 59.5555 28.8647 60.4688H5.625ZM35.1562 11.25V22.5C35.1562 22.873 35.0081 23.2306 34.7444 23.4944C34.4806 23.7581 34.123 23.9062 33.75 23.9062H16.875C16.502 23.9062 16.1444 23.7581 15.8806 23.4944C15.6169 23.2306 15.4688 22.873 15.4688 22.5V11.25C15.4688 10.877 15.6169 10.5194 15.8806 10.2556C16.1444 9.99191 16.502 9.84375 16.875 9.84375H33.75C34.123 9.84375 34.4806 9.99191 34.7444 10.2556C35.0081 10.5194 35.1562 10.877 35.1562 11.25ZM29.5312 50.625C29.5312 46.453 30.7684 42.3748 33.0862 38.9059C35.404 35.4371 38.6984 32.7335 42.5528 31.1369C46.4072 29.5404 50.6484 29.1227 54.7402 29.9366C58.832 30.7505 62.5905 32.7595 65.5405 35.7095C68.4905 38.6595 70.4995 42.418 71.3134 46.5098C72.1273 50.6016 71.7096 54.8428 70.1131 58.6972C68.5165 62.5516 65.8129 65.846 62.3441 68.1638C58.8752 70.4816 54.797 71.7188 50.625 71.7188C45.0325 71.7124 39.6709 69.488 35.7165 65.5335C31.762 61.5791 29.5376 56.2175 29.5312 50.625ZM84.4453 77.9963C84.8767 78.4179 85.2201 78.921 85.4557 79.4764C85.6912 80.0317 85.8143 80.6283 85.8177 81.2315C85.8211 81.8347 85.7048 82.4326 85.4756 82.9906C85.2463 83.5486 84.9086 84.0555 84.4821 84.4821C84.0555 84.9086 83.5486 85.2463 82.9906 85.4756C82.4326 85.7048 81.8347 85.8211 81.2315 85.8177C80.6283 85.8143 80.0317 85.6912 79.4764 85.4557C78.921 85.2201 78.4179 84.8767 77.9963 84.4453L69.4884 75.9375L75.9375 69.4884L84.4453 77.9963ZM68.9062 72.5428L65.5973 69.2339C66.9361 68.1553 68.1553 66.9361 69.2339 65.5973L72.5428 68.9062L68.9062 72.5428Z" fill="#462A5A"/>
<path d="M50.625 32.3438C47.0093 32.3437 43.4748 33.4159 40.4685 35.4247C37.4622 37.4335 35.119 40.2886 33.7353 43.6291C32.3517 46.9695 31.9896 50.6453 32.695 54.1915C33.4004 57.7377 35.1415 60.9951 37.6982 63.5518C40.2549 66.1085 43.5123 67.8496 47.0585 68.555C50.6047 69.2604 54.2805 68.8983 57.6209 67.5147C60.9614 66.131 63.8165 63.7879 65.8253 60.7815C67.8341 57.7752 68.9063 54.2407 68.9063 50.625C68.9007 45.7782 66.9728 41.1316 63.5456 37.7044C60.1184 34.2772 55.4718 32.3493 50.625 32.3438ZM50.0119 35.1872L40.8417 44.3573L38.2261 41.4155C39.6003 39.5626 41.3724 38.0412 43.412 36.9634C45.4516 35.8856 47.7068 35.2786 50.0119 35.1872ZM50.625 66.0938C47.7767 66.0907 44.9846 65.3012 42.5564 63.8124C40.1281 62.3236 38.1581 60.1933 36.8634 57.6562H53.4375V54.8438H35.7553C34.7065 51.2154 35.0432 47.3267 36.7003 43.9327L39.7294 47.3414C39.8569 47.4847 40.0123 47.6005 40.1862 47.6815C40.3601 47.7625 40.5487 47.8071 40.7405 47.8125H40.7813C41.1542 47.8124 41.5118 47.6642 41.7755 47.4005L53.7089 35.467C57.4659 36.2317 60.8051 38.3644 63.0788 41.4515C65.3525 44.5385 66.3988 48.36 66.0147 52.1748C65.6306 55.9895 63.8434 59.5257 60.9999 62.0975C58.1564 64.6693 54.459 66.0934 50.625 66.0938Z" fill="#462A5A"/>
<path d="M18.2812 12.6562H32.3438V15.4688H18.2812V12.6562Z" fill="#462A5A"/>
<path d="M18.2812 18.2812H32.3438V21.0938H18.2812V18.2812Z" fill="#462A5A"/>
<path d="M12.6562 74.5312H26.7188V77.3438H12.6562V74.5312Z" fill="#462A5A"/>
<path d="M12.6562 80.1562H26.7188V82.9688H12.6562V80.1562Z" fill="#462A5A"/>
</svg>
