<svg width="129" height="101" viewBox="0 0 129 101" fill="none" xmlns="http://www.w3.org/2000/svg">
<path d="M81.3455 12.304C81.0986 11.5395 80.6154 10.8731 79.9654 10.401C79.3154 9.92877 78.5323 9.67516 77.7289 9.67669H70.317L68.0265 2.62734C67.7783 1.86365 67.2947 1.19814 66.645 0.726167C65.9954 0.254198 65.213 0 64.41 0C63.6069 0 62.8245 0.254198 62.1749 0.726167C61.5252 1.19814 61.0416 1.86365 60.7934 2.62734L58.5029 9.67669H51.091C50.2879 9.67672 49.5055 9.93097 48.8559 10.403C48.2062 10.875 47.7226 11.5406 47.4745 12.3043C47.2263 13.068 47.2263 13.8907 47.4744 14.6544C47.7225 15.4182 48.206 16.0838 48.8556 16.5558L54.8521 20.9123L52.5616 27.9616C52.3124 28.7255 52.3117 29.5488 52.5596 30.3131C52.8075 31.0774 53.2912 31.7435 53.9412 32.2158C54.5913 32.6881 55.3743 32.9422 56.1779 32.9417C56.9814 32.9411 57.7641 32.686 58.4135 32.2129L64.41 27.8565L70.4064 32.2132C71.0561 32.6852 71.8385 32.9394 72.6416 32.9394C73.4446 32.9394 74.2271 32.6852 74.8767 32.2132C75.5264 31.7412 76.01 31.0756 76.2582 30.3118C76.5064 29.5481 76.5064 28.7254 76.2583 27.9616L73.9678 20.9123L79.9643 16.5556C80.6151 16.0845 81.0996 15.419 81.3478 14.6549C81.596 13.8908 81.5952 13.0676 81.3455 12.304ZM70.1931 18.3628C69.8274 18.6285 69.5551 19.0032 69.4154 19.4332C69.2758 19.8632 69.2758 20.3263 69.4155 20.7563L71.7314 27.884L65.6676 23.4789C65.302 23.2135 64.8617 23.0705 64.41 23.0705C63.9582 23.0705 63.5179 23.2135 63.1523 23.4789L57.089 27.884L59.4049 20.7563C59.5446 20.3263 59.5447 19.8632 59.405 19.4332C59.2653 19.0032 58.9931 18.6285 58.6273 18.3628L52.5645 13.9579H60.0586C60.5107 13.958 60.9512 13.8149 61.3169 13.5491C61.6827 13.2834 61.9549 12.9087 62.0946 12.4788L64.41 5.35129L66.7258 12.479C66.8655 12.909 67.1378 13.2837 67.5035 13.5494C67.8693 13.8151 68.3098 13.9582 68.7618 13.9582H76.2559L70.1931 18.3628Z" fill="#462A5A"/>
<path d="M37.8483 42.8083C38.3939 42.8077 38.9317 42.678 39.4177 42.43C39.9036 42.182 40.3241 41.8225 40.6447 41.3811C40.9652 40.9396 41.1769 40.4285 41.2624 39.8896C41.3478 39.3508 41.3046 38.7993 41.1363 38.2803L39.4217 33.0037L43.9106 29.7424C44.5012 29.3133 44.9409 28.7081 45.1665 28.0137C45.3921 27.3194 45.392 26.5714 45.1664 25.877C44.9408 25.1826 44.5011 24.5775 43.9105 24.1484C43.3198 23.7192 42.6084 23.4881 41.8783 23.4881H36.3301L34.6155 18.2114C34.3898 17.517 33.9502 16.9119 33.3595 16.4828C32.7688 16.0536 32.0574 15.8225 31.3273 15.8225C30.5972 15.8225 29.8858 16.0536 29.2952 16.4828C28.7045 16.9119 28.2648 17.517 28.0392 18.2114L26.3245 23.4883H20.776C20.0458 23.4881 19.3343 23.719 18.7434 24.148C18.1525 24.5771 17.7126 25.1822 17.4868 25.8766C17.261 26.5711 17.2609 27.3192 17.4865 28.0137C17.712 28.7082 18.1517 29.3135 18.7425 29.7427L23.2313 33.0039L21.5172 38.2806C21.2916 38.9749 21.2916 39.7229 21.5172 40.4172C21.7428 41.1116 22.1824 41.7167 22.773 42.1459C23.3637 42.575 24.075 42.8062 24.8051 42.8063C25.5352 42.8064 26.2465 42.5753 26.8372 42.1463L31.3261 38.8848L35.815 42.1463C36.4057 42.5765 37.1176 42.8082 37.8483 42.8083ZM30.0688 34.5069L26.3735 37.1931L27.7853 32.8487C27.925 32.4187 27.9251 31.9555 27.7853 31.5255C27.6456 31.0954 27.3733 30.7207 27.0074 30.455L23.3122 27.7704H27.88C28.332 27.7704 28.7724 27.6273 29.1381 27.3616C29.5038 27.0959 29.776 26.7213 29.9157 26.2915L31.3272 21.9471L32.7389 26.2915C32.8787 26.7213 33.1509 27.0959 33.5166 27.3616C33.8823 27.6273 34.3227 27.7704 34.7747 27.7704H39.3422L35.647 30.4553C35.2812 30.721 35.009 31.0957 34.8693 31.5257C34.7296 31.9556 34.7296 32.4188 34.8694 32.8487L36.2809 37.1931L32.5853 34.508C32.2197 34.2422 31.7794 34.0989 31.3274 34.0987C30.8753 34.0985 30.4349 34.2414 30.069 34.5069H30.0688Z" fill="#462A5A"/>
<path d="M24.5596 51.3161H19.0111L17.2965 46.0395C17.0709 45.3451 16.6313 44.7399 16.0406 44.3107C15.45 43.8815 14.7386 43.6504 14.0085 43.6504C13.2783 43.6504 12.567 43.8815 11.9763 44.3107C11.3856 44.7399 10.946 45.3451 10.7205 46.0395L9.00556 51.3164H3.45732C2.72721 51.3164 2.01585 51.5475 1.42518 51.9767C0.834507 52.4058 0.394855 53.011 0.16923 53.7053C-0.0563955 54.3997 -0.0564103 55.1477 0.169188 55.8421C0.394785 56.5365 0.834414 57.1416 1.42507 57.5708L5.91396 60.832L4.19932 66.1089C3.97365 66.8033 3.9736 67.5513 4.19919 68.2457C4.42478 68.9401 4.86443 69.5453 5.45511 69.9745C6.04579 70.4037 6.75718 70.6349 7.48732 70.6349C8.21747 70.6349 8.92887 70.4038 9.51957 69.9746L14.0085 66.7131L18.4974 69.9746C19.0881 70.4042 19.7997 70.6357 20.5301 70.6358C21.2605 70.636 21.9722 70.4048 22.5631 69.9755C23.154 69.5461 23.5937 68.9407 23.8193 68.2459C24.0448 67.5512 24.0445 66.8029 23.8184 66.1084L22.104 60.8317L26.5929 57.5705C27.1837 57.1413 27.6234 56.536 27.8489 55.8415C28.0745 55.147 28.0744 54.3989 27.8486 53.7044C27.6228 53.01 27.1829 52.4049 26.592 51.9758C26.0011 51.5468 25.2898 51.3159 24.5596 51.3161ZM18.3282 58.282C17.9624 58.5477 17.6901 58.9224 17.5503 59.3525C17.4106 59.7825 17.4106 60.2457 17.5504 60.6757L18.9621 65.0212L15.2666 62.335C14.901 62.0696 14.4608 61.9266 14.009 61.9266C13.5572 61.9266 13.117 62.0696 12.7514 62.335L9.05479 65.0212L10.4663 60.6757C10.606 60.2458 10.606 59.7826 10.4664 59.3527C10.3267 58.9227 10.0544 58.548 9.68868 58.2823L5.99343 55.5974H10.561C11.013 55.5974 11.4534 55.4543 11.8191 55.1886C12.1848 54.9229 12.457 54.5483 12.5967 54.1185L14.0085 49.7741L15.4199 54.1185C15.5597 54.5483 15.8319 54.9229 16.1976 55.1886C16.5633 55.4543 17.0037 55.5974 17.4557 55.5974H22.0235L18.3282 58.282Z" fill="#462A5A"/>
<path d="M125.169 51.3161H119.621L117.906 46.0395C117.68 45.3451 117.241 44.7399 116.65 44.3107C116.059 43.8815 115.348 43.6504 114.618 43.6504C113.888 43.6504 113.176 43.8815 112.586 44.3107C111.995 44.7399 111.556 45.3451 111.33 46.0395L109.615 51.3164H104.067C103.337 51.3161 102.625 51.5471 102.034 51.9761C101.443 52.4052 101.003 53.0103 100.778 53.7047C100.552 54.3991 100.552 55.1472 100.777 55.8418C101.003 56.5363 101.442 57.1415 102.033 57.5708L106.522 60.832L104.807 66.1089C104.582 66.8033 104.582 67.5513 104.807 68.2457C105.033 68.9402 105.473 69.5453 106.063 69.9745C106.654 70.4037 107.365 70.6349 108.095 70.6349C108.826 70.6349 109.537 70.4038 110.128 69.9746L114.617 66.7131L119.106 69.9746C119.696 70.4047 120.408 70.6367 121.139 70.6371C121.869 70.6375 122.581 70.4064 123.173 69.977C123.764 69.5475 124.204 68.9418 124.429 68.2468C124.655 67.5517 124.654 66.8031 124.428 66.1084L122.714 60.8317L127.202 57.5705C127.793 57.1413 128.233 56.536 128.458 55.8415C128.684 55.147 128.684 54.3989 128.458 53.7044C128.232 53.01 127.792 52.4049 127.201 51.9758C126.611 51.5468 125.899 51.3159 125.169 51.3161H125.169ZM118.938 58.282C118.572 58.5477 118.3 58.9224 118.16 59.3525C118.02 59.7825 118.02 60.2457 118.16 60.6757L119.572 65.0212L115.876 62.335C115.511 62.0696 115.07 61.9266 114.618 61.9266C114.167 61.9266 113.726 62.0696 113.361 62.335L109.664 65.0212L111.076 60.6757C111.215 60.2458 111.216 59.7826 111.076 59.3527C110.936 58.9227 110.664 58.548 110.298 58.2823L106.603 55.5974H111.17C111.622 55.5974 112.063 55.4543 112.429 55.1886C112.794 54.9229 113.066 54.5483 113.206 54.1185L114.618 49.7741L116.029 54.1185C116.169 54.5483 116.441 54.9229 116.807 55.1886C117.173 55.4543 117.613 55.5974 118.065 55.5974H122.633L118.938 58.282Z" fill="#462A5A"/>
<path d="M104.014 42.8082C104.56 42.8078 105.097 42.6784 105.584 42.4304C106.07 42.1825 106.49 41.8231 106.811 41.3815C107.132 40.94 107.344 40.4289 107.429 39.8899C107.514 39.3509 107.471 38.7994 107.303 38.2803L105.589 33.0036L110.077 29.7424C110.668 29.3131 111.108 28.7079 111.333 28.0134C111.559 27.3188 111.559 26.5708 111.333 25.8763C111.107 25.1819 110.667 24.5768 110.076 24.1477C109.486 23.7187 108.774 23.4877 108.044 23.488H102.496L100.781 18.2114C100.555 17.517 100.116 16.9118 99.5251 16.4826C98.9345 16.0534 98.2231 15.8223 97.493 15.8223C96.7628 15.8223 96.0515 16.0534 95.4608 16.4826C94.8701 16.9118 94.4305 17.517 94.205 18.2114L92.4901 23.4883H86.9418C86.2116 23.488 85.5 23.7189 84.9091 24.148C84.3183 24.577 83.8784 25.1821 83.6526 25.8766C83.4268 26.571 83.4267 27.3191 83.6522 28.0136C83.8778 28.7081 84.3175 29.3134 84.9082 29.7426L89.3971 33.0039L87.6825 38.2808C87.4568 38.9752 87.4568 39.7232 87.6823 40.4176C87.9079 41.112 88.3476 41.7172 88.9383 42.1464C89.5289 42.5756 90.2403 42.8068 90.9705 42.8068C91.7006 42.8068 92.412 42.5756 93.0027 42.1465L97.4916 38.885L101.981 42.1465C102.571 42.5766 103.283 42.8083 104.014 42.8082ZM96.2345 34.5069L92.5393 37.1931L93.9508 32.8476C94.0905 32.4177 94.0905 31.9545 93.9508 31.5245C93.8112 31.0946 93.5389 30.7199 93.1732 30.4541L89.4779 27.7693H94.0455C94.4975 27.7692 94.9379 27.6262 95.3036 27.3605C95.6693 27.0948 95.9415 26.7202 96.0812 26.2903L97.493 21.9459L98.9044 26.2903C99.0442 26.7202 99.3164 27.0948 99.6821 27.3605C100.048 27.6262 100.488 27.7692 100.94 27.7693H105.508L101.813 30.4539C101.447 30.7196 101.175 31.0943 101.035 31.5243C100.895 31.9544 100.895 32.4176 101.035 32.8476L102.447 37.1931L98.7511 34.5069C98.3854 34.2412 97.945 34.0981 97.493 34.0981C97.0409 34.0981 96.6005 34.2412 96.2348 34.5069H96.2345Z" fill="#462A5A"/>
<path d="M90.0974 62.2651H75.113V51.562C75.1104 49.2919 74.2075 47.1155 72.6022 45.5103C70.997 43.9051 68.8206 43.0021 66.5505 42.9995H62.2693C61.7541 42.9995 61.2561 43.1854 60.8669 43.523C60.4777 43.8606 60.2232 44.3272 60.1503 44.8372L59.3634 50.3451C59.0048 52.8459 58.0637 55.2276 56.6159 57.2981C55.1682 59.3686 53.2542 61.07 51.0283 62.2651H34.4412C33.8734 62.2651 33.329 62.4907 32.9275 62.8921C32.5261 63.2936 32.3005 63.838 32.3005 64.4058V94.3745C32.3005 94.9422 32.5261 95.4867 32.9275 95.8882C33.329 96.2896 33.8734 96.5151 34.4412 96.5151H50.9181L52.3194 97.4495C55.5914 99.6353 59.4389 100.8 63.3739 100.796H87.9568C89.1968 100.797 90.4104 100.438 91.4509 99.7641C92.4915 99.0898 93.3144 98.1284 93.8203 96.9964C94.3262 95.8643 94.4933 94.6099 94.3015 93.3849C94.1097 92.1598 93.5672 91.0166 92.7395 90.0933C93.7949 88.917 94.3786 87.3924 94.3786 85.812C94.3786 84.2317 93.7949 82.707 92.7395 81.5308C93.6351 80.5326 94.1951 79.2786 94.3407 77.9455C94.4864 76.6123 94.2103 75.2671 93.5513 74.099C94.7217 73.3515 95.6182 72.2446 96.1064 70.9445C96.5946 69.6443 96.6482 68.2209 96.2591 66.8878C95.87 65.5546 95.0592 64.3835 93.9482 63.5501C92.8373 62.7166 91.4862 62.2658 90.0974 62.2651ZM36.5818 66.5464H49.4255V92.2339H36.5818V66.5464ZM90.0974 70.8276H87.9568C87.3891 70.8276 86.8446 71.0532 86.4431 71.4546C86.0417 71.8561 85.8162 72.4005 85.8162 72.9683C85.8162 73.536 86.0417 74.0805 86.4431 74.4819C86.8446 74.8834 87.3891 75.1089 87.9568 75.1089C88.5245 75.1089 89.069 75.3344 89.4704 75.7359C89.8719 76.1373 90.0974 76.6818 90.0974 77.2495C90.0974 77.8172 89.8719 78.3617 89.4704 78.7632C89.069 79.1646 88.5245 79.3901 87.9568 79.3901C87.3891 79.3901 86.8446 79.6157 86.4431 80.0171C86.0417 80.4186 85.8162 80.963 85.8162 81.5308C85.8162 82.0985 86.0417 82.643 86.4431 83.0444C86.8446 83.4459 87.3891 83.6714 87.9568 83.6714C88.5245 83.6714 89.069 83.8969 89.4704 84.2984C89.8719 84.6998 90.0974 85.2443 90.0974 85.812C90.0974 86.3797 89.8719 86.9242 89.4704 87.3257C89.069 87.7271 88.5245 87.9526 87.9568 87.9526C87.3891 87.9526 86.8446 88.1782 86.4431 88.5796C86.0417 88.9811 85.8162 89.5255 85.8162 90.0933C85.8162 90.661 86.0417 91.2055 86.4431 91.6069C86.8446 92.0084 87.3891 92.2339 87.9568 92.2339C88.5245 92.2339 89.069 92.4594 89.4704 92.8609C89.8719 93.2623 90.0974 93.8068 90.0974 94.3745C90.0974 94.9422 89.8719 95.4867 89.4704 95.8882C89.069 96.2896 88.5245 96.5151 87.9568 96.5151H63.3739C60.2842 96.518 57.2633 95.6034 54.6942 93.8873L53.7068 93.229V65.6778C56.3581 64.1256 58.6248 61.995 60.3381 59.4448C62.0513 56.8946 63.1669 53.9906 63.6016 50.9493L64.1257 47.2794H66.5505C67.6856 47.2808 68.7738 47.7323 69.5764 48.5349C70.379 49.3375 70.8304 50.4256 70.8318 51.5607V64.4044C70.8318 64.9722 71.0573 65.5166 71.4588 65.9181C71.8602 66.3195 72.4047 66.5451 72.9724 66.5451H90.0974C90.6651 66.5451 91.2096 66.7706 91.6111 67.172C92.0125 67.5735 92.238 68.1179 92.238 68.6857C92.238 69.2534 92.0125 69.7979 91.6111 70.1993C91.2096 70.6008 90.6651 70.8263 90.0974 70.8263V70.8276Z" fill="#462A5A"/>
</svg>
