<svg width="471" height="510" viewBox="0 0 471 510" fill="none" xmlns="http://www.w3.org/2000/svg">
<path d="M12.1929 164.03C24.7703 147.688 39.3568 132.163 56.0607 119.987C64.3954 113.906 73.6792 108.83 83.8558 106.763C92.2086 105.065 100.845 105.463 109.215 106.819C126.233 109.576 142.406 115.984 159.441 118.648C176.354 121.292 193.532 120.679 210.582 120.998C227.386 121.311 244.547 122.52 260.261 128.964C269.312 132.672 277.505 138.078 285.223 144.042C293.545 150.485 301.456 157.495 309.144 164.674C317.017 172.028 324.601 179.668 331.898 187.595C338.709 194.997 345.356 202.606 353.176 208.979C361.058 215.405 370.236 219.57 378.931 224.717C387.107 229.598 394.537 235.632 400.992 242.631C429.295 273.064 437.914 315.543 445.754 354.956C446.672 359.578 447.521 364.274 446.772 368.98C446.441 371.072 449.923 374.166 450.487 371.121C451.388 366.262 450.704 361.44 449.747 356.656C448.705 351.372 447.622 346.098 446.498 340.833C444.229 330.088 441.788 319.386 438.767 308.834C433.087 288.991 425.23 269.629 413.289 252.688C407.737 244.808 401.321 237.46 394.027 231.151C386.403 224.551 377.906 219.665 369.075 214.893C364.61 212.486 360.214 209.972 356.141 206.94C351.872 203.768 347.973 200.144 344.24 196.363C336.806 188.832 329.851 180.844 322.379 173.349C314.735 165.678 306.809 158.3 298.601 151.216C290.909 144.567 283.037 138.03 274.435 132.577C266.666 127.587 258.193 123.789 249.298 121.312C241.109 119.073 232.677 117.89 224.218 117.282C206.775 116.023 189.26 117.054 171.811 115.901C163.003 115.331 154.26 114.017 145.675 111.972C137.063 109.911 128.583 107.337 119.963 105.257C111.492 103.203 102.821 101.624 94.0766 101.724C84.6798 101.831 75.4383 104.134 67.0897 108.448C57.6407 113.292 49.3524 120.135 41.5729 127.28C33.9604 134.26 26.8103 141.729 20.1679 149.638C16.861 153.575 13.6927 157.613 10.6632 161.751C10.171 162.42 11.6167 164.787 12.1835 164.049L12.1929 164.03Z" fill="white"/>
<path d="M25.7653 159.033C38.1777 144.822 51.1245 129.852 68.2257 121.16C76.3997 117.001 85.3753 114.606 94.5831 114.822C103.365 115.03 111.915 117.375 120.281 119.871C138.002 125.147 155.771 129.292 174.246 130.92C183.425 131.724 192.643 131.996 201.854 131.732C211.393 131.455 220.917 130.318 230.467 130.487C265.966 131.113 292.554 156.864 315.076 181.446C327.538 195.041 339.844 208.976 354.557 220.22C361.712 225.697 369.459 230.066 377.268 234.491C385.001 238.871 392.768 243.486 398.95 249.966C405.923 257.273 410.329 266.586 414.108 275.838C417.856 285.026 421.216 294.376 424.223 303.83C430.324 322.948 434.822 342.54 437.671 362.403C438.355 367.251 438.963 372.116 439.492 377C439.589 377.914 440.319 379.345 441.31 379.559C442.302 379.773 442.652 378.898 442.554 378.021C440.332 357.702 436.477 337.595 431.027 317.895C428.321 308.076 425.209 298.384 421.692 288.82C418.248 279.44 414.666 269.925 409.791 261.182C405.195 252.934 399.257 245.909 391.644 240.309C384.301 234.903 376.121 230.812 368.27 226.222C351.855 216.634 338.354 203.45 325.485 189.597C302.737 165.093 278.912 136.618 244.667 128.975C235.389 126.901 225.951 127.018 216.514 127.612C207.077 128.206 197.609 128.766 188.108 128.555C169.231 128.135 150.469 125.477 132.218 120.638C123.283 118.268 114.539 115.132 105.468 113.292C96.5883 111.49 87.6009 111.302 78.7985 113.635C60.4817 118.488 45.9162 132.2 33.5447 145.897C30.3433 149.441 27.3204 153.151 24.3066 156.857C23.7917 157.47 25.1347 159.753 25.7653 159.033Z" fill="white"/>
<path d="M22.6046 171.899C29.8838 164.758 36.6599 157.117 43.6137 149.688C50.236 142.61 57.3055 135.636 65.9828 131.128C81.6972 122.97 100.216 124.152 116.979 127.968C134.224 131.904 150.63 138.914 168.018 142.301C176.802 144.024 185.777 144.569 194.705 143.923C203.709 143.272 212.641 141.805 221.66 141.328C230.137 140.882 238.567 141.538 246.757 143.85C254.507 146.096 261.923 149.366 268.807 153.574C283.271 162.276 295.485 174.03 306.95 186.291C319.553 199.779 331.51 213.975 345.657 225.911C352.547 231.724 359.93 236.746 367.622 241.43C375.099 245.979 382.714 250.352 389.726 255.612C396.991 261.063 403.306 267.566 407.899 275.449C412.807 283.871 415.946 293.159 418.445 302.54C423.621 321.975 427.203 341.958 430.177 361.837C430.907 366.707 431.59 371.586 432.225 376.474C432.358 377.489 433.097 378.964 434.194 379.235C435.29 379.507 435.673 378.498 435.557 377.566C432.95 357.044 429.313 336.641 424.807 316.453C420.546 297.368 415.365 277.603 402.078 262.618C390.263 249.289 373.729 241.752 359.118 232.067C343.13 221.456 330.041 207.379 317.139 193.338C294.938 169.2 269.763 142.166 235.413 137.631C217.007 135.198 198.795 141.022 180.376 139.974C162.124 138.935 144.889 132.258 127.49 127.247C110.929 122.478 93.0332 119.062 75.9688 123.245C56.7411 127.961 43.9466 143.768 31.4857 158.016C28.0115 161.951 24.5944 165.874 21.2845 169.946C20.8239 170.533 21.9548 172.539 22.6075 171.905L22.6046 171.899Z" fill="white"/>
<path d="M27.9109 172.512C35.2068 165.427 42.5071 158.344 49.8118 151.263C56.4548 144.822 62.9848 138.144 71.8036 134.769C88.1132 128.524 106.457 133.431 122.49 138.132C138.197 142.737 153.562 148.655 169.688 151.694C177.906 153.272 186.278 153.894 194.638 153.547C202.767 153.193 210.84 152.129 218.94 151.434C226.917 150.752 234.99 150.412 242.943 151.559C251.184 152.747 258.98 155.785 266.065 160.107C280.273 168.786 291.564 181.506 302.752 193.628C315.067 206.975 327.234 220.525 340.921 232.502C347.719 238.46 354.926 243.934 362.49 248.884C370.126 253.878 378.041 258.541 385.118 264.329C414.711 288.525 420.992 328.476 423.417 364.395C423.732 369.092 424.002 373.796 424.267 378.499C424.381 380.495 427.597 382.411 427.438 379.454C425.297 342.473 422.405 302.05 397.427 272.444C391.547 265.488 384.647 259.731 377.139 254.617C369.536 249.434 361.587 244.786 354.15 239.354C338.809 228.15 325.541 214.397 312.617 200.544C300.84 187.921 289.473 174.524 275.894 163.789C269.625 158.842 262.785 154.545 255.33 151.619C247.785 148.657 239.744 147.441 231.667 147.35C214.82 147.164 198.185 151.177 181.311 149.999C164.357 148.815 148.105 143.324 132.014 138.221C115.992 133.138 99.0208 127.33 81.9615 128.833C73.0906 129.562 64.6631 133.019 57.8366 138.731C50.2616 144.974 43.6244 152.401 36.7235 159.381L26.2383 170.001C25.5635 170.69 27.0779 173.334 27.9411 172.497L27.9109 172.512Z" fill="white"/>
<path d="M31.6142 178.796C43.6916 165.165 56.301 150.465 73.714 143.672C89.6318 137.457 106.325 140.711 121.923 146.202C137.713 151.761 153.051 158.535 169.474 162.101C177.647 163.883 185.986 164.95 194.357 164.725C201.602 164.541 208.78 163.436 215.942 162.398C229.627 160.391 244.488 158.115 257.547 164.04C265.31 167.571 271.33 173.855 277.074 179.978C283.506 186.834 290.032 193.594 296.65 200.259C309.901 213.53 323.609 226.317 337.775 238.62C344.845 244.767 352.022 250.796 359.304 256.705C366.488 262.516 373.917 268.063 380.693 274.347C387.389 280.481 393.06 287.648 397.49 295.575C401.763 303.303 404.886 311.583 407.295 320.065C412.28 337.614 414.337 355.811 417.06 373.803C417.741 378.283 418.458 382.745 419.25 387.172C419.43 388.169 420.037 389.529 421.149 389.771C422.162 389.99 422.743 389.064 422.582 388.117C416.039 352.696 415.464 312.869 392.672 283.029C387.059 275.676 380.206 269.488 373.05 263.675C365.675 257.685 358.204 251.822 350.895 245.749C336.116 233.461 321.804 220.633 307.961 207.266C301.038 200.601 294.226 193.819 287.528 186.922C281.29 180.482 275.42 173.521 268.603 167.674C262.687 162.6 255.997 158.831 248.318 157.233C241.271 155.768 234.058 155.903 226.929 156.619C219.54 157.358 212.229 158.674 204.866 159.601C196.957 160.598 189.063 160.941 181.111 160.137C163.9 158.373 147.546 152.261 131.459 146.237C116.372 140.586 100.072 134.745 83.7136 137.252C65.4184 140.053 50.979 152.753 38.9197 165.961C35.8597 169.383 32.8898 172.854 29.965 176.381C29.3549 177.114 30.8596 179.652 31.6142 178.796Z" fill="white"/>
<path d="M34.0061 188.582C44.5562 174.721 55.5316 160.112 71.6756 152.464C79.1011 148.948 87.3103 147.056 95.5387 147.958C103.685 148.85 111.186 152.295 118.621 155.523C148.371 168.426 180.509 174.765 212.953 173.255C227.495 172.574 243.083 169.33 257.168 174.581C264.844 177.436 270.85 183.029 276.265 188.997C282.024 195.346 287.51 201.902 293.535 208.01C305.95 220.6 319.459 231.993 332.916 243.414C346.438 254.885 359.622 266.635 372.389 278.94C378.93 285.241 385.007 292.466 389.793 300.187C394.639 308.076 398.112 316.729 400.064 325.779C402.05 334.653 402.681 343.692 403.503 352.73C404.355 362.144 405.276 371.552 406.176 380.959C406.635 385.736 407.128 390.504 407.614 395.275C407.726 396.378 408.527 397.827 409.692 398.103C410.857 398.379 411.343 397.299 411.238 396.307C409.228 376.921 407.458 357.439 404.497 338.182C403.124 329.269 401.427 320.428 398.065 312.047C394.645 303.53 389.704 295.716 384.091 288.481C372.83 273.982 359.087 261.746 345.217 249.819C331.476 238.008 317.401 226.57 304.156 214.191C297.594 208.064 291.225 201.705 285.251 194.993C279.753 188.842 274.607 182.343 268.137 177.166C262.017 172.27 254.933 169.345 247.199 168.216C239.703 167.122 232.083 167.591 224.561 168.172C208.238 169.437 192.093 169.742 175.804 167.7C159.425 165.662 143.343 161.705 127.887 155.911C120.11 152.989 112.621 149.303 104.689 146.798C96.8931 144.335 88.9576 143.631 80.9382 145.448C63.9001 149.313 50.9074 162.103 40.4812 175.406C37.6966 178.941 35.0199 182.595 32.3869 186.231C31.8101 187.018 33.3445 189.494 34.0206 188.605L34.0061 188.582Z" fill="white"/>
<path d="M37.7358 193.627C48.3588 183.056 55.4404 168.821 69.2336 161.747C75.9454 158.334 83.4319 156.734 90.9522 157.103C98.7975 157.485 106.39 159.508 113.727 162.202C121.439 165.048 128.905 168.513 136.539 171.539C143.923 174.466 151.53 176.793 159.286 178.498C174.456 181.82 189.911 182.92 205.386 183.671C213.286 184.053 221.191 184.092 229.091 184.37C236.809 184.646 244.745 185.243 251.908 188.341C259.182 191.487 265.279 196.851 271.303 201.874C278.06 207.505 284.792 213.169 291.498 218.866C305.087 230.402 318.373 242.281 331.913 253.869C344.894 264.98 358.194 275.999 369.452 288.916C375.015 295.298 380.217 302.117 384.324 309.536C388.311 316.828 391.417 324.568 393.576 332.593C397.976 348.609 399.222 365.432 399.966 381.971C400.149 386.118 400.202 390.27 400.291 394.413C400.317 395.904 402.674 397.223 402.628 395.083C402.282 378.008 402.224 360.856 399.15 343.998C396.082 327.206 390.101 311.322 379.98 297.483C369.815 283.591 356.517 272.202 343.842 260.691C337.111 254.574 330.574 248.272 323.722 242.274C316.932 236.319 310.109 230.401 303.251 224.519C296.393 218.638 289.501 212.79 282.576 206.975C275.941 201.418 269.392 195.654 262.422 190.514C256.012 185.792 249.068 182.376 241.155 181.077C233.462 179.818 225.538 180.29 217.772 180.24C201.765 180.137 185.785 179.651 169.934 177.231C161.974 176.058 154.105 174.331 146.384 172.063C138.493 169.705 130.934 166.48 123.344 163.315C108.786 157.243 93.2081 151.758 77.1875 154.409C61.4966 157.007 52.3929 171.247 43.4843 182.927C41.1935 185.928 38.9823 188.974 36.5094 191.833C36.0288 192.378 37.1177 194.249 37.7312 193.633L37.7358 193.627Z" fill="white"/>
<path d="M39.3176 202.054C45.1298 195.286 50.6998 188.32 56.484 181.532C61.7919 175.299 67.6075 169.14 74.9092 165.269C81.5522 161.754 88.9998 160.835 96.3295 162.351C103.142 163.757 109.521 166.683 115.722 169.761C122.137 172.951 128.47 176.284 135.082 179.022C155.477 187.502 177.219 192.28 199.29 193.133C206.65 193.414 214.02 193.255 221.36 192.655C229.304 192.004 236.961 191.278 244.338 194.929C247.674 196.577 250.717 198.775 253.726 200.948C257.114 203.392 260.493 205.847 263.862 208.312C270.854 213.391 277.813 218.515 284.738 223.685C312.174 244.252 338.615 266.261 361.494 291.901C367.229 298.324 372.764 304.921 378.099 311.694C380.813 315.148 383.549 318.695 385.524 322.639C387.468 326.52 388.296 330.749 388.705 335.044C389.561 343.873 389.643 352.784 390.114 361.626C390.359 366.215 390.666 370.795 391.082 375.37C391.488 379.769 391.459 384.234 391.669 388.648C391.879 393.062 392.105 397.51 392.357 401.942C392.437 403.344 394.695 404.828 394.599 402.675C394.194 393.355 393.273 383.992 393.213 374.668C393.155 365.575 392.53 356.478 392.076 347.399C391.647 338.8 391.648 330.112 388.05 322.115C384.452 314.119 378.414 307.226 372.85 300.501C350.329 273.314 324.092 249.919 296.137 228.475C282.328 217.878 268.208 207.717 254.077 197.531C247.922 193.114 241.564 188.877 233.849 188.061C226.234 187.26 218.416 188.778 210.786 189.008C180.486 189.943 150.182 183.352 122.885 170.185C110.861 164.387 97.8661 156.914 83.9858 158.921C67.1485 161.353 56.0473 177.03 46.1193 189.318C43.3243 192.776 40.528 196.232 37.7786 199.724C37.2659 200.373 38.6795 202.773 39.3135 202.037L39.3176 202.054Z" fill="white"/>
<path d="M44.2986 205.927C50.2368 199.62 56.1105 193.256 61.9769 186.884C67.5376 180.842 73.3259 174.562 80.7824 170.854C87.285 167.62 94.3512 167.214 101.299 169.14C107.682 170.92 113.552 174.228 119.245 177.538C131.841 184.871 144.806 190.955 158.854 194.878C172.832 198.765 187.103 200.485 201.587 200.689C215.505 200.884 229.812 200.23 243.354 203.961C258.676 208.156 270.299 218.983 282.02 229.147C308.14 251.795 334.248 274.543 359.53 298.128C365.493 303.7 371.304 309.647 374.96 317.047C378.64 324.506 380.126 332.793 381.237 340.966C383.435 357.186 385.441 373.568 385.74 389.949C385.803 393.982 385.701 398.034 385.455 402.07C385.398 403.002 385.86 404.095 386.716 404.569C387.445 404.962 388.268 404.657 388.329 403.756C389.457 387.033 387.907 370.391 385.902 353.798C384.893 345.481 384.04 337.09 382.072 328.931C380.104 320.773 376.713 313.174 371.466 306.586C366.155 299.918 359.641 294.315 353.351 288.613C346.795 282.677 340.22 276.767 333.626 270.881C320.347 259.032 306.975 247.289 293.51 235.651C286.783 229.838 280.061 224.012 273.238 218.315C267.381 213.42 261.307 208.721 254.499 205.203C241.595 198.521 226.939 197.542 212.67 197.376C205.515 197.292 198.357 197.386 191.211 197.014C183.747 196.627 176.321 195.698 168.992 194.237C154.05 191.246 139.619 186.106 126.151 178.977C114.954 173.046 103.087 164.312 89.7433 165.448C81.669 166.135 74.862 170.684 69.0571 176.063C62.9155 181.76 57.4562 188.227 51.8105 194.402C48.8761 197.613 45.9978 200.848 43.1043 204.099C42.6836 204.567 43.7894 206.482 44.3075 205.93L44.2986 205.927Z" fill="white"/>
<path d="M48.0791 210.283C57.4396 197.787 69.0593 187.051 82.4696 179.028C85.7159 177.084 89.0704 175.111 92.7011 173.98C96.0972 172.922 99.6502 172.905 103.121 173.637C109.986 175.059 116.225 178.883 122.097 182.578C133.502 189.736 144.283 198.298 157.035 202.972C171.186 208.161 186.622 206.911 201.413 207.889C217.269 208.893 233.027 211.081 248.557 214.433C252.238 215.242 255.921 216.224 259.347 217.819C262.647 219.416 265.697 221.486 268.399 223.964C273.954 228.917 278.716 234.729 283.867 240.084C294.908 251.6 306.685 262.385 319.125 272.373C325.082 277.154 331.21 281.725 337.44 286.151C343.558 290.491 349.726 294.795 355.301 299.831C360.731 304.736 365.543 310.351 368.669 317.016C372.053 324.223 373.368 332.204 374.152 340.062C374.97 348.263 375.362 356.517 375.905 364.741C376.461 373.08 377.014 381.422 377.565 389.768C377.843 393.943 378.127 398.118 378.416 402.293C378.543 404.183 381.595 405.885 381.409 403.151C380.309 385.799 379.189 368.448 378.048 351.097C377.021 335.331 375.336 319.37 365.388 306.42C356.097 294.334 342.692 286.339 330.632 277.367C317.464 267.538 304.94 256.877 293.136 245.447C287.402 239.914 281.949 234.122 276.516 228.288C271.553 222.947 266.321 217.679 259.73 214.361C252.863 210.89 244.825 209.773 237.34 208.422C229.46 207.012 221.534 205.892 213.564 205.061C205.499 204.213 197.41 203.664 189.298 203.412C181.577 203.168 173.806 203.249 166.165 201.973C152.194 199.638 140.31 191.725 128.655 184.164C122.875 180.414 117.039 176.639 110.781 173.719C104.689 170.878 97.8999 169.076 91.2845 171.16C87.4747 172.358 83.9541 174.487 80.5631 176.562C77.2206 178.607 73.9824 180.818 70.8609 183.187C64.6493 187.909 58.918 193.23 53.7504 199.076C51.2268 201.959 48.8596 204.975 46.6591 208.111C46.2185 208.741 47.5746 210.965 48.0851 210.28L48.0791 210.283Z" fill="white"/>
<path d="M50.0635 220.122C54.4122 213.704 58.6256 207.047 64.4005 201.808C67.2438 199.232 70.4238 197.109 73.0417 194.315C75.6596 191.52 77.8397 188.323 80.8011 185.879C85.944 181.63 92.9075 179.954 99.4512 180.801C106.573 181.714 112.619 185.776 118.44 189.699C124.451 193.734 130.298 198.032 136.611 201.599C142.948 205.118 149.742 207.743 156.798 209.4C164.003 211.16 171.375 212.102 178.702 213.065L203.686 216.379C212.008 217.478 220.33 218.564 228.652 219.639C236.383 220.644 244.19 221.421 251.862 222.833C258.974 224.146 265.76 226.488 271.476 231.032C277.1 235.498 281.432 241.385 285.724 247.08C294.742 259.104 304.792 270.187 316.367 279.81C322.139 284.597 328.181 289.047 334.465 293.138C340.538 297.11 346.769 300.931 352.248 305.731C357.985 310.772 362.368 316.822 364.875 324.09C367.505 331.711 368.437 339.802 368.993 347.802C370.119 364.075 370.186 380.481 370.006 396.801C369.96 400.907 369.876 405.011 369.751 409.111C369.726 409.972 370.111 411.002 370.918 411.428C371.577 411.774 372.392 411.528 372.408 410.675C372.896 393.903 372.828 377.133 372.204 360.365C371.588 344.335 371.477 327.119 362.445 313.177C354.311 300.625 340.311 293.838 328.439 285.475C315.656 276.46 304.111 265.808 294.099 253.79C284.89 242.729 277.305 229.059 263.699 222.806C257.158 219.805 249.916 218.716 242.849 217.778C234.413 216.666 225.972 215.571 217.528 214.494C200.998 212.348 184.378 210.496 167.874 208.086C160.336 206.987 152.8 205.583 145.643 202.94C138.602 200.342 132.241 196.387 126.02 192.252C119.8 188.117 113.732 183.462 106.938 180.403C101.133 177.785 94.4806 177.067 88.3148 178.735C84.9885 179.607 81.8965 181.205 79.2605 183.413C76.4692 185.795 74.3306 188.799 71.8789 191.5C69.0374 194.626 65.4847 196.929 62.43 199.823C59.7041 202.445 57.2302 205.317 55.0409 208.401C52.7785 211.541 50.7372 214.812 48.7385 218.119C48.37 218.73 49.6212 220.763 50.0546 220.119L50.0635 220.122Z" fill="white"/>
<path d="M53.912 227.992C59.304 221.531 64.6776 215.062 70.0331 208.586L78.0783 198.867C80.5984 195.826 83.0072 192.551 85.9989 189.945C91.3272 185.338 98.0937 184.776 104.563 187.157C111.369 189.659 116.589 194.738 121.879 199.499C127.17 204.259 132.666 208.283 139.257 210.954C145.678 213.554 152.503 215.058 159.296 216.314C174.952 219.211 190.648 221.999 206.398 224.345C214.389 225.535 222.395 226.583 230.418 227.487C236.978 228.212 243.575 228.859 250.038 230.239C256.502 231.618 262.929 233.716 268.537 237.322C274.644 241.264 279.336 246.866 283.605 252.668C288.01 258.656 292.156 264.805 296.932 270.515C301.877 276.444 307.244 282.008 312.99 287.165C318.542 292.134 324.495 296.57 330.55 300.902C336.473 305.134 342.419 309.399 347.567 314.575C370.37 337.52 364.229 372.675 364.514 401.85C364.55 405.623 364.696 409.395 364.999 413.156C365.137 414.882 367.934 416.321 367.736 413.888C365.238 383.456 373.919 349.828 356.955 322.171C348.866 308.987 335.594 301.125 323.557 292.023C311.041 282.5 300.017 271.162 290.848 258.384C286.555 252.438 282.424 246.32 277.312 241.031C272.446 235.954 266.531 231.999 259.979 229.444C246.955 224.381 232.499 224.035 218.79 222.285C202.392 220.191 186.088 217.432 169.806 214.577C155.752 212.112 140.113 210.678 128.209 202.061C122.094 197.635 117.045 191.87 110.692 187.753C105.59 184.443 99.2982 182.015 93.1327 182.965C85.6173 184.123 81.0749 190.522 76.5525 195.988L60.2691 215.721C57.5862 218.972 54.9267 222.24 52.2628 225.508C51.6891 226.215 53.2407 228.797 53.9166 227.986L53.912 227.992Z" fill="white"/>
<path d="M59.2955 233.222C64.3851 227.144 69.4009 221.02 74.4292 214.875L81.9664 205.658C84.3633 202.724 86.6362 199.583 89.3027 196.891C91.7052 194.468 94.6737 192.944 98.1379 193.099C101.093 193.232 103.911 194.369 106.484 195.748C109.485 197.341 112.264 199.327 115.085 201.212L124.919 207.789C130.974 211.84 136.937 216.134 143.328 219.668C149.328 222.978 155.712 224.978 162.476 225.979C169.241 226.979 176.077 227.148 182.881 227.616C190.185 228.122 197.465 228.88 204.72 229.889C219.11 231.885 233.5 234.768 247.431 238.961C253.991 240.941 260.484 243.389 266.31 247.05C272.345 250.841 277.353 255.924 281.996 261.283C286.774 266.803 291.268 272.557 296.094 278.037C301.133 283.76 306.396 289.271 311.883 294.57C322.501 304.787 334.735 313.695 343.638 325.562C352.46 337.32 356.449 351.736 357.645 366.211C358.241 373.445 358.013 380.649 357.694 387.892C357.39 394.785 357.177 401.763 358.512 408.56C359.157 411.901 360.229 415.145 361.701 418.212C362.042 418.933 363.008 419.92 363.89 419.473C364.772 419.026 364.513 417.668 364.178 416.962C361.042 410.472 360.462 403.207 360.544 396.087C360.626 388.967 361.227 381.779 361.083 374.604C360.779 359.921 358.087 344.976 351.014 331.965C343.831 318.745 332.304 309.114 321.241 299.27C309.629 288.925 298.828 277.705 288.933 265.707C284.373 260.187 279.812 254.612 274.456 249.838C269.293 245.278 263.41 241.607 257.045 238.974C250.496 236.22 243.608 234.351 236.725 232.639C229.619 230.869 222.457 229.346 215.236 228.072C200.688 225.501 186.109 224.363 171.383 223.438C164.481 223.013 157.542 222.291 150.953 220.077C144.074 217.764 137.997 213.738 131.978 209.772C125.234 205.332 118.487 200.886 111.737 196.434C107.132 193.402 101.748 189.879 95.9808 190.205C88.8968 190.604 84.7875 197.769 80.7879 202.74L65.4032 221.86C62.9024 224.972 60.4486 228.122 57.9946 231.278C57.5582 231.854 58.7604 233.871 59.2965 233.247L59.2955 233.222Z" fill="white"/>
<path d="M65.6919 235.505C69.4686 229.439 73.4388 223.47 77.6084 217.673C79.6564 214.831 81.7834 212.043 83.9894 209.306C86.2599 206.488 88.5621 203.096 91.6375 201.112C97.5552 197.298 104.264 202.868 109.218 205.882C115.827 209.9 122.409 213.964 129.017 217.99C134.946 221.602 140.802 225.504 147.119 228.423C153.294 231.276 159.825 232.509 166.577 232.939C173.33 233.369 180.148 233.398 186.922 233.944C194.091 234.521 201.222 235.422 208.315 236.646C234.185 241.114 260.281 249.716 280.321 267.302C291.316 276.949 300.71 288.307 310.358 299.252C315.364 304.934 320.371 310.616 325.381 316.296C330.116 321.663 334.921 326.997 339.194 332.746C343.467 338.494 347.231 344.764 349.17 351.707C351.008 358.279 350.888 365.07 350.273 371.807C349.685 378.28 348.766 384.71 348.727 391.233C348.682 398.143 349.428 405.034 350.951 411.774C351.704 415.081 352.646 418.342 353.773 421.541C354.042 422.312 354.749 423.469 355.737 423.348C356.725 423.228 356.817 422.072 356.564 421.343C354.204 414.623 352.683 407.638 352.035 400.545C351.418 393.664 351.834 386.859 352.559 380.003C353.247 373.398 354.019 366.753 353.534 360.112C353.023 353.088 350.77 346.317 347.371 340.169C343.817 333.748 339.249 327.962 334.457 322.43C329.45 316.645 324.315 310.979 319.231 305.26C309.244 294.021 299.546 282.409 288.919 271.76C279.209 262.059 268.346 253.939 256.006 247.88C244.21 242.074 231.574 238.096 218.755 235.23C204.844 232.125 190.683 230.271 176.442 229.69C169.563 229.423 162.586 229.51 155.82 228.085C148.622 226.574 142.234 222.905 135.987 219.174C129.3 215.193 122.623 211.233 115.933 207.246L106.028 201.305C103.389 199.725 100.763 197.988 97.7752 197.138C94.7873 196.289 91.8655 196.741 89.3692 198.669C86.6407 200.77 84.5261 203.77 82.399 206.447C77.8867 212.105 73.7091 218.023 69.8875 224.169C67.9568 227.3 66.2552 230.54 64.5647 233.819C64.2842 234.365 65.325 236.111 65.6965 235.499L65.6919 235.505Z" fill="white"/>
<path d="M68.0503 241.211C72.4941 235.298 76.9307 229.378 81.2731 223.392L87.6177 214.636C89.535 211.992 91.6751 208.43 95.3004 208.176C98.1255 207.98 100.718 209.648 103.05 211.023L112.662 216.688C119.072 220.469 125.48 224.25 131.885 228.031C137.301 231.24 142.716 234.523 148.582 236.857C154.556 239.237 160.684 240.166 167.093 240.112C173.875 240.059 180.563 239.696 187.326 240.42C194.021 241.135 200.632 242.489 207.18 244.047C220.495 247.205 234.033 250.365 246.729 255.52C257.857 260.043 268.13 266.441 277.441 274.004C296.384 289.383 311.284 309.141 325.181 329.012C328.805 334.2 332.504 339.367 335.929 344.69C337.895 347.756 339.583 350.986 340.542 354.517C341.484 357.987 341.812 361.599 342.087 365.174C343.217 379.979 344.212 394.797 345.273 409.605C345.534 413.235 345.796 416.864 346.059 420.492C346.205 422.447 349.365 424.098 349.162 421.32C348.082 406.152 346.969 390.988 345.824 375.827C345.284 368.503 345.242 360.862 343.136 353.77C341.124 346.939 336.767 341.146 332.772 335.362C318.605 314.85 303.912 294.296 285.415 277.405C276.441 269.21 266.586 261.964 255.779 256.373C243.546 250.039 230.305 246.453 217.01 243.089C203.715 239.725 190.349 236.266 176.608 236.227C169.883 236.205 163.093 237.056 156.413 235.927C149.959 234.827 143.922 231.961 138.213 228.821C125.492 221.824 113.317 213.836 100.574 206.887C98.3718 205.684 95.7981 204.601 93.2528 205.116C89.9681 205.785 87.9786 208.799 86.1455 211.348C81.7381 217.485 77.3533 223.64 72.991 229.81C70.8333 232.867 68.7111 235.944 66.58 239.018C66.116 239.692 67.4907 241.956 68.0503 241.211Z" fill="white"/>
<path d="M67.5363 251.546C71.3188 245.765 75.2682 240.072 79.4449 234.57C83.5401 229.178 87.7605 223.659 92.4912 218.789C93.7312 217.507 95.0944 216.681 96.9388 216.816C98.5074 216.93 100.04 217.515 101.495 218.083C104.481 219.276 107.341 220.762 110.034 222.52C115.187 225.813 119.905 229.729 124.884 233.271C134.208 239.904 144.534 245.423 155.754 247.978C161.522 249.303 167.458 249.738 173.357 249.269C180.172 248.723 186.831 247.691 193.687 248.175C206.392 249.085 219.188 252.353 231.17 256.557C242.897 260.632 254.046 266.214 264.335 273.162C275.617 280.848 285.564 290.248 295.097 299.966C304.749 309.802 315.033 319.656 322.725 331.173C338.22 354.38 337.192 383.926 337.518 410.662L337.649 421.516C337.673 423.44 340.689 425.003 340.654 422.309C340.502 407.945 340.669 393.531 339.575 379.207C338.52 365.419 336.05 351.529 330.065 338.96C323.916 326.058 313.921 315.787 304.154 305.588C294.562 295.599 284.859 285.677 274.057 276.991C253.874 260.751 229.628 250.719 204.229 246.153C197.439 244.936 190.547 244.095 183.633 244.565C176.919 245.027 170.309 246.272 163.551 245.801C151.608 244.97 140.179 240.172 130.092 233.911C119.747 227.484 110.673 218.081 98.8183 214.404C96.065 213.551 93.576 213.388 91.3329 215.485C88.8033 217.85 86.617 220.713 84.411 223.38C79.9102 228.811 75.6734 234.445 71.7005 240.284C69.7071 243.204 67.8216 246.243 66.0211 249.29C65.5843 250.021 67.0222 252.332 67.5292 251.531L67.5363 251.546Z" fill="white"/>
<path d="M68.6059 259.889C72.9717 253.882 77.3354 247.876 81.6972 241.87C83.8468 238.906 85.9789 235.927 88.1168 232.954C90.0731 230.236 91.8878 226.876 94.4438 224.668C99.4237 220.363 105.287 227.028 108.953 230.106C113.291 233.744 117.635 237.379 122.145 240.803C130.92 247.478 140.521 253.548 151.279 256.399C163.616 259.666 175.86 257.263 188.312 256.257C213.529 254.22 237.194 264.202 257.55 278.358C268.642 286.071 278.866 294.934 288.952 303.899C299.257 313.056 309.829 322.379 317.094 334.267C331.353 357.602 331.959 386.363 331.191 412.871C331.095 416.224 330.977 419.574 330.837 422.92C330.798 423.921 331.248 425.067 332.171 425.565C332.927 425.975 333.867 425.659 333.907 424.691C334.946 397.43 335.744 368.684 324.607 343.151C318.966 330.223 310.018 319.581 299.803 310.005C289.627 300.466 279.033 291.213 268.034 282.628C248.058 267.025 224.671 253.801 198.815 252.374C185.614 251.643 172.597 255.402 159.416 254.37C147.724 253.454 137.051 248.194 127.499 241.665C122.704 238.395 118.13 234.788 113.637 231.112C111.327 229.229 109.031 227.321 106.728 225.423C104.667 223.721 102.612 221.831 100.155 220.715C97.6028 219.552 94.9292 219.647 92.7576 221.544C90.2634 223.718 88.5234 226.94 86.6323 229.616C82.2593 235.821 77.9047 242.029 73.5684 248.239L67.0589 257.582C66.5551 258.304 68.0319 260.682 68.612 259.887L68.6059 259.889Z" fill="white"/>
<path d="M72.8996 263.645C77.2499 258.057 81.3974 252.314 85.5786 246.604L91.9643 237.88C93.7903 235.387 95.6126 232.09 98.5636 230.755C103.441 228.575 108.333 233.077 111.508 236.25C115.511 240.265 119.593 244.19 123.913 247.852C132.415 255.058 142.032 261.435 152.911 264.347C164.502 267.443 176.386 265.908 188.136 264.792C194.114 264.226 200.129 263.793 206.13 264.235C211.991 264.703 217.761 265.963 223.282 267.982C234.743 272.092 245.065 278.881 254.546 286.422C265.166 294.872 274.933 304.335 285.258 313.136C295.074 321.501 305.29 329.877 312.503 340.711C316.111 346.159 318.673 352.231 320.059 358.617C321.525 365.233 322.1 372.056 322.673 378.803C323.821 392.408 324.146 406.07 323.645 419.713C323.524 423.051 323.358 426.393 323.148 429.741C323.084 430.743 323.591 431.925 324.501 432.425C325.287 432.854 326.174 432.519 326.235 431.548C327.131 417.606 327.185 403.622 326.397 389.673C326.002 382.69 325.422 375.71 324.566 368.768C323.726 361.971 322.433 355.214 319.801 348.862C314.714 336.558 305.221 326.821 295.394 318.136C290.318 313.658 285.075 309.355 279.986 304.913C274.706 300.291 269.523 295.561 264.226 290.951C254.459 282.463 244.236 274.401 232.615 268.612C221.798 263.218 210.123 260.169 198 260.42C185.74 260.685 173.563 263.418 161.258 262.456C149.333 261.517 138.507 256.237 129.032 249.177C124.299 245.591 119.793 241.716 115.537 237.574C111.875 234.067 108.286 229.657 103.402 227.829C101.355 227.062 99.1007 226.874 97.0649 227.801C94.1618 229.127 92.3794 232.236 90.5819 234.719C86.2765 240.651 81.9775 246.589 77.6848 252.532C75.5669 255.478 73.4578 258.427 71.4107 261.413C70.9404 262.105 72.3053 264.41 72.9072 263.637L72.8996 263.645Z" fill="white"/>
<path d="M76.724 267.977C81.1107 262.778 85.3656 257.465 89.6423 252.174C91.7848 249.522 93.9278 246.871 96.0712 244.221C98.1067 241.71 100.292 239.811 103.632 241.084C106.08 242.019 108.251 243.817 110.399 245.297C112.643 246.853 114.876 248.433 117.105 250.012C121.5 253.124 125.902 256.233 130.427 259.158C139.348 264.933 148.851 269.915 159.345 272.06C170.126 274.266 181.132 273.014 191.983 272.12C203.132 271.203 214.364 270.834 225.037 274.738C236.116 278.789 245.695 286.125 254.843 293.392C265.035 301.493 274.748 310.178 283.934 319.403C292.985 328.478 302.806 338.049 308.452 349.722C314.227 361.678 313.218 375.593 313.412 388.515C313.624 402.183 313.839 415.848 314.056 429.51C314.095 432.011 314.541 435.084 312.776 437.135C311.578 438.507 313.98 442.135 315.347 440.56C317.022 438.637 317.283 436.138 317.267 433.693C317.264 430.263 317.161 426.832 317.1 423.404C316.991 416.282 316.87 409.164 316.736 402.049C316.603 394.933 316.481 387.824 316.37 380.72C316.257 374.077 316.209 367.377 314.931 360.831C312.294 347.304 303.862 336.551 294.735 326.652C285.645 316.814 275.987 307.517 265.811 298.807C256.229 290.586 246.239 282.281 235.201 276.061C230.056 273.16 224.604 270.736 218.856 269.354C213.232 267.991 207.443 267.607 201.67 267.733C190.279 267.977 178.962 270.045 167.549 269.517C156.211 268.975 145.7 265.054 135.883 259.519C126.13 254.016 117.235 247.158 107.954 240.921C105.949 239.573 103.87 238.053 101.442 237.574C98.591 237.014 96.511 238.675 94.7818 240.765C90.304 246.169 86.0006 251.73 81.6255 257.219C79.4249 259.982 77.2243 262.746 75.0781 265.546C74.5113 266.283 76.0029 268.802 76.7182 267.964L76.724 267.977Z" fill="white"/>
<path d="M78.421 276.241C82.4255 270.969 86.3664 265.671 90.6353 260.606C92.6671 258.196 94.7002 255.726 96.9488 253.509C99.3911 251.108 102.27 249.722 105.68 250.886C110.934 252.69 115.7 256.772 119.95 260.233C124.346 263.814 128.564 267.605 133.112 270.993C137.473 274.243 142.165 277.137 147.287 279.023C151.795 280.632 156.5 281.623 161.274 281.97C171.003 282.764 180.752 281.424 190.402 280.367C200.052 279.31 209.861 278.33 219.488 280.103C231.395 282.292 241.028 289.414 250.195 296.93C260.33 305.25 269.871 314.269 278.747 323.92C283.209 328.767 287.49 333.773 291.588 338.939C295.767 344.23 299.748 349.751 302.574 355.9C305.371 361.963 306.472 368.382 306.358 375.037C306.244 381.692 305.551 388.436 305.068 395.114C304.561 402.156 304.045 409.196 303.521 416.233L302.771 426.491C302.541 429.555 302.471 432.684 301.939 435.717C301.514 438.135 300.55 440.586 298.646 442.204C297.621 443.059 299.264 445.974 300.528 445.243C305.558 442.355 305.347 435.699 305.712 430.628C306.231 423.372 306.751 416.107 307.272 408.835C307.788 401.696 308.313 394.552 308.848 387.403C309.339 380.74 309.949 373.954 308.921 367.322C306.793 353.622 298.033 342.292 289.383 331.942C280.594 321.412 271.058 311.529 260.851 302.367C255.908 297.934 250.812 293.646 245.566 289.588C240.54 285.722 235.222 282.175 229.388 279.644C219.92 275.539 209.583 275.067 199.42 275.643C179.22 276.785 157.45 282.724 138.889 271.6C128.823 265.569 120.793 256.739 110.776 250.633C108.454 249.217 106.006 247.721 103.289 247.256C100.319 246.749 97.7828 248.109 95.6751 250.086C90.7818 254.675 86.6144 260.368 82.6257 265.736C80.6175 268.438 78.7116 271.176 76.9524 274.037C76.5239 274.731 77.8309 277.016 78.4333 276.221L78.421 276.241Z" fill="white"/>
<path d="M82.7973 281.364C86.7053 276.068 90.6576 270.724 95.097 265.855C97.2074 263.541 99.685 261.441 102.853 260.86C105.656 260.345 108.534 260.977 111.133 262.052C116.495 264.263 121.034 268.256 125.292 272.099C129.59 275.974 133.799 280.042 138.61 283.312C155.01 294.466 174.621 290.403 192.95 288.011C202.148 286.81 211.677 285.848 220.87 287.593C231.767 289.662 240.788 296.036 248.531 303.721C257.68 312.801 265.88 322.91 274.385 332.579C278.978 337.792 283.569 342.972 288.144 348.187C290.359 350.713 292.745 353.177 294.575 356.012C296.323 358.72 296.992 361.709 297.191 364.891C297.619 371.739 297.22 378.714 297.181 385.581C297.144 391.416 297.097 397.252 296.799 403.082C296.209 414.638 294.632 426.293 290.073 437.018C288.79 440.034 287.253 442.934 285.759 445.849C284.974 447.374 287.537 450.618 288.698 448.577C291.873 443.01 294.465 437.251 296.207 431.062C297.775 425.347 298.851 419.507 299.423 413.608C300.732 400.943 300.437 388.143 300.5 375.421C300.532 368.779 301.011 361.826 297.726 355.787C296.156 352.899 294.026 350.414 291.865 347.965C289.471 345.249 287.052 342.557 284.648 339.854C275.312 329.341 266.045 318.743 256.602 308.347C248.777 299.733 240.203 291.197 229.326 286.581C220.334 282.764 210.434 282.395 200.828 283.257C182.403 284.912 161.973 291.612 144.196 283.478C133.345 278.506 125.992 268.483 116.129 262.047C111.736 259.173 106.304 256.603 100.937 257.915C97.9065 258.652 95.5289 260.753 93.4898 263.015C91.2092 265.539 89.0891 268.238 87.0491 270.959C85.0092 273.679 83.1217 276.394 81.3316 279.236C80.8942 279.927 82.214 282.169 82.7907 281.39L82.7973 281.364Z" fill="white"/>
<path d="M85.3732 285.759C87.8221 280.874 91.4784 276.695 95.9955 273.619C100.369 270.662 105.558 268.625 110.751 270.581C114.964 272.169 118.304 275.47 121.449 278.572C124.842 281.915 128.26 285.154 132.218 287.842C140.321 293.332 149.641 296.761 159.37 297.832C170.702 299.07 181.587 295.607 192.86 295.434C198.846 295.344 204.797 296.172 210.706 297.034C216.154 297.831 221.622 298.614 226.932 300.1C232.242 301.586 237.24 303.848 241.638 307.247C246.183 310.761 250.003 315.146 253.841 319.391C262.392 328.851 270.862 338.385 279.252 347.99C283.277 352.589 287.793 357.174 290.332 362.809C292.674 368.027 293.207 374.069 293.322 379.725C293.544 390.653 291.38 401.515 288.432 411.99C286.948 417.273 285.251 422.498 283.499 427.697C281.746 432.897 280.121 438.14 277.855 443.121C276.709 445.67 275.326 448.107 273.726 450.399C272.798 451.725 274.945 455.119 276.112 453.605C279.546 449.157 281.675 443.924 283.529 438.643C285.414 433.3 287.214 427.928 288.929 422.526C292.307 411.843 295.191 400.881 296.079 389.674C297.008 377.983 296.246 365.486 289.264 355.638C285.553 350.407 281.009 345.71 276.778 340.902C272.433 335.964 268.061 331.047 263.662 326.151C259.388 321.393 255.133 316.611 250.747 311.95C246.788 307.748 242.531 303.68 237.507 300.77C227.632 295.048 215.717 293.819 204.6 292.386C198.452 291.604 192.291 291.197 186.106 291.835C180.036 292.456 174.044 293.735 167.949 294.154C157.446 294.845 146.954 292.662 137.599 287.839C133.025 285.5 128.797 282.54 125.034 279.043C121.677 275.909 118.522 272.468 114.699 269.901C110.875 267.334 106.428 265.883 101.807 267.114C96.5602 268.516 91.7149 272.325 88.2756 276.443C86.5018 278.587 85.0067 280.947 83.8259 283.467C83.441 284.284 84.9529 286.557 85.3708 285.731L85.3732 285.759Z" fill="white"/>
<path d="M86.8183 288.92C93.2942 281.144 103.792 274.973 113.998 279.061C122.831 282.598 128.432 291.142 136.216 296.284C154.21 308.169 176.763 304.991 197.128 305.118C208.145 305.184 218.995 306.474 229.148 311.011C238.57 315.215 246.897 321.582 254.262 328.743C262.28 336.542 269.682 345.315 275.73 354.733C282.165 364.751 286.156 375.864 285.745 387.875C285.365 399.007 282.027 409.744 277.887 420.004C275.61 425.648 273.083 431.185 270.615 436.746C268.349 441.845 266.598 447.694 263.059 452.085C261.46 454.068 259.247 455.737 256.681 456.113C254.788 456.407 256.331 459.766 257.817 459.816C263.595 460.005 266.902 454.749 269.14 450.114C271.815 444.57 274.126 438.803 276.632 433.173C281.495 422.241 286.082 411.108 288.082 399.246C290.059 387.531 288.983 375.851 284.341 364.877C279.47 353.365 271.477 343.265 263.259 333.984C256.088 325.859 248.078 318.304 238.901 312.466C229.697 306.557 219.242 302.875 208.367 301.714C186.499 299.365 163.159 305.545 142.289 296.434C137.48 294.337 133.338 291.331 129.436 287.863C125.765 284.596 122.249 281.071 118.068 278.445C113.984 275.88 109.365 274.347 104.498 274.849C99.3116 275.388 94.5172 277.869 90.5924 281.227C88.6681 282.885 86.9119 284.728 85.3494 286.731C84.8259 287.396 86.2058 289.694 86.8403 288.936L86.8183 288.92Z" fill="white"/>
<path d="M91.1446 293.735C95.175 289.765 100.391 286.279 105.993 285.082C110.711 284.078 114.999 285.738 118.694 288.62C122.205 291.354 125.067 294.793 128.303 297.819C131.867 301.162 135.81 304.076 140.053 306.502C148.596 311.377 158.021 314.025 167.813 314.781C177.775 315.538 187.744 314.63 197.703 314.601C207.753 314.575 217.632 315.663 226.953 319.63C236.13 323.533 244.251 329.639 251.328 336.612C259.499 344.685 266.308 353.994 272.832 363.412C275.901 367.843 279.291 372.591 280.104 378.068C280.878 383.313 278.932 388.463 277.295 393.353C273.641 404.271 269.652 415.067 265.327 425.742C263.13 431.17 260.843 436.562 258.466 441.918C256.255 446.914 254.298 452.462 251.113 456.936C249.638 459.009 247.812 460.653 245.373 461.479C243.689 462.047 245.573 465.894 247.343 465.381C252.612 463.854 255.182 458.533 257.339 453.922C259.856 448.519 262.284 443.075 264.625 437.591C269.349 426.526 273.707 415.318 277.699 403.966C279.609 398.53 281.793 393.023 282.947 387.364C284.065 381.877 283.302 376.631 281 371.549C278.637 366.341 275.094 361.668 271.795 357.032C268.288 352.107 264.663 347.26 260.763 342.642C253.632 334.199 245.606 326.415 236.145 320.615C227.361 315.173 217.433 311.844 207.143 310.892C196.767 309.947 186.353 310.959 175.963 311.048C165.512 311.139 155.192 310.086 145.513 305.926C140.802 303.894 136.364 301.28 132.302 298.145C128.53 295.24 125.343 291.74 121.843 288.537C118.721 285.689 115.222 282.995 111.02 282.063C105.773 280.898 100.465 283.197 96.1581 285.975C93.759 287.533 91.5586 289.378 89.6057 291.468C89.0174 292.09 90.3864 294.482 91.1415 293.736L91.1446 293.735Z" fill="white"/>
<path d="M91.3969 297.708C95.5631 294.369 100.182 290.674 105.66 289.972C110.636 289.333 115.213 291.565 119.141 294.408C123.636 297.661 127.787 301.443 132.037 305.004C136.525 308.763 140.957 312.601 145.528 316.254C149.644 319.55 154.066 322.406 159.142 323.944C164.049 325.421 169.194 325.833 174.299 325.85C184.468 325.873 194.601 324.651 204.779 324.903C215.051 325.159 224.99 327.179 233.923 332.438C242.671 337.59 249.964 344.815 256.855 352.183C263.868 359.685 273.526 368.388 273.703 379.448C273.854 388.895 268.03 397.36 263.995 405.495C255.154 423.348 251.576 443.921 239.277 459.977C237.572 462.203 235.604 464.42 232.913 465.425C231.5 465.95 233.03 469.196 234.343 468.966C239.67 468.032 242.861 462.484 245.514 458.235C248.237 453.805 250.612 449.169 252.617 444.371C256.717 434.776 259.801 424.783 263.863 415.169C265.831 410.502 268.159 406.042 270.49 401.551C272.76 397.185 274.964 392.699 276.08 387.878C277.236 382.876 277.122 377.737 275.386 372.87C273.393 367.28 269.849 362.464 265.987 358.021C252.389 342.363 236.831 325.772 215.497 322.03C205.019 320.183 194.314 320.979 183.744 321.551C173.174 322.124 161.52 322.921 151.938 317.467C146.928 314.616 142.576 310.645 138.124 307.016C133.264 303.038 128.419 299.001 123.515 295.04C119.801 292.026 115.813 288.917 111.13 287.607C106.088 286.171 101.217 287.407 96.8353 290.12C94.4381 291.603 92.2522 293.399 90.0873 295.192C89.3164 295.834 90.7187 298.273 91.3751 297.748L91.3969 297.708Z" fill="white"/>
<path d="M91.473 302.666C93.7383 301.763 95.3176 299.981 97.1659 298.471C99.2739 296.752 101.578 296.141 104.276 296.426C109.224 296.953 114.239 298.893 118.675 301.092C127.047 305.254 133.584 311.914 140.344 318.217C146.597 324.051 153.41 329.842 161.752 332.356C166.6 333.821 171.684 334.025 176.718 333.946C182.353 333.864 187.971 333.715 193.608 333.802C199.245 333.888 204.842 334.023 210.453 334.273C215.742 334.521 221.052 335.109 226.012 337.104C235.203 340.805 242.281 348.239 249.111 355.159C253.161 359.259 257.229 363.35 261.139 367.582C263.054 369.652 264.989 371.928 265.993 374.603C266.919 377.072 266.797 379.726 266.215 382.255C265.075 387.227 262.753 392.021 260.672 396.659C258.538 401.397 256.259 406.062 253.958 410.727C249.337 420.119 244.722 429.57 241.237 439.457C238.287 447.831 236.732 457.747 230.46 464.455C228.941 466.051 227.207 467.427 225.307 468.542C224.047 469.291 225.507 472.086 226.854 471.615C235.695 468.507 238.948 457.839 241.453 449.76C244.626 439.533 248.736 429.889 253.408 420.267C258.199 410.4 263.28 400.654 267.275 390.43C269.12 385.7 270.496 380.711 269.181 375.657C267.724 370.067 263.443 365.815 259.569 361.761C251.991 353.84 244.444 345.42 235.578 338.891C231.596 335.941 227.152 333.476 222.381 332.082C217.142 330.559 211.638 330.292 206.217 330.132C200.186 329.955 194.148 329.786 188.112 329.777C182.545 329.769 176.974 330.15 171.411 330.032C166.29 329.927 161.336 329.099 156.656 326.953C152.527 325.052 148.826 322.331 145.363 319.417C138.281 313.462 132.015 306.485 124.224 301.398C119.999 298.635 115.4 296.492 110.566 295.036C105.791 293.603 100.231 292.066 95.971 295.55C94.0437 297.127 92.5241 299.121 90.2063 300.17C89.3826 300.56 90.5753 303.025 91.464 302.67L91.473 302.666Z" fill="white"/>
<path d="M91.7878 306.998C101.161 301.651 112.314 304.665 120.877 310.126C129.439 315.587 136.699 322.869 144.702 329.075C152.151 334.852 160.238 339.7 169.497 341.865C177.536 343.747 185.821 343.99 194.04 344.176C202.258 344.363 210.694 344.416 218.793 346.237C222.692 347.062 226.461 348.417 229.993 350.264C234.562 352.729 238.377 356.197 242.17 359.691C246.217 363.418 250.546 367.153 253.411 371.917C256.079 376.357 256.707 381.32 256.044 386.395C254.724 396.502 249.683 406.169 245.132 415.147C240.333 424.608 235.19 433.935 231.607 443.958C228.588 452.405 226.546 461.743 220.73 468.807C219.317 470.508 217.741 472.065 216.025 473.458C214.937 474.343 216.771 477.608 218.079 476.797C226.124 471.805 229.434 461.986 232.272 453.454C233.887 448.626 235.528 443.823 237.577 439.147C239.805 434.055 242.335 429.101 244.885 424.158C249.798 414.626 255.057 404.973 257.902 394.576C259.232 389.717 259.984 384.566 259.133 379.554C258.195 374.04 255.413 369.211 251.771 365.037C247.981 360.692 243.574 356.799 239.209 353.04C235.506 349.855 231.557 347.108 227.073 345.142C219.365 341.774 210.82 340.852 202.489 340.497C193.801 340.13 185.074 340.384 176.421 339.388C167.087 338.362 158.141 335.092 150.347 329.856C141.675 324.078 134.182 316.78 125.771 310.657C117.702 304.778 107.876 299.856 97.6144 301.86C95.1267 302.343 92.7505 303.284 90.6064 304.635C89.8435 305.115 91.0367 307.416 91.7896 306.986L91.7878 306.998Z" fill="white"/>
<path d="M96.1678 312.791C114.767 308.971 129.302 324.806 141.926 335.716C149.025 341.855 156.658 346.928 165.65 349.833C174.012 352.522 182.866 353.575 191.624 353.857C201.003 354.162 210.902 352.648 220.046 355.233C228.091 357.511 235.292 362.648 239.848 369.688C244.61 377.038 246.159 386.315 244.46 394.865C242.581 404.339 236.704 412.459 232.422 420.929C227.394 430.856 223.557 441.335 220.127 451.909C218.408 457.219 216.854 462.572 215.172 467.889C213.716 472.483 211.745 476.9 207.926 480.038C206.88 480.903 208.559 483.801 209.86 483.186C213.912 481.267 215.927 477.276 217.405 473.23C219.084 468.608 220.335 463.816 221.808 459.125C224.925 449.187 228.305 439.301 232.595 429.804C234.721 425.104 237.133 420.564 239.642 416.058C242.062 411.721 244.478 407.345 246.127 402.645C249.155 393.948 249.085 384.473 245.931 375.821C242.777 367.169 236.731 359.873 228.816 355.165C225.023 352.907 220.869 351.317 216.537 350.467C211.617 349.532 206.609 349.627 201.623 349.739C192.124 349.959 182.502 349.85 173.119 348.047C163.736 346.244 155.086 342.572 147.379 336.827C133.264 326.309 120.196 309.514 100.917 309.49C98.8728 309.501 96.8358 309.735 94.8422 310.187C94.0199 310.37 95.1222 313.01 96.1587 312.796L96.1678 312.791Z" fill="white"/>
<path d="M98.2778 319.283C106.843 319.328 114.603 322.095 121.724 326.776C129.192 331.68 135.435 338.047 142.018 344.024C148.545 349.953 155.457 355.469 163.641 358.929C171.521 362.264 180.088 363.755 188.595 364.263C192.846 364.518 197.106 364.514 201.358 364.366C205.838 364.21 210.369 363.66 214.847 364.114C223.449 364.98 230.601 371.105 233.77 379.013C235.418 383.157 236.031 387.64 235.555 392.074C235.092 396.556 233.43 400.801 231.792 404.971C228.078 414.398 224.352 423.823 220.284 433.104C218.002 438.31 215.582 443.457 213.064 448.538C210.799 453.116 208.674 457.724 207.236 462.635C205.995 466.857 205.052 471.175 203.497 475.302C201.98 479.345 199.609 482.802 196.708 485.974C195.905 486.853 197.264 489.489 198.488 488.884C205.605 485.363 207.485 475.829 209.375 468.854C210.537 464.417 212.077 460.088 213.979 455.914C216.171 451.182 218.601 446.548 220.784 441.798C225.109 432.389 228.987 422.77 232.811 413.154C236.392 404.13 240.274 395.214 238.536 385.288C237.022 376.63 232.171 368.492 224.704 363.698C220.994 361.335 216.734 359.975 212.34 359.75C207.61 359.463 202.845 360.049 198.113 360.174C189.256 360.401 180.286 359.968 171.648 357.804C162.478 355.498 154.504 351.055 147.244 345.051C139.213 338.412 132.123 330.632 123.468 324.757C115.977 319.686 106.623 315.339 97.3629 316.61C96.2575 316.764 97.3925 319.27 98.2884 319.275L98.2778 319.283Z" fill="white"/>
<path d="M102.407 328.184C110.714 330.327 119.017 332.963 126.085 337.96C133.294 343.043 139.017 349.996 145.742 355.673C151.95 360.911 158.794 365.52 166.374 368.524C174.272 371.655 182.598 372.27 190.995 372.749C199.197 373.213 207.658 373.724 215.002 377.804C221.569 381.439 226.78 387.427 225.668 395.353C225.151 399.043 223.52 402.519 221.948 405.853C220.17 409.65 218.449 413.387 217.175 417.381C214.582 425.494 212.77 433.673 208.799 441.294C204.876 448.807 199.879 456 197.975 464.382C197.119 468.152 197.085 471.996 196.619 475.818C196.186 479.38 195.184 482.998 192.032 485.093C190.536 486.085 192.361 489.806 193.986 488.97C200.31 485.75 199.881 477.184 200.478 471.15C201.275 463.082 205.324 456.071 209.215 449.131C211.214 445.551 213.218 441.935 214.757 438.118C216.428 433.973 217.574 429.644 218.786 425.347C220.033 420.959 221.388 416.653 223.29 412.502C224.927 408.938 226.78 405.449 227.954 401.694C230.404 393.856 228.598 386.042 223.051 380.006C217.421 373.873 209.393 370.727 201.311 369.541C192.394 368.223 183.287 368.842 174.432 367.124C165.955 365.472 158.218 361.504 151.252 356.466C147.244 353.54 143.435 350.351 139.85 346.919C136.14 343.413 132.546 339.755 128.508 336.617C120.677 330.533 111.174 327.594 101.648 325.363C100.692 325.14 101.547 327.974 102.414 328.199L102.407 328.184Z" fill="white"/>
<path d="M109.855 336.688C125.422 337.362 135.077 351.566 144.735 361.86C150.037 367.513 156.037 372.725 163.463 375.31C171.003 377.934 179.078 377.982 186.96 378.409C194.594 378.82 202.733 379.602 209.373 383.742C214.786 387.115 219.169 393.565 217.746 400.178C216.979 403.737 214.54 406.558 212.985 409.772C211.363 413.126 210.681 416.796 210.042 420.438C209.402 424.08 208.795 427.791 207.253 431.181C205.545 434.945 202.759 438.111 200.516 441.533C195.724 448.919 192.511 457.217 191.079 465.904C189.781 473.755 190.212 482.475 184.983 489.022C184.031 490.211 186.179 493.734 187.375 492.358C192.419 486.575 192.663 478.43 193.543 471.187C194.528 462.865 197.198 454.831 201.39 447.576C203.48 444.001 206.124 440.81 208.295 437.288C210.345 433.965 211.512 430.383 212.261 426.567C213.027 422.677 213.476 418.697 214.806 414.946C216.137 411.194 218.942 408.078 220.184 404.273C222.439 397.443 219.478 389.98 214.918 384.821C209.901 379.141 202.608 376.547 195.302 375.378C187.12 374.082 178.773 374.544 170.573 373.351C166.479 372.756 162.453 371.718 158.73 369.879C155.008 368.04 151.672 365.465 148.653 362.639C137.002 351.733 126.744 334.313 108.861 333.872C107.822 333.846 108.889 336.639 109.856 336.684L109.855 336.688Z" fill="white"/>
<path d="M114.162 344.77C128.296 349.587 136.837 362.298 147.189 372.201C152.043 376.843 157.389 381.134 163.552 383.908C166.577 385.294 169.801 386.195 173.106 386.58C177.005 387.012 180.866 386.266 184.771 386.19C188.85 386.159 192.914 386.692 196.847 387.775C200.237 388.693 204.112 390.067 206.449 392.858C208.66 395.505 207.814 398.86 206.708 401.759C205.497 404.919 204.1 407.914 203.755 411.335C203.389 414.985 203.972 418.65 203.665 422.301C203.369 425.825 201.899 429.047 200.033 432.018C196.421 437.729 191.791 442.647 189.06 448.908C186.046 455.806 184.959 463.339 183.72 470.722C183.107 474.389 182.465 478.058 181.546 481.662C180.584 485.442 179.034 488.972 177.892 492.668C177.613 493.561 179.073 496.574 180.111 495.311C182.312 492.61 183.318 489.119 184.235 485.797C185.151 482.474 185.8 479.086 186.387 475.691C187.553 468.918 188.448 462.041 190.673 455.506C191.822 452.077 193.425 448.818 195.441 445.816C197.397 442.925 199.62 440.225 201.602 437.359C203.503 434.611 205.222 431.626 206.114 428.377C207.123 424.719 206.845 421.013 206.76 417.26C206.721 415.335 206.739 413.377 207.191 411.493C207.624 409.699 208.347 407.99 209.042 406.298C210.286 403.231 211.369 400.025 210.764 396.673C209.36 388.787 201.473 384.938 194.363 383.425C190.255 382.552 186.05 381.979 181.85 382.251C177.803 382.512 173.882 383.069 169.838 382.339C162.983 381.123 156.896 377.316 151.601 372.952C139.081 362.628 129.771 347.319 113.595 342.161C112.377 341.773 113.33 344.503 114.144 344.771L114.162 344.77Z" fill="white"/>
<path d="M119.313 357.265C125.036 359.833 130.363 363.203 135.135 367.274C139.828 371.305 143.571 376.175 147.572 380.855C151.413 385.349 155.67 389.58 161.025 392.245C166.034 394.734 171.694 395.736 177.251 395.879C180.108 395.942 182.965 395.823 185.807 395.522C188.702 395.233 191.749 394.81 194.615 395.488C196.93 396.032 199.916 397.595 199.585 400.367C199.265 403.053 197.596 405.435 197.133 408.122C196.168 413.698 197.444 419.303 195.642 424.781C193.797 430.401 190.293 435.326 187.518 440.496C184.352 446.383 181.598 452.483 179.274 458.75C178.067 462.006 176.981 465.303 176.015 468.641C175.046 472.055 173.954 475.528 173.78 479.086C173.739 479.981 175.392 482.755 176.135 481.07C177.417 478.147 177.919 474.876 178.8 471.807C179.681 468.738 180.661 465.721 181.744 462.726C183.958 456.58 186.603 450.597 189.659 444.823C192.501 439.474 196.062 434.404 198.168 428.686C199.168 425.973 199.716 423.113 199.789 420.221C199.865 417.263 199.563 414.285 199.94 411.336C200.303 408.482 201.918 406.059 202.425 403.259C202.922 400.519 202.043 397.773 200.324 395.618C196.268 390.546 190.027 390.923 184.2 391.521C178.374 392.119 172.279 392.198 166.536 390.74C160.422 389.202 155.428 385.871 151.036 381.409C146.153 376.463 141.987 370.878 136.817 366.201C131.49 361.386 125.4 357.491 118.795 354.673C117.644 354.184 118.538 356.915 119.328 357.272L119.313 357.265Z" fill="white"/>
<path d="M127.742 375.126C134.764 375.916 139.868 380.913 144.482 385.813C149.161 390.781 153.838 396.157 160.211 399.006C164.39 400.865 168.983 401.15 173.485 401.297C175.905 401.383 178.32 401.454 180.731 401.512C183.171 401.587 185.841 401.382 188.234 402.022C189.179 402.277 190.067 402.584 190.373 403.573C190.712 404.68 190.293 406.259 190.123 407.367L188.924 415.219C188.135 420.394 187.945 426.342 185.548 431.086C184.437 433.279 182.87 435.213 181.483 437.229C179.974 439.426 178.586 441.703 177.326 444.052C174.898 448.566 172.263 453.696 171.482 458.802C171.315 459.885 173.088 463.356 174.022 461.389C175.074 459.173 175.687 456.785 176.6 454.509C177.552 452.144 178.633 449.834 179.84 447.589C181.061 445.321 182.4 443.119 183.852 440.991C185.236 438.961 186.774 437.022 187.942 434.854C190.375 430.304 190.696 424.951 191.444 419.932L192.803 410.844C193.166 408.427 193.649 405.952 192.949 403.546C191.537 398.7 187.214 397.737 182.756 397.62C177.229 397.471 171.602 397.616 166.104 396.98C157.653 396.006 151.945 390.482 146.25 384.695C140.82 379.202 134.915 373.137 126.8 372.358C125.79 372.261 126.784 375.007 127.763 375.116L127.742 375.126Z" fill="white"/>
<path d="M138.055 390.791C144.391 393.727 150.611 396.666 155.653 401.596C157.917 403.812 160.16 405.974 163.019 407.409C165.597 408.696 168.449 409.335 171.33 409.273C174.042 409.204 177.164 407.988 179.791 409.068C182.508 410.179 182.527 413.582 182.323 416.084C181.827 422.229 178.96 428.569 175.762 433.736C173.922 436.61 171.843 439.323 169.55 441.85C167.387 444.303 165.187 446.959 164.559 450.259C164.484 450.786 164.534 451.323 164.704 451.826C164.875 452.33 165.162 452.787 165.541 453.16C166.05 453.657 167.084 454.139 167.374 453.13C168.264 449.924 170.278 447.492 172.429 445.037C174.717 442.482 176.77 439.726 178.562 436.803C181.861 431.288 184.619 424.778 185.196 418.321C185.71 412.566 183.342 404.944 176.485 404.738C173.261 404.639 170.224 405.674 166.975 405.178C163.51 404.639 160.563 402.972 158 400.632C155.049 397.941 152.254 395.345 148.769 393.338C145.211 391.285 141.409 389.706 137.587 388.202C136.347 387.714 137.285 390.436 138.079 390.802L138.055 390.791Z" fill="white"/>
<path d="M140.474 399.815C149.476 401.056 154.256 410.34 161.635 414.636C163.275 415.63 165.066 416.35 166.937 416.768C167.916 416.978 168.915 417.076 169.916 417.061C171.071 417.035 172.448 416.704 173.533 417.195C175.696 418.198 174.079 421.764 173.355 423.285C172.25 425.535 170.803 427.601 169.066 429.409C168.162 430.376 167.294 431.33 166.732 432.546C166.226 433.646 166.018 434.82 165.697 435.991C164.903 438.816 163.16 440.727 161.618 443.127C161.006 444.074 162.342 447.394 163.685 446.58C165.829 445.311 167.173 442.713 168.046 440.453C168.493 439.299 168.717 438.103 169.059 436.922C169.496 435.426 170.371 434.332 171.403 433.197C174.772 429.485 178.543 424.024 177.167 418.721C176.571 416.418 175.007 414.004 172.643 413.209C170.28 412.415 167.665 413.351 165.219 412.717C160.475 411.491 156.802 407.838 153.279 404.663C149.351 401.127 144.988 397.593 139.535 397.061C138.479 396.959 139.504 399.661 140.459 399.792L140.474 399.815Z" fill="white"/>
<path d="M150.448 412.453C151.842 414.884 153.849 416.906 156.268 418.318C157.442 419 158.673 419.575 159.949 420.037C161.34 420.541 162.953 420.805 164.216 421.607C165.704 422.549 164.584 423.508 163.645 424.426C162.737 425.291 161.987 426.309 161.43 427.432C160.305 429.738 159.804 432.72 160.756 435.168C161.085 436.01 163.081 438.275 163.245 436.103C163.358 434.657 163.116 433.342 163.523 431.908C163.905 430.563 164.589 429.323 165.523 428.283C166.435 427.26 167.429 426.45 167.683 425.044C167.937 423.638 167.466 422.191 166.766 420.986C165.166 418.239 162.42 417.596 159.609 416.659C156.582 415.65 153.598 414.005 151.63 411.432C150.635 410.111 149.704 411.21 150.45 412.474L150.448 412.453Z" fill="white"/>
</svg>
