<svg width="36" height="832" viewBox="0 0 36 832" fill="none" xmlns="http://www.w3.org/2000/svg">
<path fill-rule="evenodd" clip-rule="evenodd" d="M11.5206 836.141L0.480744 836.141L0.480741 901L11.5839 901L11.5839 887.605L23.7126 887.605L23.7126 875.173L35.6514 875.173L35.6514 862.386L24.0165 862.386L24.0165 849.118L11.5206 849.118L11.5206 836.141ZM0.480743 766.635L11.5206 766.635L11.5206 779.612L24.0165 779.612L24.0165 792.88L35.6514 792.88L35.6514 805.667L23.7126 805.667L23.7126 818.099L11.5839 818.099L11.5839 831.494L0.48074 831.494L0.480743 766.635ZM11.5206 697.129L0.480742 697.129L0.480739 761.988L11.5839 761.988L11.5839 748.593L23.7126 748.593L23.7126 736.161L35.6514 736.161L35.6514 723.374L24.0165 723.374L24.0165 710.106L11.5206 710.106L11.5206 697.129ZM11.5206 627.623L0.480741 627.623L0.480738 692.482L11.5839 692.482L11.5839 679.088L23.7126 679.088L23.7126 666.668L35.6514 666.668L35.6514 653.868L24.0165 653.868L24.0165 640.6L11.5206 640.6L11.5206 627.623ZM-9.07538e-06 349.701L11.0399 349.701L11.0399 362.678L23.5231 362.678L23.5231 375.946L35.1707 375.946L35.1707 388.733L23.2319 388.733L23.2319 401.166L11.1032 401.166L11.1032 414.56L-1.19105e-05 414.56L-9.07538e-06 349.701ZM11.0399 419.207L-1.21136e-05 419.207L-1.49487e-05 484.066L11.1032 484.066L11.1032 470.671L23.2319 470.671L23.2319 458.239L35.1707 458.239L35.1707 445.452L23.5231 445.452L23.5231 432.171L11.0399 432.171L11.0399 419.207ZM-1.13371e-05 488.713L11.0399 488.713L11.0399 501.677L23.5231 501.677L23.5231 514.958L35.1707 514.958L35.1707 527.745L23.2319 527.745L23.2319 540.177L11.1032 540.177L11.1032 553.572L-1.41722e-05 553.572L-1.13371e-05 488.713ZM11.0399 558.218L-1.05606e-05 558.218L-1.33957e-05 623.078L11.1032 623.078L11.1032 609.683L23.2319 609.683L23.2319 597.25L35.1707 597.25L35.1707 584.463L23.5231 584.463L23.5231 571.183L11.0399 571.183L11.0399 558.218ZM11.5206 279.439L0.480745 279.439L0.480742 344.299L11.5839 344.299L11.5839 330.904L23.7126 330.904L23.7126 318.472L35.6514 318.472L35.6514 305.685L24.0165 305.685L24.0165 292.416L11.5206 292.416L11.5206 279.439ZM0.480744 209.934L11.5206 209.934L11.5206 222.911L24.0165 222.911L24.0165 236.179L35.6514 236.179L35.6514 248.966L23.7126 248.966L23.7126 261.398L11.5839 261.398L11.5839 274.793L0.480741 274.793L0.480744 209.934ZM11.5206 140.428L0.480743 140.428L0.480741 205.287L11.5839 205.287L11.5839 191.892L23.7126 191.892L23.7126 179.46L35.6514 179.46L35.6514 166.673L24.0165 166.673L24.0165 153.405L11.5206 153.405L11.5206 140.428ZM11.5206 70.9223L0.480743 70.9223L0.48074 135.782L11.5839 135.782L11.5839 122.387L23.7126 122.387L23.7126 109.967L35.6514 109.967L35.6514 97.1674L24.0165 97.1674L24.0165 83.8992L11.5206 83.8992L11.5206 70.9223ZM-7.62939e-06 -207L11.0399 -207L11.0399 -194.023L23.5231 -194.023L23.5231 -180.755L35.1707 -180.755L35.1707 -167.968L23.2319 -167.968L23.2319 -155.535L11.1032 -155.535L11.1032 -142.141L-1.04645e-05 -142.141L-7.62939e-06 -207ZM11.0399 -137.494L-1.06676e-05 -137.494L-1.35027e-05 -72.6345L11.1032 -72.6345L11.1032 -86.0293L23.2319 -86.0293L23.2319 -98.4618L35.1707 -98.4618L35.1707 -111.249L23.5231 -111.249L23.5231 -124.53L11.0399 -124.53L11.0399 -137.494ZM-9.89109e-06 -67.9884L11.0399 -67.9884L11.0399 -55.0241L23.5231 -55.0241L23.5231 -41.7433L35.1707 -41.7433L35.1707 -28.9563L23.2319 -28.9563L23.2319 -16.5237L11.1032 -16.5237L11.1032 -3.129L-1.27262e-05 -3.129L-9.89109e-06 -67.9884ZM11.0399 1.51761L-9.11459e-06 1.51761L-1.19497e-05 66.377L11.1032 66.377L11.1032 52.9823L23.2319 52.9823L23.2319 40.5497L35.1707 40.5497L35.1707 27.7627L23.5231 27.7627L23.5231 14.4819L11.0399 14.4819L11.0399 1.51761Z" fill="#C2B390"/>
</svg>
