<svg width="49" height="119" viewBox="0 0 49 119" fill="none" xmlns="http://www.w3.org/2000/svg">
<g clip-path="url(#clip0_59_2039)">
<path d="M42.3278 105.043H47.251V102.715C47.251 101.998 47.0567 101.415 46.6705 100.972C46.1871 100.421 45.5593 100.143 44.7894 100.143C44.0195 100.143 43.3867 100.419 42.9083 100.972C42.5222 101.42 42.3278 102.003 42.3278 102.715V105.043ZM40.7133 111.87V103.275C40.7133 102.12 41.0771 101.167 41.8021 100.424C42.567 99.6473 43.5611 99.258 44.7869 99.258C46.0127 99.258 46.9869 99.6473 47.7742 100.424C48.5017 101.14 48.863 102.092 48.863 103.275V111.146L47.3307 111.87H47.251V105.926H42.3278V111.146L40.7956 111.87H40.7158H40.7133ZM31.6742 111.87V99.8209L32.5288 99.4192H37.6463V99.4985L37.2676 100.302H33.2887V105.041H37.6463V105.12L37.2676 105.924H33.2887V111.144L31.7565 111.868H31.6767L31.6742 111.87ZM22.2813 106.569H24.581C25.2861 106.569 25.9114 106.293 26.462 105.74C26.8482 105.348 27.0426 104.58 27.0426 103.434C27.0426 102.288 26.8482 101.574 26.462 101.128C25.9837 100.577 25.3558 100.3 24.581 100.3H22.2813V106.566V106.569ZM20.6669 111.87V99.8209L21.5214 99.4192H24.581C25.8068 99.4192 26.8034 99.8085 27.5683 100.585C28.2958 101.324 28.657 102.273 28.657 103.437C28.657 104.6 28.2933 105.554 27.5683 106.288C27.1372 106.722 26.634 107.035 26.0584 107.228L28.8514 111.203L27.4312 111.87H27.3515L24.2446 107.451H22.2838V111.146L20.7516 111.87H20.6718H20.6669ZM11.3213 111.548V99.8209L12.1759 99.4192H17.2934V99.4985L16.9147 100.302H12.9358V105.041H17.2934V105.12L16.9147 105.924H12.9358V110.663H18.6413V110.742L18.2626 111.546H11.3213V111.548ZM0.104645 111.87V99.8209L1.63691 99.0968H1.71663V105.041H6.48035V99.8209L8.01261 99.0968H8.09234V111.146L6.56008 111.87H6.48035V105.926H1.71913V111.146L0.186864 111.87H0.104645Z" fill="#E1E1DE"/>
<path d="M46.4537 116.528V115.489C46.4537 115.154 46.5808 114.861 46.8349 114.613C47.0716 114.383 47.3706 114.268 47.7269 114.268C48.0831 114.268 48.3821 114.383 48.6188 114.613C48.8729 114.859 49 115.151 49 115.489V117.777C49 118.112 48.8729 118.405 48.6188 118.653C48.3821 118.883 48.0831 118.998 47.7269 118.998H46.7826V118.968L46.9296 118.663H47.7269C47.9112 118.663 48.0682 118.608 48.1953 118.499C48.3223 118.392 48.3846 118.221 48.3846 117.986V117.487C48.2301 117.661 48.0084 117.748 47.7244 117.748C47.3706 117.748 47.0741 117.634 46.8324 117.403C46.5783 117.16 46.4512 116.867 46.4512 116.528H46.4537ZM47.0666 116.736C47.0666 116.969 47.1289 117.143 47.256 117.252C47.3855 117.358 47.54 117.413 47.7244 117.413C47.9087 117.413 48.0632 117.358 48.1903 117.252C48.3198 117.143 48.3846 116.969 48.3846 116.736V115.283C48.3846 115.05 48.3198 114.878 48.1903 114.769C48.0632 114.66 47.9087 114.606 47.7244 114.606C47.54 114.606 47.383 114.66 47.256 114.769C47.1289 114.876 47.0666 115.047 47.0666 115.283V116.736ZM42.6093 117.81V115.489C42.6093 115.154 42.7364 114.861 42.9905 114.613C43.2272 114.383 43.5262 114.268 43.8825 114.268C44.2388 114.268 44.5328 114.383 44.7744 114.613C45.0286 114.856 45.1556 115.149 45.1556 115.489V117.534L44.5726 117.81H44.5427V115.283C44.5427 115.05 44.478 114.878 44.3484 114.769C44.2213 114.66 44.0669 114.606 43.8825 114.606C43.6981 114.606 43.5412 114.66 43.4141 114.769C43.287 114.876 43.2247 115.047 43.2247 115.283V117.534L42.6417 117.81H42.6118H42.6093ZM40.5464 117.81V114.482L41.1294 114.206H41.1593V117.534L40.5763 117.81H40.5464ZM40.5912 113.656C40.519 113.582 40.4841 113.495 40.4841 113.393C40.4841 113.291 40.519 113.2 40.5912 113.128C40.6635 113.053 40.7507 113.019 40.8529 113.019C40.955 113.019 41.0422 113.056 41.1145 113.128C41.1867 113.2 41.2216 113.289 41.2216 113.393C41.2216 113.497 41.1867 113.582 41.1145 113.656C41.0422 113.73 40.955 113.765 40.8529 113.765C40.7507 113.765 40.6635 113.728 40.5912 113.656ZM36.6422 116.612L37.2253 116.337H37.2551V116.728C37.2551 116.957 37.3224 117.13 37.4545 117.247C37.5815 117.358 37.7335 117.415 37.9154 117.415C38.1247 117.415 38.2866 117.348 38.4037 117.217C38.5258 117.081 38.5881 116.885 38.5881 116.627C38.5881 116.394 38.5233 116.225 38.3913 116.123C38.2791 116.037 38.1197 115.992 37.9129 115.992C37.5192 115.992 37.2228 115.913 37.0284 115.756C36.8565 115.617 36.7718 115.429 36.7718 115.188C36.7718 114.906 36.9014 114.673 37.1605 114.487C37.3623 114.343 37.6139 114.271 37.9154 114.271C38.2169 114.271 38.4536 114.36 38.6678 114.539C38.8323 114.68 38.9319 114.841 38.9718 115.027L38.3888 115.303H38.3589V115.067C38.3589 114.965 38.329 114.874 38.2667 114.794C38.1695 114.668 38.0275 114.606 37.8456 114.606C37.7011 114.606 37.5815 114.65 37.4893 114.74C37.3997 114.831 37.3548 114.975 37.3548 115.171C37.3548 115.377 37.4096 115.518 37.5192 115.593C37.5815 115.635 37.7111 115.657 37.9129 115.657C38.3464 115.657 38.6703 115.749 38.8871 115.93C39.0864 116.096 39.1885 116.339 39.1885 116.654C39.1885 116.919 39.0714 117.17 38.8347 117.41C38.613 117.639 38.3041 117.753 37.9154 117.753C37.5616 117.753 37.2651 117.656 37.0234 117.46C36.7693 117.254 36.6422 116.971 36.6422 116.614V116.612ZM34.6715 117.812V114.484L35.2545 114.209H35.2844V117.537L34.7014 117.812H34.6715ZM34.7163 113.658C34.6441 113.584 34.6092 113.497 34.6092 113.396C34.6092 113.294 34.6441 113.202 34.7163 113.13C34.7886 113.056 34.8758 113.021 34.9779 113.021C35.0801 113.021 35.1673 113.058 35.2395 113.13C35.3118 113.202 35.3467 113.291 35.3467 113.396C35.3467 113.5 35.3118 113.584 35.2395 113.658C35.1673 113.733 35.0801 113.768 34.9779 113.768C34.8758 113.768 34.7886 113.73 34.7163 113.658ZM32.2024 117.812V114.668H31.4151V114.638L31.5596 114.333H32.2049V113.234L32.7879 112.959H32.8178V114.333H33.6051V114.363L33.4606 114.668H32.8153V117.537L32.2323 117.812H32.2024ZM29.2126 117.812V115.491C29.2126 115.156 29.3397 114.864 29.5938 114.616C29.8305 114.385 30.1295 114.271 30.4858 114.271H30.8994V114.301L30.7524 114.606H30.4858C30.3014 114.606 30.1445 114.66 30.0174 114.769C29.8903 114.876 29.828 115.047 29.828 115.283V117.534L29.245 117.81H29.2151L29.2126 117.812ZM25.9837 116.473L27.3017 115.407V115.285C27.3017 115.052 27.2394 114.883 27.1123 114.772C26.9828 114.663 26.8283 114.608 26.6439 114.608C26.4596 114.608 26.3051 114.663 26.1755 114.772C26.0485 114.879 25.9862 115.05 25.9862 115.285V116.473H25.9837ZM27.9171 116.339V116.533C27.9171 116.867 27.79 117.16 27.5359 117.408C27.2992 117.639 27.0002 117.753 26.6439 117.753C26.2876 117.753 25.9936 117.639 25.752 117.408C25.4978 117.165 25.3708 116.872 25.3708 116.533V115.494C25.3708 115.156 25.4978 114.864 25.752 114.618C25.9887 114.387 26.2876 114.273 26.6439 114.273C27.0002 114.273 27.2917 114.387 27.5359 114.618C27.79 114.856 27.9171 115.119 27.9171 115.407L26.0036 116.944C26.031 117.076 26.0883 117.18 26.1755 117.252C26.3051 117.361 26.4596 117.415 26.6439 117.415C26.8283 117.415 26.9828 117.361 27.1098 117.252C27.2394 117.143 27.3042 116.929 27.3042 116.614L27.8872 116.339H27.9171ZM22.8419 117.815L21.6585 114.462L22.1891 114.211H22.219L23.2032 117.024L24.1848 114.211H24.2147L24.5311 114.36L23.4025 117.562L22.8718 117.812H22.8419V117.815ZM17.9686 116.533V115.494C17.9686 115.159 18.0956 114.866 18.3498 114.618C18.5865 114.387 18.8854 114.273 19.2417 114.273C19.5108 114.273 19.7325 114.36 19.902 114.534V113.237L20.485 112.962H20.5149V116.533C20.5149 116.867 20.3878 117.16 20.1337 117.408C19.897 117.639 19.598 117.753 19.2417 117.753C18.8854 117.753 18.5914 117.639 18.3498 117.408C18.0956 117.165 17.9686 116.872 17.9686 116.533ZM18.5815 116.741C18.5815 116.974 18.6438 117.148 18.7708 117.257C18.9004 117.363 19.0549 117.418 19.2392 117.418C19.4236 117.418 19.5781 117.363 19.7051 117.257C19.8347 117.148 19.8995 116.974 19.8995 116.741V115.288C19.8995 115.055 19.8347 114.883 19.7051 114.774C19.5781 114.665 19.4236 114.611 19.2392 114.611C19.0549 114.611 18.8979 114.665 18.7708 114.774C18.6438 114.881 18.5815 115.052 18.5815 115.288V116.741ZM14.0345 115.221H15.9056V114.335C15.9056 114.063 15.8309 113.842 15.6839 113.673C15.4995 113.463 15.2628 113.358 14.9688 113.358C14.6748 113.358 14.4357 113.463 14.2538 113.673C14.1068 113.844 14.032 114.065 14.032 114.335V115.221H14.0345ZM13.4216 117.815V114.549C13.4216 114.11 13.5587 113.748 13.8352 113.465C14.1267 113.17 14.5029 113.021 14.9688 113.021C15.4347 113.021 15.806 113.17 16.1025 113.465C16.379 113.738 16.516 114.1 16.516 114.549V117.539L15.933 117.815H15.9031V115.555H14.032V117.539L13.449 117.815H13.4191H13.4216ZM7.60152 117.815V115.494C7.60152 115.159 7.72858 114.866 7.98271 114.618C8.2194 114.387 8.51838 114.273 8.87466 114.273H9.28825V114.303L9.14125 114.608H8.87466C8.69029 114.608 8.53333 114.663 8.40627 114.772C8.2792 114.879 8.21691 115.05 8.21691 115.285V117.537L7.6339 117.812H7.60401L7.60152 117.815ZM4.24549 116.741C4.24549 116.974 4.30777 117.148 4.43484 117.257C4.5644 117.363 4.71887 117.418 4.90324 117.418C5.08761 117.418 5.24208 117.363 5.36915 117.257C5.4987 117.148 5.56348 116.974 5.56348 116.741V115.288C5.56348 115.055 5.4987 114.883 5.36915 114.774C5.24208 114.665 5.08761 114.611 4.90324 114.611C4.71887 114.611 4.56191 114.665 4.43484 114.774C4.30777 114.881 4.24549 115.052 4.24549 115.288V116.741ZM3.63258 116.533V115.494C3.63258 115.159 3.75965 114.866 4.01378 114.618C4.25047 114.387 4.54945 114.273 4.90573 114.273C5.26201 114.273 5.55601 114.387 5.79768 114.618C6.05181 114.861 6.17888 115.154 6.17888 115.494V116.533C6.17888 116.867 6.05181 117.16 5.79768 117.408C5.56099 117.639 5.26201 117.753 4.90573 117.753C4.54945 117.753 4.25545 117.639 4.01378 117.408C3.75965 117.165 3.63258 116.872 3.63258 116.533ZM0.00249148 117.815V113.234L0.326384 113.081H2.26974V113.11L2.12524 113.415H0.612905V115.216H2.26974V115.246L2.12524 115.551H0.612905V117.534L0.0298978 117.81H0L0.00249148 117.815Z" fill="#C2B390"/>
<path fill-rule="evenodd" clip-rule="evenodd" d="M0.11461 106.14C1.09376 105.986 2.04551 106.008 2.96736 106.231C3.51798 106.365 4.10846 106.45 4.70392 106.519C5.84004 106.65 7.07581 106.41 8.37886 105.534C9.04409 105.088 9.6844 104.602 10.3272 104.119C10.6013 103.91 10.8753 103.704 11.1519 103.499C9.68191 104.582 8.26176 105.046 6.90888 104.944C6.18635 104.89 5.50618 104.763 4.8285 104.634C4.6815 104.607 4.5345 104.58 4.38501 104.552C3.05207 104.309 1.62694 104.476 0.109627 105.031V106.14H0.11461Z" fill="#C2B390"/>
<path d="M6.44547 99.8036C6.96868 99.6002 7.98022 99.1787 8.06991 99.134V111.122L6.50028 111.957L6.44547 99.8036Z" fill="#E1E1DE"/>
<path fill-rule="evenodd" clip-rule="evenodd" d="M17.7593 50.4969C16.9371 45.8795 17.2834 43.0797 18.569 37.9614C19.0424 36.0792 19.6503 34.4846 20.3878 33.1083C21.7232 30.621 23.4797 28.8504 25.6124 27.4121C30.3338 24.2255 33.0022 21.21 33.7073 15.3799C33.5752 17.7507 33.5005 20.1016 33.1043 22.4202C32.4067 26.5243 30.6552 28.2726 27.4412 30.4698C25.8616 31.5485 24.4041 32.4859 22.9067 34.1622C21.7407 35.4666 20.8188 37.0289 20.0938 38.7351C18.2999 42.9632 17.7942 46.2589 17.7593 50.492V50.4969Z" fill="#C2B390"/>
<path fill-rule="evenodd" clip-rule="evenodd" d="M26.2079 61.5075C26.1506 61.562 26.0933 61.6166 26.0385 61.6711C26.8856 60.2626 28.0765 59.0698 28.9162 57.634C30.9642 54.1275 31.8711 50.1225 31.4824 46.0804C31.2332 43.5113 30.8147 40.9595 30.4958 38.3954C30.3214 36.9843 30.3164 35.6303 30.4733 34.3309C29.1703 36.9695 28.4926 39.861 28.5499 43.0426C28.5948 45.6241 28.814 48.2006 28.9311 50.7797C29.1703 56.0593 27.1223 60.3816 23.2281 63.8583C21.8927 65.0511 20.6345 66.2811 19.4635 67.6426C18.3921 68.8875 17.8913 69.929 17.3108 71.8037C17.2186 69.9191 17.4678 68.4436 18.1554 67.1168C19.6055 64.3146 19.8447 61.2892 19.5482 58.2068C19.0748 53.3042 18.0458 48.3122 19.6453 43.4964C20.6494 40.4735 22.4433 37.758 24.6258 35.4493C25.904 34.0953 27.3166 32.8777 28.7268 31.6651C27.1871 33.7382 25.5551 35.794 24.4589 38.1449C23.3701 40.4809 22.7821 43.0451 22.7472 45.6191C22.7074 48.5255 23.2181 51.417 23.5071 54.301C23.7712 56.9495 23.7438 59.5732 22.807 62.115C22.7522 62.2638 22.2564 63.3946 22.3586 63.4541C22.6002 63.5955 23.0836 62.5316 23.1683 62.3605C23.4623 61.7654 23.7538 61.1677 23.9905 60.5478C24.8874 58.1919 25.0319 55.7294 24.9074 53.2446C24.7903 50.869 24.576 48.4982 24.5361 46.1225C24.4738 42.4821 25.4779 39.0996 27.4088 36.0172C28.4652 34.3309 29.7284 32.8281 31.1136 31.4444C32.2248 30.3334 33.4183 29.2968 34.654 28.3024C34.7662 28.2131 34.8758 28.1214 34.9879 28.0346C35.0377 27.9949 35.0776 27.9627 35.1324 27.9949C34.8857 28.4884 34.816 29.0365 34.6565 29.5572C34.4821 30.1201 34.3351 30.693 34.2355 31.2733C34.0187 32.5132 34.0212 33.7705 34.1483 35.0203C34.4149 37.6465 35.1523 40.2007 35.3218 42.8392C35.6257 47.5484 34.0984 52.3296 31.2756 56.1039C29.7957 58.0853 27.9993 59.8013 26.2154 61.5075H26.2079Z" fill="#C2B390"/>
<path fill-rule="evenodd" clip-rule="evenodd" d="M14.2662 36.8082C14.184 35.0748 14.0096 33.3389 14.042 31.6055C14.0893 29.2397 14.483 26.9087 15.2329 24.6496C16.5534 20.6719 19.2517 17.4828 22.4981 14.8914C25.5751 12.4314 29.0582 10.1872 31.019 6.6633C32.1651 4.60752 32.6509 2.26903 33.1616 -0.00250244C33.4008 8.09417 34.6516 16.6 28.5574 22.9137C26.5866 24.9571 24.3044 26.6731 22.2564 28.6347C18.2177 32.5007 16.4014 37.329 16.2619 42.8417C16.2519 43.231 16.2495 43.6203 16.1922 44.027C16.1647 43.9402 16.1249 43.8559 16.1149 43.7666C15.5195 38.3581 15.6266 32.6396 18.3896 27.7816C19.0947 26.5417 19.9792 25.3365 20.9584 24.295C23.7289 21.3415 27.3042 19.1344 29.7633 15.8908C31.1435 14.0706 32.0504 12.1611 32.4267 9.90693C31.5123 11.6428 30.573 13.3688 29.2425 14.8319C27.8498 16.3644 26.1506 17.582 24.5212 18.8443C21.3819 21.2745 18.295 23.9279 16.5634 27.5733C15.2703 30.2937 14.6549 33.3017 14.5004 36.2949C14.493 36.4586 14.483 36.6222 14.473 36.7884C14.4033 36.7958 14.336 36.8008 14.2662 36.8082Z" fill="#C2B390"/>
<path fill-rule="evenodd" clip-rule="evenodd" d="M34.8035 59.6674C33.8892 65.5124 27.9021 68.9098 24.0702 72.8006C22.4258 74.4696 20.9633 76.3294 19.7874 78.3555C19.02 79.6772 18.579 81.1403 18.0209 82.5538C18.3149 79.1093 19.6404 75.6996 21.7083 72.937C23.7139 70.2588 26.4371 68.5279 28.9909 66.4398C30.3961 65.2892 31.8636 63.9526 32.9374 62.4795C33.7073 61.4231 34.2529 60.2204 34.8758 59.0772C34.8559 59.2756 34.8334 59.4715 34.801 59.6649L34.8035 59.6674ZM35.7578 59.3649C35.7553 59.2359 35.7503 59.107 35.7453 58.978C35.6207 55.6947 35.8973 52.456 35.6133 49.1727C34.8808 52.3717 34.0636 55.5682 31.9109 58.1448C29.7981 60.6742 26.8956 62.4324 24.3866 64.5304C18.8531 69.1553 16.3367 74.472 16.9919 81.6834C17.3407 85.5222 18.0558 89.3362 18.6363 93.1452C19.0574 90.2711 18.9951 87.5879 20.044 84.808C21.0306 82.1918 22.6052 79.8409 24.6159 77.8942C24.6458 77.8669 24.6732 77.8372 24.7031 77.8099C26.5717 76.0219 28.5599 74.3555 30.4783 72.6171C34.3451 69.1131 35.8674 64.456 35.7553 59.3649H35.7578Z" fill="#C2B390"/>
<path d="M12.3071 73.3533L9.24691 76.3992L12.3071 79.445L15.3672 76.3992L12.3071 73.3533Z" fill="#E1E1DE"/>
<path d="M37.1075 21.8992L34.0473 24.9451L37.1075 27.9909L40.1676 24.9451L37.1075 21.8992Z" fill="#E1E1DE"/>
<path d="M12.3159 79.9172L9.25573 82.963L12.3159 86.0089L15.376 82.963L12.3159 79.9172Z" fill="#E1E1DE"/>
<path d="M12.4151 77.604H12.2282V81.8222H12.4151V77.604Z" fill="#E1E1DE"/>
</g>
<defs>
<clipPath id="clip0_59_2039">
<rect width="49" height="119" fill="white"/>
</clipPath>
</defs>
</svg>
