<svg width="47" height="106" viewBox="0 0 47 106" fill="none" xmlns="http://www.w3.org/2000/svg">
<path d="M1.4244 99.1154V88.4325L2.77757 87.7915H2.84879V93.0618H7.05076V88.4325L8.40394 87.7915H8.47516V98.4745L7.12198 99.1154H7.05076V93.8452H2.84879V98.4745L1.49562 99.1154H1.4244ZM11.3239 98.8306V88.4325L12.0789 88.0764H16.5942V88.1476L16.2595 88.8598H12.7483V93.0618H16.5942V93.133L16.2595 93.8452H12.7483V98.0471H17.7836V98.1184L17.4488 98.8306H11.3239ZM19.5712 99.1154V88.4325L20.3261 88.0764H23.0254C24.1079 88.0764 24.9863 88.4206 25.6605 89.1091C26.3015 89.7643 26.622 90.6071 26.622 91.6374C26.622 92.6724 26.3015 93.5152 25.6605 94.1657C25.2807 94.5503 24.8367 94.828 24.3287 94.9989L26.7929 98.5243L25.5394 99.1154H25.4682L22.7262 95.1984H20.9956V98.4745L19.6424 99.1154H19.5712ZM20.9956 94.4149H23.0254C23.6473 94.4149 24.2005 94.1704 24.6848 93.6814C25.0266 93.3348 25.1976 92.6534 25.1976 91.6374C25.1976 90.6688 25.0266 89.9874 24.6848 89.5934C24.2622 89.1043 23.7091 88.8598 23.0254 88.8598H20.9956V94.4149ZM29.2856 99.1154V88.4325L30.0405 88.0764H34.5558V88.1476L34.2211 88.8598H30.71V93.0618H34.5558V93.133L34.2211 93.8452H30.71V98.4745L29.3568 99.1154H29.2856ZM37.2622 99.1154V91.4949C37.2622 90.4694 37.5827 89.6266 38.2237 88.9666C38.8979 88.2782 39.7763 87.9339 40.8588 87.9339C41.9223 87.9339 42.8007 88.2782 43.4939 88.9666C44.1349 89.6029 44.4554 90.4456 44.4554 91.4949V98.4745L43.1022 99.1154H43.031V93.8452H38.6866V98.4745L37.3334 99.1154H37.2622ZM38.6866 93.0618H43.031V90.9964C43.031 90.3602 42.8601 89.845 42.5182 89.4509C42.0909 88.9619 41.5378 88.7174 40.8588 88.7174C40.1751 88.7174 39.6219 88.9619 39.1994 89.4509C38.8575 89.8498 38.6866 90.3649 38.6866 90.9964V93.0618Z" fill="#C2AC7D"/>
<path d="M1.33234 104.176V100.116L1.61924 99.9809H3.33524V100.008L3.20803 100.279H1.87367V101.876H3.33524V101.903L3.20803 102.173H1.87367V103.933L1.35941 104.176H1.33234ZM4.53655 103.039V102.119C4.53655 101.821 4.64843 101.562 4.87217 101.342C5.08149 101.138 5.34403 101.036 5.6598 101.036C5.97197 101.036 6.23451 101.138 6.44743 101.342C6.67118 101.559 6.78305 101.818 6.78305 102.119V103.039C6.78305 103.337 6.67118 103.596 6.44743 103.816C6.23812 104.02 5.97557 104.122 5.6598 104.122C5.34764 104.122 5.08509 104.02 4.87217 103.816C4.64843 103.6 4.53655 103.341 4.53655 103.039ZM5.07788 103.223C5.07788 103.431 5.13381 103.583 5.24569 103.681C5.35937 103.776 5.4974 103.824 5.6598 103.824C5.8222 103.824 5.95933 103.776 6.07121 103.681C6.18489 103.583 6.24173 103.431 6.24173 103.223V101.935C6.24173 101.728 6.18489 101.576 6.07121 101.48C5.95933 101.383 5.8222 101.334 5.6598 101.334C5.4974 101.334 5.35937 101.383 5.24569 101.48C5.13381 101.576 5.07788 101.728 5.07788 101.935V103.223ZM8.03849 104.176V102.119C8.03849 101.821 8.15037 101.562 8.37411 101.342C8.58343 101.138 8.84597 101.036 9.16174 101.036H9.52714V101.064L9.39722 101.334H9.16174C8.99934 101.334 8.86131 101.383 8.74763 101.48C8.63575 101.576 8.57982 101.728 8.57982 101.935V103.933L8.06556 104.176H8.03849ZM13.1748 104.176V101.28C13.1748 100.89 13.2966 100.57 13.5402 100.319C13.7964 100.058 14.1302 99.9267 14.5416 99.9267C14.9458 99.9267 15.2797 100.058 15.5431 100.319C15.7867 100.561 15.9085 100.881 15.9085 101.28V103.933L15.3942 104.176H15.3672V102.173H13.7161V103.933L13.2019 104.176H13.1748ZM13.7161 101.876H15.3672V101.091C15.3672 100.849 15.3022 100.653 15.1723 100.503C15.0099 100.317 14.7997 100.224 14.5416 100.224C14.2818 100.224 14.0716 100.317 13.911 100.503C13.7811 100.655 13.7161 100.851 13.7161 101.091V101.876ZM17.7297 103.223C17.7297 103.431 17.7857 103.583 17.8975 103.681C18.0112 103.776 18.1493 103.824 18.3117 103.824C18.474 103.824 18.6112 103.776 18.7231 103.681C18.8367 103.583 18.8936 103.431 18.8936 103.223V101.935C18.8936 101.728 18.8367 101.576 18.7231 101.48C18.6112 101.383 18.474 101.334 18.3117 101.334C18.1493 101.334 18.0112 101.383 17.8975 101.48C17.7857 101.576 17.7297 101.728 17.7297 101.935V103.223ZM17.1884 103.039V102.119C17.1884 101.821 17.3003 101.562 17.524 101.342C17.7333 101.138 17.9959 101.036 18.3117 101.036C18.5498 101.036 18.7438 101.113 18.8936 101.267V100.116L19.4078 99.8726H19.4349V103.039C19.4349 103.337 19.323 103.596 19.0993 103.816C18.89 104.02 18.6274 104.122 18.3117 104.122C17.9995 104.122 17.7369 104.02 17.524 103.816C17.3003 103.6 17.1884 103.341 17.1884 103.039ZM21.4889 104.176L20.4441 101.204L20.9124 100.982H20.9395L21.8083 103.475L22.6744 100.982H22.7015L22.9803 101.115L21.9842 103.954L21.516 104.176H21.4889ZM25.968 102.869V103.039C25.968 103.337 25.8562 103.596 25.6324 103.816C25.4231 104.02 25.1606 104.122 24.8448 104.122C24.5326 104.122 24.2701 104.02 24.0572 103.816C23.8334 103.6 23.7215 103.341 23.7215 103.039V102.119C23.7215 101.82 23.8334 101.561 24.0572 101.342C24.2665 101.138 24.529 101.036 24.8448 101.036C25.1534 101.036 25.4159 101.138 25.6324 101.342C25.8562 101.553 25.968 101.786 25.968 102.041L24.2791 103.405C24.3044 103.522 24.3549 103.613 24.4307 103.678C24.5444 103.776 24.6824 103.824 24.8448 103.824C25.0072 103.824 25.1443 103.776 25.2562 103.678C25.3699 103.581 25.4267 103.392 25.4267 103.112L25.941 102.869H25.968ZM24.2629 102.988L25.4267 102.043V101.935C25.4267 101.729 25.3708 101.578 25.2589 101.48C25.1452 101.383 25.0072 101.334 24.8448 101.334C24.6842 101.334 24.5462 101.383 24.4307 101.48C24.3188 101.574 24.2629 101.726 24.2629 101.935V102.988ZM27.1126 104.176V102.119C27.1126 101.821 27.2245 101.562 27.4482 101.342C27.6576 101.138 27.9201 101.036 28.2359 101.036H28.6013V101.064L28.4713 101.334H28.2359C28.0735 101.334 27.9354 101.383 27.8218 101.48C27.7099 101.576 27.6539 101.728 27.6539 101.935V103.933L27.1397 104.176H27.1126ZM29.7513 104.176V101.388H29.0557V101.361L29.1829 101.091H29.7513V100.116L30.2655 99.8726H30.2926V101.091H30.9882V101.118L30.861 101.388H30.2926V103.933L29.7783 104.176H29.7513ZM31.9704 100.492C31.9072 100.427 31.8756 100.35 31.8756 100.26C31.8756 100.168 31.9072 100.089 31.9704 100.024C32.0335 99.9592 32.1102 99.9267 32.2004 99.9267C32.2906 99.9267 32.3673 99.9592 32.4305 100.024C32.4936 100.089 32.5252 100.168 32.5252 100.26C32.5252 100.35 32.4936 100.427 32.4305 100.492C32.3673 100.557 32.2906 100.59 32.2004 100.59C32.1102 100.59 32.0335 100.557 31.9704 100.492ZM31.9298 104.176V101.226L32.444 100.982H32.4711V103.933L31.9568 104.176H31.9298ZM33.6698 103.112L34.1841 102.869H34.2111V103.215C34.2111 103.417 34.2698 103.571 34.3871 103.675C34.4989 103.775 34.6343 103.824 34.793 103.824C34.9771 103.824 35.1206 103.766 35.2234 103.648C35.3317 103.527 35.3858 103.353 35.3858 103.126C35.3858 102.918 35.3281 102.77 35.2126 102.679C35.1133 102.602 34.9726 102.563 34.7903 102.563C34.4421 102.563 34.1823 102.494 34.0108 102.355C33.8593 102.232 33.7835 102.064 33.7835 101.851C33.7835 101.6 33.8981 101.393 34.1272 101.229C34.3059 101.101 34.5278 101.036 34.793 101.036C35.0475 101.036 35.2685 101.116 35.4562 101.275C35.6005 101.399 35.6898 101.543 35.7241 101.708L35.2099 101.951H35.1828V101.743C35.1828 101.653 35.1557 101.572 35.1016 101.502C35.015 101.39 34.8914 101.334 34.7308 101.334C34.6027 101.334 34.498 101.374 34.4168 101.453C34.3374 101.534 34.2977 101.662 34.2977 101.835C34.2977 102.017 34.3465 102.142 34.4439 102.208C34.498 102.246 34.6135 102.265 34.7903 102.265C35.1729 102.265 35.4598 102.346 35.651 102.506C35.8279 102.654 35.9163 102.868 35.9163 103.148C35.9163 103.382 35.8125 103.606 35.605 103.819C35.4084 104.021 35.1377 104.122 34.793 104.122C34.4809 104.122 34.2183 104.035 34.0054 103.862C33.7817 103.68 33.6698 103.43 33.6698 103.112ZM37.1556 100.492C37.0925 100.427 37.0609 100.35 37.0609 100.26C37.0609 100.168 37.0925 100.089 37.1556 100.024C37.2188 99.9592 37.2955 99.9267 37.3857 99.9267C37.4759 99.9267 37.5526 99.9592 37.6157 100.024C37.6789 100.089 37.7105 100.168 37.7105 100.26C37.7105 100.35 37.6789 100.427 37.6157 100.492C37.5526 100.557 37.4759 100.59 37.3857 100.59C37.2955 100.59 37.2188 100.557 37.1556 100.492ZM37.115 104.176V101.226L37.6293 100.982H37.6563V103.933L37.1421 104.176H37.115ZM38.9362 104.176V102.119C38.9362 101.821 39.0481 101.562 39.2719 101.342C39.4812 101.138 39.7437 101.036 40.0595 101.036C40.3717 101.036 40.6342 101.138 40.8471 101.342C41.0709 101.559 41.1827 101.818 41.1827 102.119V103.933L40.6685 104.176H40.6414V101.935C40.6414 101.728 40.5846 101.576 40.4709 101.48C40.359 101.383 40.2219 101.334 40.0595 101.334C39.8971 101.334 39.7591 101.383 39.6454 101.48C39.5335 101.576 39.4776 101.728 39.4776 101.935V103.933L38.9633 104.176H38.9362ZM42.8686 103.223C42.8686 103.431 42.9246 103.583 43.0365 103.681C43.1501 103.776 43.2882 103.824 43.4506 103.824C43.613 103.824 43.7501 103.776 43.862 103.681C43.9757 103.583 44.0325 103.431 44.0325 103.223V101.935C44.0325 101.728 43.9757 101.576 43.862 101.48C43.7501 101.383 43.613 101.334 43.4506 101.334C43.2882 101.334 43.1501 101.383 43.0365 101.48C42.9246 101.576 42.8686 101.728 42.8686 101.935V103.223ZM42.3273 103.039V102.119C42.3273 101.821 42.4392 101.562 42.6629 101.342C42.8723 101.138 43.1348 101.036 43.4506 101.036C43.7663 101.036 44.0289 101.138 44.2382 101.342C44.4619 101.561 44.5738 101.82 44.5738 102.119V104.149C44.5738 104.447 44.4619 104.706 44.2382 104.926C44.0289 105.13 43.7663 105.232 43.4506 105.232H42.6169V105.205L42.7468 104.934H43.4506C43.613 104.934 43.751 104.885 43.8647 104.788C43.9766 104.694 44.0325 104.542 44.0325 104.333V103.892C43.8954 104.045 43.7014 104.122 43.4506 104.122C43.1384 104.122 42.8759 104.02 42.6629 103.816C42.4392 103.6 42.3273 103.341 42.3273 103.039Z" fill="#714290"/>
<path fill-rule="evenodd" clip-rule="evenodd" d="M1.43346 94.1058C2.29793 93.9686 3.13819 93.9885 3.95087 94.1864C4.43665 94.3047 4.95715 94.3796 5.48308 94.4408C6.4846 94.5574 7.57655 94.3445 8.72603 93.5683C9.31237 93.1724 9.87843 92.7424 10.4445 92.3124C10.6868 92.1284 10.9291 91.9443 11.173 91.7629C11.1829 91.7556 11.1927 91.7483 11.2025 91.741C11.1927 91.7483 11.1829 91.7556 11.173 91.7629C9.87492 92.7236 8.6228 93.1344 7.42826 93.0458C6.79052 92.9985 6.19126 92.8852 5.59329 92.7721C5.46303 92.7474 5.33283 92.7228 5.2023 92.6989C4.02679 92.4833 2.76944 92.6302 1.43033 93.1239L1.43346 94.1058Z" fill="#714290"/>
<path d="M7.01978 88.4887C7.48117 88.3075 8.3743 87.9351 8.45339 87.8955V98.524L7.06921 99.2656L7.01978 88.4887Z" fill="#C2AC7D"/>
<path fill-rule="evenodd" clip-rule="evenodd" d="M17.0056 44.7712C16.2797 40.677 16.5858 38.1944 17.72 33.6571C18.137 31.989 18.6746 30.5743 19.326 29.3546C20.5041 27.1486 22.0544 25.5802 23.9369 24.3041C28.1031 21.4798 30.4591 18.8059 31.0811 13.6367C30.9637 15.7396 30.8978 17.8227 30.5491 19.8796C29.9325 23.5185 28.3888 25.0685 25.5508 27.0172C24.1571 27.9741 22.8716 28.8044 21.5484 30.2913C20.5201 31.4468 19.7049 32.8332 19.066 34.3467C17.4838 38.0948 17.0363 41.0178 17.0056 44.7712L17.0056 44.7712Z" fill="#714290"/>
<path fill-rule="evenodd" clip-rule="evenodd" d="M24.4606 54.5334C24.4105 54.5815 24.3605 54.6296 24.3104 54.6777C25.0585 53.428 26.1098 52.3722 26.8497 51.0992C28.6568 47.9903 29.4582 44.4385 29.1136 40.8554C28.8946 38.5777 28.5237 36.3148 28.2421 34.0427C28.0872 32.7921 28.0838 31.5919 28.2216 30.4397C27.0726 32.7791 26.4745 35.3433 26.5241 38.1639C26.5643 40.4518 26.7573 42.7367 26.8602 45.0239C27.071 49.7057 25.265 53.5369 21.8266 56.6199C20.6479 57.6766 19.5377 58.7688 18.5051 59.9747C17.5593 61.0792 17.1181 62.002 16.6044 63.6632C16.5235 61.9921 16.7435 60.6849 17.3496 59.5074C18.6285 57.0224 18.8411 54.3408 18.5783 51.6077C18.1602 47.2601 17.2522 42.8349 18.6649 38.5652C19.5517 35.8847 21.1346 33.4785 23.0611 31.4314C24.1898 30.2317 25.4349 29.1514 26.6808 28.0767C25.3219 29.9141 23.8818 31.7372 22.9143 33.8212C21.953 35.8919 21.4348 38.1655 21.403 40.4476C21.367 43.024 21.8177 45.5886 22.0727 48.1457C22.3068 50.4931 22.281 52.8198 21.4549 55.0734C21.4064 55.2058 20.9695 56.209 21.0583 56.2611C21.2723 56.3868 21.698 55.4425 21.7725 55.2909C22.0322 54.7625 22.2896 54.2326 22.4973 53.6842C23.288 51.5958 23.4161 49.4132 23.307 47.2087C23.2029 45.1034 23.0146 43.0002 22.9787 40.8942C22.9237 37.6673 23.8093 34.6671 25.5138 31.9349C26.447 30.4391 27.5606 29.1081 28.7843 27.8798C29.7658 26.8947 30.8181 25.976 31.9076 25.0938C32.0058 25.0142 32.1038 24.9344 32.2026 24.8555C32.2473 24.8198 32.2807 24.7926 32.3304 24.8194C32.1127 25.2574 32.0519 25.7419 31.9096 26.2051C31.7562 26.705 31.6266 27.2122 31.5372 27.7277C31.3469 28.8265 31.348 29.9423 31.4599 31.0495C31.6952 33.3771 32.3458 35.6428 32.4962 37.982C32.7644 42.1572 31.4159 46.3967 28.9264 49.7425C27.6198 51.4984 26.0346 53.021 24.4606 54.5335V54.5334Z" fill="#714290"/>
<path fill-rule="evenodd" clip-rule="evenodd" d="M13.9212 32.6358C13.8488 31.0983 13.6937 29.5591 13.7244 28.0237C13.7663 25.926 14.1125 23.8586 14.7743 21.857C15.9407 18.3298 18.3208 15.5039 21.185 13.2047C23.901 11.0246 26.9735 9.03454 28.7045 5.91035C29.7148 4.08676 30.1451 2.01512 30.5965 0C30.8067 7.17875 31.9103 14.7206 26.5325 20.3173C24.7923 22.1282 22.7798 23.6502 20.9712 25.3897C17.4076 28.8173 15.8037 33.0974 15.6805 37.9849C15.6718 38.33 15.6699 38.6752 15.6196 39.0362C15.5962 38.9593 15.5597 38.8839 15.5511 38.8053C15.0256 34.0104 15.1196 28.9391 17.5595 24.6326C18.1825 23.5329 18.9619 22.465 19.8255 21.5406C22.271 18.9227 25.4262 16.9654 27.5962 14.089C28.8133 12.4759 29.6143 10.7816 29.946 8.78381C29.1396 10.3239 28.3094 11.8535 27.1367 13.1511C25.9087 14.5101 24.4089 15.5895 22.9701 16.7095C20.2003 18.8651 17.4752 21.2173 15.9467 24.4489C14.8056 26.8615 14.2634 29.5275 14.1267 32.182C14.1192 32.3275 14.111 32.473 14.1032 32.6185C14.0425 32.6244 13.9819 32.6301 13.9213 32.6357L13.9212 32.6358Z" fill="#714290"/>
<path fill-rule="evenodd" clip-rule="evenodd" d="M32.8883 52.6348C32.8858 52.5206 32.8823 52.4064 32.878 52.2918C32.7678 49.3804 33.013 46.5087 32.7616 43.5986C32.1154 46.4358 31.3937 49.2694 29.4934 51.5543C27.6282 53.7972 25.0684 55.3563 22.8524 57.2164C17.9683 61.3162 15.7474 66.0304 16.3268 72.4239C16.6353 75.8282 17.2657 79.209 17.7789 82.5867C18.1494 80.039 18.0958 77.6599 19.022 75.1941C19.8933 72.8745 21.2824 70.7897 23.0575 69.0633C23.0833 69.0382 23.1082 69.0126 23.1342 68.9876C24.7836 67.4015 26.5385 65.9256 28.2317 64.3845C31.6436 61.2787 32.9873 57.1479 32.8883 52.6347V52.6348ZM32.0455 52.9026C31.2393 58.0859 25.9555 61.0979 22.5731 64.5475C21.1212 66.0282 19.8313 67.6753 18.7939 69.4729C18.1169 70.6458 17.7283 71.9418 17.2358 73.1959C17.4953 70.1416 18.664 67.1185 20.4894 64.6697C22.2593 62.295 24.6624 60.7606 26.9168 58.9085C28.1574 57.8894 29.4522 56.7036 30.399 55.3981C31.0777 54.462 31.5605 53.3956 32.1104 52.3824C32.0937 52.5582 32.072 52.7316 32.0455 52.9026H32.0455Z" fill="#714290"/>
<path d="M12.1917 70.438L14.8918 67.7378L12.1918 65.0377L9.49157 67.7379L12.1917 70.438Z" fill="#C2AC7D"/>
<path d="M34.0791 24.8159L36.7793 22.1157L34.0792 19.4156L31.379 22.1158L34.0791 24.8159Z" fill="#C2AC7D"/>
<path d="M12.2014 76.2578L14.9016 73.5576L12.2015 70.8575L9.50134 73.5577L12.2014 76.2578Z" fill="#C2AC7D"/>
<path d="M12.2887 68.8052H12.1233V72.5451H12.2887V68.8052Z" fill="#C2AC7D"/>
</svg>
