<svg width="60" height="2111" viewBox="0 0 60 2111" fill="none" xmlns="http://www.w3.org/2000/svg">
<path fill-rule="evenodd" clip-rule="evenodd" d="M16.6171 0.590835L0.608627 0.590818L44.3112 44.5907L0.880577 87.5879L0.608624 87.5879L0.743458 87.7236L0.6171 87.8487L0.86771 87.8487L44.3112 131.588L0.877617 174.588L0.60862 174.588L0.741985 174.722L0.617096 174.846L0.864796 174.846L44.3112 218.588L0.880569 261.585L0.608616 261.585L0.74345 261.721L0.617092 261.846L0.867703 261.846L44.3112 305.585L0.874664 348.588L0.608612 348.588L0.740521 348.721L0.617088 348.843L0.861893 348.843L44.3112 392.588L0.880562 435.585L0.608608 435.585L0.743443 435.721L0.617085 435.846L0.867695 435.846L44.3112 479.585L0.874657 522.588L0.608605 522.588L0.740513 522.721L0.617081 522.843L0.861885 522.843L44.3112 566.588L0.880554 609.585L0.608601 609.585L0.743435 609.721L0.617077 609.846L0.867687 609.846L44.3112 653.585L0.877594 696.585L0.608597 696.585L0.741963 696.719L0.617073 696.843L0.864773 696.843L44.3112 740.585L0.880547 783.582L0.608593 783.582L0.743427 783.718L0.617069 783.843L0.86768 783.843L44.3112 827.582L0.874642 870.585L0.608589 870.585L0.740498 870.718L0.617066 870.84L0.86187 870.84L44.3112 914.585L0.880539 957.582L0.608585 957.582L0.74342 957.718L0.617062 957.843L0.867672 957.843L44.3112 1001.58L0.871674 1044.59L0.608582 1044.59L0.739021 1044.72L0.617058 1044.84L0.858956 1044.84L44.3112 1088.59L0.880531 1131.58L0.608578 1131.58L0.743412 1131.72L0.617054 1131.85L0.867664 1131.85L44.3112 1175.58L0.877571 1218.58L0.608574 1218.58L0.74194 1218.72L0.61705 1218.84L0.86475 1218.84L44.3112 1262.58L0.880524 1305.58L0.60857 1305.58L0.743405 1305.72L0.617047 1305.84L0.867657 1305.84L44.3112 1349.58L0.874619 1392.58L0.608566 1392.58L0.740475 1392.72L0.617043 1392.84L0.861847 1392.84L44.3112 1436.58L0.880516 1479.58L0.608563 1479.58L0.743397 1479.72L0.617039 1479.84L0.867649 1479.84L44.3111 1523.58L0.874611 1566.58L0.608559 1566.58L0.740467 1566.72L0.617035 1566.84L0.861839 1566.84L44.3111 1610.58L0.880509 1653.58L0.608555 1653.58L0.743389 1653.72L0.617031 1653.84L0.867642 1653.84L44.3111 1697.58L0.877548 1740.58L0.608551 1740.58L0.741917 1740.72L0.617028 1740.84L0.864727 1740.84L44.3111 1784.58L0.880501 1827.58L0.608547 1827.58L0.743382 1827.71L0.617024 1827.84L0.867634 1827.84L44.3111 1871.58L0.874596 1914.58L0.608544 1914.58L0.740452 1914.71L0.61702 1914.84L0.861824 1914.84L44.3111 1958.58L0.880493 2001.58L0.60854 2001.58L0.743374 2001.71L0.617016 2001.84L0.867626 2001.84L44.3111 2045.58L0.617012 2088.84L16.617 2088.84L59.6171 2045.58L16.7456 2001.71L59.6171 1958.58L16.7427 1914.71L59.6171 1871.58L16.7456 1827.71L59.6171 1784.58L16.7441 1740.71L59.6171 1697.58L16.7456 1653.71L59.6171 1610.58L16.7427 1566.71L59.6171 1523.58L16.7456 1479.71L59.6171 1436.58L16.7427 1392.71L59.6171 1349.58L16.7456 1305.71L59.6171 1262.58L16.7441 1218.72L59.6171 1175.58L16.7456 1131.72L59.6171 1088.59L16.7413 1044.71L59.6171 1001.58L16.7456 957.714L59.6171 914.585L16.7427 870.714L59.6172 827.582L16.7456 783.714L59.6172 740.585L16.7442 696.715L59.6172 653.585L16.7456 609.716L59.6172 566.588L16.7427 522.716L59.6172 479.585L16.7456 435.716L59.6172 392.588L16.7427 348.716L59.6172 305.585L16.7456 261.716L59.6172 218.588L16.7442 174.718L59.6172 131.588L16.7456 87.7194L59.6172 44.5907L16.6171 0.590835ZM37.4119 87.5977L48.5103 98.6181L59.6086 109.623L59.6086 87.5977L59.6086 65.588L48.5103 76.5928L37.4119 87.5977ZM48.5103 185.618L37.4119 174.598L48.5103 163.593L59.6086 152.588L59.6086 174.598L59.6086 196.623L48.5103 185.618ZM22.609 131.613L11.5107 120.593L0.412337 109.588L0.412336 131.613L0.412332 153.623L11.5107 142.618L22.609 131.613ZM11.5107 33.5931L22.6091 44.6135L11.5107 55.6183L0.412335 66.6232L0.41234 44.6135L0.412341 22.5882L11.5107 33.5931ZM37.4119 261.595L48.5103 272.615L59.6086 283.62L59.6086 261.595L59.6086 239.585L48.5103 250.59L37.4119 261.595ZM48.5103 359.615L37.4119 348.595L48.5103 337.59L59.6086 326.585L59.6086 348.595L59.6086 370.62L48.5103 359.615ZM22.609 305.611L11.5107 294.59L0.41233 283.585L0.412329 305.611L0.412324 327.62L11.5107 316.615L22.609 305.611ZM11.5107 207.59L22.609 218.611L11.5107 229.615L0.412328 240.62L0.412333 218.611L0.412334 196.585L11.5107 207.59ZM48.5102 446.615L37.4119 435.595L48.5103 424.59L59.6086 413.585L59.6086 435.595L59.6086 457.62L48.5102 446.615ZM37.4119 522.595L48.5102 533.615L59.6086 544.62L59.6086 522.595L59.6086 500.585L48.5102 511.59L37.4119 522.595ZM11.5107 468.59L22.609 479.611L11.5107 490.615L0.412316 501.62L0.412321 479.611L0.412322 457.585L11.5107 468.59ZM22.609 392.611L11.5107 381.59L0.412326 370.585L0.412325 392.611L0.41232 414.62L11.5107 403.615L22.609 392.611ZM37.4119 609.595L48.5102 620.615L59.6086 631.62L59.6086 609.595L59.6086 587.585L48.5102 598.59L37.4119 609.595ZM48.5102 707.615L37.4119 696.595L48.5102 685.59L59.6086 674.585L59.6086 696.595L59.6086 718.62L48.5102 707.615ZM22.609 653.611L11.5107 642.59L0.412314 631.585L0.412314 653.611L0.412309 675.62L11.5107 664.615L22.609 653.611ZM11.5107 555.59L22.609 566.611L11.5107 577.615L0.412313 588.62L0.412317 566.611L0.412318 544.585L11.5107 555.59ZM37.4119 783.592L48.5102 794.612L59.6086 805.617L59.6086 783.592L59.6086 761.582L48.5102 772.587L37.4119 783.592ZM48.5102 881.612L37.4119 870.592L48.5102 859.587L59.6086 848.582L59.6086 870.592L59.6086 892.617L48.5102 881.612ZM22.609 827.608L11.5107 816.587L0.412307 805.582L0.412306 827.608L0.412301 849.617L11.5107 838.612L22.609 827.608ZM11.5107 729.587L22.609 740.608L11.5107 751.612L0.412305 762.617L0.41231 740.608L0.412311 718.582L11.5107 729.587ZM48.5102 968.612L37.4119 957.592L48.5102 946.587L59.6086 935.582L59.6086 957.592L59.6086 979.617L48.5102 968.612ZM37.4119 1044.59L48.5102 1055.61L59.6086 1066.62L59.6086 1044.59L59.6086 1022.58L48.5102 1033.59L37.4119 1044.59ZM11.5107 990.587L22.609 1001.61L11.5107 1012.61L0.412294 1023.62L0.412298 1001.61L0.412299 979.582L11.5107 990.587ZM22.609 914.608L11.5107 903.587L0.412303 892.582L0.412302 914.608L0.412297 936.617L11.5107 925.612L22.609 914.608ZM37.4119 1131.59L48.5102 1142.62L59.6086 1153.62L59.6086 1131.59L59.6086 1109.59L48.5102 1120.59L37.4119 1131.59ZM48.5102 1229.62L37.4119 1218.59L48.5102 1207.59L59.6086 1196.59L59.6086 1218.59L59.6086 1240.62L48.5102 1229.62ZM22.609 1175.61L11.5106 1164.59L0.412292 1153.59L0.412291 1175.61L0.412286 1197.62L11.5106 1186.62L22.609 1175.61ZM11.5107 1077.59L22.609 1088.61L11.5106 1099.62L0.41229 1110.62L0.412295 1088.61L0.412295 1066.59L11.5107 1077.59ZM37.4119 1305.59L48.5102 1316.61L59.6086 1327.62L59.6086 1305.59L59.6086 1283.58L48.5102 1294.59L37.4119 1305.59ZM48.5102 1403.61L37.4119 1392.59L48.5102 1381.59L59.6086 1370.58L59.6086 1392.59L59.6086 1414.62L48.5102 1403.61ZM22.609 1349.61L11.5106 1338.59L0.412284 1327.58L0.412283 1349.61L0.412278 1371.62L11.5106 1360.61L22.609 1349.61ZM11.5106 1251.59L22.609 1262.61L11.5106 1273.61L0.412282 1284.62L0.412287 1262.61L0.412288 1240.58L11.5106 1251.59ZM48.5102 1490.61L37.4118 1479.59L48.5102 1468.59L59.6086 1457.58L59.6086 1479.59L59.6086 1501.62L48.5102 1490.61ZM37.4118 1566.59L48.5102 1577.61L59.6086 1588.62L59.6086 1566.59L59.6086 1544.58L48.5102 1555.59L37.4118 1566.59ZM11.5106 1512.59L22.609 1523.61L11.5106 1534.61L0.412271 1545.62L0.412275 1523.61L0.412276 1501.58L11.5106 1512.59ZM22.609 1436.61L11.5106 1425.59L0.41228 1414.58L0.412279 1436.61L0.412275 1458.62L11.5106 1447.61L22.609 1436.61ZM37.4118 1653.59L48.5102 1664.61L59.6086 1675.62L59.6086 1653.59L59.6086 1631.58L48.5102 1642.59L37.4118 1653.59ZM48.5102 1751.61L37.4118 1740.59L48.5102 1729.59L59.6086 1718.58L59.6086 1740.59L59.6086 1762.62L48.5102 1751.61ZM22.609 1697.61L11.5106 1686.59L0.412269 1675.58L0.412268 1697.61L0.412263 1719.62L11.5106 1708.61L22.609 1697.61ZM11.5106 1599.59L22.609 1610.61L11.5106 1621.61L0.412267 1632.62L0.412272 1610.61L0.412273 1588.58L11.5106 1599.59ZM37.4118 1827.59L48.5102 1838.61L59.6085 1849.61L59.6085 1827.59L59.6085 1805.58L48.5102 1816.58L37.4118 1827.59ZM48.5102 1925.61L37.4118 1914.59L48.5102 1903.58L59.6085 1892.58L59.6085 1914.59L59.6085 1936.61L48.5102 1925.61ZM22.609 1871.6L11.5106 1860.58L0.412261 1849.58L0.41226 1871.6L0.412256 1893.61L11.5106 1882.61L22.609 1871.6ZM11.5106 1773.58L22.609 1784.6L11.5106 1795.61L0.412259 1806.61L0.412264 1784.6L0.412265 1762.58L11.5106 1773.58ZM48.5102 2012.61L37.4118 2001.59L48.5102 1990.58L59.6085 1979.58L59.6085 2001.59L59.6085 2023.61L48.5102 2012.61ZM37.4118 2088.59L48.5102 2099.61L59.6085 2110.61L59.6085 2088.59L59.6085 2066.58L48.5102 2077.58L37.4118 2088.59ZM11.5106 2034.58L22.609 2045.6L11.5106 2056.61L0.412248 2067.61L0.412253 2045.6L0.412254 2023.58L11.5106 2034.58ZM22.609 1958.6L11.5106 1947.58L0.412257 1936.58L0.412256 1958.6L0.412252 1980.61L11.5106 1969.61L22.609 1958.6Z" fill="#C2AC7D"/>
</svg>
