<svg width="35" height="1248" viewBox="0 0 35 1248" fill="none" xmlns="http://www.w3.org/2000/svg">
<path fill-rule="evenodd" clip-rule="evenodd" d="M9.57977 1.00474e-05L0.116093 0L25.9516 26.0243L0.276861 51.4556H0.116091L0.1958 51.5359L0.121102 51.6099H0.269254L25.9516 77.4801L0.275111 102.913H0.116089L0.19493 102.992L0.121099 103.066H0.267531L25.9516 128.937L0.276856 154.369H0.116086L0.195796 154.449L0.121097 154.523H0.26925L25.9516 180.393L0.273365 205.828H0.116084L0.194064 205.906L0.121095 205.979H0.265815L25.9516 231.852L0.276852 257.283H0.116082L0.195791 257.364L0.121093 257.438H0.269245L25.9516 283.308L0.273361 308.742H0.11608L0.194059 308.821L0.12109 308.893H0.26581L25.9516 334.767L0.276847 360.198H0.116077L0.195787 360.278L0.121088 360.352H0.26924L25.9516 386.222L0.275097 411.655H0.116075L0.194917 411.735L0.121086 411.808H0.267518L25.9516 437.68L0.276843 463.111H0.116073L0.195782 463.191L0.121083 463.265H0.269236L25.9516 489.135L0.273352 514.57H0.11607L0.19405 514.649L0.121082 514.721H0.265802L25.9516 540.594L0.276838 566.026H0.116068L0.195778 566.106L0.121079 566.18H0.269232L25.9516 592.049L0.271597 617.488H0.116066L0.193177 617.565L0.121077 617.636H0.264079L25.9516 643.512L0.276833 668.939H0.116064L0.195773 669.022L0.121074 669.099H0.269227L25.9516 694.964L0.275083 720.396H0.116061L0.194903 720.479L0.121072 720.55H0.267504L25.9516 746.421L0.276829 771.854H0.116059L0.195769 771.937L0.12107 772.008H0.269223L25.9516 797.878L0.273338 823.311H0.116057L0.194037 823.394L0.121068 823.465H0.265788L25.9516 849.336L0.276824 874.769H0.116055L0.195764 874.851L0.121066 874.922H0.269218L25.9515 900.793L0.273334 926.226H0.116053L0.194032 926.309L0.121063 926.38H0.265783L25.9515 952.25L0.27682 977.683H0.11605L0.19576 977.766L0.121061 977.837H0.269214L25.9515 1003.71L0.27507 1029.14H0.116048L0.194889 1029.22L0.121059 1029.29H0.267491L25.9515 1055.17L0.276816 1080.6H0.116045L0.195755 1080.67L0.121057 1080.75H0.269209L25.9515 1106.62L0.273325 1132.06H0.116044L0.194023 1132.13L0.121054 1132.21H0.265774L25.9515 1158.08L0.276811 1183.51H0.116041L0.195751 1183.59L0.121052 1183.67H0.269204L25.9515 1209.54L0.12105 1235.12H9.57971L34.9999 1209.54L9.65573 1183.59L34.9999 1158.08L9.65402 1132.13L34.9999 1106.62L9.65573 1080.67L34.9999 1055.17L9.65485 1029.22L34.9999 1003.71L9.65573 977.76L34.9999 952.25L9.65402 926.303L34.9999 900.793L9.65573 874.845L34.9999 849.336L9.65402 823.388L34.9999 797.878L9.65573 771.931L34.9999 746.421L9.65485 720.479L34.9999 694.964L9.65573 669.022L34.9999 643.512L9.65319 617.559L34.9999 592.049L9.65573 566.104L34.9999 540.594L9.65402 514.646L35 489.135L9.65573 463.189L35 437.68L9.65491 411.732L35 386.222L9.65573 360.276L35 334.767L9.65402 308.818L35 283.308L9.65573 257.361L35 231.852L9.65402 205.903L35 180.393L9.65573 154.446L35 128.937L9.65491 102.99L35 77.4801L9.65573 51.5334L35 26.0243L9.57977 1.00474e-05ZM21.873 51.4614L28.434 57.9796L34.9949 64.4886V51.4614V38.4435L28.434 44.9524L21.873 51.4614ZM28.434 109.437L21.873 102.919L28.434 96.4099L34.9949 89.9008V102.919V115.946L28.434 109.437ZM13.122 77.4949L6.56104 70.9769L5.26254e-05 64.4679L5.20264e-05 77.4949L4.96655e-05 90.513L6.56104 84.0039L13.122 77.4949ZM6.56104 19.5197L13.122 26.0378L6.56104 32.5468L5.1445e-05 39.0558L5.43872e-05 26.0378L5.49862e-05 13.0107L6.56104 19.5197ZM21.873 154.375L28.434 160.892L34.9949 167.402V154.375V141.356L28.434 147.865L21.873 154.375ZM28.434 212.35L21.873 205.832L28.434 199.323L34.9949 192.814V205.832V218.859L28.434 212.35ZM13.122 180.408L6.56104 173.89L4.84851e-05 167.381L4.78861e-05 180.408L4.49439e-05 193.426L6.56104 186.917L13.122 180.408ZM6.56104 122.433L13.122 128.951L6.56104 135.46L4.73047e-05 141.969L5.02646e-05 128.951L5.0846e-05 115.923L6.56104 122.433ZM28.4339 263.807L21.873 257.289L28.434 250.78L34.9949 244.271V257.289V270.316L28.4339 263.807ZM21.873 308.747L28.4339 315.264L34.9949 321.774V308.747V295.728L28.4339 302.238L21.873 308.747ZM6.56104 276.805L13.122 283.323L6.56104 289.832L4.02046e-05 296.341L4.31644e-05 283.323L4.37635e-05 270.296L6.56104 276.805ZM13.122 231.866L6.56104 225.347L4.61243e-05 218.838L4.55253e-05 231.866L4.25654e-05 244.883L6.56104 238.374L13.122 231.866ZM21.873 360.204L28.4339 366.722L34.9949 373.231V360.204V347.186L28.4339 353.695L21.873 360.204ZM28.4339 418.179L21.873 411.661L28.4339 405.152L34.9949 398.643V411.661V424.688L28.4339 418.179ZM13.122 386.238L6.56104 379.719L3.90242e-05 373.21V386.238L3.60643e-05 399.255L6.56104 392.746L13.122 386.238ZM6.56104 328.262L13.122 334.78L6.56104 341.289L3.84428e-05 347.798L4.08036e-05 334.78L4.1385e-05 321.753L6.56104 328.262ZM21.873 463.117L28.4339 469.635L34.9949 476.144V463.117V450.099L28.4339 456.608L21.873 463.117ZM28.4339 521.092L21.873 514.574L28.4339 508.065L34.9949 501.556V514.574V527.601L28.4339 521.092ZM13.122 489.151L6.56104 482.632L3.48839e-05 476.123L3.43025e-05 489.151L3.13427e-05 502.168L6.56104 495.659L13.122 489.151ZM6.56104 431.175L13.122 437.693L6.56104 444.202L3.37035e-05 450.711L3.66634e-05 437.693L3.72448e-05 424.666L6.56104 431.175ZM28.4339 572.549L21.873 566.032L28.4339 559.522L34.9949 553.013V566.032V579.059L28.4339 572.549ZM21.873 617.488L28.4339 624.006L34.9949 630.518V617.488V604.47L28.4339 610.982L21.873 617.488ZM6.56104 585.547L13.122 592.067L6.56104 598.573L2.72024e-05 605.085L2.95632e-05 592.067L3.01623e-05 579.038L6.56104 585.547ZM13.122 540.608L6.56104 534.09L3.25231e-05 527.581L3.19241e-05 540.608L2.89818e-05 553.626L6.56104 547.117L13.122 540.608ZM21.873 668.945L28.4339 675.469L34.9949 681.975V668.945V655.933L28.4339 662.439L21.873 668.945ZM28.4339 726.926L21.873 720.402L28.4339 713.896L34.9949 707.39V720.402V733.432L28.4339 726.926ZM13.122 694.981L6.56098 688.463L2.6022e-05 681.957L2.5423e-05 694.981L2.24807e-05 707.999L6.56098 701.493L13.122 694.981ZM6.56104 637.006L13.122 643.524L6.56098 650.036L2.48416e-05 656.542L2.78014e-05 643.524V630.5L6.56104 637.006ZM21.873 771.86L28.4339 778.378L34.9949 784.89V771.86V758.842L28.4339 765.354L21.873 771.86ZM28.4339 829.835L21.873 823.317L28.4339 816.811L34.9949 810.299V823.317V836.347L28.4339 829.835ZM13.122 797.896L6.56098 791.378L2.12827e-05 784.866L2.07013e-05 797.896L1.77415e-05 810.914L6.56098 804.402L13.122 797.896ZM6.56098 739.921L13.122 746.439L6.56098 752.945L2.01023e-05 759.457L2.30621e-05 746.439L2.36612e-05 733.409L6.56098 739.921ZM28.4339 881.292L21.8729 874.774L28.4339 868.268L34.9949 861.756V874.774V887.804L28.4339 881.292ZM21.8729 926.232L28.4339 932.75L34.9949 939.262V926.232V913.214L28.4339 919.726L21.8729 926.232ZM6.56098 894.293L13.122 900.811L6.56098 907.317L1.36012e-05 913.829L1.5962e-05 900.811L1.65611e-05 887.781L6.56098 894.293ZM13.122 849.353L6.56098 842.835L1.89219e-05 836.323L1.83405e-05 849.353L1.5962e-05 862.371L6.56098 855.859L13.122 849.353ZM21.8729 977.689L28.4339 984.207L34.9949 990.719V977.689V964.671L28.4339 971.183L21.8729 977.689ZM28.4339 1035.66L21.8729 1029.15L28.4339 1022.64L34.9949 1016.13V1029.15V1042.18L28.4339 1035.66ZM13.122 1003.73L6.56098 997.207L1.24208e-05 990.695L1.18394e-05 1003.73L8.87954e-06 1016.74L6.56098 1010.23L13.122 1003.73ZM6.56098 945.75L13.122 952.268L6.56098 958.774L1.12404e-05 965.286L1.42002e-05 952.268L1.47816e-05 939.238L6.56098 945.75ZM21.8729 1080.6L28.4339 1087.12L34.9949 1093.63V1080.6V1067.59L28.4339 1074.09L21.8729 1080.6ZM28.4339 1138.58L21.8729 1132.06L28.4339 1125.55L34.9949 1119.04V1132.06V1145.09L28.4339 1138.58ZM13.122 1106.63L6.56098 1100.12L7.69913e-06 1093.61L7.10011e-06 1106.63L4.73928e-06 1119.65L6.56098 1113.15L13.122 1106.63ZM6.56098 1048.66L13.122 1055.18L6.56098 1061.69L6.51871e-06 1068.19L9.46094e-06 1055.18L1.006e-05 1042.15L6.56098 1048.66ZM28.4339 1190.04L21.8729 1183.52L28.4339 1177.01L34.9949 1170.5V1183.52V1196.54L28.4339 1190.04ZM21.8729 1234.98L28.4339 1241.49L34.9949 1248V1234.98V1221.96L28.4339 1228.46L21.8729 1234.98ZM6.56098 1203.03L13.122 1209.55L6.56098 1216.06L0 1222.57L2.95985e-06 1209.55L3.55886e-06 1196.52L6.56098 1203.03ZM13.122 1158.09L6.56098 1151.57L5.32068e-06 1145.07L4.73928e-06 1158.09L2.37845e-06 1171.11L6.56098 1164.6L13.122 1158.09Z" fill="#C2AC7D"/>
</svg>
