<svg width="83" height="55" viewBox="0 0 83 55" fill="none" xmlns="http://www.w3.org/2000/svg">
<path d="M58.6136 31.2283V31.2883C58.6136 35.2555 55.7229 38.1706 51.0253 38.1706C47.2314 38.1706 44.6116 36.6679 42.8052 34.5341L45.9971 31.4984C47.4423 33.1217 48.9479 34.0229 51.0858 34.0229C52.8322 34.0229 54.0669 33.0314 54.0669 31.4686C54.0437 31.4271 54.4074 28.734 49.9415 28.734H48.0144L47.2915 25.7882L54.0532 18.9995L51.3435 20.7397H44.0399V16.773H58.2822V20.2591L52.9527 25.3378C55.8132 25.8189 58.6136 27.3212 58.6136 31.2283ZM45.3947 7.15326C45.3947 5.24863 46.7628 3.71564 48.6827 3.71564H50.8463L50.28 3.99779C50.3056 9.21824 50.1764 9.87577 50.5103 10.639L48.7068 10.6385C46.7868 10.6385 45.3947 9.08152 45.3947 7.1773V7.15326ZM48.6827 11.5132H50.604V10.8225C50.744 11.0653 50.9325 11.2538 51.2105 11.3856C51.8216 11.6756 51.3775 11.4933 68.9033 11.5471V2.84142H67.979V10.6245C67.979 10.6245 51.9538 10.6862 51.6493 10.5495C51.385 10.4305 51.2888 10.1588 51.2449 9.86914C51.1749 9.39889 51.2176 9.39019 51.2047 2.84142H48.7068C46.1508 2.84142 44.4107 4.86538 44.4107 7.1773V7.20133C44.4107 9.51283 46.1268 11.5132 48.6827 11.5132ZM75.716 1.91831H73.6908C73.7347 1.24877 73.4248 0 74.7892 0H75.4413V0.643027C74.8099 0.689846 74.4465 0.489314 74.4465 0.993544V1.20692H75.716V1.91831ZM78.0569 11.6412C77.8104 11.6412 77.5597 11.6068 77.3057 11.5372L77.5485 10.6493C77.9666 10.7682 78.5011 10.7753 78.7215 10.4015C78.9788 9.95905 78.8868 9.80327 78.9005 2.84142H79.8248C79.7983 9.34005 79.8886 9.52153 79.7382 10.2748C79.5609 11.156 79.0264 11.6412 78.0569 11.6412ZM51.2047 1.91831H50.28V0.995615H51.2047V1.91831ZM71.5504 5.10196C71.9842 4.25716 72.8949 3.7869 73.8259 3.77696V3.7753H75.3195L74.7916 4.03839V8.18161C74.0641 8.16007 73.5528 8.2508 72.8791 8.03701C71.9593 7.74782 71.3362 7.04015 71.3362 6.01305C71.3362 5.68284 71.4075 5.37872 71.5504 5.10196ZM71.5504 8.37178C72.754 9.22943 74.3951 9.08773 74.4809 9.10389L74.7916 8.45299C74.7415 9.084 74.9652 9.96568 74.3757 10.4073C73.8772 10.7798 72.9885 10.7678 72.44 10.6377C72.2129 10.5843 71.9527 10.4919 71.6598 10.3614L71.371 11.2492C71.9569 11.4651 72.517 11.6412 73.1389 11.6412C74.0405 11.6412 74.6951 11.4278 75.1036 11.0015C75.5117 10.5743 75.716 9.99965 75.716 9.27708V2.84142C74.5783 2.87705 73.7152 2.72665 72.6769 3.0838C69.8948 4.04047 69.8393 7.15368 71.5504 8.37178ZM49.3556 1.91831H48.4308V0.995615H49.3556V1.91831ZM39.7868 2.83147H40.7414V11.4954H39.96L33.8119 3.70238L34.3555 4.96523V11.4954H33.4005V2.83147H34.3182L40.1892 10.2851L39.7868 9.22197V2.83147ZM3.73299 11.5571L0.000366211 2.83147H1.09169C1.14721 2.96571 4.12204 10.1563 4.42366 10.8855L4.3292 9.93336L7.27958 2.83147H8.3332L4.60099 11.5571H3.73299ZM20.274 2.83147H21.2534V11.4949H20.274V2.83147ZM30.7803 7.18807C30.7803 9.1561 29.3671 10.74 27.3829 10.74C25.3987 10.74 23.9602 9.13124 23.9602 7.16362V7.13835C23.9602 5.17073 25.3743 3.58678 27.358 3.58678C29.3422 3.58678 30.7803 5.19559 30.7803 7.16362V7.18807ZM27.3829 2.68315C24.7416 2.68315 22.9434 4.77464 22.9434 7.16362V7.18807C22.9434 9.57663 24.7167 11.6437 27.358 11.6437C29.9993 11.6437 31.7975 9.55219 31.7975 7.16362V7.13835C31.7975 4.7502 30.0242 2.68315 27.3829 2.68315ZM18.6577 9.14367V9.16811C18.6577 10.653 17.4176 11.6188 15.694 11.6188C14.3177 11.6188 13.1895 11.161 12.1479 10.2325L12.7553 9.5149C13.6606 10.3315 14.5286 10.7396 15.7317 10.7396C16.8972 10.7396 17.6658 10.1215 17.6658 9.26713V9.24269C17.6658 6.82471 12.4951 8.41985 12.4951 5.09616V5.07171C12.4951 3.71025 13.6978 2.70759 15.3473 2.70759C16.6118 2.70759 17.5171 3.06681 18.3975 3.7724L17.8274 4.52688C15.8594 2.92594 13.4745 3.53914 13.4745 4.98512V5.00998C13.4745 5.82661 13.9207 6.28443 15.8308 6.69295C17.7652 7.1139 18.6577 7.81949 18.6577 9.14367ZM10.6435 11.4954H9.664V2.83189H10.6435V11.4954ZM67.6562 12.4694H68.581V13.3921H67.6562V12.4694ZM65.8071 12.4694H66.7318V13.3921H65.8071V12.4694ZM7.75232 33.8124H15.7893V37.8102H0.191368V34.1434C7.98517 27.5292 10.851 26.2365 10.851 23.3545C10.851 21.5812 9.67643 20.6195 8.02039 20.6195C6.39418 20.6195 5.28007 21.5207 3.71435 23.444L0.462335 20.83C2.54016 18.0048 4.5579 16.4718 8.3216 16.4718C12.6877 16.4718 15.5784 19.0265 15.5784 22.9638V23.0234C15.5784 27.9605 11.8409 29.5519 5.43171 34.7168L4.53677 35.4063L7.75232 33.8124ZM77.3646 27.3514C77.3646 30.9577 74.7751 33.9031 71.0408 33.9031C67.3069 33.9031 64.6573 30.8976 64.6573 27.291V27.2309C64.6573 23.6246 67.2473 20.6796 70.9807 20.6796C74.7142 20.6796 77.3646 23.6851 77.3646 27.291V27.3514ZM71.0408 16.4121C64.5372 16.4121 59.8094 21.3106 59.8094 27.291V27.3514C59.8094 33.3322 64.4763 38.1706 70.9807 38.1706C77.4851 38.1706 82.2121 33.2717 82.2121 27.291V27.2309C82.2121 21.2506 77.5448 16.4121 71.0408 16.4121Z" fill="#9F9F9F"/>
<path d="M28.3888 15.0283L29.4565 16.0509L28.4319 17.1161L27.3646 16.0935" fill="#29367B"/>
<path d="M30.832 16.0935L31.8989 17.1161L32.9235 16.0509L31.8562 15.0283" fill="#B1AEB3"/>
<path d="M29.3287 17.4364L30.1603 18.2323L30.9574 17.4028L30.1267 16.6069" fill="#D0DA33"/>
<path d="M32.3762 17.8915L33.2074 18.6878L34.0045 17.8583L33.1734 17.062" fill="#71BA44"/>
<path d="M27.9698 18.7045L28.801 19.5008L29.5981 18.6713L28.7678 17.875" fill="#D0DA33"/>
<path d="M30.7587 18.8012L31.5894 19.5975L32.387 18.768L31.5558 17.9717" fill="#27B8BE"/>
<path d="M29.6677 19.7552L30.2523 20.3153L30.8133 19.7316L30.2287 19.1714" fill="#71BA44"/>
<path d="M31.8733 20.1947L32.4579 20.7549L33.0193 20.1711L32.4347 19.6113" fill="#58B75E"/>
<path d="M36.6896 15.7563L38.5031 15.4238L38.835 17.2341L37.0215 17.5666L36.6896 15.7563Z" fill="#3088C8"/>
<path d="M34.3229 16.5151L35.7778 16.2487L36.0438 17.7012L34.5888 17.9676L34.3229 16.5151Z" fill="#1E3871"/>
<path d="M37.1354 18.5391L38.5903 18.2723L38.8566 19.7247L37.4017 19.9915L37.1354 18.5391Z" fill="#27B8BE"/>
<path d="M35.129 18.7515L36.262 18.5439L36.4691 19.6744L35.3361 19.882L35.129 18.7515Z" fill="#D0DA33"/>
<path d="M37.3333 20.8999L38.4662 20.6923L38.6734 21.8233L37.5404 22.0308L37.3333 20.8999Z" fill="#B1AEB3"/>
<path d="M33.4315 19.2114L34.5649 19.0038L34.7721 20.1347L33.6387 20.3423L33.4315 19.2114Z" fill="#27B8BE"/>
<path d="M35.4879 20.6929L36.6209 20.4853L36.8281 21.6162L35.6951 21.8238L35.4879 20.6929Z" fill="#71BA44"/>
<path d="M34.0439 20.8296L34.8411 20.6834L34.9869 21.4789L34.1898 21.6251L34.0439 20.8296Z" fill="#B1AEB3"/>
<path d="M35.5754 22.4741L36.3722 22.3285L36.5176 23.1236L35.7208 23.2693L35.5754 22.4741Z" fill="#58B75E"/>
<path d="M42.0836 21.6865L41.291 23.3488L42.9566 24.1393L43.7484 22.4775" fill="#29367B"/>
<path d="M39.7199 20.9185L39.0844 22.2517L40.4201 22.8861L41.0557 21.5528" fill="#27B8BE"/>
<path d="M40.8129 24.2031L40.1774 25.5368L41.5136 26.1707L42.1491 24.8375" fill="#71BA44"/>
<path d="M39.0626 23.2026L38.5679 24.2409L39.6082 24.7348L40.1033 23.6965" fill="#D0DA33"/>
<path d="M39.5907 26.2329L39.0956 27.2712L40.1355 27.7651L40.6311 26.7268" fill="#D0DA33"/>
<path d="M37.4159 22.5845L36.9208 23.6228L37.9611 24.1166L38.4563 23.0783" fill="#3088C8"/>
<path d="M38.2159 24.9868L37.7208 26.0251L38.7608 26.519L39.2563 25.4807" fill="#B1AEB3"/>
<path d="M36.9649 24.2549L36.6165 24.9853L37.3481 25.3325L37.6966 24.6025" fill="#71BA44"/>
<path d="M36.8932 27.21L37.2407 26.4797L37.9721 26.8277L37.6246 27.558L36.8932 27.21Z" fill="#27B8BE"/>
<path d="M42.9807 29.645L41.364 30.53L42.2511 32.1438L43.8678 31.2588" fill="#3088C8"/>
<path d="M41.5145 27.6421L40.2177 28.3522L40.929 29.6466L42.2259 28.9364" fill="#27B8BE"/>
<path d="M40.4758 30.9438L39.1786 31.654L39.8904 32.9488L41.1872 32.2386" fill="#27B8BE"/>
<path d="M39.6421 29.1108L38.6324 29.664L39.186 30.6716L40.1965 30.1189" fill="#29367B"/>
<path d="M38.2944 31.876L37.2843 32.4291L37.8382 33.4367L38.8484 32.884" fill="#58B75E"/>
<path d="M38.6692 27.6484L37.6591 28.2011L38.213 29.2096L39.2235 28.6565" fill="#1E3871"/>
<path d="M37.91 30.063L36.8999 30.6161L37.4539 31.6237L38.464 31.071" fill="#D0DA33"/>
<path d="M37.3241 28.7388L36.6135 29.1278L37.0034 29.8367L37.7135 29.4481" fill="#B1AEB3"/>
<path d="M36.243 30.707L35.5325 31.0961L35.9219 31.805L36.6325 31.4163" fill="#27B8BE"/>
<path d="M36.985 38.2178L37.2107 36.3908L39.0409 36.6169L38.8152 38.4439L36.985 38.2178Z" fill="#71BA44"/>
<path d="M37.38 35.4277L37.5616 33.9623L39.0295 34.1442L38.8479 35.6097L37.38 35.4277Z" fill="#1E3871"/>
<path d="M34.6012 37.499L34.7828 36.0336L36.2511 36.2156L36.0695 37.681L34.6012 37.499Z" fill="#27B8BE"/>
<path d="M35.3662 35.2451L35.5073 34.1041L36.6504 34.2454L36.5093 35.3864L35.3662 35.2451Z" fill="#71BA44"/>
<path d="M32.6506 36.6997L32.7917 35.5587L33.9348 35.7L33.7937 36.841L32.6506 36.6997Z" fill="#B1AEB3"/>
<path d="M35.4332 33.4873L35.5747 32.3459L36.7182 32.4876L36.5767 33.629L35.4332 33.4873Z" fill="#B1AEB3"/>
<path d="M33.402 35.001L33.5434 33.86L34.6869 34.0017L34.5455 35.1427L33.402 35.001Z" fill="#71BA44"/>
<path d="M34.0852 33.292L34.1845 32.4894L34.9884 32.5888L34.8891 33.3915L34.0852 33.292Z" fill="#B1AEB3"/>
<path d="M32.0527 34.2554L32.152 33.4527L32.9563 33.5522L32.857 34.3548L32.0527 34.2554Z" fill="#B1AEB3"/>
<path d="M31.7589 39.983L30.4074 38.7305L29.1528 40.0795L30.5043 41.3316" fill="#D0DA33"/>
<path d="M31.5099 14.2027L30.1584 12.9502L28.9038 14.2992L30.2553 15.5513" fill="#71BA44"/>
<path d="M33.2011 37.9623L32.1169 36.9575L31.1105 38.0397L32.1948 39.044" fill="#27B8BE"/>
<path d="M29.734 38.0199L28.6493 37.0151L27.6429 38.0973L28.7272 39.1017" fill="#71BA44"/>
<path d="M31.2141 36.6524L30.3697 35.8701L29.5862 36.7124L30.4302 37.4947" fill="#3088C8"/>
<path d="M28.1596 36.2476L27.3156 35.4653L26.5321 36.3076L27.3765 37.0903" fill="#D0DA33"/>
<path d="M32.2984 35.2695L31.454 34.4873L30.6705 35.3296L31.5145 36.1119" fill="#D0DA33"/>
<path d="M29.7624 35.311L28.918 34.5288L28.1345 35.3711L28.9785 36.1534" fill="#B1AEB3"/>
<path d="M30.8365 34.3392L30.2428 33.7886L29.6918 34.3815L30.2855 34.9317" fill="#1E3871"/>
<path d="M28.6244 33.936L28.0307 33.3857L27.4792 33.9782L28.073 34.5284" fill="#B1AEB3"/>
<path d="M21.712 37.0107L23.5202 36.6483L23.8819 38.4529L22.0737 38.8153L21.712 37.0107Z" fill="#3088C8"/>
<path d="M24.4956 36.4985L25.9459 36.2079L26.2361 37.6557L24.7858 37.9464L24.4956 36.4985Z" fill="#27B8BE"/>
<path d="M21.6514 34.52L23.1016 34.2291L23.3921 35.6769L21.9418 35.9678L21.6514 34.52Z" fill="#71BA44"/>
<path d="M24.0374 34.5322L25.1667 34.3059L25.3926 35.4332L24.2633 35.6596L24.0374 34.5322Z" fill="#D0DA33"/>
<path d="M25.7268 34.0435L26.8562 33.8171L27.0822 34.9448L25.9528 35.1712L25.7268 34.0435Z" fill="#29367B"/>
<path d="M23.6456 32.5967L24.775 32.3703L25.0009 33.4977L23.8716 33.724L23.6456 32.5967Z" fill="#3088C8"/>
<path d="M25.4888 32.7051L26.2834 32.5461L26.4421 33.3391L25.6474 33.4981L25.4888 32.7051Z" fill="#71BA44"/>
<path d="M23.9318 31.0854L24.7259 30.9261L24.885 31.7191L24.0908 31.8784L23.9318 31.0854Z" fill="#B1AEB3"/>
<path d="M18.3912 32.6132L19.1556 30.9385L17.4772 30.1753L16.7128 31.85" fill="#27B8BE"/>
<path d="M20.767 33.3423L21.3802 31.9987L20.034 31.3867L19.4204 32.7304" fill="#D0DA33"/>
<path d="M19.6188 30.0766L20.2324 28.733L18.8859 28.1206L18.2727 29.4647" fill="#3088C8"/>
<path d="M20.3373 30.5718L20.8145 29.5253L21.8621 30.0031L21.3849 31.0495L20.3373 30.5718Z" fill="#27B8BE"/>
<path d="M22.7887 33.6633L23.2664 32.6171L22.2182 32.1406L21.7405 33.1868" fill="#B1AEB3"/>
<path d="M19.7615 27.5503L20.2389 26.5039L21.2864 26.9819L20.809 28.0282L19.7615 27.5503Z" fill="#29367B"/>
<path d="M21.9958 31.1616L22.4733 30.1152L23.5208 30.5932L23.0434 31.6396L21.9958 31.1616Z" fill="#58B75E"/>
<path d="M21.155 28.7749L21.6328 27.7287L22.6802 28.207L22.2024 29.2532L21.155 28.7749Z" fill="#D0DA33"/>
<path d="M23.4661 29.9601L23.8021 29.2243L23.0647 28.8887L22.7286 29.6249" fill="#1E3871"/>
<path d="M23.1523 27.7379L23.4883 27.0017L22.7508 26.6665L22.4148 27.4028" fill="#71BA44"/>
<path d="M17.3612 24.6705L18.9634 23.759L18.0494 22.1602L16.4476 23.0717" fill="#27B8BE"/>
<path d="M18.861 26.6493L20.1462 25.918L19.4129 24.6353L18.1281 25.3669" fill="#71BA44"/>
<path d="M19.8451 23.3303L21.1303 22.5991L20.397 21.3159L19.1122 22.0476" fill="#1E3871"/>
<path d="M20.709 25.1498L21.7092 24.5801L21.1386 23.5815L20.1381 24.1508" fill="#3088C8"/>
<path d="M22.0108 22.3626L23.0109 21.7929L22.4404 20.7944L21.4398 21.3637" fill="#71BA44"/>
<path d="M21.7052 26.596L22.7062 26.0268L22.1356 25.0278L21.1346 25.5975" fill="#27B8BE"/>
<path d="M22.425 24.1688L23.4256 23.5995L22.8551 22.6006L21.8545 23.1703" fill="#D0DA33"/>
<path d="M23.0329 25.4833L23.7369 25.0826L23.3354 24.3804L22.6315 24.7806" fill="#B1AEB3"/>
<path d="M24.0806 23.4975L24.7849 23.0968L24.3834 22.3945L23.6791 22.7952" fill="#71BA44"/>
<path d="M21.1838 17.6299L21.3795 15.7999L23.2128 15.9959L23.0171 17.8259L21.1838 17.6299Z" fill="#71BA44"/>
<path d="M21.2385 20.1089L21.3956 18.641L22.8667 18.7985L22.7097 20.2663L21.2385 20.1089Z" fill="#B1AEB3"/>
<path d="M23.9817 17.9922L24.1388 16.5239L25.61 16.6814L25.4528 18.1496L23.9817 17.9922Z" fill="#27B8BE"/>
<path d="M23.6173 19.9731L23.7398 18.8299L24.885 18.9526L24.7626 20.0958L23.6173 19.9731Z" fill="#D0DA33"/>
<path d="M26.3048 18.4688L26.4268 17.3255L27.5721 17.4477L27.4501 18.5909L26.3048 18.4688Z" fill="#3088C8"/>
<path d="M23.5764 21.728L23.6989 20.5848L24.8441 20.7075L24.7217 21.8507L23.5764 21.728Z" fill="#27B8BE"/>
<path d="M25.5837 20.1787L25.7062 19.0355L26.8515 19.1582L26.729 20.3014L25.5837 20.1787Z" fill="#71BA44"/>
<path d="M25.3054 21.6001L25.3915 20.7959L26.1973 20.8822L26.1112 21.6863L25.3054 21.6001Z" fill="#1E3871"/>
<path d="M27.321 20.6011L27.4066 19.7969L28.2129 19.8826L28.1273 20.6869L27.321 20.6011Z" fill="#B1AEB3"/>
<path d="M36.0218 28.2715C35.0564 27.7155 33.7132 27.5539 32.3215 28.0635C31.7133 28.2935 31.1042 28.695 30.5904 29.0882C30.2669 27.1263 30.4247 25.3054 30.5001 24.4109C30.5005 24.4059 30.5063 24.4034 30.5109 24.4063C31.2057 24.8434 31.011 26.0649 30.8651 26.4141C30.8622 26.4212 30.8726 26.4257 30.8776 26.4199C31.7435 25.3974 31.3205 24.2684 31.1427 23.9825C31.1104 23.9307 31.3064 24.0877 31.4671 24.2936C32.0725 25.0643 31.7928 25.9298 31.8603 25.9095C31.862 25.9091 31.8641 25.9095 31.8649 25.9074C32.2672 25.1181 32.1379 24.1171 31.3105 23.3941C31.2728 23.3622 31.4203 23.4103 31.4671 23.4269C32.1727 23.6717 32.5407 24.3985 32.5357 25.0465C32.5357 25.189 33.0121 23.8292 31.8603 23.1381C31.6449 23.0092 31.4236 22.9384 31.279 22.921C31.1663 22.909 31.896 22.7992 32.4085 23.1464C32.7163 23.3539 32.7971 23.605 32.7892 23.5346C32.6997 22.6243 31.6267 22.2647 30.9762 22.5377C30.9074 22.5721 31.2322 22.0907 31.8603 22.128C31.9813 22.135 32.0932 22.1611 32.1827 22.2038C32.1889 22.2067 32.1947 22.1984 32.1901 22.193C31.7157 21.6507 30.9352 21.6395 30.5208 22.2668C30.5179 22.2709 30.5117 22.2709 30.5092 22.2668C30.3522 21.9854 30.2209 21.6254 30.1641 21.2857C30.1504 21.1986 30.1214 21.7062 29.8065 22.2668C29.8041 22.2709 29.7983 22.2709 29.7954 22.2668C29.3798 21.6378 28.6 21.6503 28.1261 22.193C28.1211 22.1984 28.1269 22.2067 28.1335 22.2038C28.4501 22.0534 29.0479 22.0977 29.3475 22.5274C29.3512 22.5332 29.3458 22.5406 29.3392 22.5377C28.6688 22.256 27.6156 22.6384 27.5265 23.5346C27.5261 23.542 27.5361 23.5462 27.5398 23.5396C27.5696 23.4836 27.6434 23.3643 27.7813 23.2433C28.3175 22.771 29.1606 22.9077 29.0367 22.921C28.7073 22.9616 28.0312 23.2549 27.7813 23.9253C27.5771 24.473 27.7739 25.1944 27.7813 25.0158C27.788 24.4063 28.1372 23.5901 28.9994 23.3821C29.0061 23.3805 29.011 23.3896 29.0057 23.3941C27.6657 24.5721 28.4762 26.0184 28.4637 25.9041C28.4223 25.4372 28.3879 24.6035 29.1623 23.9742C29.1681 23.9696 29.1772 23.9758 29.173 23.9825C28.9953 24.2684 28.5727 25.3974 29.4382 26.4199C29.4432 26.4257 29.4535 26.4212 29.4506 26.4141C29.3052 26.0649 29.1105 24.8434 29.8049 24.4063C29.8094 24.4034 29.8152 24.4059 29.8157 24.4109C29.8915 25.3054 30.0493 27.1263 29.7253 29.0882C28.6249 28.2471 27.5414 27.6956 26.146 27.7569C25.4441 27.7876 24.7783 27.9919 24.294 28.2715C24.2766 28.2815 24.2894 28.3067 24.3081 28.3009C26.3378 27.6521 28.0946 28.4393 29.7278 29.7983C28.9029 30.5172 28.1542 31.2696 27.7192 31.4966C27.6177 31.3578 27.4416 31.2779 27.2489 31.3197C26.886 31.3997 26.7994 31.8542 26.9962 32.0497C27.7092 32.7611 28.8242 31.3495 30.1579 30.1695C31.4415 31.304 32.6078 32.7607 33.3196 32.0497C33.3763 31.993 33.4422 31.8057 33.4082 31.657C33.3225 31.2857 32.829 31.1784 32.5966 31.4966C32.1781 31.2857 31.4435 30.5433 30.588 29.7983C32.2328 28.4273 33.9705 27.6621 36.0073 28.3009C36.0263 28.3067 36.0392 28.2815 36.0218 28.2715Z" fill="#9F9F9F"/>
<path d="M29.5269 47.6918H30.056V42.9536H29.5269V47.6918ZM15.6633 47.1635L14.8367 45.1371C15.6919 44.4133 16.753 44.5463 17.4358 45.1371L16.6092 47.1635H15.6633ZM12.7465 47.1635C12.3305 47.1511 12.038 47.2029 11.6518 47.0815C10.222 46.6299 10.6106 44.642 12.2108 44.642H12.7465V47.1635ZM27.4565 47.1635C26.6043 47.1374 25.8365 47.3139 25.4458 46.6357C25.5229 46.2968 25.4806 45.9927 25.4922 44.4373H24.9632V46.2263C24.9632 47.5393 23.3788 47.454 23.0051 46.6655C22.8551 46.3486 22.9467 46.216 22.9193 44.4373H22.3898V46.2661C22.3898 46.8627 22.0165 47.1635 21.4969 47.1635H20.4719V44.4373H19.9428V47.1635H17.1648L18.0908 44.9523C17.5654 44.4932 16.8342 44.0611 16.1331 44.0611C15.4209 44.0611 14.7037 44.4746 14.1751 44.9523L15.1077 47.1635H13.2756V44.1075H12.4291C11.2325 44.1075 10.2394 44.7953 10.2394 45.9226C10.2394 47.9292 12.7009 47.6819 12.7465 47.6918C12.7382 47.7568 12.8123 48.2101 12.5082 48.438C12.224 48.651 11.7165 48.6447 11.4003 48.5702C11.2702 48.5391 11.1215 48.4865 10.9541 48.4115L10.7888 48.9198C11.1244 49.0433 11.4447 49.1444 11.8006 49.1444C12.809 49.1444 13.2756 48.6414 13.2756 47.7908V47.6918C21.9109 47.6375 21.6556 47.8161 22.1818 47.5269C22.3823 47.4171 22.5443 47.2696 22.6678 47.0844C22.7958 47.2957 22.9699 47.461 23.1903 47.5799C23.6531 47.8281 24.3591 47.8049 24.7879 47.5928C25.0104 47.483 25.1815 47.3135 25.3004 47.0844C25.5047 47.4333 25.8216 47.6574 26.458 47.6856V47.6918H27.9856V42.9536H27.4565V47.1635ZM74.9337 46.9294C74.4655 48.0237 72.8538 48.0552 72.3872 46.9129C72.2501 46.5777 72.2501 46.1804 72.3872 45.8402C72.952 44.4406 75.043 44.8425 75.043 46.3784C75.043 46.576 75.0066 46.76 74.9337 46.9294ZM69.801 46.9294C69.3963 47.87 68.1765 48.0092 67.5388 47.3521C67.0156 46.811 67.0309 45.9297 67.536 45.3981C67.9474 44.961 68.5817 44.8906 69.0669 45.0907C69.8317 45.4097 70.0865 46.2661 69.801 46.9294ZM56.933 47.1635C56.5283 47.1511 56.2349 47.2041 55.8512 47.0782C54.4579 46.6204 54.7902 44.6353 56.4102 44.6353H56.933V47.1635ZM77.2253 47.1635H75.4068C75.9744 45.9177 75.0928 44.4572 73.6406 44.4572C72.3031 44.4572 71.3676 45.8278 71.9141 47.1635H70.2738C70.8269 45.9541 69.9887 44.4572 68.5079 44.4572C67.1697 44.4572 66.235 45.8282 66.7815 47.1635H65.1014V42.9536H64.5723V47.1635H62.886C62.857 46.6212 63.0091 45.8186 62.555 45.3119C62.2471 44.9647 61.9045 44.8566 61.4371 44.8566H59.0958L60.0918 42.9536H59.5163L58.5004 44.85C58.5332 45.0604 58.597 45.2249 58.7387 45.3844C61.3849 45.4068 61.5577 45.3289 61.8705 45.4607C62.1158 45.5622 62.2654 45.7474 62.3172 45.9724C62.3801 46.2433 62.3482 46.4472 62.3569 47.1635H57.4621V44.1075H56.6285C55.2265 44.1075 54.4459 44.9415 54.4459 45.9028C54.4459 47.1072 55.4146 47.6918 56.6285 47.6918H67.1254C67.9039 48.5304 69.2144 48.4591 69.9299 47.6918H72.258C73.034 48.5279 74.3433 48.462 75.0629 47.6918H77.7548V42.9536H77.2253V47.1635ZM79.2956 47.6918H79.8247V42.9536H79.2956V47.6918ZM40.3088 48.8544H40.8524V48.312H40.3088V48.8544ZM45.482 47.1635L44.655 45.1371C45.5036 44.4187 46.563 44.5401 47.2545 45.1371L46.4279 47.1635H45.482ZM49.232 47.1635H46.9835L47.9091 44.9523C47.3825 44.4907 46.6488 44.0611 45.9515 44.0611C45.2367 44.0611 44.5216 44.4767 43.9934 44.9523L44.926 47.1635H42.9555V44.1075H42.426V47.8041C42.426 48.271 42.392 48.6161 41.9234 48.6161C41.8144 48.6161 41.7569 48.6066 41.6524 48.5764L41.5137 49.0852C41.9557 49.2061 42.4778 49.1655 42.7371 48.7844C42.9716 48.4392 42.9439 47.9628 42.9555 47.6918H49.7616V42.9536H49.232V47.1635ZM9.06232 44.5695C8.47398 43.9273 7.79284 44.1601 7.56082 44.1075V44.6353C7.94697 44.6503 8.12554 44.5927 8.38739 44.7178C8.60781 44.8239 8.7636 44.995 8.8274 45.2361C8.89908 45.5133 8.85889 45.7296 8.87049 47.1635H6.38995V47.6918H9.39958C9.37762 45.6906 9.45427 45.4785 9.31672 45.0314C9.26161 44.8512 9.17667 44.6971 9.06232 44.5695ZM38.3743 48.8606H38.9179V48.3183H38.3743V48.8606ZM35.1571 47.1635C34.7532 47.1511 34.4594 47.2041 34.0753 47.0782C32.6803 46.6199 33.0163 44.6353 34.6343 44.6353H35.1571V47.1635ZM40.8454 44.1075H40.3163V47.1635H38.3188V44.1075H37.7897V47.1635H35.6862V44.1075C35.0208 44.1282 34.0281 43.9728 33.2653 44.6188C32.184 45.5348 32.4628 47.6918 34.853 47.6918H40.8454V44.1075ZM37.4475 48.8606H37.9911V48.3183H37.4475V48.8606ZM2.08722 42.9536H1.54363V43.496H2.08722V42.9536ZM56.5328 42.9536H55.9892V43.496H56.5328V42.9536ZM35.6837 42.9536H35.1401V43.496H35.6837V42.9536ZM5.20872 48.8606H5.75231V48.3183H5.20872V48.8606ZM34.7569 42.9536H34.2133V43.496H34.7569V42.9536ZM3.01405 42.9536H2.47046V43.496H3.01405V42.9536ZM4.28188 48.8606H4.82547V48.3183H4.28188V48.8606ZM2.48745 47.1635C2.08432 47.1511 1.7889 47.2041 1.40607 47.0782C0.0135363 46.6216 0.342508 44.6353 1.96499 44.6353H2.48745V47.1635ZM5.64914 44.1075H5.12005V47.1635H3.01654V44.1075C2.38221 44.127 1.87798 44.0441 1.28343 44.2426C0.785003 44.41 0.377725 44.7178 0.155649 45.1901C-0.0755429 45.6815 -0.0336963 46.3071 0.179265 46.7082C0.562513 47.4316 1.36422 47.6918 2.18292 47.6918H5.64914V44.1075ZM51.3024 47.6918H51.8315V42.9536H51.3024V47.6918ZM57.4592 42.9536H56.9156V43.496H57.4592V42.9536Z" fill="#9F9F9F"/>
<path d="M0.518677 51.1621H1.18283V53.0589L2.98058 51.1621H3.79596L2.22485 52.7842L3.86598 54.9341H3.06178L1.77159 53.2366L1.18283 53.8403V54.9341H0.518677" fill="#9F9F9F"/>
<path d="M4.4718 51.1621H5.13596V54.9341H4.4718V51.1621Z" fill="#9F9F9F"/>
<path d="M6.15833 51.1621H6.77401L8.7988 53.7703V51.1621H9.45177V54.9341H8.89575L6.81171 52.2505V54.9341H6.15833" fill="#9F9F9F"/>
<path d="M10.2742 53.059V53.0482C10.2742 51.9921 11.0842 51.0972 12.2231 51.0972C12.8819 51.0972 13.2871 51.2807 13.6758 51.6093L13.2548 52.1106C12.2314 51.2414 10.9711 51.8674 10.9711 53.0374V53.0482C10.9711 53.8242 11.4836 54.3952 12.2555 54.3952C12.6122 54.3952 12.9362 54.2821 13.1682 54.1097V53.4037H12.2016V52.8274H13.8108V54.4113C12.4593 55.566 10.2742 54.9727 10.2742 53.059Z" fill="#9F9F9F"/>
<path d="M16.1375 54.3304C17.9 54.3304 17.8789 51.7654 16.1375 51.7654H15.3926V54.3304H16.1375ZM14.7284 51.1621H16.1375C18.8339 51.1621 18.7974 54.9341 16.1375 54.9341H14.7284V51.1621Z" fill="#9F9F9F"/>
<path d="M22.0236 53.059V53.0482C22.0236 52.3153 21.4891 51.7066 20.7383 51.7066C19.988 51.7066 19.4643 52.3045 19.4643 53.0374V53.0482C19.4643 53.7811 19.9988 54.3902 20.7491 54.3902C21.4999 54.3902 22.0236 53.7919 22.0236 53.059ZM18.7678 53.059V53.0482C18.7678 51.9867 19.5886 51.0972 20.7491 51.0972C21.91 51.0972 22.72 51.9759 22.72 53.0374V53.0482C22.72 54.1097 21.8997 54.9988 20.7383 54.9988C19.5778 54.9988 18.7678 54.1205 18.7678 53.059Z" fill="#9F9F9F"/>
<path d="M23.5448 51.1621H24.252L25.4022 52.9458L26.5519 51.1621H27.2592V54.9341H26.595V52.229L25.4022 54.0073H25.3807L24.1982 52.2398V54.9341H23.5448" fill="#9F9F9F"/>
<path d="M32.9415 53.059V53.0482C32.9415 52.3153 32.4071 51.7066 31.6563 51.7066C30.906 51.7066 30.3823 52.3045 30.3823 53.0374V53.0482C30.3823 53.7811 30.9167 54.3902 31.6671 54.3902C32.4178 54.3902 32.9415 53.7919 32.9415 53.059ZM29.6858 53.059V53.0482C29.6858 51.9867 30.5066 51.0972 31.6671 51.0972C32.828 51.0972 33.638 51.9759 33.638 53.0374V53.0482C33.638 54.1097 32.8172 54.9988 31.6563 54.9988C30.4958 54.9988 29.6858 54.1205 29.6858 53.059Z" fill="#9F9F9F"/>
<path d="M34.463 51.1621H37.2758V51.7658H35.1272V52.795H37.0331V53.3982H35.1272V54.9341H34.463" fill="#9F9F9F"/>
<path d="M39.3721 54.3845L39.7715 53.9101C40.1332 54.2229 40.4949 54.4007 40.9647 54.4007C41.3749 54.4007 41.6343 54.2122 41.6343 53.9263V53.9159C41.6343 53.0732 39.5229 53.6483 39.5229 52.2126V52.2019C39.5229 51.0443 41.1433 50.7488 42.1849 51.5825L41.8286 52.0834C40.9593 51.4366 40.1875 51.691 40.1875 52.143V52.1538C40.1875 52.9845 42.2984 52.4592 42.2984 53.8509V53.8616C42.2984 55.1842 40.4232 55.3205 39.3721 54.3845Z" fill="#9F9F9F"/>
<path d="M45.2841 53.4364L44.6307 51.9274L43.9827 53.4364H45.2841ZM44.3336 51.1353H44.9489L46.612 54.9342H45.9101L45.5269 54.0235H43.7395L43.3513 54.9342H42.6705L44.3336 51.1353Z" fill="#9F9F9F"/>
<path d="M47.0026 53.334V51.1621H47.6667V53.3071C47.6667 54.0077 48.0284 54.3847 48.6221 54.3847C49.2109 54.3847 49.5726 54.0292 49.5726 53.334V51.1621H50.2368V53.3017C50.2368 54.4278 49.5995 54.9938 48.6114 54.9938C47.6286 54.9938 47.0026 54.4278 47.0026 53.334Z" fill="#9F9F9F"/>
<path d="M52.618 54.3304C54.3805 54.3304 54.3598 51.7654 52.618 51.7654H51.873V54.3304H52.618ZM51.2089 51.1621H52.618C55.3144 51.1621 55.2779 54.9341 52.618 54.9341H51.2089V51.1621Z" fill="#9F9F9F"/>
<path d="M55.4675 51.1621H56.1317V54.9341H55.4675V51.1621Z" fill="#9F9F9F"/>
<path d="M61.0515 53.4364L60.3981 51.9274L59.7501 53.4364H61.0515ZM60.1011 51.1353H60.7163L62.3794 54.9342H61.6776L61.2943 54.0235H59.5069L59.1187 54.9342H58.438L60.1011 51.1353Z" fill="#9F9F9F"/>
<path d="M64.6428 53.0319C65.118 53.0319 65.4205 52.7842 65.4205 52.4013V52.3906C65.4205 51.9866 65.1288 51.7654 64.6374 51.7654H63.6712V53.0319H64.6428ZM63.0071 51.1621H64.6913C65.4901 51.1621 66.0954 51.5636 66.0954 52.3529C66.0801 52.3943 66.1742 53.2263 65.1935 53.5063L66.2139 54.9341H65.4309L64.5024 53.619C64.4299 53.619 63.6286 53.619 63.6712 53.619V54.9341H63.0071V51.1621Z" fill="#9F9F9F"/>
<path d="M69.3159 53.4364L68.6625 51.9274L68.0146 53.4364H69.3159ZM68.3655 51.1353H68.9812L70.6438 54.9342H69.942L69.5587 54.0235H67.7713L67.3831 54.9342H66.7024L68.3655 51.1353Z" fill="#9F9F9F"/>
<path d="M73.0256 54.347C73.4793 54.347 73.7544 54.1688 73.7544 53.8295V53.8187C73.7544 53.501 73.5009 53.312 72.9772 53.312H71.9244V54.347H73.0256ZM72.8313 52.7519C73.2577 52.7519 73.544 52.5849 73.544 52.2398V52.229C73.544 51.9327 73.3066 51.7496 72.8798 51.7496H71.9244V52.7519H72.8313ZM71.271 51.1621H72.9664C73.631 51.1621 74.2081 51.4729 74.2081 52.1213C74.1928 52.1627 74.2761 52.6574 73.6683 52.9727C74.1112 53.1235 74.4186 53.3771 74.4186 53.8888V53.8995C74.4186 54.5732 73.8626 54.9341 73.0203 54.9341H71.271V51.1621Z" fill="#9F9F9F"/>
<path d="M75.2411 51.1621H75.9052V54.9341H75.2411V51.1621Z" fill="#9F9F9F"/>
<path d="M79.1527 53.4364L78.4993 51.9274L77.8513 53.4364H79.1527ZM78.2023 51.1353H78.8175L80.4806 54.9342H79.7788L79.3955 54.0235H77.6081L77.2199 54.9342H76.5392L78.2023 51.1353Z" fill="#9F9F9F"/>
</svg>
