<svg width="83" height="55" viewBox="0 0 83 55" fill="none" xmlns="http://www.w3.org/2000/svg">
<path d="M58.6136 31.2283V31.2883C58.6136 35.2555 55.7229 38.1706 51.0253 38.1706C47.2314 38.1706 44.6116 36.6679 42.8052 34.5341L45.9971 31.4984C47.4423 33.1217 48.9479 34.0229 51.0858 34.0229C52.8322 34.0229 54.0669 33.0314 54.0669 31.4686C54.0437 31.4271 54.4074 28.734 49.9415 28.734H48.0144L47.2915 25.7882L54.0532 18.9995L51.3435 20.7397H44.0399V16.773H58.2822V20.2591L52.9527 25.3378C55.8132 25.8189 58.6136 27.3212 58.6136 31.2283ZM45.3947 7.15326C45.3947 5.24863 46.7628 3.71564 48.6827 3.71564H50.8463L50.28 3.99779C50.3056 9.21824 50.1764 9.87577 50.5103 10.639L48.7068 10.6385C46.7868 10.6385 45.3947 9.08152 45.3947 7.1773V7.15326ZM48.6827 11.5132H50.604V10.8225C50.744 11.0653 50.9325 11.2538 51.2105 11.3856C51.8216 11.6756 51.3775 11.4933 68.9033 11.5471V2.84142H67.979V10.6245C67.979 10.6245 51.9538 10.6862 51.6493 10.5495C51.385 10.4305 51.2888 10.1588 51.2449 9.86914C51.1749 9.39889 51.2176 9.39019 51.2047 2.84142H48.7068C46.1508 2.84142 44.4107 4.86538 44.4107 7.1773V7.20133C44.4107 9.51283 46.1268 11.5132 48.6827 11.5132ZM75.716 1.91831H73.6908C73.7347 1.24877 73.4248 0 74.7892 0H75.4413V0.643027C74.8099 0.689846 74.4465 0.489314 74.4465 0.993544V1.20692H75.716V1.91831ZM78.0569 11.6412C77.8104 11.6412 77.5597 11.6068 77.3057 11.5372L77.5485 10.6493C77.9666 10.7682 78.5011 10.7753 78.7215 10.4015C78.9788 9.95905 78.8868 9.80327 78.9005 2.84142H79.8248C79.7983 9.34005 79.8886 9.52153 79.7382 10.2748C79.5609 11.156 79.0264 11.6412 78.0569 11.6412ZM51.2047 1.91831H50.28V0.995615H51.2047V1.91831ZM71.5504 5.10196C71.9842 4.25716 72.8949 3.7869 73.8259 3.77696V3.7753H75.3195L74.7916 4.03839V8.18161C74.0641 8.16007 73.5528 8.2508 72.8791 8.03701C71.9593 7.74782 71.3362 7.04015 71.3362 6.01305C71.3362 5.68284 71.4075 5.37872 71.5504 5.10196ZM71.5504 8.37178C72.754 9.22943 74.3951 9.08773 74.4809 9.10389L74.7916 8.45299C74.7415 9.084 74.9652 9.96568 74.3757 10.4073C73.8772 10.7798 72.9885 10.7678 72.44 10.6377C72.2129 10.5843 71.9527 10.4919 71.6598 10.3614L71.371 11.2492C71.9569 11.4651 72.517 11.6412 73.1389 11.6412C74.0405 11.6412 74.6951 11.4278 75.1036 11.0015C75.5117 10.5743 75.716 9.99965 75.716 9.27708V2.84142C74.5783 2.87705 73.7152 2.72665 72.6769 3.0838C69.8948 4.04047 69.8393 7.15368 71.5504 8.37178ZM49.3556 1.91831H48.4308V0.995615H49.3556V1.91831ZM39.7868 2.83147H40.7414V11.4954H39.96L33.8119 3.70238L34.3555 4.96523V11.4954H33.4005V2.83147H34.3182L40.1892 10.2851L39.7868 9.22197V2.83147ZM3.73299 11.5571L0.000366211 2.83147H1.09169C1.14721 2.96571 4.12204 10.1563 4.42366 10.8855L4.3292 9.93336L7.27958 2.83147H8.3332L4.60099 11.5571H3.73299ZM20.274 2.83147H21.2534V11.4949H20.274V2.83147ZM30.7803 7.18807C30.7803 9.1561 29.3671 10.74 27.3829 10.74C25.3987 10.74 23.9602 9.13124 23.9602 7.16362V7.13835C23.9602 5.17073 25.3743 3.58678 27.358 3.58678C29.3422 3.58678 30.7803 5.19559 30.7803 7.16362V7.18807ZM27.3829 2.68315C24.7416 2.68315 22.9434 4.77464 22.9434 7.16362V7.18807C22.9434 9.57663 24.7167 11.6437 27.358 11.6437C29.9993 11.6437 31.7975 9.55219 31.7975 7.16362V7.13835C31.7975 4.7502 30.0242 2.68315 27.3829 2.68315ZM18.6577 9.14367V9.16811C18.6577 10.653 17.4176 11.6188 15.694 11.6188C14.3177 11.6188 13.1895 11.161 12.1479 10.2325L12.7553 9.5149C13.6606 10.3315 14.5286 10.7396 15.7317 10.7396C16.8972 10.7396 17.6658 10.1215 17.6658 9.26713V9.24269C17.6658 6.82471 12.4951 8.41985 12.4951 5.09616V5.07171C12.4951 3.71025 13.6978 2.70759 15.3473 2.70759C16.6118 2.70759 17.5171 3.06681 18.3975 3.7724L17.8274 4.52688C15.8594 2.92594 13.4745 3.53914 13.4745 4.98512V5.00998C13.4745 5.82661 13.9207 6.28443 15.8308 6.69295C17.7652 7.1139 18.6577 7.81949 18.6577 9.14367ZM10.6435 11.4954H9.664V2.83189H10.6435V11.4954ZM67.6562 12.4694H68.581V13.3921H67.6562V12.4694ZM65.8071 12.4694H66.7318V13.3921H65.8071V12.4694ZM7.75232 33.8124H15.7893V37.8102H0.191368V34.1434C7.98517 27.5292 10.851 26.2365 10.851 23.3545C10.851 21.5812 9.67643 20.6195 8.02039 20.6195C6.39418 20.6195 5.28007 21.5207 3.71435 23.444L0.462335 20.83C2.54016 18.0048 4.5579 16.4718 8.3216 16.4718C12.6877 16.4718 15.5784 19.0265 15.5784 22.9638V23.0234C15.5784 27.9605 11.8409 29.5519 5.43171 34.7168L4.53677 35.4063L7.75232 33.8124ZM77.3646 27.3514C77.3646 30.9577 74.7751 33.9031 71.0408 33.9031C67.3069 33.9031 64.6573 30.8976 64.6573 27.291V27.2309C64.6573 23.6246 67.2473 20.6796 70.9807 20.6796C74.7142 20.6796 77.3646 23.6851 77.3646 27.291V27.3514ZM71.0408 16.4121C64.5372 16.4121 59.8094 21.3106 59.8094 27.291V27.3514C59.8094 33.3322 64.4763 38.1706 70.9807 38.1706C77.4851 38.1706 82.2121 33.2717 82.2121 27.291V27.2309C82.2121 21.2506 77.5448 16.4121 71.0408 16.4121Z" fill="white"/>
<path d="M28.3888 15.0283L29.4565 16.0509L28.4319 17.1161L27.3646 16.0935" fill="#29367B"/>
<path d="M30.8321 16.0935L31.8989 17.1161L32.9236 16.0509L31.8563 15.0283" fill="#B1AEB3"/>
<path d="M29.3288 17.4363L30.1603 18.2322L30.9575 17.4027L30.1268 16.6068" fill="#D0DA33"/>
<path d="M32.3763 17.8917L33.2074 18.6881L34.0045 17.8586L33.1734 17.0623" fill="#71BA44"/>
<path d="M27.9698 18.7046L28.801 19.5009L29.5981 18.6714L28.7678 17.8751" fill="#D0DA33"/>
<path d="M30.7587 18.8011L31.5894 19.5974L32.387 18.7679L31.5559 17.9716" fill="#27B8BE"/>
<path d="M29.6677 19.7552L30.2523 20.3154L30.8133 19.7316L30.2287 19.1714" fill="#71BA44"/>
<path d="M31.8733 20.1949L32.4579 20.755L33.0194 20.1713L32.4347 19.6115" fill="#58B75E"/>
<path d="M36.6895 15.7564L38.503 15.4239L38.835 17.2341L37.0215 17.5666L36.6895 15.7564Z" fill="#3088C8"/>
<path d="M34.3229 16.5151L35.7778 16.2487L36.0438 17.7012L34.5889 17.9676L34.3229 16.5151Z" fill="#1E3871"/>
<path d="M37.1354 18.5389L38.5903 18.2722L38.8566 19.7246L37.4017 19.9914L37.1354 18.5389Z" fill="#27B8BE"/>
<path d="M35.1291 18.7517L36.262 18.5441L36.4691 19.6747L35.3362 19.8822L35.1291 18.7517Z" fill="#D0DA33"/>
<path d="M37.3332 20.9L38.4662 20.6924L38.6734 21.8233L37.5404 22.0309L37.3332 20.9Z" fill="#B1AEB3"/>
<path d="M33.4316 19.2115L34.5649 19.0038L34.7721 20.1348L33.6388 20.3424L33.4316 19.2115Z" fill="#27B8BE"/>
<path d="M35.4879 20.6929L36.6208 20.4853L36.828 21.6162L35.6951 21.8238L35.4879 20.6929Z" fill="#71BA44"/>
<path d="M34.0439 20.8297L34.841 20.6835L34.9869 21.479L34.1898 21.6251L34.0439 20.8297Z" fill="#B1AEB3"/>
<path d="M35.5754 22.4741L36.3722 22.3285L36.5176 23.1236L35.7208 23.2693L35.5754 22.4741Z" fill="#58B75E"/>
<path d="M42.0836 21.6863L41.291 23.3485L42.9566 24.1391L43.7484 22.4772" fill="#29367B"/>
<path d="M39.72 20.9185L39.0844 22.2518L40.4202 22.8861L41.0558 21.5528" fill="#27B8BE"/>
<path d="M40.813 24.203L40.1774 25.5367L41.5136 26.1706L42.1492 24.8373" fill="#71BA44"/>
<path d="M39.0625 23.2029L38.5678 24.2412L39.6082 24.735L40.1033 23.6968" fill="#D0DA33"/>
<path d="M39.5907 26.2327L39.0956 27.271L40.1355 27.7648L40.6311 26.7265" fill="#D0DA33"/>
<path d="M37.4159 22.5845L36.9208 23.6228L37.9612 24.1167L38.4563 23.0784" fill="#3088C8"/>
<path d="M38.216 24.9869L37.7209 26.0252L38.7608 26.5191L39.2563 25.4808" fill="#B1AEB3"/>
<path d="M36.9649 24.2547L36.6164 24.9851L37.3481 25.3323L37.6966 24.6023" fill="#71BA44"/>
<path d="M36.8932 27.21L37.2407 26.4797L37.9721 26.8277L37.6246 27.558L36.8932 27.21Z" fill="#27B8BE"/>
<path d="M42.9807 29.645L41.364 30.53L42.2511 32.1438L43.8678 31.2588" fill="#3088C8"/>
<path d="M41.5145 27.6422L40.2177 28.3524L40.9291 29.6467L42.2259 28.9366" fill="#27B8BE"/>
<path d="M40.4759 30.9441L39.1786 31.6542L39.8905 32.949L41.1873 32.2388" fill="#27B8BE"/>
<path d="M39.6422 29.1107L38.6325 29.6638L39.186 30.6715L40.1965 30.1188" fill="#29367B"/>
<path d="M38.2945 31.8762L37.2843 32.4293L37.8383 33.437L38.8484 32.8843" fill="#58B75E"/>
<path d="M38.6692 27.6482L37.6591 28.2009L38.213 29.2094L39.2236 28.6562" fill="#1E3871"/>
<path d="M37.91 30.0631L36.8999 30.6162L37.4539 31.6239L38.464 31.0712" fill="#D0DA33"/>
<path d="M37.3241 28.7389L36.6136 29.1279L37.0035 29.8368L37.7136 29.4482" fill="#B1AEB3"/>
<path d="M36.2431 30.7069L35.5325 31.096L35.922 31.8049L36.6325 31.4162" fill="#27B8BE"/>
<path d="M36.985 38.2178L37.2106 36.3908L39.0409 36.6169L38.8152 38.4439L36.985 38.2178Z" fill="#71BA44"/>
<path d="M37.3799 35.4279L37.5616 33.9624L39.0295 34.1444L38.8478 35.6098L37.3799 35.4279Z" fill="#1E3871"/>
<path d="M34.6012 37.4989L34.7828 36.0335L36.2511 36.2154L36.0695 37.6809L34.6012 37.4989Z" fill="#27B8BE"/>
<path d="M35.3662 35.245L35.5072 34.1039L36.6503 34.2453L36.5093 35.3863L35.3662 35.245Z" fill="#71BA44"/>
<path d="M32.6507 36.6996L32.7917 35.5585L33.9348 35.6999L33.7938 36.8409L32.6507 36.6996Z" fill="#B1AEB3"/>
<path d="M35.4332 33.4873L35.5746 32.3459L36.7181 32.4876L36.5767 33.629L35.4332 33.4873Z" fill="#B1AEB3"/>
<path d="M33.402 35.001L33.5434 33.86L34.6869 34.0017L34.5455 35.1427L33.402 35.001Z" fill="#71BA44"/>
<path d="M34.0852 33.2921L34.1845 32.4895L34.9884 32.589L34.8891 33.3916L34.0852 33.2921Z" fill="#B1AEB3"/>
<path d="M32.0527 34.2554L32.152 33.4527L32.9563 33.5522L32.857 34.3548L32.0527 34.2554Z" fill="#B1AEB3"/>
<path d="M31.7589 39.983L30.4074 38.7305L29.1529 40.0795L30.5044 41.3316" fill="#D0DA33"/>
<path d="M31.5099 14.2025L30.1584 12.95L28.9038 14.299L30.2553 15.5511" fill="#71BA44"/>
<path d="M33.2011 37.9623L32.1168 36.9575L31.1104 38.0397L32.1947 39.044" fill="#27B8BE"/>
<path d="M29.7341 38.0197L28.6494 37.015L27.643 38.0972L28.7273 39.1015" fill="#71BA44"/>
<path d="M31.214 36.6524L30.3696 35.8701L29.5862 36.7124L30.4301 37.4947" fill="#3088C8"/>
<path d="M28.1595 36.2476L27.3156 35.4653L26.5321 36.3076L27.3765 37.0903" fill="#D0DA33"/>
<path d="M32.2984 35.2695L31.454 34.4873L30.6706 35.3296L31.5145 36.1119" fill="#D0DA33"/>
<path d="M29.7623 35.3112L28.9179 34.5289L28.1345 35.3712L28.9784 36.1535" fill="#B1AEB3"/>
<path d="M30.8366 34.3392L30.2429 33.7886L29.6918 34.3815L30.2856 34.9317" fill="#1E3871"/>
<path d="M28.6244 33.936L28.0307 33.3857L27.4792 33.9782L28.073 34.5284" fill="#B1AEB3"/>
<path d="M21.712 37.0107L23.5202 36.6483L23.8819 38.4529L22.0737 38.8153L21.712 37.0107Z" fill="#3088C8"/>
<path d="M24.4955 36.4983L25.9458 36.2076L26.236 37.6555L24.7857 37.9461L24.4955 36.4983Z" fill="#27B8BE"/>
<path d="M21.6514 34.5201L23.1016 34.2292L23.392 35.677L21.9418 35.9679L21.6514 34.5201Z" fill="#71BA44"/>
<path d="M24.0374 34.5321L25.1667 34.3058L25.3927 35.4331L24.2633 35.6594L24.0374 34.5321Z" fill="#D0DA33"/>
<path d="M25.7268 34.0437L26.8561 33.8174L27.0822 34.9451L25.9528 35.1714L25.7268 34.0437Z" fill="#29367B"/>
<path d="M23.6456 32.5968L24.775 32.3705L25.0009 33.4978L23.8716 33.7241L23.6456 32.5968Z" fill="#3088C8"/>
<path d="M25.4888 32.7052L26.2835 32.5462L26.4422 33.3392L25.6475 33.4982L25.4888 32.7052Z" fill="#71BA44"/>
<path d="M23.9317 31.0854L24.7259 30.9261L24.885 31.7191L24.0908 31.8784L23.9317 31.0854Z" fill="#B1AEB3"/>
<path d="M18.3912 32.6134L19.1556 30.9387L17.4772 30.1755L16.7128 31.8502" fill="#27B8BE"/>
<path d="M20.7669 33.3422L21.3801 31.9986L20.034 31.3866L19.4204 32.7302" fill="#D0DA33"/>
<path d="M19.6188 30.0765L20.2324 28.7328L18.8859 28.1205L18.2727 29.4645" fill="#3088C8"/>
<path d="M20.3373 30.5719L20.8145 29.5254L21.8621 30.0032L21.3849 31.0497L20.3373 30.5719Z" fill="#27B8BE"/>
<path d="M22.7887 33.6633L23.2664 32.6171L22.2182 32.1406L21.7405 33.1868" fill="#B1AEB3"/>
<path d="M19.7615 27.5502L20.239 26.5038L21.2865 26.9817L20.809 28.0281L19.7615 27.5502Z" fill="#29367B"/>
<path d="M21.9959 31.1615L22.4733 30.1151L23.5208 30.5931L23.0434 31.6395L21.9959 31.1615Z" fill="#58B75E"/>
<path d="M21.155 28.7748L21.6328 27.7286L22.6802 28.2069L22.2024 29.2531L21.155 28.7748Z" fill="#D0DA33"/>
<path d="M23.4662 29.9604L23.8022 29.2245L23.0647 28.8889L22.7287 29.6252" fill="#1E3871"/>
<path d="M23.1522 27.7378L23.4883 27.0016L22.7508 26.6664L22.4147 27.4026" fill="#71BA44"/>
<path d="M17.3612 24.6703L18.9634 23.7588L18.0494 22.1599L16.4476 23.0714" fill="#27B8BE"/>
<path d="M18.861 26.6492L20.1462 25.9179L19.4129 24.6352L18.1281 25.3669" fill="#71BA44"/>
<path d="M19.8451 23.3306L21.1303 22.5993L20.3969 21.3162L19.1121 22.0479" fill="#1E3871"/>
<path d="M20.7091 25.1498L21.7092 24.5801L21.1387 23.5815L20.1381 24.1508" fill="#3088C8"/>
<path d="M22.0108 22.3625L23.011 21.7928L22.4405 20.7943L21.4399 21.3636" fill="#71BA44"/>
<path d="M21.7052 26.5963L22.7062 26.027L22.1356 25.0281L21.1346 25.5978" fill="#27B8BE"/>
<path d="M22.425 24.169L23.4256 23.5998L22.8551 22.6008L21.8545 23.1705" fill="#D0DA33"/>
<path d="M23.0329 25.4834L23.7369 25.0828L23.3354 24.3805L22.6315 24.7807" fill="#B1AEB3"/>
<path d="M24.0805 23.4974L24.7849 23.0967L24.3834 22.3945L23.6791 22.7951" fill="#71BA44"/>
<path d="M21.1839 17.6298L21.3795 15.7998L23.2128 15.9958L23.0172 17.8257L21.1839 17.6298Z" fill="#71BA44"/>
<path d="M21.2386 20.109L21.3956 18.6412L22.8668 18.7986L22.7097 20.2664L21.2386 20.109Z" fill="#B1AEB3"/>
<path d="M23.9817 17.9922L24.1388 16.524L25.61 16.6814L25.4528 18.1497L23.9817 17.9922Z" fill="#27B8BE"/>
<path d="M23.6173 19.9732L23.7397 18.83L24.885 18.9527L24.7625 20.0959L23.6173 19.9732Z" fill="#D0DA33"/>
<path d="M26.3048 18.469L26.4268 17.3257L27.5721 17.4479L27.4501 18.5912L26.3048 18.469Z" fill="#3088C8"/>
<path d="M23.5764 21.7278L23.6988 20.5846L24.8441 20.7073L24.7216 21.8505L23.5764 21.7278Z" fill="#27B8BE"/>
<path d="M25.5837 20.1788L25.7062 19.0356L26.8514 19.1582L26.729 20.3014L25.5837 20.1788Z" fill="#71BA44"/>
<path d="M25.3054 21.6L25.3915 20.7958L26.1973 20.882L26.1112 21.6862L25.3054 21.6Z" fill="#1E3871"/>
<path d="M27.3211 20.601L27.4067 19.7967L28.2129 19.8825L28.1274 20.6867L27.3211 20.601Z" fill="#B1AEB3"/>
<path d="M36.0218 28.2713C35.0564 27.7153 33.7132 27.5537 32.3215 28.0634C31.7133 28.2933 31.1042 28.6948 30.5905 29.088C30.2669 27.1262 30.4247 25.3052 30.5001 24.4107C30.5006 24.4057 30.5064 24.4032 30.5109 24.4061C31.2057 24.8432 31.011 26.0647 30.8652 26.4139C30.8623 26.421 30.8726 26.4255 30.8776 26.4197C31.7435 25.3972 31.3205 24.2682 31.1428 23.9823C31.1104 23.9305 31.3064 24.0875 31.4672 24.2934C32.0725 25.0641 31.7928 25.9296 31.8604 25.9093C31.862 25.9089 31.8641 25.9093 31.8649 25.9072C32.2672 25.1179 32.138 24.1169 31.3106 23.394C31.2729 23.362 31.4204 23.4101 31.4672 23.4267C32.1728 23.6715 32.5407 24.3983 32.5357 25.0463C32.5357 25.1888 33.0122 23.829 31.8604 23.1379C31.6449 23.009 31.4237 22.9382 31.2791 22.9208C31.1664 22.9088 31.896 22.799 32.4085 23.1462C32.7164 23.3538 32.7971 23.6048 32.7893 23.5344C32.6998 22.6241 31.6267 22.2645 30.9762 22.5375C30.9074 22.5719 31.2323 22.0905 31.8604 22.1278C31.9813 22.1348 32.0932 22.1609 32.1827 22.2036C32.1889 22.2065 32.1947 22.1982 32.1902 22.1928C31.7158 21.6505 30.9352 21.6393 30.5209 22.2666C30.518 22.2707 30.5117 22.2707 30.5093 22.2666C30.3522 21.9853 30.2209 21.6252 30.1641 21.2855C30.1505 21.1985 30.1215 21.706 29.8066 22.2666C29.8041 22.2707 29.7983 22.2707 29.7954 22.2666C29.3798 21.6376 28.6001 21.6501 28.1261 22.1928C28.1211 22.1982 28.1269 22.2065 28.1335 22.2036C28.4501 22.0532 29.0479 22.0975 29.3475 22.5272C29.3512 22.533 29.3458 22.5404 29.3392 22.5375C28.6688 22.2558 27.6156 22.6382 27.5266 23.5344C27.5261 23.5419 27.5361 23.546 27.5398 23.5394C27.5697 23.4834 27.6434 23.3641 27.7814 23.2431C28.3175 22.7708 29.1606 22.9075 29.0368 22.9208C28.7074 22.9614 28.0312 23.2547 27.7814 23.9251C27.5771 24.4728 27.7739 25.1942 27.7814 25.0156C27.788 24.4061 28.1373 23.5899 28.9995 23.3819C29.0061 23.3803 29.0111 23.3894 29.0057 23.394C27.6658 24.5719 28.4762 26.0183 28.4638 25.9039C28.4223 25.437 28.3879 24.6034 29.1623 23.974C29.1681 23.9694 29.1772 23.9757 29.1731 23.9823C28.9953 24.2682 28.5727 25.3972 29.4382 26.4197C29.4432 26.4255 29.4536 26.421 29.4507 26.4139C29.3052 26.0647 29.1105 24.8432 29.8049 24.4061C29.8095 24.4032 29.8153 24.4057 29.8157 24.4107C29.8915 25.3052 30.0494 27.1262 29.7254 29.088C28.6249 28.2469 27.5415 27.6954 26.146 27.7568C25.4442 27.7874 24.7784 27.9917 24.294 28.2713C24.2766 28.2813 24.2895 28.3066 24.3081 28.3008C26.3379 27.6519 28.0946 28.4391 29.7279 29.7981C28.9029 30.517 28.1543 31.2694 27.7192 31.4964C27.6177 31.3576 27.4416 31.2777 27.249 31.3195C26.886 31.3995 26.7994 31.854 26.9962 32.0495C27.7093 32.7609 28.8242 31.3493 30.1579 30.1694C31.4415 31.3038 32.6078 32.7605 33.3196 32.0495C33.3764 31.9928 33.4422 31.8055 33.4083 31.6568C33.3225 31.2855 32.8291 31.1782 32.5966 31.4964C32.1782 31.2855 31.4436 30.5431 30.588 29.7981C32.2328 28.4271 33.9705 27.6619 36.0073 28.3008C36.0264 28.3066 36.0392 28.2813 36.0218 28.2713Z" fill="white"/>
<path d="M29.5269 47.6917H30.056V42.9535H29.5269V47.6917ZM15.6633 47.1634L14.8367 45.137C15.6919 44.4131 16.753 44.5461 17.4358 45.137L16.6092 47.1634H15.6633ZM12.7465 47.1634C12.3305 47.151 12.038 47.2028 11.6518 47.0814C10.222 46.6298 10.6106 44.6419 12.2108 44.6419H12.7465V47.1634ZM27.4565 47.1634C26.6043 47.1373 25.8365 47.3138 25.4458 46.6356C25.5229 46.2967 25.4806 45.9925 25.4922 44.4372H24.9632V46.2262C24.9632 47.5392 23.3788 47.4539 23.0051 46.6654C22.8551 46.3484 22.9467 46.2159 22.9193 44.4372H22.3898V46.266C22.3898 46.8626 22.0165 47.1634 21.4969 47.1634H20.4719V44.4372H19.9428V47.1634H17.1648L18.0908 44.9522C17.5654 44.4931 16.8342 44.061 16.1331 44.061C15.4209 44.061 14.7037 44.4745 14.1751 44.9522L15.1077 47.1634H13.2756V44.1074H12.4291C11.2325 44.1074 10.2394 44.7952 10.2394 45.9225C10.2394 47.9291 12.7009 47.6817 12.7465 47.6917C12.7382 47.7567 12.8123 48.21 12.5082 48.4379C12.224 48.6508 11.7165 48.6446 11.4003 48.57C11.2702 48.539 11.1215 48.4863 10.9541 48.4114L10.7888 48.9197C11.1244 49.0432 11.4447 49.1443 11.8006 49.1443C12.809 49.1443 13.2756 48.6413 13.2756 47.7907V47.6917C21.9109 47.6374 21.6556 47.816 22.1818 47.5268C22.3823 47.417 22.5443 47.2695 22.6678 47.0843C22.7958 47.2956 22.9699 47.4609 23.1903 47.5798C23.6531 47.828 24.3591 47.8048 24.7879 47.5927C25.0104 47.4829 25.1815 47.3134 25.3004 47.0843C25.5047 47.4331 25.8216 47.6573 26.458 47.6855V47.6917H27.9856V42.9535H27.4565V47.1634ZM74.9337 46.9293C74.4655 48.0235 72.8538 48.055 72.3872 46.9127C72.2501 46.5776 72.2501 46.1802 72.3872 45.8401C72.952 44.4405 75.043 44.8424 75.043 46.3783C75.043 46.5759 75.0066 46.7599 74.9337 46.9293ZM69.801 46.9293C69.3963 47.8698 68.1765 48.009 67.5388 47.3519C67.0156 46.8108 67.0309 45.9296 67.536 45.398C67.9474 44.9609 68.5817 44.8904 69.0669 45.0906C69.8317 45.4096 70.0865 46.266 69.801 46.9293ZM56.933 47.1634C56.5283 47.151 56.2349 47.204 55.8512 47.0781C54.4579 46.6202 54.7902 44.6352 56.4102 44.6352H56.933V47.1634ZM77.2253 47.1634H75.4068C75.9744 45.9176 75.0928 44.4571 73.6406 44.4571C72.3031 44.4571 71.3676 45.8276 71.9141 47.1634H70.2738C70.8269 45.954 69.9887 44.4571 68.5079 44.4571C67.1697 44.4571 66.235 45.8281 66.7815 47.1634H65.1014V42.9535H64.5723V47.1634H62.886C62.857 46.6211 63.0091 45.8185 62.555 45.3118C62.2471 44.9646 61.9045 44.8565 61.4371 44.8565H59.0958L60.0918 42.9535H59.5163L58.5004 44.8498C58.5332 45.0603 58.597 45.2248 58.7387 45.3843C61.3849 45.4067 61.5577 45.3288 61.8705 45.4606C62.1158 45.5621 62.2654 45.7473 62.3172 45.9722C62.3801 46.2432 62.3482 46.4471 62.3569 47.1634H57.4621V44.1074H56.6285C55.2265 44.1074 54.4459 44.9414 54.4459 45.9026C54.4459 47.1071 55.4146 47.6917 56.6285 47.6917H67.1254C67.9039 48.5303 69.2144 48.459 69.9299 47.6917H72.258C73.034 48.5278 74.3433 48.4619 75.0629 47.6917H77.7548V42.9535H77.2253V47.1634ZM79.2956 47.6917H79.8247V42.9535H79.2956V47.6917ZM40.3088 48.8543H40.8524V48.3119H40.3088V48.8543ZM45.482 47.1634L44.655 45.137C45.5036 44.4185 46.563 44.5399 47.2545 45.137L46.4279 47.1634H45.482ZM49.232 47.1634H46.9835L47.9091 44.9522C47.3825 44.4906 46.6488 44.061 45.9515 44.061C45.2367 44.061 44.5216 44.4765 43.9934 44.9522L44.926 47.1634H42.9555V44.1074H42.426V47.804C42.426 48.2709 42.392 48.616 41.9234 48.616C41.8144 48.616 41.7569 48.6065 41.6524 48.5763L41.5137 49.085C41.9557 49.206 42.4778 49.1654 42.7371 48.7842C42.9716 48.4391 42.9439 47.9626 42.9555 47.6917H49.7616V42.9535H49.232V47.1634ZM9.06232 44.5693C8.47398 43.9271 7.79284 44.16 7.56082 44.1074V44.6352C7.94697 44.6501 8.12554 44.5925 8.38739 44.7177C8.60781 44.8237 8.7636 44.9949 8.8274 45.236C8.89908 45.5132 8.85889 45.7294 8.87049 47.1634H6.38995V47.6917H9.39958C9.37762 45.6905 9.45427 45.4784 9.31672 45.0313C9.26161 44.8511 9.17667 44.697 9.06232 44.5693ZM38.3743 48.8605H38.9179V48.3181H38.3743V48.8605ZM35.1571 47.1634C34.7532 47.151 34.4594 47.204 34.0753 47.0781C32.6803 46.6198 33.0163 44.6352 34.6343 44.6352H35.1571V47.1634ZM40.8454 44.1074H40.3163V47.1634H38.3188V44.1074H37.7897V47.1634H35.6862V44.1074C35.0208 44.1281 34.0281 43.9727 33.2653 44.6187C32.184 45.5347 32.4628 47.6917 34.853 47.6917H40.8454V44.1074ZM37.4475 48.8605H37.9911V48.3181H37.4475V48.8605ZM2.08722 42.9535H1.54363V43.4958H2.08722V42.9535ZM56.5328 42.9535H55.9892V43.4958H56.5328V42.9535ZM35.6837 42.9535H35.1401V43.4958H35.6837V42.9535ZM5.20872 48.8605H5.75231V48.3181H5.20872V48.8605ZM34.7569 42.9535H34.2133V43.4958H34.7569V42.9535ZM3.01405 42.9535H2.47046V43.4958H3.01405V42.9535ZM4.28188 48.8605H4.82547V48.3181H4.28188V48.8605ZM2.48745 47.1634C2.08432 47.151 1.7889 47.204 1.40607 47.0781C0.0135363 46.6215 0.342508 44.6352 1.96499 44.6352H2.48745V47.1634ZM5.64914 44.1074H5.12005V47.1634H3.01654V44.1074C2.38221 44.1269 1.87798 44.044 1.28343 44.2424C0.785003 44.4098 0.377725 44.7177 0.155649 45.19C-0.0755429 45.6814 -0.0336963 46.307 0.179265 46.7081C0.562513 47.4315 1.36422 47.6917 2.18292 47.6917H5.64914V44.1074ZM51.3024 47.6917H51.8315V42.9535H51.3024V47.6917ZM57.4592 42.9535H56.9156V43.4958H57.4592V42.9535Z" fill="white"/>
<path d="M0.518707 51.1619H1.18286V53.0586L2.98061 51.1619H3.79599L2.22488 52.7839L3.86601 54.9338H3.06181L1.77162 53.2364L1.18286 53.84V54.9338H0.518707" fill="white"/>
<path d="M4.4718 51.1619H5.13596V54.9338H4.4718V51.1619Z" fill="white"/>
<path d="M6.15836 51.1619H6.77404L8.79883 53.77V51.1619H9.4518V54.9338H8.89578L6.81174 52.2503V54.9338H6.15836" fill="white"/>
<path d="M10.2742 53.0591V53.0483C10.2742 51.9922 11.0842 51.0973 12.2232 51.0973C12.8819 51.0973 13.2871 51.2808 13.6758 51.6094L13.2548 52.1107C12.2315 51.2415 10.9711 51.8675 10.9711 53.0376V53.0483C10.9711 53.8244 11.4836 54.3953 12.2555 54.3953C12.6122 54.3953 12.9362 54.2822 13.1682 54.1098V53.4038H12.2016V52.8275H13.8109V54.4114C12.4593 55.5662 10.2742 54.9729 10.2742 53.0591Z" fill="white"/>
<path d="M16.1375 54.3302C17.9 54.3302 17.8789 51.7651 16.1375 51.7651H15.3925V54.3302H16.1375ZM14.7284 51.1619H16.1375C18.8339 51.1619 18.7974 54.9338 16.1375 54.9338H14.7284V51.1619Z" fill="white"/>
<path d="M22.0236 53.0591V53.0483C22.0236 52.3154 21.4891 51.7068 20.7384 51.7068C19.988 51.7068 19.4643 52.3046 19.4643 53.0376V53.0483C19.4643 53.7813 19.9988 54.3903 20.7492 54.3903C21.4999 54.3903 22.0236 53.792 22.0236 53.0591ZM18.7679 53.0591V53.0483C18.7679 51.9868 19.5886 51.0973 20.7492 51.0973C21.9101 51.0973 22.7201 51.9761 22.7201 53.0376V53.0483C22.7201 54.1098 21.8997 54.999 20.7384 54.999C19.5779 54.999 18.7679 54.1206 18.7679 53.0591Z" fill="white"/>
<path d="M23.5448 51.1619H24.252L25.4022 52.9455L26.5519 51.1619H27.2592V54.9338H26.595V52.2287L25.4022 54.007H25.3806L24.1982 52.2395V54.9338H23.5448" fill="white"/>
<path d="M32.9415 53.0591V53.0483C32.9415 52.3154 32.407 51.7068 31.6562 51.7068C30.9059 51.7068 30.3822 52.3046 30.3822 53.0376V53.0483C30.3822 53.7813 30.9167 54.3903 31.667 54.3903C32.4178 54.3903 32.9415 53.792 32.9415 53.0591ZM29.6857 53.0591V53.0483C29.6857 51.9868 30.5065 51.0973 31.667 51.0973C32.8279 51.0973 33.6379 51.9761 33.6379 53.0376V53.0483C33.6379 54.1098 32.8172 54.999 31.6562 54.999C30.4957 54.999 29.6857 54.1206 29.6857 53.0591Z" fill="white"/>
<path d="M34.463 51.1619H37.2759V51.7655H35.1272V52.7947H37.0331V53.398H35.1272V54.9338H34.463" fill="white"/>
<path d="M39.3721 54.3846L39.7715 53.9102C40.1332 54.2231 40.4949 54.4008 40.9648 54.4008C41.3749 54.4008 41.6343 54.2123 41.6343 53.9264V53.916C41.6343 53.0733 39.5229 53.6484 39.5229 52.2128V52.202C39.5229 51.0444 41.1433 50.749 42.1849 51.5826L41.8286 52.0835C40.9594 51.4367 40.1875 51.6911 40.1875 52.1432V52.1539C40.1875 52.9846 42.2985 52.4593 42.2985 53.851V53.8618C42.2985 55.1843 40.4232 55.3206 39.3721 54.3846Z" fill="white"/>
<path d="M45.284 53.4362L44.6306 51.9272L43.9826 53.4362H45.284ZM44.3336 51.135H44.9488L46.6119 54.9339H45.9101L45.5268 54.0232H43.7394L43.3512 54.9339H42.6705L44.3336 51.135Z" fill="white"/>
<path d="M47.0025 53.3337V51.1619H47.6667V53.3068C47.6667 54.0074 48.0284 54.3845 48.6221 54.3845C49.2109 54.3845 49.5726 54.029 49.5726 53.3337V51.1619H50.2367V53.3014C50.2367 54.4275 49.5995 54.9935 48.6113 54.9935C47.6286 54.9935 47.0025 54.4275 47.0025 53.3337Z" fill="white"/>
<path d="M52.618 54.3302C54.3805 54.3302 54.3598 51.7651 52.618 51.7651H51.8731V54.3302H52.618ZM51.2089 51.1619H52.618C55.3144 51.1619 55.278 54.9338 52.618 54.9338H51.2089V51.1619Z" fill="white"/>
<path d="M55.4675 51.1619H56.1316V54.9338H55.4675V51.1619Z" fill="white"/>
<path d="M61.0515 53.4362L60.3981 51.9272L59.7501 53.4362H61.0515ZM60.1011 51.135H60.7163L62.3794 54.9339H61.6776L61.2943 54.0232H59.5069L59.1187 54.9339H58.438L60.1011 51.135Z" fill="white"/>
<path d="M64.6428 53.0317C65.118 53.0317 65.4205 52.7839 65.4205 52.4011V52.3903C65.4205 51.9864 65.1288 51.7651 64.6374 51.7651H63.6712V53.0317H64.6428ZM63.007 51.1619H64.6912C65.4901 51.1619 66.0954 51.5633 66.0954 52.3526C66.0801 52.3941 66.1741 53.226 65.1934 53.5061L66.2139 54.9338H65.4308L64.5023 53.6188C64.4298 53.6188 63.6285 53.6188 63.6712 53.6188V54.9338H63.007V51.1619Z" fill="white"/>
<path d="M69.3159 53.4362L68.6625 51.9272L68.0146 53.4362H69.3159ZM68.3655 51.135H68.9812L70.6438 54.9339H69.942L69.5587 54.0232H67.7713L67.3831 54.9339H66.7024L68.3655 51.135Z" fill="white"/>
<path d="M73.0257 54.3468C73.4794 54.3468 73.7545 54.1686 73.7545 53.8293V53.8185C73.7545 53.5007 73.5009 53.3118 72.9772 53.3118H71.9244V54.3468H73.0257ZM72.8314 52.7516C73.2577 52.7516 73.544 52.5846 73.544 52.2395V52.2287C73.544 51.9325 73.3066 51.7494 72.8799 51.7494H71.9244V52.7516H72.8314ZM71.2711 51.1619H72.9665C73.631 51.1619 74.2082 51.4726 74.2082 52.121C74.1928 52.1625 74.2761 52.6572 73.6683 52.9724C74.1112 53.1233 74.4187 53.3768 74.4187 53.8885V53.8993C74.4187 54.573 73.8626 54.9338 73.0203 54.9338H71.2711V51.1619Z" fill="white"/>
<path d="M75.2411 51.1619H75.9052V54.9338H75.2411V51.1619Z" fill="white"/>
<path d="M79.1528 53.4362L78.4994 51.9272L77.8514 53.4362H79.1528ZM78.2023 51.135H78.8176L80.4807 54.9339H79.7788L79.3955 54.0232H77.6082L77.2199 54.9339H76.5392L78.2023 51.135Z" fill="white"/>
</svg>
