<svg width="40" height="40" viewBox="0 0 40 40" fill="none" xmlns="http://www.w3.org/2000/svg">
<g clip-path="url(#clip0_59_1919)">
<path d="M34.2 5.74833C30.4 2.075 25.4 0 20.075 0C4.79167 0 -4.805 16.5583 2.82667 29.73L0 40L10.5583 37.2467C15.1583 39.7317 18.9267 39.5117 20.085 39.6583C37.8067 39.6583 46.6283 18.2183 34.175 5.81333L34.2 5.74833Z" fill="#ECEFF1"/>
<path d="M20.1117 36.2517L20.1017 36.25H20.0751C14.7717 36.25 11.3834 33.7383 11.05 33.5933L4.80005 35.2183L6.47505 29.1433L6.07672 28.5183C4.42672 25.8917 3.55005 22.8667 3.55005 19.7517C3.55005 5.09665 21.4584 -2.23168 31.8217 8.12665C42.1601 18.3767 34.9017 36.2517 20.1117 36.2517Z" fill="#4CAF50"/>
<path d="M29.1783 23.845L29.1633 23.97C28.6616 23.72 26.2183 22.525 25.7633 22.36C24.7417 21.9817 25.03 22.3 23.0683 24.5467C22.7767 24.8717 22.4867 24.8967 21.9917 24.6717C21.4917 24.4217 19.8867 23.8967 17.9867 22.1967C16.5067 20.8717 15.5133 19.2467 15.22 18.7467C14.7317 17.9033 15.7533 17.7833 16.6833 16.0233C16.85 15.6733 16.765 15.3983 16.6417 15.15C16.5167 14.9 15.5217 12.45 15.105 11.4733C14.705 10.5 14.2933 10.6233 13.985 10.6233C13.025 10.54 12.3233 10.5533 11.705 11.1967C9.01498 14.1533 9.69332 17.2033 11.995 20.4467C16.5183 26.3667 18.9283 27.4567 23.335 28.97C24.525 29.3483 25.61 29.295 26.4683 29.1717C27.425 29.02 29.4133 27.97 29.8283 26.795C30.2533 25.62 30.2533 24.645 30.1283 24.42C30.005 24.195 29.6783 24.07 29.1783 23.845Z" fill="#FAFAFA"/>
</g>
<defs>
<clipPath id="clip0_59_1919">
<rect width="40" height="40" fill="white"/>
</clipPath>
</defs>
</svg>
