<svg width="88" height="88" viewBox="0 0 88 88" fill="none" xmlns="http://www.w3.org/2000/svg">
<path d="M27.4701 1.37744V3.97018H85.4071V49.5911H2.59273V3.97018H23.3368V1.37744H0V67.3367H28.9283V74.3056H31.5212V67.3367H56.4792V78.5192H24.7955V84.0296H21.9594V86.6223H66.0406V84.0296H63.2045V78.5192H59.0717V67.3367H71.551V64.7438H2.59273V52.1837H85.4071V64.7438H75.6827V67.3367H88V1.37744H27.4701ZM60.6115 81.1121V84.0296H27.3885V81.1121H60.6115Z" fill="#322040"/>
<path d="M41.1639 46.6738V26.0109H45.2964V9.02462L43.1595 6.8877H9.02462L6.8877 9.02462V26.0109H11.0203V46.6738H41.1639ZM31.6832 44.0811H20.5007V34.2761H31.6832V44.0811ZM38.5711 44.0811H34.2761V31.6832H17.908V44.0811H13.6132V26.0109H38.5711V44.0811ZM9.4806 23.4181V10.0985L10.0987 9.48043H15.153V15.0717H17.7457V9.4806H24.7957V15.0719H27.3886V9.4806H34.4384V15.0719H37.0311V9.4806H42.0855L42.7035 10.0987V23.4181H9.4806Z" fill="#322040"/>
<path d="M41.2448 17.9077H10.94V20.5004H41.2448V17.9077Z" fill="#322040"/>
<path d="M28.8475 38.5708H26.0923V41.1637H28.8475V38.5708Z" fill="#322040"/>
<path d="M49.5912 20.5008H81.1123V11.0205H49.5912V20.5008ZM52.184 13.6132H78.5194V17.9081H52.184V13.6132Z" fill="#322040"/>
<path d="M81.1929 23.4185H78.4379V26.0112H81.1929V23.4185Z" fill="#322040"/>
<path d="M75.6824 23.4185H72.9272V26.0112H75.6824V23.4185Z" fill="#322040"/>
<path d="M81.1931 28.9287H49.5107V31.5216H81.1931V28.9287Z" fill="#322040"/>
<path d="M81.1931 34.438H49.5107V37.0307H81.1931V34.438Z" fill="#322040"/>
<path d="M66.0408 39.9482H49.5107V42.541H66.0408V39.9482Z" fill="#322040"/>
</svg>
