<svg width="88" height="88" viewBox="0 0 88 88" fill="none" xmlns="http://www.w3.org/2000/svg">
<path d="M77.4673 2.80127H10.5327C9.19841 2.80273 7.91917 3.33343 6.97567 4.27693C6.03216 5.22044 5.50146 6.49968 5.5 7.83399V58.8386C5.49953 60.1748 6.02913 61.4567 6.97263 62.403C7.91613 63.3492 9.19646 63.8826 10.5327 63.886H38.9072L36.6603 76.1368H32.3662C31.4571 76.1378 30.5855 76.4994 29.9426 77.1422C29.2997 77.785 28.938 78.6565 28.9368 79.5656V83.8242C28.9367 84.0048 28.9723 84.1836 29.0413 84.3505C29.1104 84.5173 29.2117 84.6689 29.3394 84.7966C29.4671 84.9243 29.6187 85.0256 29.7855 85.0947C29.9524 85.1637 30.1312 85.1993 30.3118 85.1992H57.6922C57.8728 85.1993 58.0517 85.1637 58.2185 85.0947C58.3853 85.0256 58.5369 84.9243 58.6646 84.7966C58.7923 84.6689 58.8936 84.5173 58.9627 84.3505C59.0318 84.1836 59.0673 84.0048 59.0672 83.8242V79.5656C59.0661 78.6565 58.7044 77.785 58.0614 77.1422C57.4185 76.4994 56.5469 76.1378 55.6378 76.1368H52.9067L50.6587 63.886H76.7006C78.2382 63.8841 79.7123 63.2724 80.7995 62.1851C81.8867 61.0978 82.4983 59.6236 82.5 58.0859V7.83399C82.4985 6.49968 81.9678 5.22044 81.0243 4.27693C80.0808 3.33343 78.8016 2.80273 77.4673 2.80127ZM10.5327 5.55127H77.4673C78.0725 5.55202 78.6527 5.79275 79.0806 6.22069C79.5085 6.64862 79.7493 7.2288 79.75 7.83399V47.9205H8.25V7.83399C8.25075 7.2288 8.49149 6.64862 8.91942 6.22069C9.34735 5.79275 9.92753 5.55202 10.5327 5.55127ZM56.3172 79.5656V82.4492H31.6868V79.5656C31.6871 79.3856 31.7588 79.213 31.8862 79.0858C32.0136 78.9586 32.1862 78.887 32.3662 78.8868H55.6378C55.8179 78.887 55.9905 78.9586 56.1178 79.0858C56.2452 79.213 56.3169 79.3856 56.3172 79.5656ZM50.1111 76.1368H39.4556L41.7024 63.886H47.8632L50.1111 76.1368ZM76.7006 61.136H10.5327C9.92559 61.1333 9.34431 60.8899 8.91639 60.4592C8.48846 60.0285 8.24881 59.4457 8.25 58.8386V50.6705H79.75V58.0859C79.7491 58.8945 79.4276 59.6697 78.8559 60.2415C78.2842 60.8133 77.5091 61.135 76.7006 61.136Z" fill="#322040"/>
<path d="M48.2284 53.8052H39.7757C39.4156 53.8122 39.0727 53.9602 38.8206 54.2173C38.5685 54.4744 38.4272 54.8201 38.4272 55.1802C38.4273 55.5403 38.5685 55.8861 38.8207 56.1431C39.0728 56.4002 39.4157 56.5482 39.7757 56.5552H48.2284C48.5885 56.5482 48.9314 56.4002 49.1835 56.1431C49.4356 55.886 49.5769 55.5403 49.5769 55.1802C49.5769 54.8201 49.4356 54.4743 49.1835 54.2172C48.9314 53.9601 48.5885 53.8122 48.2284 53.8052Z" fill="#322040"/>
<path d="M51.2725 14.8325H65.236C65.596 14.8255 65.9389 14.6775 66.191 14.4204C66.4432 14.1633 66.5844 13.8176 66.5844 13.4575C66.5844 13.0974 66.4431 12.7516 66.191 12.4946C65.9388 12.2375 65.5959 12.0895 65.2359 12.0825H51.2725C50.9124 12.0895 50.5695 12.2375 50.3174 12.4946C50.0653 12.7517 49.924 13.0974 49.924 13.4575C49.924 13.8176 50.0653 14.1634 50.3174 14.4205C50.5695 14.6776 50.9124 14.8255 51.2725 14.8325Z" fill="#322040"/>
<path d="M49.3134 23.5278H67.1951C67.5597 23.5278 67.9095 23.383 68.1673 23.1251C68.4252 22.8672 68.5701 22.5175 68.5701 22.1528C68.5701 21.7882 68.4252 21.4384 68.1673 21.1806C67.9095 20.9227 67.5597 20.7778 67.1951 20.7778H49.3134C48.9533 20.7849 48.6104 20.9328 48.3583 21.1899C48.1061 21.447 47.9649 21.7927 47.9649 22.1528C47.9649 22.5129 48.1061 22.8587 48.3583 23.1158C48.6104 23.3729 48.9533 23.5208 49.3134 23.5278Z" fill="#322040"/>
<path d="M36.5396 31.625H18.6592C18.2992 31.632 17.9563 31.78 17.7041 32.0371C17.452 32.2942 17.3108 32.6399 17.3108 33C17.3108 33.3601 17.4521 33.7059 17.7042 33.963C17.9563 34.2201 18.2993 34.368 18.6593 34.375H36.5396C36.8996 34.368 37.2425 34.22 37.4947 33.9629C37.7468 33.7058 37.888 33.3601 37.888 33C37.888 32.6399 37.7468 32.2942 37.4947 32.0371C37.2425 31.78 36.8996 31.632 36.5396 31.625Z" fill="#322040"/>
<path d="M34.4825 39.5972H20.5176C20.1576 39.6042 19.8147 39.7522 19.5625 40.0093C19.3104 40.2664 19.1692 40.6121 19.1692 40.9722C19.1692 41.3323 19.3104 41.678 19.5626 41.9351C19.8147 42.1922 20.1577 42.3402 20.5177 42.3472H34.4825C34.8425 42.3401 35.1854 42.1922 35.4375 41.9351C35.6897 41.678 35.8309 41.3323 35.8309 40.9722C35.8309 40.6121 35.6897 40.2663 35.4375 40.0092C35.1854 39.7521 34.8425 39.6042 34.4825 39.5972Z" fill="#322040"/>
<path d="M60.4597 28.6025C60.2791 28.6025 60.1003 28.638 59.9335 28.7071C59.7666 28.7762 59.615 28.8775 59.4873 29.0052C59.3597 29.1329 59.2584 29.2845 59.1893 29.4513C59.1202 29.6181 59.0847 29.797 59.0847 29.9775V38.8002C59.076 39.5999 58.7523 40.3639 58.1837 40.9263C57.6152 41.4887 56.8477 41.8041 56.048 41.8041C55.2483 41.8041 54.4808 41.4886 53.9123 40.9262C53.3438 40.3638 53.02 39.5998 53.0114 38.8001V29.9775C53.0043 29.6175 52.8564 29.2746 52.5993 29.0225C52.3422 28.7703 51.9964 28.6291 51.6363 28.6291C51.2762 28.6291 50.9305 28.7704 50.6734 29.0225C50.4163 29.2747 50.2684 29.6176 50.2614 29.9776V38.8002C50.2751 40.3259 50.8908 41.7845 51.9745 42.8585C53.0583 43.9325 54.5223 44.5351 56.0481 44.5351C57.5739 44.5351 59.0379 43.9325 60.1216 42.8584C61.2053 41.7844 61.821 40.3258 61.8347 38.8001V29.9775C61.8348 29.797 61.7992 29.6181 61.7302 29.4513C61.6611 29.2844 61.5598 29.1328 61.4321 29.0052C61.3044 28.8775 61.1528 28.7762 60.986 28.7071C60.8191 28.638 60.6403 28.6025 60.4597 28.6025Z" fill="#322040"/>
<path d="M64.8721 28.6025C64.6915 28.6025 64.5127 28.638 64.3458 28.7071C64.179 28.7762 64.0274 28.8775 63.8997 29.0052C63.772 29.1328 63.6707 29.2844 63.6016 29.4513C63.5326 29.6181 63.497 29.797 63.4971 29.9775V43.2119C63.4971 43.5766 63.6419 43.9263 63.8998 44.1842C64.1577 44.442 64.5074 44.5869 64.8721 44.5869C65.2367 44.5869 65.5865 44.442 65.8443 44.1842C66.1022 43.9263 66.2471 43.5766 66.2471 43.2119V29.9775C66.2471 29.797 66.2116 29.6181 66.1425 29.4513C66.0734 29.2845 65.9721 29.1329 65.8444 29.0052C65.7168 28.8775 65.5652 28.7762 65.3983 28.7071C65.2315 28.638 65.0527 28.6025 64.8721 28.6025Z" fill="#322040"/>
<path d="M22.2766 23.7538C23.6485 23.7521 24.9637 23.2063 25.9336 22.2361C26.9036 21.266 27.449 19.9506 27.4503 18.5787V10.98C27.4503 10.6153 27.3055 10.2656 27.0476 10.0077C26.7897 9.74985 26.44 9.60498 26.0753 9.60498C25.7107 9.60498 25.3609 9.74985 25.1031 10.0077C24.8452 10.2656 24.7003 10.6153 24.7003 10.98V18.5787C24.7003 19.2217 24.4449 19.8384 23.9902 20.293C23.5356 20.7477 22.9189 21.0031 22.2759 21.0031C21.633 21.0031 21.0163 20.7477 20.5616 20.293C20.107 19.8384 19.8516 19.2217 19.8516 18.5787V10.98C19.8516 10.6153 19.7067 10.2656 19.4488 10.0077C19.191 9.74985 18.8412 9.60498 18.4766 9.60498C18.1119 9.60498 17.7622 9.74985 17.5043 10.0077C17.2464 10.2656 17.1016 10.6153 17.1016 10.98V18.5787C17.1032 19.9508 17.6489 21.2661 18.6191 22.2363C19.5892 23.2064 20.9046 23.7522 22.2766 23.7538Z" fill="#322040"/>
<path d="M31.3006 16.8075L28.5044 21.1531C28.3148 21.4596 28.2531 21.8283 28.3326 22.1799C28.4122 22.5314 28.6266 22.8377 28.9297 23.0327C29.2329 23.2278 29.6004 23.296 29.9534 23.2227C30.3063 23.1494 30.6163 22.9404 30.8167 22.6408L32.9355 19.3479L35.2195 22.8967C35.42 23.1962 35.73 23.405 36.0828 23.4782C36.4357 23.5514 36.8032 23.4832 37.1062 23.2882C37.4093 23.0932 37.6237 22.787 37.7032 22.4355C37.7828 22.084 37.7212 21.7153 37.5317 21.4088L34.5703 16.8074L37.6957 11.9504C37.8853 11.6439 37.9469 11.2751 37.8674 10.9236C37.7878 10.572 37.5734 10.2658 37.2703 10.0707C36.9672 9.87569 36.5996 9.80749 36.2467 9.88079C35.8938 9.95409 35.5837 10.163 35.3834 10.4626L32.9353 14.267L30.6515 10.7184C30.451 10.4188 30.141 10.21 29.7882 10.1368C29.4353 10.0635 29.0678 10.1318 28.7647 10.3268C28.4616 10.5218 28.2472 10.828 28.1677 11.1795C28.0881 11.531 28.1497 11.8997 28.3393 12.2062L31.3006 16.8075Z" fill="#322040"/>
</svg>
