<svg width="88" height="88" viewBox="0 0 88 88" fill="none" xmlns="http://www.w3.org/2000/svg">
<g clip-path="url(#clip0_59_2754)">
<path d="M46.1313 34.8219C46.1313 30.9891 44.6016 27.5344 42.1094 24.9906C42.075 24.9562 42.0406 24.9047 42.0063 24.8703C39.7031 22.5672 36.7469 21.1578 33.5672 20.8312C33.5328 20.8312 33.5156 20.8312 33.4813 20.8141C33.2922 20.7969 33.1031 20.7797 32.8969 20.7625C32.8453 20.7625 32.8109 20.7625 32.7594 20.7453C32.5188 20.7281 32.2781 20.7281 32.0375 20.7281C31.7969 20.7281 31.5563 20.7281 31.3156 20.7453C31.2813 20.7453 31.2469 20.7453 31.2125 20.7453C31.0063 20.7625 30.8 20.7797 30.6109 20.7969C30.5938 20.7969 30.5938 20.7969 30.5766 20.7969C27.3625 21.1234 24.3891 22.5328 22.0859 24.8531C22.0516 24.8875 22.0172 24.9219 21.9828 24.9734C19.5078 27.5172 17.9609 30.9891 17.9609 34.8047C17.9609 38.5859 19.4563 42.0234 21.8969 44.5672C21.9313 44.6187 21.9656 44.6531 22 44.7047C24.4922 47.2313 27.7406 48.6922 31.2469 48.8812H31.3156C31.5563 48.8984 31.7969 48.8984 32.0375 48.8984C32.2781 48.8984 32.5188 48.8984 32.7594 48.8812H32.8109C36.3172 48.6922 39.5828 47.2313 42.075 44.7047C42.1094 44.6703 42.1438 44.6359 42.1781 44.6016C44.6188 42.0578 46.1313 38.6203 46.1313 34.8219ZM20.4359 36.025H23.4781C23.5641 37.8469 23.8734 39.5656 24.3375 41.1125C23.8563 41.4219 23.4094 41.7656 22.9625 42.1437C21.5875 40.425 20.6766 38.3281 20.4359 36.025ZM23.0313 27.4313C23.4609 27.7922 23.9078 28.1187 24.3719 28.4281C23.8906 30.0094 23.5813 31.7625 23.4953 33.6188H20.4531C20.6766 31.2813 21.6047 29.15 23.0313 27.4313ZM43.6563 33.6188H40.6141C40.5281 31.7453 40.2188 29.9922 39.7375 28.4281C40.2016 28.1187 40.6484 27.7922 41.0781 27.4313C42.4875 29.15 43.4156 31.2813 43.6563 33.6188ZM33.2578 46.2172V41.2844C34.4953 41.4047 35.6813 41.7313 36.7813 42.2125C35.8875 44.2234 34.65 45.6844 33.2578 46.2172ZM27.3109 42.2297C28.4281 41.7313 29.6141 41.4219 30.8344 41.3016V46.2344C29.4594 45.6844 28.2047 44.2234 27.3109 42.2297ZM30.8516 23.4266V28.2391C29.6313 28.1187 28.4625 27.8094 27.3625 27.3281C28.2563 25.3687 29.4766 23.9594 30.8516 23.4266ZM36.7297 27.3109C35.6297 27.7922 34.4609 28.1016 33.2406 28.2219V23.4094C34.6156 23.9594 35.8359 25.3687 36.7297 27.3109ZM30.8516 30.6453V33.6188H25.9016C25.9875 32.1922 26.2109 30.8344 26.5547 29.5969C27.8953 30.1641 29.3563 30.525 30.8516 30.6453ZM30.8516 36.025V38.8781C29.3391 38.9984 27.8781 39.3594 26.5203 39.9437C26.1938 38.7406 25.9703 37.4172 25.9016 36.025H30.8516ZM33.2578 38.8781V36.025H38.2078C38.1219 37.4172 37.9156 38.7406 37.5891 39.9437C36.2141 39.3594 34.7531 38.9984 33.2578 38.8781ZM33.2578 33.6188V30.6453C34.7531 30.525 36.1969 30.1641 37.5547 29.5797C37.8984 30.8172 38.1219 32.175 38.2078 33.6188H33.2578ZM38.8438 26.1078C38.6375 25.6781 38.4141 25.2656 38.1906 24.8875C38.6031 25.1453 38.9984 25.4203 39.3594 25.7125C39.1875 25.8672 39.0156 25.9875 38.8438 26.1078ZM25.9188 24.8875C25.6781 25.2656 25.4719 25.6781 25.2656 26.1078C25.0938 25.9875 24.9219 25.85 24.75 25.7125C25.1109 25.4203 25.5063 25.1453 25.9188 24.8875ZM25.2141 43.4328C25.4375 43.8969 25.6609 44.3438 25.9188 44.7562C25.4891 44.4813 25.0594 44.1891 24.6641 43.8625C24.8359 43.7078 25.025 43.5703 25.2141 43.4328ZM38.1734 44.7562C38.4313 44.3438 38.6547 43.8969 38.8781 43.4328C39.0672 43.5703 39.2563 43.7078 39.4281 43.8625C39.0328 44.1891 38.6203 44.4813 38.1734 44.7562ZM39.7547 41.1125C40.2188 39.5656 40.5109 37.8469 40.6141 36.025H43.6563C43.4156 38.3281 42.5047 40.4422 41.1297 42.1437C40.7 41.7656 40.2359 41.4391 39.7547 41.1125ZM59.2281 56.8391C53.4531 56.8391 48.7609 61.5312 48.7609 67.3063C48.7609 73.0813 53.4531 77.7734 59.2281 77.7734C65.0031 77.7734 69.6953 73.0813 69.6953 67.3063C69.6953 61.5312 65.0031 56.8391 59.2281 56.8391ZM59.2281 75.35C54.7938 75.35 51.1672 71.7406 51.1672 67.2891C51.1672 62.8375 54.7766 59.2281 59.2281 59.2281C63.6797 59.2281 67.2891 62.8375 67.2891 67.2891C67.2891 71.7406 63.6797 75.35 59.2281 75.35ZM79.6469 63.4391C79.5781 62.9578 79.2344 62.5625 78.7703 62.4422L75.5563 61.5484C75.35 60.9469 75.0922 60.3625 74.8344 59.7953L76.4672 56.9078C76.7078 56.4953 76.6734 55.9625 76.3813 55.5844C74.5594 53.2125 73.2875 51.9406 70.9328 50.1359C70.5547 49.8438 70.0219 49.8094 69.6094 50.05L66.7219 51.6828C66.1375 51.4078 65.5531 51.1672 64.9688 50.9609L64.075 47.7641C63.9547 47.3 63.5594 46.9562 63.0781 46.8875C60.3969 46.5266 58.5922 46.5094 56.0313 46.8016V6.80625C56.0313 3.05937 52.9719 0 49.225 0H14.85C11.1031 0 8.06094 3.05937 8.06094 6.80625V70.7609C8.06094 74.5078 11.1203 77.5672 14.8672 77.5672H42.0578C42.0406 77.6016 42.0063 77.6531 41.9891 77.6875C41.7484 78.1 41.7828 78.6328 42.075 79.0109C43.8453 81.3141 45.2203 82.6891 47.5234 84.4594C47.9016 84.7516 48.4344 84.7859 48.8469 84.5453L51.7344 82.9125C52.3188 83.1875 52.8859 83.4281 53.4875 83.6344L54.3813 86.8313C54.5188 87.2953 54.8969 87.6391 55.3781 87.7078C56.8906 87.9141 58.0594 88.0172 59.2281 88.0172C60.3969 88.0172 61.5656 87.9141 63.0781 87.7078C63.5594 87.6391 63.9547 87.2953 64.075 86.8313L64.9688 83.6344C65.5703 83.4281 66.1375 83.1875 66.7219 82.9125L69.6094 84.5453C70.0219 84.7859 70.5547 84.7516 70.9328 84.4594C73.3047 82.6375 74.5766 81.3656 76.3813 79.0109C76.6734 78.6328 76.7078 78.1 76.4672 77.6875L74.8344 74.8C75.1094 74.2328 75.35 73.6484 75.5563 73.0469L78.7703 72.1531C79.2344 72.0156 79.5781 71.6375 79.6469 71.1562C80.0422 68.1141 80.0422 66.4641 79.6469 63.4391ZM42.075 55.5844C41.7828 55.9625 41.7484 56.4953 41.9891 56.9078L42.0578 57.0281H10.4672V12.6156H53.6422V50.4109L53.4875 50.9437C52.9031 51.15 52.3188 51.3906 51.7516 51.6656L48.8641 50.0328C48.4516 49.7922 47.9188 49.8266 47.5406 50.1188C45.2203 51.9062 43.8281 53.2812 42.075 55.5844ZM14.85 2.40625H49.2422C51.6656 2.40625 53.6422 4.38281 53.6422 6.80625V10.2094H10.4672V6.80625C10.4672 4.38281 12.4266 2.40625 14.85 2.40625ZM10.4672 70.7438V59.4344H43.4156L43.6219 59.7953C43.3469 60.3625 43.1063 60.9469 42.9 61.5484L39.7031 62.4422C39.2391 62.5797 38.8953 62.9578 38.8266 63.4391C38.6891 64.4359 38.6031 65.2953 38.5516 66.0859H25.5063C24.8359 66.0859 24.3031 66.6188 24.3031 67.2891C24.3031 67.9594 24.8359 68.4922 25.5063 68.4922H38.5516C38.6031 69.3 38.6891 70.1422 38.8266 71.1391C38.8953 71.6203 39.2391 72.0156 39.7031 72.1359L42.9 73.0297C43.1063 73.6141 43.3469 74.1984 43.6219 74.7828C43.5531 74.9031 43.4844 75.0234 43.4156 75.1609H14.85C12.4266 75.1437 10.4672 73.1672 10.4672 70.7438ZM77.3609 70.0391L74.3016 70.8812C73.9063 70.9844 73.5969 71.2938 73.4766 71.6891C73.2016 72.5656 72.8578 73.425 72.4109 74.25C72.2219 74.6109 72.2219 75.0406 72.4281 75.4016L73.9922 78.1516C72.7203 79.75 71.7063 80.7641 70.1078 82.0359L67.3578 80.4719C66.9969 80.2656 66.5672 80.2656 66.2063 80.4547C65.3813 80.8844 64.5219 81.2453 63.6453 81.5203C63.25 81.6406 62.9578 81.95 62.8375 82.3453L61.9953 85.3875C59.9328 85.6281 58.5578 85.6281 56.4953 85.3875L55.6531 82.3453C55.55 81.95 55.2406 81.6406 54.8453 81.5203C53.9688 81.2453 53.1266 80.9016 52.2844 80.4547C51.9234 80.2656 51.4938 80.2656 51.1328 80.4719L48.3828 82.0359C46.8016 80.7812 45.7359 79.7156 44.4984 78.1516C44.7047 77.7906 44.8938 77.4469 45.1 77.0859C45.4266 76.5188 45.7359 75.9516 46.0625 75.3844C46.2688 75.0234 46.2688 74.5938 46.0797 74.2328C45.65 73.4078 45.2891 72.5484 45.0141 71.6719C44.8938 71.2766 44.5844 70.9672 44.1891 70.8641L41.1297 70.0219C40.8891 67.9594 40.8891 66.5844 41.1297 64.5219L44.1891 63.6797C44.5844 63.5766 44.8938 63.2672 45.0141 62.8719C45.2891 61.9953 45.6328 61.1359 46.0797 60.3109C46.2688 59.95 46.2688 59.5203 46.0625 59.1594L45.2203 57.6641C45.2203 57.6469 45.2031 57.6469 45.2031 57.6297L44.5156 56.4094C45.7703 54.8453 46.8359 53.7797 48.4 52.525L51.15 54.0891C51.5109 54.2953 51.9406 54.2953 52.3016 54.1062C53.1266 53.6766 53.9859 53.3156 54.8625 53.0406C55.2578 52.9203 55.55 52.6109 55.6703 52.2156L56.0141 50.9781C56.0313 50.9266 56.0484 50.875 56.0484 50.8234L56.5125 49.1562C58.5234 48.9328 60.0016 48.9328 62.0125 49.1562L62.8547 52.1984C62.9578 52.5938 63.2672 52.9031 63.6625 53.0234C64.5219 53.2812 65.3813 53.6422 66.2234 54.0891C66.5844 54.2781 67.0141 54.2781 67.375 54.0719L70.125 52.525C71.7234 53.7969 72.7375 54.8109 74.0094 56.4094L72.4453 59.1594C72.2391 59.5203 72.2391 59.95 72.4281 60.3109C72.8406 61.0844 73.2188 61.9781 73.4766 62.8719C73.5969 63.2672 73.9063 63.5594 74.3016 63.6797L77.3609 64.5219C77.6016 66.6016 77.6016 67.9766 77.3609 70.0391Z" fill="#322040"/>
</g>
<defs>
<clipPath id="clip0_59_2754">
<rect width="88" height="88" fill="white"/>
</clipPath>
</defs>
</svg>
