<svg width="24" height="24" viewBox="0 0 24 24" fill="none" xmlns="http://www.w3.org/2000/svg">
<path fill-rule="evenodd" clip-rule="evenodd" d="M2 0C0.895447 0 0 0.895447 0 2V22C0 23.1046 0.895447 24 2 24H22C23.1046 24 24 23.1046 24 22V2C24 0.895447 23.1046 0 22 0H2ZM16.9666 8.08575C17.1799 8.02551 17.4031 8 17.6371 8C17.7545 8 17.8766 8.0058 17.994 8.02081C18.1166 8.03589 18.2283 8.05585 18.3403 8.07593C18.447 8.10101 18.5477 8.12543 18.6437 8.15552C18.7391 8.18561 18.813 8.21606 18.8664 8.24615C18.9199 8.27515 18.9623 8.3045 18.9938 8.33563C19.0059 8.3476 19.0164 8.3598 19.0253 8.37231C19.0573 8.4118 19.0734 8.46619 19.0734 8.53638V8.77277C19.0734 8.87744 19.0311 8.93317 18.951 8.93317C18.9084 8.93317 18.8398 8.91333 18.7492 8.87317C18.4459 8.74341 18.105 8.67725 17.727 8.67725C17.4236 8.67725 17.1833 8.72278 17.0186 8.81805C16.8539 8.91278 16.7686 9.05756 16.7686 9.26263C16.7686 9.40308 16.8221 9.52246 16.9288 9.6178C17.0355 9.71307 17.2314 9.80804 17.5134 9.89331L18.2687 10.1187C18.652 10.2334 18.9296 10.3937 19.0943 10.5987C19.259 10.8038 19.3391 11.039 19.3391 11.2992C19.3391 11.5143 19.2904 11.7098 19.1998 11.8797C19.1038 12.0496 18.9764 12.2002 18.8117 12.3206C18.647 12.446 18.4492 12.5346 18.2205 12.5998C18.0684 12.6445 17.912 12.6754 17.7487 12.692C17.655 12.7015 17.559 12.7064 17.4601 12.7064C17.1834 12.7064 16.907 12.6759 16.641 12.6157C16.375 12.5555 16.1677 12.4901 16.029 12.4149C15.9443 12.3698 15.8856 12.3211 15.8636 12.274C15.8423 12.2296 15.8311 12.1796 15.8311 12.1345V11.8785C15.8311 11.7738 15.8735 11.7242 15.9535 11.7242C15.9855 11.7242 16.0178 11.7288 16.0498 11.7389C16.0699 11.7452 16.0961 11.7554 16.126 11.7672C16.1437 11.7741 16.1628 11.7816 16.1827 11.7891C16.3633 11.8637 16.5613 11.9241 16.7686 11.9642C16.9813 12.0043 17.1888 12.0242 17.4015 12.0242C17.7361 12.0242 17.9982 11.9692 18.1788 11.8589C18.3596 11.7491 18.4549 11.5887 18.4549 11.3837C18.4549 11.2433 18.4077 11.1288 18.3117 11.0334C18.248 10.9702 18.1469 10.912 18.0099 10.8565C17.9404 10.8284 17.8616 10.8009 17.7739 10.7739L17.003 10.5485C16.6143 10.4338 16.3267 10.2629 16.1514 10.0378C15.9761 9.81775 15.8857 9.57306 15.8857 9.31281C15.8857 9.10278 15.9343 8.91675 16.0303 8.75684C16.0904 8.65637 16.1628 8.56415 16.2477 8.48218C16.2984 8.43317 16.3535 8.38782 16.4131 8.34656C16.5724 8.2312 16.7538 8.14594 16.9666 8.08575ZM5.83179 8.10657C6.09247 8.04132 6.36987 8.01105 6.6626 8.01105C7.29596 8.01105 7.75854 8.14679 8.05591 8.41638C8.34924 8.68665 8.49731 9.09662 8.49731 9.64716V11.2698H8.50903C8.50903 11.3488 8.51288 11.4214 8.5202 11.4873C8.53009 11.5759 8.5462 11.6523 8.56763 11.7156C8.60962 11.826 8.66223 11.9453 8.73694 12.0757C8.76361 12.1158 8.77466 12.1556 8.77466 12.1908C8.77466 12.2403 8.74243 12.2913 8.6731 12.3414L8.33844 12.5508C8.31433 12.566 8.29004 12.5773 8.26642 12.5849C8.24304 12.5923 8.2204 12.5961 8.19916 12.5961C8.16254 12.5961 8.12579 12.5842 8.08893 12.5617C8.07275 12.5519 8.05652 12.54 8.04028 12.5263C7.96625 12.4511 7.90216 12.3715 7.84888 12.2912C7.7962 12.2059 7.74213 12.1102 7.68347 11.9948C7.26813 12.4557 6.74762 12.6868 6.11957 12.6868C5.67291 12.6868 5.31512 12.5656 5.05444 12.3255C4.79376 12.0847 4.66119 11.7648 4.66119 11.3641C4.66119 10.939 4.82153 10.5944 5.14557 10.3342C5.47028 10.074 5.901 9.94354 6.44904 9.94354C6.6297 9.94354 6.81616 9.95764 7.01288 9.98273C7.21021 10.0078 7.41217 10.049 7.62488 10.0942V9.72797C7.62488 9.34741 7.53955 9.08197 7.37488 8.92706C7.20483 8.77222 6.91766 8.69684 6.50763 8.69684C6.32159 8.69684 6.13007 8.71783 5.93335 8.76294C5.73669 8.8075 5.54382 8.86176 5.35785 8.93195C5.27246 8.9671 5.20959 8.98682 5.17291 8.99689C5.13556 9.0069 5.10834 9.0116 5.08698 9.0116C5.01233 9.0116 4.97498 8.96259 4.97498 8.85724V8.6123C4.97498 8.53204 4.98608 8.47107 5.01276 8.43597C5.02704 8.41754 5.04718 8.39911 5.07422 8.38049C5.09772 8.36438 5.12646 8.34821 5.16119 8.33191C5.34723 8.24158 5.57043 8.16614 5.83179 8.10657ZM9.00909 8.2572C9.00909 8.17694 9.05133 8.13104 9.13666 8.13104H9.65887C9.75952 8.13104 9.82855 8.14612 9.86591 8.18127C9.90857 8.21136 9.94067 8.28186 9.97266 8.3772L10.8672 11.6899L11.6954 8.37598C11.7221 8.27625 11.7543 8.21136 11.797 8.18127C11.8397 8.15112 11.9132 8.13104 12.0092 8.13104H12.4351C12.5357 8.13104 12.606 8.14612 12.6486 8.18127C12.6672 8.1944 12.6847 8.21503 12.7002 8.24207C12.7202 8.27692 12.7369 8.32233 12.7488 8.37598L13.59 11.7291L14.5107 8.37598C14.5427 8.27625 14.5801 8.21136 14.6174 8.18127C14.6602 8.15112 14.7285 8.13104 14.8245 8.13104H15.3193C15.4047 8.13104 15.4534 8.17065 15.4534 8.25598C15.4534 8.28101 15.4471 8.3067 15.4417 8.33679C15.4364 8.36688 15.4266 8.40649 15.4053 8.46167L14.1226 12.3304C14.0989 12.4042 14.0723 12.4597 14.0428 12.4957C14.0324 12.5083 14.0217 12.5185 14.0107 12.5263C13.968 12.5565 13.8995 12.5765 13.8088 12.5765H13.3505C13.2985 12.5765 13.255 12.5725 13.2192 12.5638C13.1857 12.5557 13.1589 12.5433 13.1382 12.5263C13.0955 12.4912 13.058 12.4258 13.0366 12.3255L12.2124 9.09729L11.3933 12.3206C11.3666 12.4203 11.3344 12.4851 11.2917 12.5202C11.2491 12.5553 11.1742 12.5704 11.0782 12.5704H10.6212C10.5611 12.5704 10.5135 12.5645 10.4759 12.5512C10.4538 12.5435 10.4351 12.5332 10.4193 12.5202C10.3995 12.5062 10.3809 12.4838 10.3633 12.4543C10.3431 12.4202 10.3245 12.3766 10.3073 12.3255L9.05725 8.45679C9.02527 8.35712 9.00909 8.2923 9.00909 8.2572ZM7.14697 10.5693C6.97699 10.5493 6.81165 10.5387 6.64697 10.5387C6.29028 10.5387 6.0293 10.6041 5.85394 10.7396C5.67859 10.875 5.59351 11.0649 5.59351 11.3151C5.59351 11.5503 5.6568 11.725 5.79016 11.8454C5.91748 11.9702 6.10406 12.0303 6.34875 12.0303C6.52411 12.0303 6.70563 11.9999 6.89697 11.9397C7.08832 11.8795 7.25818 11.77 7.40222 11.6201C7.48688 11.5248 7.54993 11.4196 7.58191 11.2992C7.59833 11.2377 7.61194 11.1696 7.62134 11.0948C7.63025 11.0239 7.63531 10.9471 7.63531 10.8645V10.6538C7.54529 10.6333 7.45172 10.6147 7.35559 10.5989C7.28723 10.5876 7.21759 10.5777 7.14697 10.5693ZM17.1033 14.067C17.6033 13.7365 18.2646 13.6188 18.8247 13.6114C19.3848 13.6039 19.8437 13.7071 19.9394 13.8171C20.1307 14.0422 19.8871 15.5884 18.951 16.3289C18.8077 16.4437 18.6683 16.3845 18.7323 16.2346C18.9449 15.7393 19.4192 14.6224 19.1959 14.3572C18.9725 14.0869 17.7156 14.2271 17.1462 14.2923C16.9756 14.3124 16.9493 14.1723 17.1033 14.067ZM4.07129 14.1625C3.94727 14.0576 3.99963 13.9238 4.11688 13.9102C4.15594 13.9056 4.20312 13.9144 4.25232 13.942C6.50842 15.1735 9.29187 15.9199 12.1707 15.9199C14.1135 15.9199 16.2466 15.5383 18.2101 14.7576C18.5028 14.6323 18.7527 14.9379 18.4653 15.1385C16.7145 16.3543 14.1719 17 11.9845 17C8.91968 17 6.15741 15.9344 4.07129 14.1625Z" fill="#C2B390"/>
</svg>
