<svg width="24" height="24" viewBox="0 0 24 24" fill="none" xmlns="http://www.w3.org/2000/svg">
<path d="M11.8769 12.856L10.2692 9.028L8.66819 12.856H11.8769Z" fill="#C2B390"/>
<path fill-rule="evenodd" clip-rule="evenodd" d="M2 0C0.895431 0 0 0.89543 0 2V22C0 23.1046 0.89543 24 2 24H22C23.1046 24 24 23.1046 24 22V2C24 0.895431 23.1046 0 22 0H2ZM11.0372 7.6H9.58523L5.87723 16H7.35323L8.1663 14.056H12.3808L13.1972 16H14.7092L11.0372 7.6ZM17.1126 16V9.628H15.7446V16H17.1126ZM17.0046 7.228C16.8526 7.076 16.6606 7 16.4286 7C16.2046 7 16.0126 7.076 15.8526 7.228C15.7006 7.38 15.6246 7.572 15.6246 7.804C15.6246 8.028 15.7006 8.22 15.8526 8.38C16.0126 8.532 16.2046 8.608 16.4286 8.608C16.6606 8.608 16.8526 8.532 17.0046 8.38C17.1566 8.22 17.2326 8.028 17.2326 7.804C17.2326 7.572 17.1566 7.38 17.0046 7.228Z" fill="#C2B390"/>
</svg>
