<svg width="24" height="24" viewBox="0 0 24 24" fill="none" xmlns="http://www.w3.org/2000/svg">
<path d="M10.2128 12.856L8.60517 9.028L7.00413 12.856H10.2128Z" fill="#C2B390"/>
<path d="M17.9281 11.44C18.0801 11.688 18.1641 11.992 18.1801 12.352H14.5215C14.5567 12.0905 14.6282 11.8545 14.7361 11.644C14.8961 11.324 15.1161 11.076 15.3961 10.9C15.6841 10.724 16.0201 10.636 16.4041 10.636C16.7481 10.636 17.0521 10.708 17.3161 10.852C17.5801 10.988 17.7841 11.184 17.9281 11.44Z" fill="#C2B390"/>
<path fill-rule="evenodd" clip-rule="evenodd" d="M2 0C0.895431 0 0 0.89543 0 2V22C0 23.1046 0.89543 24 2 24H22C23.1046 24 24 23.1046 24 22V2C24 0.895431 23.1046 0 22 0H2ZM9.37317 7.6H7.92117L4.21317 16H5.68917L6.50224 14.056H10.7168L11.5332 16H13.0452L9.37317 7.6ZM14.5489 13.336H19.3801C19.4361 12.568 19.3681 11.904 19.1761 11.344C18.9841 10.784 18.6601 10.352 18.2041 10.048C17.7481 9.736 17.1441 9.58 16.3921 9.58C15.7601 9.588 15.2001 9.728 14.7121 10C14.2241 10.272 13.8441 10.652 13.5721 11.14C13.3001 11.62 13.1641 12.18 13.1641 12.82C13.1641 13.46 13.3001 14.024 13.5721 14.512C13.8441 14.992 14.2241 15.368 14.7121 15.64C15.2001 15.912 15.7721 16.048 16.4281 16.048C16.9801 16.048 17.4801 15.956 17.9281 15.772C18.3761 15.58 18.7561 15.312 19.0681 14.968L18.3361 14.236C17.8481 14.74 17.2481 14.992 16.5361 14.992C16.1361 14.992 15.7801 14.9 15.4681 14.716C15.1641 14.532 14.9241 14.272 14.7481 13.936C14.657 13.7537 14.5905 13.5537 14.5489 13.336Z" fill="#C2B390"/>
</svg>
