<svg width="24" height="24" viewBox="0 0 24 24" fill="none" xmlns="http://www.w3.org/2000/svg">
<path fill-rule="evenodd" clip-rule="evenodd" d="M2 0C0.895447 0 0 0.895447 0 2V22C0 23.1046 0.895447 24 2 24H22C23.1046 24 24 23.1046 24 22V2C24 0.895447 23.1046 0 22 0H2ZM11.9879 4.85468C11.8579 4.72351 11.6847 4.65216 11.5 4.65216C11.3153 4.65216 11.1421 4.72351 11.0121 4.85468L10.2555 5.61133L10.9969 6.35266C11.1625 6.30811 11.3344 6.28516 11.5063 6.28516C12.0273 6.28516 12.5152 6.48767 12.8833 6.85583C13.3852 7.35767 13.5648 8.0799 13.3865 8.74225L14.2578 9.61353C14.3462 9.58972 14.4364 9.57208 14.5275 9.56085C14.6069 9.55103 14.6871 9.54602 14.7672 9.54602C15.2882 9.54602 15.7761 9.74854 16.1442 10.1167C16.9072 10.8797 16.9072 12.1203 16.1442 12.8833C15.7748 13.2527 15.2831 13.4565 14.7609 13.4565C14.2386 13.4565 13.7469 13.2527 13.3776 12.8833C12.8757 12.3815 12.6961 11.6592 12.8744 10.9969L12.4783 10.6007V13.0706C13.0718 13.4132 13.4565 14.0514 13.4565 14.7609C13.4565 15.8398 12.5789 16.7174 11.5 16.7174C10.4211 16.7174 9.54346 15.8398 9.54346 14.7609C9.54346 14.0514 9.92816 13.4132 10.5217 13.0706V9.93073C10.3727 9.84534 10.2364 9.74219 10.1167 9.62244C9.61481 9.12061 9.43518 8.39838 9.61353 7.73596L8.87219 6.99463L4.85468 11.0121C4.58466 11.2809 4.58466 11.7191 4.85468 11.9879L11.0121 18.1453C11.1421 18.2765 11.3153 18.3478 11.5 18.3478C11.6847 18.3478 11.8579 18.2765 11.9879 18.1453L18.1453 11.9879C18.4153 11.7191 18.4153 11.2809 18.1453 11.0121L11.9879 4.85468ZM10.551 4.39362C10.8121 4.13123 11.1561 4 11.5 4C11.8439 4 12.1879 4.13123 12.449 4.39362L18.6064 10.551C19.1312 11.0746 19.1312 11.9254 18.6064 12.449L12.449 18.6064C12.1879 18.8688 11.8439 19 11.5 19C11.1561 19 10.8121 18.8688 10.551 18.6064L4.39362 12.449C3.86877 11.9254 3.86877 11.0746 4.39362 10.551L8.87219 6.07245L10.3804 7.58057C10.0861 8.0799 10.1485 8.73206 10.5778 9.16132C10.7485 9.33203 10.9561 9.44031 11.1739 9.49634V13.5024C10.6122 13.6476 10.1957 14.1533 10.1957 14.7609C10.1957 15.4818 10.7803 16.0652 11.5 16.0652C12.2209 16.0652 12.8043 15.4818 12.8043 14.7609C12.8043 14.1533 12.3878 13.6476 11.8261 13.5024V9.49634C11.942 9.46704 12.0541 9.4212 12.1598 9.35876L13.6412 10.8402C13.347 11.3408 13.4094 11.993 13.8387 12.4222C14.0934 12.6769 14.4271 12.8043 14.7609 12.8043C15.0946 12.8043 15.4283 12.6769 15.6831 12.4222C16.1926 11.9127 16.1926 11.0873 15.6831 10.5778C15.4296 10.3243 15.0984 10.1982 14.7672 10.1982C14.5367 10.1982 14.3062 10.2593 14.1011 10.3791L12.6196 8.89764C12.9139 8.39838 12.8515 7.74615 12.4222 7.31689C12.1688 7.06342 11.8375 6.93732 11.5063 6.93732C11.2758 6.93732 11.0453 6.99847 10.8402 7.11823L9.33331 5.61133L10.551 4.39362Z" fill="#C2B390"/>
</svg>
