<svg width="24" height="24" viewBox="0 0 24 24" fill="none" xmlns="http://www.w3.org/2000/svg">
<path fill-rule="evenodd" clip-rule="evenodd" d="M2 0C0.895447 0 0 0.895447 0 2V22C0 23.1046 0.895447 24 2 24H22C23.1046 24 24 23.1046 24 22V2C24 0.895447 23.1046 0 22 0H2ZM4 11.6174C4 7.41071 7.35815 4 11.5 4C15.6418 4 19 7.41071 19 11.6174C19 14.9412 16.9006 17.7596 13.9781 18.8C13.9806 18.7816 13.9838 18.7642 13.9869 18.7467C13.9935 18.7106 14 18.6744 14 18.6299V16.8944C14 16.1244 13.4994 15.1024 12.8131 14.7387C15.3069 14.4765 16.4969 13.2152 16.4969 11.5032C16.4969 10.7668 16.1894 10.0552 15.6669 9.45538C15.8412 8.85992 16.0606 7.63794 15.6031 7.17395C14.4769 7.17395 13.7969 7.91663 13.6356 8.1153C13.0744 7.91919 12.4568 7.80872 11.8094 7.80872C11.1631 7.80872 10.5481 7.91919 9.9881 8.11407C9.82501 7.91406 9.14563 7.17395 8.02185 7.17395C7.56622 7.63733 7.78314 8.85419 7.95563 9.45093C7.42999 10.0521 7.12061 10.7656 7.12061 11.5032C7.12061 13.2165 8.3125 14.4784 10.81 14.7393C10.3769 14.9691 10.0225 15.456 9.8175 15.9847C9.43628 16.0457 9.03125 16.0616 8.76062 16.0616C8.20251 16.0616 8.06189 15.9714 7.76312 15.5734C7.46313 15.176 7.14435 14.9081 6.76001 14.7977C6.55188 14.7755 6.41437 14.9399 6.59497 15.084C7.01929 15.3857 7.16852 15.8211 7.30316 16.2139C7.36169 16.3846 7.41748 16.5473 7.49188 16.6875C7.71313 17.1039 8.16937 17.328 8.6825 17.328H9.625V18.6299C9.625 18.7778 9.64752 18.8972 9.6825 19C6.41998 18.1735 4 15.1868 4 11.6174Z" fill="#C2B390"/>
</svg>
