<svg width="24" height="24" viewBox="0 0 24 24" fill="none" xmlns="http://www.w3.org/2000/svg">
<path fill-rule="evenodd" clip-rule="evenodd" d="M2 0C0.895431 0 0 0.89543 0 2V22C0 23.1046 0.89543 24 2 24H22C23.1046 24 24 23.1046 24 22V2C24 0.895431 23.1046 0 22 0H2ZM13.6294 20.376C14.1014 19.912 14.3374 19.26 14.3374 18.42V12.6H10.0054V13.812H12.9094V18.384C12.9094 18.824 12.8014 19.164 12.5854 19.404C12.3774 19.636 12.0854 19.752 11.7094 19.752C11.4214 19.752 11.1214 19.672 10.8094 19.512C10.4974 19.352 10.2014 19.124 9.92144 18.828L9.24944 19.86C9.56144 20.236 9.92544 20.532 10.3414 20.748C10.7574 20.956 11.2174 21.06 11.7214 21.06C12.5294 21.06 13.1654 20.832 13.6294 20.376ZM20.5777 14.088C20.8737 14.2 21.1737 14.352 21.4777 14.544L22.0657 13.356C21.6737 13.1 21.2217 12.892 20.7097 12.732C20.1977 12.572 19.6697 12.492 19.1257 12.492C18.5177 12.492 17.9817 12.588 17.5177 12.78C17.0617 12.972 16.7057 13.244 16.4497 13.596C16.1937 13.94 16.0657 14.348 16.0657 14.82C16.0657 15.252 16.1457 15.608 16.3057 15.888C16.4737 16.168 16.6897 16.396 16.9537 16.572C17.2257 16.748 17.5217 16.896 17.8417 17.016C18.1697 17.128 18.4937 17.228 18.8137 17.316C19.1417 17.404 19.4377 17.504 19.7017 17.616C19.9737 17.728 20.1897 17.872 20.3497 18.048C20.5177 18.216 20.6017 18.44 20.6017 18.72C20.6017 19.064 20.4617 19.332 20.1817 19.524C19.9097 19.716 19.5257 19.812 19.0297 19.812C18.7337 19.812 18.4177 19.764 18.0817 19.668C17.7537 19.572 17.4257 19.432 17.0977 19.248C16.7777 19.064 16.4737 18.84 16.1857 18.576L15.5737 19.74C15.8617 20.004 16.1857 20.236 16.5457 20.436C16.9137 20.636 17.3057 20.796 17.7217 20.916C18.1377 21.028 18.5657 21.084 19.0057 21.084C19.6217 21.084 20.1657 20.984 20.6377 20.784C21.1177 20.584 21.4937 20.304 21.7657 19.944C22.0377 19.576 22.1737 19.144 22.1737 18.648C22.1737 18.216 22.0937 17.86 21.9337 17.58C21.7737 17.292 21.5577 17.056 21.2857 16.872C21.0137 16.688 20.7177 16.54 20.3977 16.428C20.0777 16.308 19.7537 16.2 19.4257 16.104C19.1057 16.008 18.8097 15.908 18.5377 15.804C18.2737 15.692 18.0577 15.552 17.8897 15.384C17.7297 15.208 17.6497 14.984 17.6497 14.712C17.6497 14.408 17.7737 14.176 18.0217 14.016C18.2697 13.856 18.6017 13.776 19.0177 13.776C19.2337 13.776 19.4737 13.8 19.7377 13.848C20.0017 13.896 20.2817 13.976 20.5777 14.088Z" fill="#C2B390"/>
</svg>
