<svg width="24" height="24" viewBox="0 0 24 24" fill="none" xmlns="http://www.w3.org/2000/svg">
<path fill-rule="evenodd" clip-rule="evenodd" d="M2 0C0.895447 0 0 0.895447 0 2V22C0 23.1046 0.895447 24 2 24H22C23.1046 24 24 23.1046 24 22V2C24 0.895447 23.1046 0 22 0H2ZM14.4827 5.12604C14.7672 5.0376 15.0509 4.99231 15.322 5.00104C15.593 5.00983 15.8514 5.07251 16.0845 5.20154C16.5508 5.45947 16.829 5.93268 16.9537 6.49335C17.0785 7.05396 17.0652 7.72083 16.9402 8.46716C16.8965 8.72778 16.8334 9.00146 16.7623 9.28003C16.9213 9.32605 17.0776 9.37354 17.2289 9.42334C17.3337 9.45782 17.436 9.49347 17.535 9.53058C18.2554 9.80023 18.8516 10.1229 19.2856 10.5068C19.7197 10.8907 20 11.3566 20 11.8682C20 12.3798 19.7197 12.8451 19.2856 13.229C18.8516 13.6129 18.2554 13.9362 17.535 14.2059C17.2721 14.3043 16.987 14.3926 16.6923 14.476C16.7954 14.8445 16.8786 15.2023 16.9354 15.5413C17.0604 16.287 17.0741 16.9525 16.9496 17.5118C16.8252 18.0712 16.5485 18.5424 16.0845 18.7991C15.6206 19.0558 15.0558 19.0504 14.4881 18.874C13.9204 18.6976 13.3251 18.3536 12.7137 17.877C12.4749 17.6908 12.2336 17.4786 11.9918 17.2529C11.7513 17.4772 11.511 17.6885 11.2734 17.8737C10.6615 18.3507 10.066 18.6946 9.49701 18.8713C8.92798 19.0482 8.3606 19.0545 7.89441 18.7965C7.42822 18.5386 7.15063 18.0647 7.02588 17.504C6.90112 16.9434 6.91437 16.2772 7.03949 15.5309C7.09613 15.1928 7.17926 14.8362 7.28192 14.4688C6.99658 14.3875 6.72021 14.3014 6.46497 14.2059C5.74457 13.9362 5.14844 13.6129 4.71436 13.229C4.28027 12.8451 4 12.3798 4 11.8682C4 11.3566 4.28027 10.8906 4.71436 10.5068C5.14844 10.1229 5.74457 9.80023 6.46497 9.53058C6.70367 9.44122 6.96112 9.36023 7.2262 9.28326C7.1557 9.00641 7.09375 8.73468 7.05035 8.47565C6.92535 7.72986 6.91162 7.06378 7.03607 6.50439C7.16052 5.94501 7.43793 5.47382 7.90186 5.2171C8.36578 4.96045 8.93066 4.96588 9.49835 5.14227C10.066 5.31866 10.6606 5.66333 11.272 6.13995C11.5065 6.32275 11.7435 6.5307 11.981 6.75171C12.2238 6.52496 12.4658 6.31128 12.7056 6.12433C13.3174 5.64734 13.9136 5.3028 14.4827 5.12604ZM15.7294 5.79114C15.6053 5.72241 15.4601 5.68365 15.29 5.6792C15.1199 5.67474 14.9246 5.70483 14.7013 5.77423C14.2548 5.91296 13.7196 6.21277 13.1544 6.65344C12.9329 6.82617 12.7059 7.02606 12.4774 7.23981C12.9093 7.68713 13.3378 8.19147 13.7547 8.74506C14.5853 8.81659 15.3646 8.93829 16.0757 9.10236C16.141 8.84601 16.1984 8.59583 16.238 8.3598C16.3536 7.67035 16.3569 7.07587 16.259 6.63586C16.1611 6.19586 15.9777 5.92847 15.7294 5.79114ZM9.28308 5.77618C9.05914 5.7066 8.8634 5.67657 8.69232 5.68115C8.52124 5.68573 8.37482 5.72504 8.24957 5.79437C7.99902 5.93304 7.81403 6.20239 7.71582 6.64368C7.61761 7.08496 7.62054 7.6795 7.73621 8.36957C7.77557 8.60443 7.83301 8.85327 7.89783 9.10822C8.60547 8.94354 9.38159 8.82117 10.2086 8.74829C10.6284 8.18976 11.0603 7.68109 11.4955 7.23004C11.2717 7.02136 11.0498 6.82526 10.8327 6.65601C10.267 6.21503 9.73096 5.91528 9.28308 5.77618ZM12.8393 8.68585C12.5583 8.33801 12.2751 8.01483 11.9918 7.71942C11.7086 8.01501 11.4254 8.33844 11.1444 8.68646C11.4258 8.67505 11.7106 8.66827 12 8.66827C12.2838 8.66827 12.5632 8.6748 12.8393 8.68585ZM13.3819 9.3913C12.9337 9.3598 12.4728 9.34119 12 9.34119C11.5217 9.34119 11.0555 9.36041 10.6025 9.39258C10.2958 9.81512 9.99524 10.2629 9.70953 10.7371C9.45282 11.1633 9.2207 11.5887 9.01007 12.0088C9.21979 12.4265 9.45087 12.8495 9.70612 13.2733C9.92773 13.6411 10.1589 13.9908 10.394 14.3282C10.9116 14.3707 11.448 14.3946 12 14.3946C12.539 14.3946 13.0637 14.372 13.57 14.3314C13.809 13.9891 14.0442 13.6341 14.2694 13.2603C14.5253 12.8356 14.7574 12.4117 14.9675 11.9932C14.7596 11.5801 14.5312 11.1619 14.2789 10.743C13.9917 10.2662 13.6903 9.81586 13.3819 9.3913ZM15.889 9.7525C15.3882 9.63831 14.85 9.54315 14.2769 9.47461C14.4825 9.77655 14.686 10.0856 14.8812 10.4098C15.0424 10.6773 15.1915 10.9442 15.3355 11.2103C15.5573 10.707 15.7404 10.2194 15.889 9.7525ZM9.09497 10.3968C9.28632 10.0792 9.48444 9.77612 9.68579 9.4798C9.11664 9.54913 8.5816 9.64392 8.08453 9.75836C8.23212 10.2225 8.414 10.7075 8.63391 11.2076C8.77954 10.9382 8.93176 10.6677 9.09497 10.3968ZM17.0001 10.0595C16.8635 10.0145 16.7216 9.9715 16.5768 9.9295C16.3672 10.5936 16.0883 11.2922 15.743 12.0088C16.0433 12.6329 16.2957 13.2443 16.4933 13.8303C16.7705 13.7523 17.037 13.67 17.2797 13.5792C17.9438 13.3306 18.4691 13.0362 18.8096 12.735C19.1501 12.434 19.2979 12.1468 19.2979 11.8682C19.2979 11.5897 19.1501 11.3025 18.8096 11.0013C18.4691 10.7003 17.9438 10.4059 17.2797 10.1573C17.1896 10.1235 17.0961 10.0911 17.0001 10.0595ZM8.23462 11.9912C7.89423 11.2819 7.61884 10.5901 7.41162 9.93274C7.16931 10.0033 6.9353 10.0768 6.72034 10.1573C6.05621 10.4059 5.53088 10.7003 5.19037 11.0013C4.84991 11.3025 4.70215 11.5897 4.70215 11.8682C4.70215 12.1468 4.84991 12.434 5.19037 12.735C5.53088 13.0362 6.05621 13.3306 6.72034 13.5792C6.95526 13.6671 7.21283 13.7472 7.48016 13.8232C7.67871 13.2338 7.93231 12.619 8.23462 11.9912ZM10.2616 12.0036C10.2616 11.0874 11.044 10.3375 12 10.3375C12.956 10.3375 13.7384 11.0874 13.7384 12.0036C13.7384 12.9197 12.956 13.6696 12 13.6696C11.044 13.6696 10.2616 12.9197 10.2616 12.0036ZM8.83777 13.1474C8.77106 13.0287 8.70599 12.9101 8.64203 12.7917C8.46057 13.204 8.30194 13.6079 8.16943 13.9969C8.58624 14.09 9.03009 14.1685 9.49701 14.2306C9.36395 14.0269 9.23285 13.8195 9.10449 13.6064C9.01215 13.4532 8.92365 13.3002 8.83777 13.1474ZM15.8184 13.9996C15.6852 13.6095 15.5266 13.205 15.3444 12.7917C15.199 13.0605 15.0475 13.3303 14.8846 13.6006C14.7546 13.8164 14.6215 14.0264 14.4867 14.2325C14.955 14.1708 15.4002 14.0925 15.8184 13.9996ZM10.0035 14.9679C9.28033 14.8964 8.59833 14.7867 7.96912 14.6438C7.8717 14.9912 7.7934 15.3261 7.74097 15.6389C7.62537 16.3283 7.62268 16.9222 7.72058 17.3622C7.81848 17.8022 8.00128 18.0695 8.24957 18.2069C8.4978 18.3443 8.83112 18.3625 9.27765 18.2238C9.72418 18.0851 10.26 17.7859 10.8253 17.3453C11.0448 17.1741 11.2691 16.9756 11.4955 16.7641C10.9893 16.2385 10.4863 15.6371 10.0035 14.9679ZM16.2489 15.6467C16.1961 15.3321 16.1176 14.9959 16.0193 14.6464C15.3884 14.7891 14.7045 14.8982 13.9794 14.9692C13.4935 15.6424 12.9869 16.2468 12.4774 16.7745C12.7053 16.9877 12.9312 17.1879 13.1523 17.3602C13.7181 17.8013 14.2542 18.101 14.702 18.2401C15.1498 18.3793 15.4863 18.3611 15.7369 18.2225C15.9874 18.0839 16.1711 17.8138 16.2692 17.3726C16.3674 16.9313 16.3646 16.3367 16.2489 15.6467ZM12 15.0675C11.6295 15.0675 11.2678 15.0549 10.9108 15.0363C11.2637 15.4935 11.6232 15.9097 11.9817 16.2845C12.3404 15.9105 12.7006 15.4951 13.0539 15.0382C12.7083 15.0557 12.3583 15.0675 12 15.0675Z" fill="#C2B390"/>
</svg>
