<svg width="24" height="24" viewBox="0 0 24 24" fill="none" xmlns="http://www.w3.org/2000/svg">
<path fill-rule="evenodd" clip-rule="evenodd" d="M2 0C0.895447 0 0 0.895447 0 2V22C0 23.1046 0.895447 24 2 24H22C23.1046 24 24 23.1046 24 22V2C24 0.895447 23.1046 0 22 0H2ZM7.92102 10.6268C7.92102 7.52399 9.62006 5 11.7083 5C13.6636 5 15.2775 7.21295 15.475 10.0418C15.0706 9.83875 14.658 9.67078 14.2437 9.54657C13.9482 7.65948 12.9082 6.21747 11.7083 6.21747C10.2872 6.21747 9.0863 8.23651 9.0863 10.6268C9.0863 11.8823 9.41949 13.0316 9.94037 13.8423C9.99506 13.8325 10.0505 13.8273 10.106 13.8268C10.3764 13.8268 10.6357 13.9391 10.827 14.1389C11.0182 14.3386 11.1256 14.6096 11.1256 14.8922C11.1256 15.1747 11.0182 15.4456 10.827 15.6454C10.6357 15.8452 10.3764 15.9575 10.106 15.9575C9.9563 15.9574 9.80847 15.9229 9.67297 15.8564C9.53748 15.79 9.41766 15.6931 9.32202 15.5728C9.22638 15.4526 9.15729 15.3117 9.11957 15.1604C9.08191 15.009 9.07654 14.8509 9.10394 14.6971C8.37695 13.673 7.92102 12.2296 7.92102 10.6268ZM10.5503 9.87762C10.7415 9.67786 11.0009 9.56561 11.2712 9.56561C11.4095 9.56586 11.5463 9.59552 11.6733 9.65277C11.8002 9.70996 11.9147 9.79358 12.0098 9.8985C13.2189 9.79504 14.5945 10.1536 15.8363 10.9317C18.446 12.5662 19.6724 15.3845 18.6283 17.3474C18.2371 18.0827 17.5669 18.601 16.6909 18.846C16.3209 18.9495 15.9244 19 15.5137 19C14.5663 19 13.541 18.7287 12.5714 18.217C12.9452 17.9559 13.2876 17.6719 13.599 17.3693C14.5804 17.7817 15.5768 17.8972 16.3893 17.6702C16.9536 17.5125 17.3756 17.196 17.6098 16.7559C18.3224 15.4166 17.2356 13.2275 15.2371 11.9756C14.2271 11.3432 13.1329 11.038 12.1862 11.1C12.1023 11.2787 11.972 11.4294 11.8104 11.5348C11.6486 11.6402 11.4619 11.6961 11.2712 11.6962C11.0009 11.6962 10.7415 11.584 10.5503 11.3842C10.3591 11.1844 10.2516 10.9135 10.2516 10.6309C10.2516 10.3484 10.3591 10.0774 10.5503 9.87762ZM5.3714 17.3474C4.43738 15.592 5.32214 13.1558 7.38501 11.4905C7.4328 11.9699 7.51849 12.4314 7.63824 12.8698C6.3905 14.1079 5.82648 15.6966 6.38989 16.7559C6.62408 17.196 7.04578 17.5125 7.6098 17.6702C8.67834 17.9694 10.0635 17.6796 11.3151 16.8956C12.3531 16.2452 13.1379 15.3422 13.5586 14.4368C13.4947 14.2976 13.4562 14.1434 13.4562 13.979C13.4562 13.3916 13.9136 12.9137 14.4758 12.9137C15.0381 12.9137 15.4954 13.3916 15.4954 13.979C15.4954 14.5272 15.0958 14.975 14.5856 15.033C14.0667 16.1229 13.1517 17.1649 11.9142 17.9401C10.808 18.6328 9.59308 19 8.48602 19C8.07471 19 7.67908 18.9495 7.30878 18.846C6.4328 18.601 5.76263 18.0827 5.3714 17.3474Z" fill="#C2B390"/>
</svg>
