<svg width="24" height="24" viewBox="0 0 24 24" fill="none" xmlns="http://www.w3.org/2000/svg">
<path d="M7.66453 12.232V8.812H9.53653C10.1845 8.812 10.6845 8.952 11.0365 9.232C11.3885 9.504 11.5645 9.924 11.5645 10.492C11.5645 11.084 11.3885 11.524 11.0365 11.812C10.6845 12.092 10.1845 12.232 9.53653 12.232H7.66453Z" fill="#C2B390"/>
<path fill-rule="evenodd" clip-rule="evenodd" d="M2 0C0.895431 0 0 0.89543 0 2V22C0 23.1046 0.89543 24 2 24H22C23.1046 24 24 23.1046 24 22V2C24 0.895431 23.1046 0 22 0H2ZM12.0445 8.356C11.4685 7.852 10.6525 7.6 9.59653 7.6H6.24853V16H7.66453V13.444H9.59653C10.6525 13.444 11.4685 13.184 12.0445 12.664C12.6285 12.136 12.9205 11.4 12.9205 10.456C12.9205 9.552 12.6285 8.852 12.0445 8.356ZM16.9508 10.78C17.2868 10.876 17.5947 11.008 17.8748 11.176L18.3787 10.204C18.0907 10.004 17.7467 9.848 17.3468 9.736C16.9468 9.624 16.5467 9.568 16.1467 9.568C15.7388 9.568 15.3547 9.632 14.9948 9.76C14.6427 9.88 14.3547 10.076 14.1307 10.348C13.9067 10.612 13.7948 10.96 13.7948 11.392C13.7948 11.776 13.8748 12.084 14.0347 12.316C14.1947 12.548 14.3988 12.732 14.6468 12.868C14.9028 13.004 15.1748 13.116 15.4628 13.204C15.7507 13.284 16.0228 13.368 16.2787 13.456C16.5347 13.536 16.7428 13.64 16.9028 13.768C17.0627 13.896 17.1427 14.072 17.1427 14.296C17.1427 14.464 17.0947 14.6 16.9988 14.704C16.9107 14.808 16.7868 14.888 16.6268 14.944C16.4748 14.992 16.2987 15.016 16.0988 15.016C15.7548 15.016 15.3828 14.948 14.9827 14.812C14.5828 14.668 14.2428 14.472 13.9628 14.224L13.4707 15.16C13.7908 15.448 14.1827 15.668 14.6468 15.82C15.1108 15.972 15.5747 16.048 16.0387 16.048C16.4708 16.048 16.8708 15.984 17.2388 15.856C17.6147 15.72 17.9148 15.516 18.1388 15.244C18.3708 14.964 18.4867 14.608 18.4867 14.176C18.4867 13.784 18.4067 13.468 18.2467 13.228C18.0868 12.988 17.8748 12.8 17.6108 12.664C17.3547 12.52 17.0828 12.404 16.7948 12.316C16.5068 12.228 16.2348 12.144 15.9788 12.064C15.7227 11.984 15.5107 11.888 15.3427 11.776C15.1827 11.656 15.1027 11.496 15.1027 11.296C15.1027 11.056 15.1908 10.884 15.3667 10.78C15.5428 10.676 15.7668 10.624 16.0387 10.624C16.3188 10.624 16.6227 10.676 16.9508 10.78Z" fill="#C2B390"/>
</svg>
