<svg width="24" height="24" viewBox="0 0 24 24" fill="none" xmlns="http://www.w3.org/2000/svg">
<path fill-rule="evenodd" clip-rule="evenodd" d="M2 0C0.895447 0 0 0.895447 0 2V22C0 23.1046 0.895447 24 2 24H22C23.1046 24 24 23.1046 24 22V2C24 0.895447 23.1046 0 22 0H2ZM14.0663 4.21442C14.4699 4.10651 14.9077 4 15.4125 4C16.3527 4.03375 17.0437 4.40204 17.3337 4.5567L17.3647 4.57318C17.7684 4.789 18.3402 5.11133 18.7109 5.82886C18.8792 6.15118 18.9463 6.47491 18.9463 6.6543C19.0475 7.22888 19.0133 7.73059 18.778 8.80688C18.6768 9.30859 18.5085 9.99109 18.2061 10.9244C18.0378 11.4261 17.8026 12.1072 17.3976 12.8976C17.2635 13.1835 17.1295 13.4343 16.9612 13.6852C16.9445 13.6501 16.928 13.6239 16.9116 13.5977C16.8945 13.5703 16.8774 13.543 16.8599 13.5058C17.0258 13.224 17.0933 12.9054 17.1607 12.5876L17.1636 12.5739V12.4295C17.2307 12.0358 17.2307 11.7134 17.1965 11.2468C17.1965 11.1038 17.1858 10.9954 17.1766 10.9022C17.1697 10.8318 17.1636 10.7701 17.1636 10.7086C17.1295 10.5657 17.1295 10.4928 17.1295 10.3134C17.1636 10.2419 17.1636 10.2069 17.1636 10.1705C17.186 10.1218 17.1932 10.0562 17.2058 9.93951C17.2117 9.88495 17.2189 9.81921 17.2294 9.73883C17.2635 9.4165 17.2977 9.09418 17.2977 8.69897C17.2977 8.41168 17.2977 8.12439 17.1965 7.76562C17.1107 7.43176 16.9767 7.20062 16.877 7.02869C16.8591 6.9978 16.8423 6.96887 16.8271 6.94159C16.7716 6.85663 16.7186 6.77509 16.6677 6.69659C16.2233 6.01263 15.9302 5.5614 15.4467 5.11133C15.2114 4.93195 14.7736 4.53674 14.0663 4.21442ZM6.72925 4.46527C7.26038 4.19623 7.73364 4.14996 8.12146 4.15839C8.17651 4.15955 8.22992 4.16174 8.28149 4.16467C8.35065 4.16858 8.41656 4.17377 8.47906 4.17938C9.05225 4.21442 9.62415 4.35876 10.1618 4.60962C9.92651 4.789 9.69116 5.03986 9.48871 5.32715C8.88397 6.15259 8.7157 6.94159 8.5816 7.73059C8.41333 8.66394 8.37915 9.59589 8.51324 10.5657L8.47906 11.1739C8.41199 11.5691 8.37915 12.3581 8.78271 13.147C9.01807 13.5787 9.32178 13.9725 9.72534 14.2233C9.74115 14.2402 9.76367 14.2492 9.78674 14.2577C9.81354 14.2676 9.84106 14.2766 9.85944 14.2962C9.62415 14.5835 8.98389 15.4075 8.98389 15.444L8.93378 15.4979C8.67767 15.7742 8.38495 16.09 7.97424 16.09H7.90851C7.67188 16.09 7.40234 15.8742 7.09998 15.5154C6.66223 14.9773 6.46106 14.4391 6.3927 14.1883L6.35986 14.1168C6.24658 13.7455 6.14911 13.427 6.06635 13.1564C5.82916 12.381 5.7121 11.9984 5.68677 11.8914L5.63617 11.6695C5.39978 10.6332 5.27319 10.0784 5.14777 9.27356C4.94531 8.05432 4.97949 7.40686 5.08069 6.86871C5.18195 6.25909 5.38306 5.72095 5.65259 5.36218C6.05615 4.789 6.56097 4.53815 6.72925 4.46527ZM11.8445 4.50171C12.0128 4.46527 12.1811 4.46527 12.3494 4.46527C12.8164 4.46527 13.1979 4.58881 13.5189 4.69275L13.5956 4.71753C14.3358 5.00342 14.8406 5.43506 15.0417 5.61444C15.5137 6.04468 15.7833 6.47491 16.2881 7.30035C16.3893 7.4433 16.5234 7.65912 16.5905 7.94501V8.01788C16.1868 7.87494 15.4125 7.8385 14.8078 8.41309C14.4028 8.77185 14.437 9.30859 14.4712 9.7038C14.4712 9.99109 14.5369 10.3499 15.0417 11.5691C15.2784 12.1072 15.3455 12.2866 15.3784 12.4295C15.4125 12.6089 15.4467 12.7168 15.6492 13.112C15.7833 13.4708 16.0186 13.6852 16.2539 13.7216C16.0856 13.9725 15.8845 14.3677 15.8503 14.8344C15.8381 14.9744 15.8177 15.1548 15.795 15.3566C15.7535 15.7239 15.704 16.1617 15.682 16.5553L15.6702 16.6417C15.6407 16.8571 15.615 17.0442 15.615 17.2028C15.615 17.3282 15.6033 17.4417 15.5936 17.5358C15.5867 17.6026 15.5808 17.6597 15.5808 17.7045C15.5584 17.8458 15.5513 17.9402 15.5394 18.0491C15.5331 18.1066 15.5255 18.1681 15.5137 18.2426C15.4467 18.6014 15.3784 18.8522 15.21 19.1395C14.9077 19.6412 14.1005 20 13.5956 20H13.5273C13.4932 19.9926 13.4537 19.9868 13.4103 19.9804C13.2394 19.9553 13.009 19.9213 12.8214 19.7491C12.4848 19.4619 12.2495 18.8887 12.1811 18.0632C12.1483 17.7045 12.1483 17.1663 12.1483 16.5917C12.1483 15.8742 12.1483 15.1567 12.0812 14.5821C12.047 14.4756 12.0128 14.2233 11.8445 14.0439C11.7446 13.9725 11.6434 13.9374 11.5422 13.9374C11.5422 13.7143 11.5692 13.5189 11.5992 13.3019L11.6105 13.2199C11.6644 12.989 11.7183 12.8505 11.7722 12.7119C11.7853 12.678 11.7985 12.6441 11.8117 12.6089C11.8278 12.5752 11.8512 12.5334 11.875 12.4838C11.9017 12.428 11.929 12.3622 11.9471 12.2866C12.0142 12.1436 12.5176 10.6007 12.0128 9.09418C11.7775 8.48456 11.5422 8.26874 11.3739 8.16083C10.8956 7.85547 10.3265 8.03186 10.0679 8.112L10.0277 8.12439C9.62415 8.2323 9.35461 8.44812 9.15216 8.6275C9.16321 8.53479 9.17065 8.44586 9.17804 8.35828C9.19348 8.1745 9.20837 7.99664 9.2547 7.80206C9.38879 7.0481 9.52289 6.40344 10.0277 5.72095C10.5325 5.03986 11.1714 4.64465 11.8445 4.50171ZM15.2443 8.95123C15.5137 8.69897 15.8253 8.65411 16.0698 8.6723C16.313 8.69055 16.4905 8.77185 16.4905 8.77185C16.5576 8.80688 16.5905 8.84192 16.6588 8.87836C16.6588 9.13629 16.6312 9.36487 16.6009 9.61676L16.5905 9.7038C16.5563 9.91962 16.5234 10.0261 16.5234 10.0976C16.4892 10.1705 16.4892 10.2055 16.5563 10.3134C16.5563 10.5292 16.5563 10.6722 16.5905 10.8516C16.5905 10.9595 16.6246 11.1024 16.6246 11.3182C16.6246 11.7485 16.6575 12.0007 16.5905 12.323L16.5563 12.4295C16.5234 12.7168 16.4892 12.8962 16.4222 13.0041C16.3969 12.9772 16.3765 12.9503 16.359 12.9232C16.3301 12.8785 16.3094 12.8337 16.2881 12.7883C16.0856 12.3945 16.0527 12.323 16.0186 12.1801C15.9844 12.0358 15.9174 11.8564 15.682 11.2832C15.1772 10.0626 15.1443 9.81171 15.1443 9.63232C15.1102 9.38147 15.1102 9.09418 15.2443 8.95123ZM10.196 8.91479C10.3472 8.86151 10.593 8.78723 10.8073 8.8139C10.877 8.82227 10.9453 8.84192 11.0032 8.87836C11.1386 8.94983 11.2398 9.12921 11.3397 9.4165C11.7597 10.621 11.3437 11.9249 11.2801 12.1243L11.274 12.1436C11.2339 12.2068 11.2061 12.2574 11.183 12.3099C11.1667 12.3472 11.1528 12.3853 11.1386 12.4295C11.0374 12.6453 10.9703 12.8247 10.9033 13.1835C10.8691 13.4343 10.8349 13.7216 10.8349 13.9739C10.5325 13.901 10.2643 13.7931 10.0619 13.6501C9.75952 13.4708 9.52289 13.1835 9.35461 12.8247C9.01807 12.2151 9.05225 11.6055 9.11926 11.2832L9.18634 10.5657V10.5292C9.15216 10.2784 9.11926 10.0261 9.11926 9.77527C9.22034 9.63257 9.32141 9.52478 9.42242 9.41705L9.42297 9.4165C9.44922 9.39417 9.47711 9.3692 9.50684 9.34259C9.66766 9.19873 9.88312 9.00586 10.196 8.91479ZM15.9515 9.05774C15.9174 9.0213 15.8332 9.01288 15.7451 9.01849C15.657 9.02271 15.5637 9.03949 15.5137 9.05774C15.3796 9.09418 15.3455 9.09418 15.3126 9.16565C15.2784 9.27356 15.3784 9.38007 15.4125 9.4165C15.4467 9.4165 15.5479 9.52441 15.682 9.48938C15.7833 9.45294 15.8503 9.38147 15.8832 9.34503C15.9174 9.30859 16.0527 9.12921 15.9515 9.05774ZM10.9298 9.36511C10.8613 9.33923 10.7802 9.30859 10.6863 9.31555C10.6483 9.31836 10.6088 9.32678 10.5667 9.34503C10.5325 9.34503 10.4655 9.38147 10.4326 9.45294C10.3984 9.52441 10.4313 9.59589 10.4655 9.63232C10.5325 9.74023 10.6338 9.84814 10.8021 9.84814C10.8021 9.84814 10.9703 9.84674 11.0715 9.73883C11.1057 9.7038 11.2056 9.63232 11.1714 9.52441C11.1714 9.45294 11.0715 9.4165 10.9703 9.38007C10.9573 9.37555 10.9438 9.37042 10.9298 9.36511ZM16.4222 15.0137C16.4564 14.5835 16.6917 14.2598 16.8599 14.0089C16.8941 14.0804 16.9612 14.1168 17.0282 14.1533H17.0953C17.2845 14.2034 17.5399 14.1652 17.7217 14.1379C17.7988 14.1264 17.8625 14.1168 17.9025 14.1168C18.4415 14.0804 18.5427 14.0453 18.5756 14.1168C18.6439 14.2598 18.3402 14.6185 18.1049 14.7979C18.0378 14.8694 17.6685 15.1567 17.1295 15.2296C16.8941 15.2646 16.6575 15.2646 16.388 15.1931C16.4222 15.1216 16.4222 15.0852 16.4222 15.0137ZM10.7692 14.9773C10.8362 14.9058 10.9362 14.8344 11.0032 14.7264C11.0656 14.7432 11.1277 14.752 11.1865 14.7565C11.2552 14.7618 11.3193 14.7615 11.3739 14.7615H11.4081V14.7979C11.4423 15.0852 11.4752 15.444 11.4752 15.8378C11.3625 15.91 11.2499 15.9659 11.1676 16.0059C11.127 16.0257 11.0937 16.0416 11.0715 16.0536C10.9703 16.09 10.3984 16.233 9.82526 15.9821C9.65698 15.9106 9.32043 15.7313 9.35461 15.5883C9.35461 15.5137 9.43512 15.4907 9.58478 15.4479C9.65149 15.4288 9.73199 15.4058 9.82526 15.3725C10.1618 15.301 10.4997 15.1567 10.7692 14.9773Z" fill="#C2B390"/>
</svg>
