<svg width="24" height="24" viewBox="0 0 24 24" fill="none" xmlns="http://www.w3.org/2000/svg">
<path d="M8.12156 12.232V8.812H9.99356C10.6416 8.812 11.1416 8.952 11.4936 9.232C11.8456 9.504 12.0216 9.924 12.0216 10.492C12.0216 11.084 11.8456 11.524 11.4936 11.812C11.1416 12.092 10.6416 12.232 9.99356 12.232H8.12156Z" fill="#C2B390"/>
<path fill-rule="evenodd" clip-rule="evenodd" d="M2 0C0.895431 0 0 0.89543 0 2V22C0 23.1046 0.89543 24 2 24H22C23.1046 24 24 23.1046 24 22V2C24 0.895431 23.1046 0 22 0H2ZM12.5016 8.356C11.9256 7.852 11.1096 7.6 10.0536 7.6H6.70556V16H8.12156V13.444H10.0536C11.1096 13.444 11.9256 13.184 12.5016 12.664C13.0856 12.136 13.3776 11.4 13.3776 10.456C13.3776 9.552 13.0856 8.852 12.5016 8.356ZM17.0958 11.068C17.4318 10.884 17.8278 10.804 18.2838 10.828V9.58C17.7478 9.58 17.2838 9.708 16.8918 9.964C16.5497 10.1804 16.2777 10.4882 16.0758 10.8873V9.628H14.6958V16H16.0758V12.6565C16.1053 12.3453 16.1893 12.0638 16.3278 11.812C16.5118 11.492 16.7678 11.244 17.0958 11.068Z" fill="#C2B390"/>
</svg>
