<svg width="24" height="24" viewBox="0 0 24 24" fill="none" xmlns="http://www.w3.org/2000/svg">
<path fill-rule="evenodd" clip-rule="evenodd" d="M2 0C0.895431 0 0 0.89543 0 2V22C0 23.1046 0.89543 24 2 24H22C23.1046 24 24 23.1046 24 22V2C24 0.895431 23.1046 0 22 0H2ZM15.133 12.6H8.40097V13.812H11.053V21H12.469V13.812H15.133V12.6ZM20.5582 14.088C20.8542 14.2 21.1542 14.352 21.4582 14.544L22.0462 13.356C21.6542 13.1 21.2022 12.892 20.6902 12.732C20.1782 12.572 19.6502 12.492 19.1062 12.492C18.4982 12.492 17.9622 12.588 17.4982 12.78C17.0422 12.972 16.6862 13.244 16.4302 13.596C16.1742 13.94 16.0462 14.348 16.0462 14.82C16.0462 15.252 16.1262 15.608 16.2862 15.888C16.4542 16.168 16.6702 16.396 16.9342 16.572C17.2062 16.748 17.5022 16.896 17.8222 17.016C18.1502 17.128 18.4742 17.228 18.7942 17.316C19.1222 17.404 19.4182 17.504 19.6822 17.616C19.9542 17.728 20.1702 17.872 20.3302 18.048C20.4982 18.216 20.5822 18.44 20.5822 18.72C20.5822 19.064 20.4422 19.332 20.1622 19.524C19.8902 19.716 19.5062 19.812 19.0102 19.812C18.7142 19.812 18.3982 19.764 18.0622 19.668C17.7342 19.572 17.4062 19.432 17.0782 19.248C16.7582 19.064 16.4542 18.84 16.1662 18.576L15.5542 19.74C15.8422 20.004 16.1662 20.236 16.5262 20.436C16.8942 20.636 17.2862 20.796 17.7022 20.916C18.1182 21.028 18.5462 21.084 18.9862 21.084C19.6022 21.084 20.1462 20.984 20.6182 20.784C21.0982 20.584 21.4742 20.304 21.7462 19.944C22.0182 19.576 22.1542 19.144 22.1542 18.648C22.1542 18.216 22.0742 17.86 21.9142 17.58C21.7542 17.292 21.5382 17.056 21.2662 16.872C20.9942 16.688 20.6982 16.54 20.3782 16.428C20.0582 16.308 19.7342 16.2 19.4062 16.104C19.0862 16.008 18.7902 15.908 18.5182 15.804C18.2542 15.692 18.0382 15.552 17.8702 15.384C17.7102 15.208 17.6302 14.984 17.6302 14.712C17.6302 14.408 17.7542 14.176 18.0022 14.016C18.2502 13.856 18.5822 13.776 18.9982 13.776C19.2142 13.776 19.4542 13.8 19.7182 13.848C19.9822 13.896 20.2622 13.976 20.5582 14.088Z" fill="#C2B390"/>
</svg>
