<svg width="80" height="23" viewBox="0 0 80 23" fill="none" xmlns="http://www.w3.org/2000/svg">
<path d="M2.47211 5.44559C4.32981 3.34894 7.10899 2.0286 9.93415 2.10373C11.7867 2.03896 13.6383 2.59508 15.201 3.57173L15.2209 3.68399C14.8374 4.26083 14.3862 4.78931 13.9602 5.33679C12.5112 4.52334 10.8313 4.12266 9.1706 4.31178C6.67602 4.51471 4.38274 6.07942 3.1758 8.24429C2.40698 9.61876 2.07786 11.194 2.23239 12.7595C2.38693 14.3251 3.01775 15.8064 4.04061 17.0057C5.06348 18.205 6.42968 19.0652 7.95674 19.4713C9.4838 19.8774 11.099 19.8101 12.5867 19.2785C15.4639 18.2811 17.588 15.4548 17.706 12.4221C17.7407 11.9471 17.6548 11.4722 17.712 10.9964C18.2491 10.271 18.8157 9.56636 19.3606 8.84358C20.7932 12.5991 19.4257 17.1542 16.2977 19.655C14.3118 21.2987 11.7569 22.1009 9.18274 21.8889C6.80123 21.7199 4.56479 20.6872 2.89727 18.9866C0.959742 17.0912 -0.0970924 14.3615 0.00702917 11.6665C0.0856388 9.37246 0.956206 7.17549 2.47211 5.44559Z" fill="white"/>
<path d="M18.1684 2.7702C18.7194 2.70285 19.3901 2.61218 19.8231 3.04049C20.6248 3.5966 20.6439 4.83749 20.0764 5.56286C19.45 6.38321 18.8117 7.19407 18.1615 7.99542C17.3849 8.83132 16.7576 9.78552 16.0313 10.6646C15.0049 12.1032 13.7866 13.4003 12.8738 14.9201C12.1962 15.7707 11.633 16.7499 10.7602 17.4243C10.0573 17.5538 9.16016 17.6428 8.66038 17.0159C7.32762 15.3847 5.98705 13.7638 4.64215 12.1378C4.41905 11.8758 4.29234 11.5459 4.28293 11.2026C4.10939 9.99363 5.58445 8.93236 6.69248 9.47552C7.25994 9.74926 7.58619 10.314 7.97404 10.7812C8.53109 11.4798 9.10202 12.1689 9.67035 12.8536C9.76406 12.9979 9.97231 12.9935 10.1042 12.9219C11.6799 10.7328 13.4352 8.67071 14.9537 6.43934C15.515 5.78565 15.9862 5.06719 16.5337 4.404C17.0257 3.81767 17.3615 2.99731 18.1684 2.7702Z" fill="white"/>
<path d="M44.6743 16.6195H51.496V7.73633H54.676V19.7843H44.6743V16.6195Z" fill="white"/>
<path d="M54.6744 2.85645H52.0028V5.51525H54.6744V2.85645Z" fill="white"/>
<path d="M45.1359 7.73633V16.6195H39.371C39.358 16.9087 39.371 17.2015 39.371 17.483C39.6916 18.2249 39.9457 18.9935 40.1303 19.78H48.3151V7.73633H45.1359Z" fill="white"/>
<path d="M49.4917 2.68408H46.8201V5.34289H49.4917V2.68408Z" fill="white"/>
<path d="M57.8362 19.7844V2.6001H61.0162V16.6195H61.2296V19.7844H57.8362Z" fill="white"/>
<path d="M64.9702 19.7843H61.0154V16.6195H64.9702V12.5505C64.9702 9.70086 67.0015 7.73633 69.9941 7.73633H73.9264V17.2844C73.9264 20.3162 71.9481 22.2842 68.9026 22.2842H64.9702V19.7843ZM68.1503 19.0935H68.952C70.1277 19.0935 70.6874 18.4553 70.6874 17.1523V10.9012H69.8856C68.7099 10.9012 68.1503 11.5393 68.1503 12.8432V19.0935Z" fill="white"/>
<path d="M75.3668 1.13468V0H80.0002V1.13468H75.3668Z" fill="white"/>
<path d="M67.6704 1.13468V0H72.3038V1.13468H67.6704Z" fill="white"/>
<path d="M50.0878 1.13468V0H54.7203V1.13468H50.0878Z" fill="white"/>
<path d="M43.4934 1.13468V0H48.126V1.13468H43.4934Z" fill="white"/>
<path d="M79.4544 1.68994V2.9127H78.3854C77.8778 2.9127 77.6106 3.20544 77.6106 3.79091C77.6106 4.26931 77.9047 4.5085 78.4652 4.5085H79.9889V5.73213H75.3034V4.5085H76.5676C76.4642 4.29263 76.4094 4.05685 76.4071 3.81768C76.4071 2.56815 77.3156 1.6908 78.5451 1.6908L79.4544 1.68994Z" fill="white"/>
<path d="M79.5082 6.87451H76.3282V22.3809H79.5082V6.87451Z" fill="white"/>
<path d="M46.2379 2.68408H43.5663V5.34289H46.2379V2.68408Z" fill="white"/>
<path d="M42.093 2.64941V19.8147H26.3012C23.4977 19.8147 21.6157 17.8691 21.6157 15.0022V9.42122H24.6769V15.1041C24.6769 16.231 25.3198 16.7681 26.5806 16.7681H39.0327V2.64941H42.093ZM33.2704 7.1674V8.34612H32.2422C31.7528 8.34612 31.496 8.65354 31.496 9.19152C31.496 9.67769 31.7563 9.90825 32.2934 9.90825H33.7598V11.0852H28.5468V9.90825H30.4669C30.3645 9.62674 30.2873 9.42122 30.2873 9.21743C30.2873 8.04043 31.1619 7.17 32.3697 7.17L33.2704 7.1674Z" fill="white"/>
</svg>
