<svg width="109" height="28" viewBox="0 0 109 28" fill="none" xmlns="http://www.w3.org/2000/svg">
<path d="M108.999 19.4798C109.024 19.8436 108.717 20.4773 108.086 21.368C107.449 22.2652 106.967 22.7105 106.636 22.7105C106.636 20.0068 106.411 15.5967 105.961 9.4929C106.524 8.77147 107.299 7.93078 108.286 6.97726L108.999 19.4798Z" fill="white"/>
<path d="M104.667 13.511C104.68 13.6929 104.405 14.3767 103.843 15.5498C103.199 16.8985 102.555 17.7581 101.918 18.1219C101.636 18.2849 100.418 18.5673 98.2556 18.9687V15.5498C98.7056 15.4997 99.4867 15.4056 100.599 15.255C101.418 15.1232 101.949 14.8283 102.193 14.3767C102.193 13.2726 102.043 10.4246 101.736 5.82623C102.624 4.49633 103.405 3.66835 104.061 3.34833C104.186 5.751 104.386 9.13852 104.667 13.511Z" fill="white"/>
<path d="M99.223 18.8194L94.2484 19.5345C94.161 19.547 94.0923 19.5532 94.0298 19.5532C93.5297 19.5532 93.0485 19.1391 92.5861 18.3049H92.3486C91.9112 18.3049 90.7238 18.4931 88.7989 18.8757V15.463C89.5302 15.3502 90.0676 15.2624 90.4114 15.2059C90.9988 15.0929 91.3738 14.9111 91.5487 14.6538C91.4613 14.3339 91.3862 13.9198 91.3238 13.4054C91.9439 11.8127 92.1167 10.5574 93.9047 10.5574C95.7233 10.5574 96.6357 11.2851 96.6357 12.7405C96.6357 13.3302 96.492 13.8571 96.217 14.3215C96.0546 14.5786 95.7607 15.0366 95.3359 15.6951C95.3983 15.8207 95.4921 15.8772 95.6295 15.8772C96.392 15.8772 97.5919 15.7203 99.223 15.4004V18.8194Z" fill="white"/>
<path d="M95.2418 6.60586C94.973 7.24578 94.5106 8.16785 93.8482 9.37246C93.1046 9.29711 92.3421 8.94576 91.5609 8.31855V8.24949C91.5609 8.04872 91.9984 7.12665 92.8796 5.47673C93.1983 5.57711 93.6107 5.71511 94.1231 5.9033C94.8355 6.16042 95.2042 6.39251 95.2418 6.60586Z" fill="white"/>
<path d="M90.0369 18.6832C89.4995 18.7585 88.5808 18.9091 87.2748 19.1349C85.9686 19.3607 85.2499 19.6117 85.1312 19.8939C83.9188 22.5539 82.4877 23.8838 80.8254 23.8838C76.482 23.8838 73.8136 23.6454 72.8261 23.1686C72.8637 22.9679 72.9637 22.7734 73.1199 22.5789C74.6448 21.5501 76.7758 20.7848 79.5067 20.2829C82.144 19.7937 83.7813 19.3043 84.4126 18.8087C84.4875 18.7522 84.6626 18.4762 84.9312 17.9869C85.5499 16.8326 86.1435 16.1363 86.7061 15.8917L90.0369 15.2643V18.6832Z" fill="white"/>
<path d="M79.3387 13.1635C79.3853 15.321 79.0658 16.7336 78.3861 17.3947C77.4559 18.3121 76.154 19.0997 74.4806 19.7573C72.8693 20.4074 71.3889 20.747 70.0331 20.7765C69.352 20.7913 68.4313 20.7047 67.2835 20.5226C65.9977 20.3185 65.3679 20.1 65.4004 19.8672C68.471 18.4889 72.745 16.6766 78.2098 14.4368C78.3649 14.0946 78.4842 13.8285 78.5801 13.6381C78.766 13.2702 78.9555 13.0715 79.1551 13.0547L79.3387 13.1635Z" fill="white"/>
<path d="M80.6908 9.38941C80.322 10.3931 79.8596 11.309 79.2971 12.1434C78.6159 11.9488 78.0784 11.7608 77.6848 11.5724C77.2974 11.3907 77.0848 11.2337 77.0473 11.0957C77.1348 10.7445 77.316 10.2488 77.5972 9.62779C77.9284 8.89391 78.1847 8.46105 78.3661 8.34179C78.6222 8.34179 79.0221 8.46721 79.5658 8.71817C80.1096 8.96913 80.4845 9.19493 80.6908 9.38941Z" fill="white"/>
<path d="M62.6115 18.775C62.6366 19.1388 62.3303 19.7726 61.6992 20.6632C61.0617 21.5604 60.5805 22.0058 60.2493 22.0058C60.2493 19.302 60.0244 14.892 59.5744 8.78807C60.1368 8.06664 60.9117 7.22608 61.8991 6.27243L62.6115 18.775Z" fill="white"/>
<path d="M58.1722 12.915C58.2488 14.0265 56.0395 17.504 54.7017 18.0038C54.2301 18.18 53.3851 18.3993 51.7607 18.6547L51.5921 15.2821C52.0421 15.232 53.0009 14.9682 54.1039 14.7211C54.913 14.5399 55.4537 14.2323 55.6974 13.7807C55.6974 12.6766 55.5475 9.82862 55.2413 5.23019C56.1286 3.9003 56.9099 3.07232 57.566 2.75229C57.6909 5.1551 57.8911 8.54249 58.1722 12.915Z" fill="white"/>
<path d="M53.1342 18.4164L48.2159 19.2695C48.1408 19.2884 48.0721 19.301 47.9971 19.301C47.4972 19.301 47.016 18.8807 46.5473 18.04H46.3098C46.0098 18.04 44.7287 18.2597 42.4852 18.6987V15.2987C42.5977 15.2861 43.2227 15.167 44.3726 14.9348C44.9724 14.822 45.3474 14.6399 45.5037 14.3828C45.4223 14.0628 45.3474 13.404 45.2849 12.8896C45.9027 11.295 46.0767 10.0291 47.8659 10.0291C49.6845 10.0291 50.5969 10.7568 50.5969 12.2184C50.5969 12.8018 50.4533 13.329 50.1719 13.793C50.0159 14.0502 49.7221 14.7529 49.297 15.4116C49.3595 15.5371 49.4533 15.5935 49.5846 15.5935C49.8907 15.5935 51.0718 15.3928 53.1342 14.985V18.4164Z" fill="white"/>
<path d="M44.7904 18.2488C40.2469 19.121 38.6443 19.3556 37.3693 19.3556C36.0195 19.3556 35.1008 19.3117 34.6259 19.2302C33.6009 19.0419 32.8636 18.5966 32.4073 17.8877C29.7889 18.7409 28.8831 19.1675 27.3208 19.1675C27.1959 19.1675 27.0896 19.1173 27.0083 19.0232L26.9896 18.8476C26.9782 18.7408 27.052 18.4209 27.1334 17.8877C26.6708 17.9316 25.746 18.0571 24.3523 18.2641V14.8452C24.7773 14.8075 25.5227 14.7367 26.5645 14.588C27.1036 14.5111 27.6757 14.3608 28.2145 14.0359C28.8531 13.6507 29.4956 13.164 30.2329 12.6934L30.3205 12.7123L30.4704 12.957C30.4704 12.9946 30.363 13.2766 30.1581 13.8038C29.951 14.3364 29.8456 14.7323 29.8456 15.0082L29.9705 15.1024H30.8141C31.2519 15.1024 30.756 14.9765 31.6949 14.7134C32.6802 14.4375 33.326 14.1865 33.6197 13.9418C33.9821 13.0574 34.7259 11.7964 35.8321 10.1591C36.9944 8.45278 37.9007 7.3361 38.563 6.82173C39.2942 6.24458 40.1254 5.95601 41.0502 5.95601C41.8564 5.95601 42.5189 6.1881 43.0314 6.65857C43.5438 7.12288 43.8 7.75638 43.8 8.55316C43.8 9.08628 43.6187 9.78897 43.2688 10.6736C42.6813 12.1352 41.9876 13.2204 41.1814 13.9168C40.6566 14.3747 39.5692 15.0208 37.9193 15.8552H38.6005C39.063 15.8552 40.2594 15.6517 44.7904 14.8426V18.2488ZM41.4565 10.8679C41.4565 10.1779 40.7253 9.83287 39.2567 9.83287C38.4504 9.83287 37.6006 10.2155 36.7069 10.9746C35.807 11.7399 35.2946 12.5178 35.1759 13.3208L35.2508 13.6156C35.957 13.6156 37.0694 13.2895 38.588 12.637C40.1066 11.9846 41.0628 11.3949 41.4565 10.8679Z" fill="white"/>
<path d="M26.0701 17.9941C25.5326 18.0694 24.6139 18.22 23.3078 18.4458C22.0017 18.6716 21.283 18.9226 21.1643 19.2048C19.952 21.8648 18.5209 23.1947 16.8584 23.1947C12.5152 23.1947 9.84661 22.9563 8.85924 22.4795C8.89671 22.2787 8.99671 22.0843 9.15298 21.8898C10.6778 20.8609 12.8088 20.0957 15.5399 19.5938C18.1771 19.1044 19.8145 18.6151 20.4456 18.1196C20.5207 18.0631 20.6956 17.787 20.9643 17.2978C21.583 16.1435 22.1767 15.4472 22.7392 15.2026L26.0701 14.5751V17.9941Z" fill="white"/>
<path d="M17.2063 25.0745C17.148 25.4987 16.8585 26.3009 16.3379 27.4813C16.0861 27.6384 15.3537 27.7719 14.1529 27.8886C13.116 27.9819 12.3259 28.0184 11.7766 27.9913C11.633 27.9842 11.4592 27.9569 11.2675 27.9098L11.2745 27.7656C11.2969 27.3082 11.5446 26.5919 12.0243 25.6105C12.3619 25.489 13.1942 25.3604 14.5212 25.2185C15.7037 25.0948 16.5634 25.0428 17.1126 25.0699L17.2063 25.0745Z" fill="white"/>
<path d="M18.5936 13.8739L18.6686 14.2441C18.6686 15.4109 18.2686 16.3142 17.4749 16.9541C16.7937 17.5061 15.8891 17.8859 14.7627 18.0645C14.108 18.1682 11.9362 18.4725 10.2988 18.7171L10.2006 15.2994C11.5317 15.0799 15.0751 14.5014 18.5936 13.8739Z" fill="white"/>
<path d="M10.6491 18.666L7.2681 19.1616L7.06809 19.0676C7.00568 18.7539 6.99942 18.1016 7.04942 17.1228C7.08689 16.3074 7.01822 15.6674 6.84942 15.2157C6.66194 15.5357 6.4994 15.7554 6.3494 15.8934C4.34334 16.3889 3.06223 16.6398 2.49354 16.6398C1.56871 16.6398 0.918694 16.4391 0.550015 16.0375C0.181335 15.6298 0 14.9586 0 14.0177C0 13.6788 0.331211 12.9073 0.987494 11.7091C1.69365 10.4231 2.53114 9.51346 3.49344 8.98021C4.45587 8.44068 5.68084 8.17098 7.16809 8.17098C7.55557 8.17098 7.84305 8.21488 8.02425 8.29639C8.30559 9.64516 8.55547 11.9976 8.77427 15.3664L8.88681 15.4354L10.6491 15.2535V18.666ZM6.82435 12.4994V11.477C6.64327 11.3829 6.437 11.3327 6.2182 11.3327C5.4683 11.3327 4.66841 11.4581 3.81852 11.7091C2.77475 12.0227 2.12486 12.4118 1.86859 12.8822C1.94366 13.202 2.38114 13.3653 3.1873 13.3653C4.35587 13.3653 5.49951 13.1456 6.62447 12.7002L6.82435 12.4994Z" fill="white"/>
<path d="M8.31273 3.56189C8.27527 3.96959 8.01273 4.78512 7.52525 6.01463C7.3191 6.17779 6.58788 6.34711 5.34424 6.52914C4.25687 6.69216 3.46312 6.77381 2.96323 6.77381L2.56322 6.73607L2.54455 6.51026C2.50708 6.0335 2.72576 5.29949 3.20071 4.31465C3.59445 4.15778 4.40061 3.98846 5.61918 3.80027C6.78162 3.63083 7.60658 3.54302 8.11273 3.54302L8.31273 3.56189Z" fill="white"/>
<path fill-rule="evenodd" clip-rule="evenodd" d="M93.1172 1.27595C93.1223 1.1703 93.3287 0.998541 93.3979 0.93487C93.4821 0.857335 93.6589 0.731791 93.81 0.739365C94.008 0.74912 94.1444 1.20804 94.133 1.44051C94.1206 1.69289 94.086 1.78108 94.079 1.87825C94.0022 1.86811 93.6306 1.67543 93.5494 1.62922C93.4425 1.56837 93.111 1.40175 93.1172 1.27595ZM92.627 1.65951C92.6082 2.04192 93.163 2.38069 93.4688 2.52638C93.5396 2.56002 93.5789 2.58633 93.653 2.60764C93.5945 2.79082 92.7445 3.44101 92.5636 3.56283C91.9339 3.98696 91.3418 4.37387 90.6644 4.73638L89.5829 5.50171C89.5172 5.54613 89.4244 5.59208 89.3981 5.67437C89.4983 5.73419 89.5332 5.69504 89.6378 5.64818C90.3338 5.52995 90.0748 5.68002 91.4624 4.84832L92.8984 3.83074C92.9658 3.77182 93.0182 3.71957 93.0851 3.66001L93.2723 3.49005C93.4663 3.31418 93.6227 3.14628 93.783 2.94037C93.8113 2.90405 93.8268 2.87362 93.858 2.8346C93.8929 2.79095 93.9068 2.77889 93.9238 2.71894C93.9686 2.73177 93.9916 2.74782 94.0412 2.76772C94.4736 2.94089 94.3915 2.99223 94.6072 2.63524C94.6627 2.54333 94.7526 2.39237 94.7585 2.27093C94.7612 2.21702 94.6259 2.16811 94.529 2.12202C94.4456 2.08261 94.3593 2.03075 94.285 1.98634C94.4276 1.48531 94.5536 1.47992 94.5882 0.777875C94.5967 0.605604 94.5577 0.402654 94.5051 0.278264C94.3975 0.0247362 94.2414 0.0102305 94.0412 0.000346149C93.5893 -0.02199 92.6573 1.04193 92.627 1.65951Z" fill="white"/>
<path d="M52.908 1.00068C52.9067 1.63649 52.46 2.26422 51.5769 2.88385C50.0393 3.37345 47.5668 4.18256 44.1505 5.31117C44.1518 4.6968 44.5285 4.11183 45.2806 3.55612C46.696 3.07345 49.2385 2.2216 52.908 1.00068Z" fill="white"/>
<path d="M18.8247 4.01003C18.8247 4.39976 18.6022 4.78512 18.1618 5.16599C17.3941 5.46804 16.1597 5.96727 14.4543 6.66341C14.4543 6.28691 14.6417 5.92786 15.0169 5.58627C15.7235 5.28858 16.9928 4.76317 18.8247 4.01003Z" fill="white"/>
<path d="M19.0166 7.13181C19.0166 7.77109 18.9076 8.2965 18.6852 8.70368C18.4408 9.16337 18.1006 9.39546 17.6689 9.39546C17.5162 9.39546 17.3766 9.36915 17.2501 9.32101C17.1193 9.26851 16.9753 9.18969 16.8139 9.08019C16.6395 9.38673 16.4737 9.61882 16.321 9.77197C16.0462 10.0478 15.7627 10.1835 15.4662 10.1835C15.1085 10.1835 14.8425 10.0609 14.6636 9.82011C14.4848 9.57492 14.3976 9.24219 14.3976 8.81755C14.3976 8.59419 14.428 8.37532 14.4848 8.16518C14.5458 7.95067 14.6331 7.70985 14.7421 7.43386L15.0037 7.32013C15.0037 7.39009 14.995 7.49959 14.9777 7.65286C14.9601 7.80613 14.9558 7.93309 14.9558 8.03373C14.9558 8.22204 14.9907 8.39277 15.0692 8.54168C15.1434 8.69059 15.2612 8.76504 15.4139 8.76504C15.7802 8.76504 16.0724 8.52846 16.295 8.05131C16.3996 7.83245 16.526 7.40331 16.6787 6.76403L16.9404 6.68958C17.0102 7.09689 17.0625 7.34195 17.1061 7.43386C17.2108 7.69227 17.3809 7.81922 17.6165 7.81922C17.9436 7.81922 18.1965 7.60908 18.3841 7.18444C18.5368 6.84722 18.6153 6.49703 18.6153 6.13362L18.877 6.05916C18.9119 6.22116 18.9425 6.40062 18.973 6.60203C19.0035 6.80344 19.0166 6.97867 19.0166 7.13181Z" fill="white"/>
</svg>
